/* XPM */
static char * application_xpm[] = {
"44 24 80 1",
" 	c None",
".	c #DCA4A4",
"+	c #FF0000",
"@	c #F04646",
"#	c #F52F2F",
"$	c #000000",
"%	c #464646",
"&	c #F91717",
"*	c #FA1111",
"=	c #380000",
"-	c #2F2F2F",
";	c #E67575",
">	c #FD0505",
",	c #E82929",
"'	c #550000",
")	c #E18C8C",
"!	c #D7BBBB",
"~	c #EB5E5E",
"{	c #FE0101",
"]	c #EA6464",
"^	c #651010",
"/	c #8D0000",
"(	c #010101",
"_	c #A5A5A5",
":	c #EC5858",
"<	c #F62626",
"[	c #757575",
"}	c #AA0000",
"|	c #8D8D8D",
"1	c #E41F1F",
"2	c #832F2F",
"3	c #933E3E",
"4	c #BBBBBB",
"5	c #C13434",
"6	c #A34E4E",
"7	c #FE0404",
"8	c #BFB0B0",
"9	c #171717",
"0	c #311515",
"a	c #E20000",
"b	c #5E5E5E",
"c	c #E13737",
"d	c #F13D3D",
"e	c #E28585",
"f	c #A4A4A4",
"g	c #474747",
"h	c #B25E5E",
"i	c #8C8C8C",
"j	c #D82F2F",
"k	c #E83E3E",
"l	c #B90F0F",
"m	c #1C0000",
"n	c #D40F0F",
"o	c #C11717",
"p	c #710000",
"q	c #B10808",
"r	c #F62929",
"s	c #982727",
"t	c #EA0808",
"u	c #E67373",
"v	c #F91A1A",
"w	c #6E3737",
"x	c #E38484",
"y	c #D3D3D3",
"z	c #997D7D",
"A	c #020202",
"B	c #D2D2D2",
"C	c #D6BBBB",
"D	c #030303",
"E	c #191919",
"F	c #D27D7D",
"G	c #BCBCBC",
"H	c #BDBDBD",
"I	c #B8B8B8",
"J	c #560000",
"K	c #C60000",
"L	c #A66E6E",
"M	c #A90000",
"N	c #BF4E4E",
"O	c #767676",
"       .++@                                 ",
"       #++#                                 ",
"      .++++$%                               ",
"      &*@++=-                               ",
"     ;+>,++'$     .)@ !~@~!     );; .@@;    ",
"    !&{]^++/(_  #+++#~++++#  .&+++~#++++;   ",
"    :+<['++}(|  !;+++12;+++34 .@+++56@+++[  ",
"   !+7890++a(b   )++/$-b/++}-  c++=$b-a++'[ ",
"   d+eb$f+++(g   ~++'$$-h++}$i &++$$$bj++'$ ",
"  .++k}l@+++=9   @++m$b )++}$% ++n$$f @++'$i",
"  #+@o}c@&++'$   &++$$i )++p$%.++q$$  @++m$i",
" ;+rf$$%%s++/$f  ++n$$4 @++=$%)++p$-  ++t$$i",
" &+u-$%%%2++}$i .++q$$  ++1$$[~++'$% )++s$$4",
";+v[$b    ++a$b )++'$- ~++w((_@++$$[ &+&($9 ",
"++x9$4    +++$% ~++p$%;++)$(-y&++m$z@+&z(A[ ",
"+++'[   @+++++q @++++++#.b$(fB+++++++~C9DE  ",
"))'m    .)))''= +++='6.y[$$| )++q''F!G%$9H  ",
"  $$$i    g(((((++o($$$$$-f  )++'($$(($bI   ",
"  iii4    _||||h++}($fiif    @++'(%i||4     ",
"               )++JAg        @++($i         ",
"             !~&++K}s      .@+++}}L         ",
"             .@@@jM}N      ;@@@o}}.         ",
"               4b9$$-g[      f%$$$%%_       ",
"               f%%%%%gO      [%%%%%%_       "};
