/* XPM */
static char * application_xpm[] = {
"43 30 6 1",
" 	c None",
".	c #000000",
"+	c #BBBBBB",
"@	c #555555",
"#	c #777777",
"$	c #999999",
"                              ..           ",
"                            ......         ",
"                          ..........       ",
"                        ..............     ",
"                      ......++..........   ",
"                    ......++..+........... ",
"                  .......+.....+...........",
"                ..........+..++............",
"              ......++.....++.............@",
"            ......++..+......+..........@@@",
"          .......+.....+......+.......@@@@ ",
"        ..........+..++.............@@@# @ ",
"      ......++.....++.............@@@#@  @ ",
"    ......++..+......+..........@@@@  @  @ ",
"  .......+.....++.....+.......@@@# @  @  @ ",
" .........+..++..+..........@@@#@  @  @  @ ",
" ..........++.....+.......@@@@  @  @  @    ",
" @...........+..........@@@# @  @  @  $    ",
"  @@..........+.......@@@#@  @  @  @       ",
"  @  @..............@@@@  @  @  @          ",
"  @  @  ..........@@@# @  @  @  $          ",
"  @  @    ......@@@#@  @  @  @             ",
"  @  $      ..@@@@  @  @  @                ",
"  @          @@# @  @  @  $                ",
"             $@  @  @  @                   ",
"              @  @  @                      ",
"              @  @  $                      ",
"              @  @                         ",
"              @                            ",
"              $                            "};
