/* XPM */
static char * gear_on_folder_xpm[] = {
"36 31 671 2",
"  	c None",
". 	c #415962",
"+ 	c #001020",
"@ 	c #000418",
"# 	c #000C29",
"$ 	c #000018",
"% 	c #4A5D73",
"& 	c #526573",
"* 	c #18384A",
"= 	c #83AAC5",
"- 	c #8BB2D5",
"; 	c #8BAAD5",
"> 	c #94B6E6",
", 	c #83A1CD",
"' 	c #203C62",
") 	c #41556A",
"! 	c #314C5A",
"~ 	c #183852",
"{ 	c #83B2D5",
"] 	c #6A9DCD",
"^ 	c #7BAADE",
"/ 	c #6A95CD",
"( 	c #73A1DE",
"_ 	c #73A1D5",
": 	c #7BA1CD",
"< 	c #183C5A",
"[ 	c #394C62",
"} 	c #314862",
"| 	c #395573",
"1 	c #7391B4",
"2 	c #6299C5",
"3 	c #73AEE6",
"4 	c #4A85C5",
"5 	c #5A95D5",
"6 	c #528DD5",
"7 	c #6A9DDE",
"8 	c #7BA5DE",
"9 	c #7BA5D5",
"0 	c #4A6173",
"a 	c #525D62",
"b 	c #000010",
"c 	c #001429",
"d 	c #183052",
"e 	c #839DC5",
"f 	c #8BAEDE",
"g 	c #62A5DE",
"h 	c #529DDE",
"i 	c #5299E6",
"j 	c #62A5F6",
"k 	c #4A89D5",
"l 	c #6299DE",
"m 	c #83B2E6",
"n 	c #83AED5",
"o 	c #000C18",
"p 	c #000410",
"q 	c #081429",
"r 	c #000C20",
"s 	c #000818",
"t 	c #000008",
"u 	c #4A555A",
"v 	c #203C52",
"w 	c #8BA5C5",
"x 	c #83A1C5",
"y 	c #94AED5",
"z 	c #6A99CD",
"A 	c #5A99D5",
"B 	c #5299DE",
"C 	c #5AA1EE",
"D 	c #4A95E6",
"E 	c #5291E6",
"F 	c #62A5EE",
"G 	c #5A95DE",
"H 	c #6A9DD5",
"I 	c #73A1CD",
"J 	c #4D6377",
"K 	c #3A3325",
"L 	c #7C7867",
"M 	c #524733",
"N 	c #3B3F47",
"O 	c #8BA1CD",
"P 	c #839DBD",
"Q 	c #8399BD",
"R 	c #7B99BD",
"S 	c #7B95B4",
"T 	c #7389A4",
"U 	c #73819C",
"V 	c #101C31",
"W 	c #415062",
"X 	c #83AAD5",
"Y 	c #73A5D5",
"Z 	c #739DCD",
"` 	c #83A5D5",
" .	c #6291CD",
"..	c #629DDE",
"+.	c #5A9DDE",
"@.	c #5A9DE6",
"#.	c #629DE6",
"$.	c #6299D5",
"%.	c #3C546F",
"&.	c #F0E9DA",
"*.	c #FFFFFF",
"=.	c #FFF9E3",
"-.	c #392F1C",
";.	c #5980AA",
">.	c #6291C5",
",.	c #6291BD",
"'.	c #628DBD",
").	c #5A89C5",
"!.	c #5289C5",
"~.	c #4A85BD",
"{.	c #4A79A4",
"].	c #416D94",
"^.	c #395983",
"/.	c #001439",
"(.	c #73AADE",
"_.	c #4A7DB4",
":.	c #5A7A9A",
"<.	c #2D4157",
"[.	c #719ACE",
"}.	c #628DC5",
"|.	c #2A425D",
"1.	c #F2F1F0",
"2.	c #F4EBDA",
"3.	c #6B5932",
"4.	c #577B9C",
"5.	c #417DAC",
"6.	c #4175B4",
"7.	c #223D5F",
"8.	c #1C466E",
"9.	c #3179B4",
"0.	c #3971A4",
"a.	c #396994",
"b.	c #315583",
"c.	c #000431",
"d.	c #001018",
"e.	c #7BAEDE",
"f.	c #62A1DE",
"g.	c #5A85B4",
"h.	c #083873",
"i.	c #00144A",
"j.	c #000C39",
"k.	c #001039",
"l.	c #32394D",
"m.	c #55421F",
"n.	c #908879",
"o.	c #34270A",
"p.	c #3F4654",
"q.	c #001031",
"r.	c #000411",
"s.	c #E3DDCE",
"t.	c #FFFFFA",
"u.	c #E8DDCD",
"v.	c #423009",
"w.	c #2A2F40",
"x.	c #001841",
"y.	c #827C70",
"z.	c #4B412B",
"A.	c #061029",
"B.	c #000C31",
"C.	c #203039",
"D.	c #00285A",
"E.	c #18447B",
"F.	c #8BB2DE",
"G.	c #7B9EC5",
"H.	c #1A1000",
"I.	c #D3C9B3",
"J.	c #321E00",
"K.	c #8A8A82",
"L.	c #C2BDAB",
"M.	c #F7F3E9",
"N.	c #AEA38F",
"O.	c #3E3C36",
"P.	c #54738F",
"Q.	c #263645",
"R.	c #B6B0A1",
"S.	c #FFFFED",
"T.	c #1C1405",
"U.	c #425C6F",
"V.	c #7BA5CD",
"W.	c #7B9DCD",
"X.	c #839DCD",
"Y.	c #527194",
"Z.	c #182839",
"`.	c #5A5952",
" +	c #83B6E6",
".+	c #6AA5E6",
"++	c #5A85BD",
"@+	c #001C4A",
"#+	c #73A5DE",
"$+	c #6AAAE6",
"%+	c #70A6E0",
"&+	c #060609",
"*+	c #EFEFEF",
"=+	c #E8D9BC",
"-+	c #E5DAC4",
";+	c #AC9E82",
">+	c #887D66",
",+	c #A59577",
"'+	c #F9F0DF",
")+	c #C7BEAF",
"!+	c #36290D",
"~+	c #FFFAF2",
"{+	c #ECDCC0",
"]+	c #302614",
"^+	c #373A3D",
"/+	c #508BC4",
"(+	c #4A81BD",
"_+	c #5285C5",
":+	c #4A79AC",
"<+	c #41698B",
"[+	c #000C10",
"}+	c #000810",
"|+	c #83B6F6",
"1+	c #467AAF",
"2+	c #3E3013",
"3+	c #FFFCF1",
"4+	c #D7D1C4",
"5+	c #43310D",
"6+	c #2F1E00",
"7+	c #554320",
"8+	c #88754E",
"9+	c #A28B5D",
"0+	c #604E2A",
"a+	c #816F4C",
"b+	c #FFFCEF",
"c+	c #6B5A3B",
"d+	c #C3B492",
"e+	c #49391C",
"f+	c #3F3A30",
"g+	c #466B88",
"h+	c #3981BD",
"i+	c #528DCD",
"j+	c #3971B4",
"k+	c #3975AC",
"l+	c #10406A",
"m+	c #001418",
"n+	c #8BBEEE",
"o+	c #5A8DBD",
"p+	c #000839",
"q+	c #8BBAEE",
"r+	c #417DB4",
"s+	c #4A8DCD",
"t+	c #4A91CD",
"u+	c #5291CD",
"v+	c #365F81",
"w+	c #D1C3A9",
"x+	c #B7A989",
"y+	c #200D00",
"z+	c #A09176",
"A+	c #DBD1BF",
"B+	c #7C6941",
"C+	c #DFD9CA",
"D+	c #FFFEFA",
"E+	c #402E0B",
"F+	c #181711",
"G+	c #4C637A",
"H+	c #3979B4",
"I+	c #3165AC",
"J+	c #3169AC",
"K+	c #3971AC",
"L+	c #295573",
"M+	c #5A8DC5",
"N+	c #4E6675",
"O+	c #E2DED3",
"P+	c #1C0900",
"Q+	c #CEBD9B",
"R+	c #D9CDB3",
"S+	c #D3C3A5",
"T+	c #B9A67D",
"U+	c #DBD2BE",
"V+	c #FFFBF0",
"W+	c #7F6C48",
"X+	c #FEF7EB",
"Y+	c #DCCDB2",
"Z+	c #19242F",
"`+	c #1869AC",
" @	c #2065A4",
".@	c #2965A4",
"+@	c #2961A4",
"@@	c #20599C",
"#@	c #29659C",
"$@	c #29507B",
"%@	c #000408",
"&@	c #5A89BD",
"*@	c #83B6EE",
"=@	c #7BAEE6",
"-@	c #83BAEE",
";@	c #7CA9D4",
">@	c #988F72",
",@	c #372C18",
"'@	c #A89776",
")@	c #F7F2E8",
"!@	c #C4B086",
"~@	c #FFFFF8",
"{@	c #FFFFF7",
"]@	c #FFFFFC",
"^@	c #B9A57A",
"/@	c #5C471E",
"(@	c #E6DCC7",
"_@	c #B39C72",
":@	c #1F1F1E",
"<@	c #5394D1",
"[@	c #62AAE6",
"}@	c #62A5E6",
"|@	c #6AA5EE",
"1@	c #5A99DE",
"2@	c #416D9C",
"3@	c #73AAE6",
"4@	c #273C51",
"5@	c #131410",
"6@	c #31312D",
"7@	c #958058",
"8@	c #DED0B4",
"9@	c #F3F3F0",
"0@	c #2F1700",
"a@	c #F4EFE1",
"b@	c #CBB996",
"c@	c #FFFEF0",
"d@	c #3D3931",
"e@	c #000000",
"f@	c #13110D",
"g@	c #816F4B",
"h@	c #7F6F4F",
"i@	c #C5B391",
"j@	c #F6EBD5",
"k@	c #7E6B47",
"l@	c #231D14",
"m@	c #4A4231",
"n@	c #4C432F",
"o@	c #202A38",
"p@	c #4681D0",
"q@	c #3981C5",
"r@	c #295D8B",
"s@	c #6AA1DE",
"t@	c #1F201E",
"u@	c #E5D6B7",
"v@	c #B9B6AA",
"w@	c #352400",
"x@	c #F3EFE4",
"y@	c #F9EBCD",
"z@	c #726C62",
"A@	c #9E9278",
"B@	c #ECE1CA",
"C@	c #4E3F23",
"D@	c #EEE1C7",
"E@	c #DACDB6",
"F@	c #E1D7BD",
"G@	c #B7A683",
"H@	c #DED3C1",
"I@	c #FFFFFB",
"J@	c #130E07",
"K@	c #254973",
"L@	c #2071C5",
"M@	c #10558B",
"N@	c #629DD5",
"O@	c #414237",
"P@	c #F0E3C8",
"Q@	c #A29B8B",
"R@	c #524324",
"S@	c #E8E1D0",
"T@	c #FFF2D9",
"U@	c #645D4E",
"V@	c #92866E",
"W@	c #FFFFF4",
"X@	c #66532B",
"Y@	c #DACCAC",
"Z@	c #EAE2D1",
"`@	c #F0E6D5",
" #	c #A99671",
".#	c #BFAF93",
"+#	c #FFFFEB",
"@#	c #2B2212",
"##	c #234064",
"$#	c #206DC5",
"%#	c #185594",
"&#	c #000820",
"*#	c #73AAD5",
"=#	c #5A9DD5",
"-#	c #83AEE6",
";#	c #251F10",
">#	c #897C63",
",#	c #A09681",
"'#	c #C0B195",
")#	c #FCF2E0",
"!#	c #DFDDD8",
"~#	c #684F1D",
"{#	c #D7C5A6",
"]#	c #EFEFED",
"^#	c #2F2613",
"/#	c #2B1C04",
"(#	c #43330D",
"_#	c #B2A487",
":#	c #2C200A",
"<#	c #F1E2C8",
"[#	c #F0E8DA",
"}#	c #EDE1CA",
"|#	c #9F8B63",
"1#	c #5F5748",
"2#	c #7A725F",
"3#	c #5F5035",
"4#	c #030000",
"5#	c #30445B",
"6#	c #296DBD",
"7#	c #20558B",
"8#	c #5285B4",
"9#	c #5088C6",
"0#	c #3B4B5B",
"a#	c #3B372D",
"b#	c #1F190B",
"c#	c #A89B86",
"d#	c #68562E",
"e#	c #E6DFD3",
"f#	c #D8CCB4",
"g#	c #C1B290",
"h#	c #FFFFEE",
"i#	c #FFFFF6",
"j#	c #B3AB9E",
"k#	c #B4A282",
"l#	c #EEE5D2",
"m#	c #E0D7C1",
"n#	c #FFF8E2",
"o#	c #544529",
"p#	c #231E16",
"q#	c #3A3A35",
"r#	c #45494C",
"s#	c #325E92",
"t#	c #205583",
"u#	c #5295CD",
"v#	c #5281B4",
"w#	c #4A91DE",
"x#	c #4A90E5",
"y#	c #5295E6",
"z#	c #486C91",
"A#	c #C9C3B9",
"B#	c #7D6F4F",
"C#	c #A4977C",
"D#	c #806C44",
"E#	c #8C806A",
"F#	c #675B3F",
"G#	c #221300",
"H#	c #A5997E",
"I#	c #F8EFD8",
"J#	c #DDD2BB",
"K#	c #E2D7C0",
"L#	c #E5D3B1",
"M#	c #2D3E4E",
"N#	c #327ABE",
"O#	c #2980CC",
"P#	c #297CD3",
"Q#	c #2075D5",
"R#	c #206DBD",
"S#	c #185994",
"T#	c #5A91C5",
"U#	c #4A7DAC",
"V#	c #4A8DDE",
"W#	c #4A91E6",
"X#	c #574E39",
"Y#	c #8E7B57",
"Z#	c #A09374",
"`#	c #FFFFFD",
" $	c #D2C8B4",
".$	c #877654",
"+$	c #85775B",
"@$	c #D7C9AE",
"#$	c #F2E8D3",
"$$	c #E1D8C4",
"%$	c #DBCDB2",
"&$	c #FFF9E2",
"*$	c #3E3523",
"=$	c #3271B3",
"-$	c #2981D5",
";$	c #297DD5",
">$	c #297DDE",
",$	c #1869BD",
"'$	c #7399B4",
")$	c #5285AC",
"!$	c #5289B4",
"~$	c #5AA1E6",
"{$	c #4191DE",
"]$	c #4191E6",
"^$	c #1A3451",
"/$	c #1D2D3C",
"($	c #5F574A",
"_$	c #B2A387",
":$	c #BAA886",
"<$	c #E5DAC6",
"[$	c #FFFAEE",
"}$	c #ECE4D1",
"|$	c #DBCEB7",
"1$	c #D8CAB1",
"2$	c #F8F1DD",
"3$	c #84785E",
"4$	c #7C6C4C",
"5$	c #1F1605",
"6$	c #346AA9",
"7$	c #2079DE",
"8$	c #1865BD",
"9$	c #000829",
"0$	c #8BAAC5",
"a$	c #5A85AC",
"b$	c #39719C",
"c$	c #00205A",
"d$	c #5AA1DE",
"e$	c #418DDE",
"f$	c #1A3A58",
"g$	c #767777",
"h$	c #FAFCFE",
"i$	c #A19885",
"j$	c #8A795B",
"k$	c #FFFFF2",
"l$	c #E0D3B8",
"m$	c #E1D5C0",
"n$	c #E8DDCC",
"o$	c #DDD2BC",
"p$	c #EFE4D0",
"q$	c #F2E4C6",
"r$	c #F7EBD0",
"s$	c #897A5F",
"t$	c #988664",
"u$	c #FFFFE5",
"v$	c #AB9D82",
"w$	c #070300",
"x$	c #357CC7",
"y$	c #2079D5",
"z$	c #2079CD",
"A$	c #2069B4",
"B$	c #6289B4",
"C$	c #000841",
"D$	c #6AAAEE",
"E$	c #4189D5",
"F$	c #3570AF",
"G$	c #3A3227",
"H$	c #FFEFD1",
"I$	c #291B02",
"J$	c #302512",
"K$	c #BAB5A6",
"L$	c #F1E7D0",
"M$	c #F3E8D1",
"N$	c #EBE1CA",
"O$	c #E2D2B6",
"P$	c #D3C4A3",
"Q$	c #B0A894",
"R$	c #281E0B",
"S$	c #150C00",
"T$	c #E9D9B9",
"U$	c #FFFDE7",
"V$	c #FFFFE7",
"W$	c #3A301F",
"X$	c #453C2C",
"Y$	c #257AC3",
"Z$	c #1879CD",
"`$	c #2079C5",
" %	c #2069A4",
".%	c #185983",
"+%	c #527DA4",
"@%	c #316194",
"#%	c #00185A",
"$%	c #5295DE",
"%%	c #4185D5",
"&%	c #283A48",
"*%	c #77684B",
"=%	c #D6C7A6",
"-%	c #2E220D",
";%	c #28231C",
">%	c #3A526A",
",%	c #224A71",
"'%	c #130B05",
")%	c #877247",
"!%	c #857248",
"~%	c #9C8353",
"{%	c #211400",
"]%	c #101112",
"^%	c #202B33",
"/%	c #0E0902",
"(%	c #C5B799",
"_%	c #96865F",
":%	c #5C5242",
"<%	c #2774B6",
"[%	c #1875C5",
"}%	c #2075BD",
"|%	c #18699C",
"1%	c #20557B",
"2%	c #39597B",
"3%	c #416994",
"4%	c #41699C",
"5%	c #7BAEF6",
"6%	c #4A8DD5",
"7%	c #3985D5",
"8%	c #3989D5",
"9%	c #3F443E",
"0%	c #3A3732",
"a%	c #466987",
"b%	c #3989DE",
"c%	c #398DD5",
"d%	c #1D2F43",
"e%	c #BDB29A",
"f%	c #EFE3CA",
"g%	c #E4D8C2",
"h%	c #2F3841",
"i%	c #2D73B6",
"j%	c #2985D5",
"k%	c #2767A5",
"l%	c #4F493D",
"m%	c #396EA6",
"n%	c #2075C5",
"o%	c #001C39",
"p%	c #294C73",
"q%	c #416594",
"r%	c #6A99D5",
"s%	c #3981CD",
"t%	c #3D86D2",
"u%	c #3E6184",
"v%	c #3F6C9B",
"w%	c #375062",
"x%	c #B6A88E",
"y%	c #FFFFEC",
"z%	c #E6D8BC",
"A%	c #3D6D97",
"B%	c #3181D5",
"C%	c #297DCD",
"D%	c #3171B4",
"E%	c #3D5570",
"F%	c #3568A4",
"G%	c #2975C5",
"H%	c #2971C5",
"I%	c #2971BD",
"J%	c #295583",
"K%	c #001831",
"L%	c #31507B",
"M%	c #7395C5",
"N%	c #4A79B4",
"O%	c #3975B4",
"P%	c #3175BD",
"Q%	c #3179BD",
"R%	c #516976",
"S%	c #6F5D3E",
"T%	c #CCBEA1",
"U%	c #917F5C",
"V%	c #181309",
"W%	c #426D9B",
"X%	c #3171BD",
"Y%	c #296DB4",
"Z%	c #316DB4",
"`%	c #3169B4",
" &	c #2969B4",
".&	c #2965B4",
"+&	c #2965AC",
"@&	c #295994",
"#&	c #000420",
"$&	c #62799C",
"%&	c #31557B",
"&&	c #315D8B",
"*&	c #516F8A",
"=&	c #040000",
"-&	c #170E00",
";&	c #0F0800",
">&	c #433C2F",
",&	c #385B7B",
"'&	c #295D94",
")&	c #29598B",
"!&	c #29558B",
"~&	c #29508B",
"{&	c #20508B",
"]&	c #205083",
"^&	c #31486A",
"/&	c #102031",
"(&	c #050C1A",
"_&	c #121823",
":&	c #131923",
"<&	c #131823",
"[&	c #000808",
"              . + @ @ # $ %                                             ",
"            & * = - ; > , ' )                                           ",
"          ! ~ { ] ^ / ( _ : < [                                         ",
"        } | 1 2 3 4 5 6 7 8 9 ~ 0                                       ",
"  a b c d e f g h i i j k l m n ~ o p p b q $ r r r o o s p t u         ",
"u v w x y ; z A B C D E F G H I - J K L M N O P P Q Q R S T U V W       ",
"t X Y Z ` 8  ...+.@.#.+...$.$.( _ %.&.*.=.-.;.>.,.'.).!.~.{.].^./.      ",
"+ (.5 >.>._.7 $.$.$.$.:.<.[./ }.>.|.1.*.2.3.4.5.5.6.7.8.9.0.a.b.c.      ",
"d.e.f.z g.h.i.j.k.k.l.m.n.o.p.q.q.r.s.t.u.v.w.x./.@ y.z.A./.B.c.x.q.C.  ",
"o Y f./ D.E.^ F.F.G.H.*.*.I.J.K.L.M.*.*.*.N.O.P.Q.R.*.S.T.U.V.W.X.Y.Z.`.",
"s  +.+++@+#+7 .+$+%+&+*+*.*.=+*.*.-+;+>+,+'+*.)+!+~+*.{+]+^+/+(+_+:+<+[+",
"}+Y A / c.m |+A B +.1+2+*.3+*.4+5+6+7+8+9+0+a+b+*.c+d+e+f+g+h+i+j+k+l+m+",
"s n+g o+p+q+r+s+s+t+u+v+w+*.x+y+z+*.*.*.*.*.A+B+C+D+E+F+G+9.H+I+J+K+L+[+",
"b Y f.z c.M+6.K+k+H+H+N+*.O+P+Q+*.*.R+S+T+U+*.V+W+X+Y+Z+`+ @.@+@@@#@$@%@",
"p (.f.&@j.*@=@*@-@-@;@>@*.,@'@*.)@!@~@{@]@^@/@~+(@_@*.:@<@[@}@|@|@1@2@o ",
"}+(.f.&@p+m 3@4@5@6@7@8@9@0@a@*.b@c@d@e@f@]@g@h@*.i@j@k@l@m@n@o@p@q@r@p ",
"}+(...++p+=@s@t@*.*.*.u@v@w@*.x@y@z@e@e@e@A@B@C@D@E@F@G@H@*.I@J@K@L@M@s ",
"}+(.N@++p+=@f.O@*.*.*.P@Q@R@*.S@T@U@e@e@e@V@W@X@Y@Z@`@ #.#I@+#@###$#%#&#",
"p *#=#++p+-#s@;#>#,#'#)#!#~#*.*.{#]#^#/#(#*._#:#<#[#}#|#1#2#3#4#5#6#7#p ",
"p Y A 8#j.m s@9#0#a#b#c#*.d#e#*.f#g#S.h#i#j#e@k#l#m#n#o#e@p#q#r#s#6#t#p ",
"p Y u#v#p+-#..w#w#x#y#z#*.A#B#*.*.C#D#E#F#G#H#I#J#K#L#e@M#N#O#P#Q#R#S#s ",
"p I T#U#p+=@..V#w#W#D D X#*.Y#Z#`#*. $.$+$@$#$$$%$&$*$e@=$-$;$>$Q#,$%#&#",
"p '$)$!$j.3 ~${$]$]$D ^$/$($*._$:$<$t.*.[$}$|$1$2$3$4$5$6$>$>$7$Q#8$%#9$",
"s 0$a$b$c$d$i e$e$e$f$g$h$i$j$*.k$l$m$n$o$p$q$r$s$t$u$v$w$x$y$7$z$A$S## ",
"+ S B$_.C$D$C E$E$F$G$*.*.H$I$J$K$L$M$N$O$P$Q$R$S$T$U$V$W$X$Y$Z$`$ %.%r ",
"@ R +%@%#%D$$%%%E$E$&%*%=%-%;%>%,%'%)%!%~%{%e@]%^%/%(%_%4#:%<%[%}%|%1%r ",
"c 2%3%4%C$5%6%7%8%8%8%9%e@0%a%b%c%d%e%f%g%e@h%i%j%k%e@e@l%m%z$n%}% @t#&#",
"  o%p%q%C$r%l s%7%7%7%t%u%v%7%7%7%w%x%y%z%e@A%B%-$C%D%E%F%G%G%H%I%+@J%&#",
"    K%L%j.M%N%O%P%Q%Q%Q%Q%Q%Q%Q%Q%R%S%T%U%V%W%X%I%Y%Z%`% &.&+&+&.@@&$@#&",
"      # #&$&%&&&@%@%@%@%@%@%@%@%@%*&=&-&;&>&,&'&)&)&!&!&!&~&{&]&J%$@^&@ ",
"        /&b s s s s s s s s s s s s (&_&:&<&s &#&#&#&#&#&#r &#r &#o m+[&"};
