/* XPM */
static char * application_xpm[] = {
"44 28 3 1",
" 	c None",
".	c #000000000000",
"X	c #FFFFFFFFFFFF",
"                                            ",
"                                            ",
"                                            ",
"                                            ",
"            ..                              ",
"           .XX.                             ",
"           .XX.                             ",
"          .XXXX.                            ",
"          .XXXX.                            ",
"         .XX..XX.                           ",
"         .XX..XX.                           ",
"        .XX.  .XX.                          ",
"        .XX.  .XX.        ......   ......   ",
"       .XX.   ..XX.       .XXXXX.  .XXXXX.  ",
"       .XX.    .XX.       .XXXXXX. .XXXXXX. ",
"      .XX.      .XX.      .XX..XXX..XX..XXX.",
"      .XX........XX.      .XX. .XX..XX. .XX.",
"     .XXXXXXXXXXXXXX.     .XX. .XX..XX. .XX.",
"     .XXXXXXXXXXXXXX.     .XX..XXX..XX..XXX.",
"    .XXX..........XXX.    .XXXXXX. .XXXXXX. ",
"    .XX.          .XX.    .XXXXX.  .XXXXX.  ",
"   .XXX.          .XXX.   .XX...   .XX...   ",
"   .XX.            .XX.   .XX.     .XX.     ",
"  .XXX.            .XXX.  .XX.     .XX.     ",
"  .XX.              .XX.  .XX.     .XX.     ",
"..XXX..            ..XXX...XX.     .XX.     ",
".XXXXX.            .XXXXX..XX.     .XX.     ",
".......            ...........     ....     "};
