/* XPM */
static char * block_xpm[] = {
"44 28 25 1",
" 	c None",
".	c #000000000000",
"X	c #FFFFFFFFFFFF",
"o	c #AFAFAFAFAFAF",
"O	c #B6B6B6B6B6B6",
"+	c #565656565656",
"@	c #4F4F4F4F4F4F",
"#	c #BDBDBDBDBDBD",
"$	c #C4C4C4C4C4C4",
"%	c #646464646464",
"&	c #5D5D5D5D5D5D",
"*	c #CBCBCBCBCBCB",
"=	c #D2D2D2D2D2D2",
"-	c #D9D9D9D9D9D9",
";	c #DFDFDFDFDFDF",
":	c #7F7F7F7F7F7F",
">	c #797979797979",
",	c #727272727272",
"<	c #6B6B6B6B6B6B",
"1	c #A9A9A9A9A9A9",
"2	c #A2A2A2A2A2A2",
"3	c #9B9B9B9B9B9B",
"4	c #949494949494",
"5	c #8D8D8D8D8D8D",
"6	c #868686868686",
"               .............                ",
"           ....XXXXXXXXXXXXX....            ",
"         ..XXXXXXXXXXXXXXXXXXXXX..          ",
"       ..XXXXXXXXXXXXXXXXXXXXXXXXX..        ",
"      .XXXXXXXXXXXXXXXXXXXXXXXXXXXXX.       ",
"      .XXXXXXXXXXXXXXXXXXXXXXXXXXXXX.       ",
"      .XXXXXXXXXXXXXXXXXXXXXXXXXXXXX.       ",
"      ...XXXXXXXXXXXXXXXXXXXXXXXXX...       ",
"      .oO..XXXXXXXXXXXXXXXXXXXXX..+@.       ",
"      .oO#$....XXXXXXXXXXXXX....%&+@.       ",
"      .oO#$*=-;.............:>,<%&+@.       ",
"      .oO#$*=-;-=*$#Oo123456:>,<%&+@.       ",
"      .oO#$*=-;-=*$#Oo123456:>,<%&+@.       ",
"      .oO#$*=-;-=*$#Oo123456:>,<%&+@.       ",
"      .oO#$*=-;-=*$#Oo123456:>,<%&+@.       ",
"      .oO#$*=-;-=*$#Oo123456:>,<%&+@.       ",
"      .oO#$*=-;-=*$#Oo123456:>,<%&+@.       ",
"      .oO#$*=-;-=*$#Oo123456:>,<%&+@.       ",
"      .oO#$*=-;-=*$#Oo123456:>,<%&+@.       ",
"      .oO#$*=-;-=*$#Oo123456:>,<%&+@.       ",
"      .oO#$*=-;-=*$#Oo123456:>,<%&+@.       ",
"      .oO#$*=-;-=*$#Oo123456:>,<%&+@.       ",
"      .oO#$*=-;-=*$#Oo123456:>,<%&+@.       ",
"      .oO#$*=-;-=*$#Oo123456:>,<%&+@.       ",
"       ..#$*=-;-=*$#Oo123456:>,<%&..        ",
"         ..*=-;-=*$#Oo123456:>,<..          ",
"           ....-=*$#Oo123456....            ",
"               .............                "};
