/* XPM */
static char * char_xpm[] = {
"44 28 4 1",
" 	c None",
".	c #000000000000",
"X	c #00000000FFFF",
"o	c #FFFFFFFFFFFF",
"                                            ",
"          .....................             ",
"          .XXXXXXXXXXXXXXXXXXX.             ",
"          .X.................X.             ",
"          .X.ooooooooooooooo.X.             ",
"          .X.ooooooooooooooo.X.             ",
"          .X.ooooooooooooooo.X.             ",
"          .X.ooooooooooooooo.X.             ",
"          .X.ooooooooooooooo.X.             ",
"          .X.ooooooooooooooo.X.             ",
"          .X.ooooooooooooooo.X.             ",
"          .X.ooooooooooooooo.X.             ",
"          .X.ooooooooooooooo.X.             ",
"          .X.ooooooooooooooo.X.             ",
"          .X.ooooooooooooooo.X.             ",
"          .X.................X.             ",
"          .XXXXXXXXXXXXXXXXXXX.             ",
"          .....................             ",
"          .....................             ",
"                                            ",
"       ............................         ",
"      .XXXXXXXXXXXXXXXXXXXXXXXXXXXX.        ",
"     .XXXXXXXXXXXXXXXXXXXXXXXXXXXXXX.       ",
"    .XXXXXXXXXXXXXXXXXXXXXXXXXXXXXXXX.      ",
"   ....................................     ",
"   ....................................     ",
"                                            ",
"                                            "};
