/* XPM */
static char * close_xpm[] = {
"17 16 9 1",
" 	c None",
".	c #000000",
"+	c #FFFFFF",
"@	c #CDD2C5",
"#	c #83917B",
"$	c #BDC2B4",
"%	c #7B896A",
"&	c #CDCEC5",
"*	c #C5CEC5",
"  .           .  ",
" .+.         .+. ",
".+@#.       .+@#.",
" .#@#.     .+@#. ",
"  .#@#.   .+@#.  ",
"   .#@#...+$%.   ",
"    .#&+++&#.    ",
"     .+&@&#.     ",
"     .+@@@#.     ",
"    .+@###*#.    ",
"   .+@#...#*#.   ",
"  .+@#.   .#@#.  ",
" .+@#.     .#@#. ",
".+@#.       .#@#.",
" .#.         .#. ",
"  .           .  "};
