/* XPM */
static char * details_xpm[] = {
"14 14 3 1",
" 	c None",
".	c #B2B2B2",
"+	c #000000",
".++.          ",
"++++ +++++++++",
"++++ +++++++++",
".++.          ",
"              ",
".++.          ",
"++++ +++++++++",
"++++ +++++++++",
".++.          ",
"              ",
".++.          ",
"++++ +++++++++",
"++++ +++++++++",
".++.          "};
