/* XPM */
static char * directory_xpm[] = {
"42 34 8 1",
" 	c None",
".	c #000000",
"+	c #E7E7E7",
"@	c #00AFE7",
"#	c #AFAFAF",
"$	c #CBCBCB",
"%	c #747474",
"&	c #004792",
"                                          ",
"                                          ",
"                                          ",
"                                          ",
"                                          ",
"       ..........                         ",
"      .+@+@+@+@+@.                        ",
"      .@+@+@+@+@+.                        ",
"     .@+@#@#@#@+@+.                       ",
" .....+@$@#@#@#@+@....................    ",
".+@+@+@+@#@#@#@#@+@+@+@+@+@+@+@+@+@+@#.   ",
".@+@+@+@#@#@#@#@$@+@+@+@+@+@+@+@+@+@#@.   ",
".+@#@#@#@#@#@#@#@#@#@#@#@#@#@#@#@#@#@%.   ",
".@+@..................................... ",
".+@.+@+@+@+@+@+@+@+@+@+@+@+@+@+@+@+@+@+@#.",
".@+.@+@+@+@+@+@+@+@+@+@+@+@+@+@+@+@+@+@#@.",
".+@.+@%@%@%@%@%@%@%@%@%@%@%@%@%@%@%@%@%@%.",
".@+.@%@%@%@%@%@%@%@%@%@%@%@%@%@%@%@%@%@%@.",
".+@.&&&&&&&&&&&&&&&&&&&&&&&&&&&&&&&&&&&&&.",
".@+.+@+@+@+@+@+@+@+@+@+@+@+@+@+@+@+@+@+@#.",
".+@.@+@+@+@+@+@+@+@+@+@+@+@+@+@+@+@+@+@#@.",
".@+.+@#@#@#@#@#@#@#@#@#@#@#@#@#@#@#@#@#@%.",
".+@.@+@#@#@#@#@#@#@#@#@#@#@#@#@#@#@#@#@%@.",
".@+.+@#@#@#@#@#@#@#@#@#@#@#@#@#@#@#@#@#@%.",
".+@.@+@#@#@#@#@#@#@#@#@#@#@#@#@#@#@#@#@%@.",
".@+.+@#@#@#@#@#@#@#@#@#@#@#@#@#@#@#@#@#@%.",
".+@.@+@#@#@#@#@#@#@#@#@#@#@#@#@#@#@#@#@%@.",
".@+.+@#@#@#@#@#@#@#@#@#@#@#@#@#@#@#@#@#@%.",
".+@.@+@#@#@#@#@#@#@#@#@#@#@#@#@#@#@#@#@%@.",
".@%.+@#@#@#@#@#@#@#@#@#@#@#@#@#@#@#@#@#@%.",
"....@+@#@#@#@#@#@#@#@#@#@#@#@#@#@#@#@#@%@.",
" .@.+@%@%@%@%@%@%@%@%@%@%@%@%@%@%@%@%@%@%.",
"  ..@%@%@%@%@%@%@%@%@%@%@%@%@%@%@%@%@%@%@.",
"   ......................................."};
