/* XPM */
static char * folder_xpm[] = {
"44 28 133 2",
"  	c None",
". 	c #000000000000",
"X 	c #53538E8EEDED",
"o 	c #52528D8DECEC",
"O 	c #51518C8CEBEB",
"+ 	c #51518A8AEBEB",
"@ 	c #50508989EAEA",
"# 	c #4F4F8888E9E9",
"$ 	c #4F4F8787E9E9",
"% 	c #4E4E8585E8E8",
"& 	c #4D4D8484E7E7",
"* 	c #4C4C8383E7E7",
"= 	c #4C4C8282E6E6",
"- 	c #4B4B8080E5E5",
"; 	c #4A4A7F7FE5E5",
": 	c #52528C8CECEC",
"> 	c #51518B8BEBEB",
", 	c #4F4F8888EAEA",
"< 	c #4E4E8686E8E8",
"1 	c #4D4D8484E8E8",
"2 	c #4D4D8383E7E7",
"3 	c #4B4B8181E6E6",
"4 	c #4A4A7E7EE4E4",
"5 	c #49497D7DE4E4",
"6 	c #50508A8AEAEA",
"7 	c #4A4A7F7FE4E4",
"8 	c #49497C7CE3E3",
"9 	c #48487B7BE2E2",
"0 	c #4E4E8686E9E9",
"q 	c #4C4C8181E6E6",
"w 	c #49497E7EE4E4",
"e 	c #48487B7BE3E3",
"r 	c #47477A7AE2E2",
"t 	c #47477979E1E1",
"y 	c #50508888EAEA",
"u 	c #48487C7CE3E3",
"i 	c #47477979E2E2",
"p 	c #45457676E0E0",
"a 	c #44447474DFDF",
"s 	c #43437373DEDE",
"d 	c #43437272DEDE",
"f 	c #42427171DDDD",
"g 	c #41416F6FDCDC",
"h 	c #41416E6EDCDC",
"j 	c #40406D6DDBDB",
"k 	c #3F3F6C6CDADA",
"l 	c #3E3E6A6ADADA",
"z 	c #3E3E6969D9D9",
"x 	c #3D3D6868D8D8",
"c 	c #3C3C6767D8D8",
"v 	c #3C3C6666D7D7",
"b 	c #3B3B6464D6D6",
"n 	c #3A3A6363D6D6",
"m 	c #39396262D5D5",
"M 	c #39396161D4D4",
"N 	c #38385F5FD4D4",
"B 	c #50508A8AEBEB",
"V 	c #46467979E1E1",
"C 	c #46467777E1E1",
"Z 	c #44447575DFDF",
"A 	c #41417070DDDD",
"S 	c #3F3F6C6CDBDB",
"D 	c #3F3F6B6BDADA",
"F 	c #3E3E6A6AD9D9",
"G 	c #3D3D6868D9D9",
"H 	c #3D3D6767D8D8",
"J 	c #3B3B6565D7D7",
"K 	c #3A3A6262D5D5",
"L 	c #39396161D5D5",
"P 	c #38386060D4D4",
"I 	c #38385E5ED3D3",
"U 	c #37375D5DD3D3",
"Y 	c #49497D7DE3E3",
"T 	c #46467878E1E1",
"R 	c #45457575DFDF",
"E 	c #42427070DDDD",
"W 	c #40406E6EDBDB",
"Q 	c #40406C6CDBDB",
"! 	c #3D3D6969D9D9",
"~ 	c #3A3A6363D5D5",
"^ 	c #38385F5FD3D3",
"/ 	c #37375E5ED3D3",
"( 	c #36365C5CD2D2",
") 	c #36365B5BD1D1",
"_ 	c #2D2D4B4BC9C9",
"` 	c #4C4C8282E7E7",
"' 	c #44447373DFDF",
"] 	c #37375D5DD2D2",
"[ 	c #35355B5BD1D1",
"{ 	c #35355959D0D0",
"} 	c #3A3A6464D6D6",
"| 	c #35355A5AD1D1",
" .	c #34345858D0D0",
"..	c #48487A7AE2E2",
"X.	c #45457777E0E0",
"o.	c #45457575E0E0",
"O.	c #40406E6EDCDC",
"+.	c #3C3C6666D8D8",
"@.	c #39396060D4D4",
"#.	c #36365D5DD2D2",
"$.	c #36365B5BD2D2",
"%.	c #34345959D0D0",
"&.	c #4D4D8585E8E8",
"*.	c #46467777E0E0",
"=.	c #41417070DCDC",
"-.	c #3E3E6B6BDADA",
";.	c #33335757CFCF",
":.	c #33335656CFCF",
">.	c #4B4B8080E6E6",
",.	c #42427272DDDD",
"<.	c #32325555CECE",
"1.	c #3C3C6565D7D7",
"2.	c #32325454CECE",
"3.	c #35355959D1D1",
"4.	c #32325656CFCF",
"5.	c #31315353CDCD",
"6.	c #31315454CDCD",
"7.	c #31315252CDCD",
"8.	c #31315454CECE",
"9.	c #30305151CCCC",
"0.	c #44447373DEDE",
"q.	c #30305252CCCC",
"w.	c #30305252CDCD",
"e.	c #2F2F5050CBCB",
"r.	c #34345757D0D0",
"t.	c #2F2F4F4FCBCB",
"y.	c #2F2F5050CCCC",
"u.	c #2E2E4E4ECACA",
"i.	c #2E2E4E4ECBCB",
"p.	c #2E2E4D4DCACA",
"a.	c #2E2E4F4FCBCB",
"s.	c #2D2D4C4CC9C9",
"d.	c #2D2D4C4CCACA",
"          . . . . . . . . . . . . . .                                                   ",
"        . X X o O + @ # $ % & * = - ; .                                                 ",
"      . X X o : > @ , $ < 1 2 = 3 ; 4 5 .                                               ",
"    . X X X : > 6 @ $ < % & = 3 - 7 5 8 9 .                                             ",
"  . X X X o > + @ # 0 % & * q - ; w 8 e r t .                                           ",
". . o o o o o o o * * * * * * * * * r r r r . . . . . . . . . . . . . . . . . . . .     ",
". X X o : > 6 y * * * 2 = 3 - 4 5 u 9 i r r p a s d f g h j k l z x c v b n m M N . .   ",
". X X : > B @ $ 0 % & * 3 - ; w 8 e r V C p Z a d f A g j S D F G H v J n K L P I U . . ",
". X o O + @ # $ % & * = - ; 4 Y e r t T p R a s f E g W Q D F ! H v J b ~ L P ^ / ( ) . ",
". _ _ _ _ _ _ _ _ _ _ _ _ _ _ _ _ _ _ _ _ _ _ _ _ _ _ _ _ _ _ _ _ _ _ _ _ _ _ _ _ _ _ . ",
". : > B @ $ 0 % & ` 3 - ; 5 8 e r T C p Z ' d f A h j S D z x c v b n K M P / ] ( [ { . ",
". > + @ # 0 % & * q - ; w Y e r t T p Z a s f E g W S D F ! H v J } K L P ^ U ( [ |  .. ",
". > @ , $ < 1 2 = 3 ; 4 5 u ..i T X.o.a s d E g O.j D l z x +.J b n L @.N / #.$.| %. .. ",
". 6 y $ < &.2 = 3 - 4 5 u 9 r T *.p Z s d f =.h j k -.z x c v b n m M N / ] ( | %. .;.. ",
". @ # 0 % & * q - ; w 8 e r t C p Z a d f E g j S D F G H v J n K L P I U ( [ |  .;.:.. ",
". , $ % 1 * = >.; 4 5 e r i T X.R a s ,.E g W j D F ! x v J b ~ L P ^ / ( ) | %.;.:.<.. ",
". $ < &.2 = 3 - 4 5 u 9 i T *.p a s d f g h j k l z x c 1.b n m @.N / ] $.| %. .;.<.2.. ",
". 0 % & ` 3 - ; 5 8 e r T C p Z a d f A g j S D F G c v J n K L P / U ( [ 3. .;.4.2.5.. ",
". % & * = - ; 4 Y e r t T p R a s f E g W Q D F ! H v J b K L P ^ U ( ) |  .;.:.<.6.7.. ",
". 1 2 = 3 ; 4 5 u ..i T X.o.a s d f g O.j k l z x c J b n m @.N / #.$.| %. .:.<.8.5.9.. ",
". & ` 3 - 7 5 8 9 r T *.p Z 0.d f =.h j k D z x c v b n K M N / ] ( | {  .;.<.2.5.q.9.. ",
". * q - ; w 8 e r t C p Z a d f E g W S D F ! H v J } K L P ^ U ( [ |  .;.:.<.5.w.9.e.. ",
". = 3 ; 4 5 u ..i T X.o.a s d E g O.j D l z x +.J b n L @.N / ( $.| %.r.:.<.8.7.9.e.t.. ",
". 3 - 4 5 u 9 i T *.p a s d f g h j k -.z x c v b n m M N / ] ( | %. .;.<.2.5.q.y.t.u.. ",
". - ; w 8 e r t C p Z a d f E g j S D F G H v J n K L P I U ( [ 3. .;.:.2.5.w.9.t.i.p.. ",
". ; 4 Y e r t T p R a s f E g W Q D F ! x v J b ~ L P ^ / ( ) | %.;.:.<.6.7.9.e.a.p.s.. ",
". 4 5 u 9 i T *.p a s d f g h j k l z x c 1.b n m @.N / ] $.| %. .:.<.2.5.9.y.t.u.d._ . ",
". . . . . . . . . . . . . . . . . . . . . . . . . . . . . . . . . . . . . . . . . . . . "};
