/* XPM */
static char * dirs_xpm[] = {
"18 16 245 2",
"  	c None",
". 	c #3C5260",
"+ 	c #435A73",
"@ 	c #455A7B",
"# 	c #3D4E6D",
"$ 	c #384E64",
"% 	c #5C83A4",
"& 	c #6AA0D2",
"* 	c #6397D3",
"= 	c #74A0D6",
"- 	c #3B5979",
"; 	c #44515D",
"> 	c #3D5069",
", 	c #6983A8",
"' 	c #6EA1D5",
") 	c #549CE0",
"! 	c #5599E6",
"~ 	c #5D97DD",
"{ 	c #78A5D3",
"] 	c #446079",
"^ 	c #435265",
"/ 	c #3F4E6A",
"( 	c #3C4C69",
"_ 	c #3A4C66",
": 	c #394C65",
"< 	c #354559",
"[ 	c #323D4C",
"} 	c #3F5872",
"| 	c #6D9CCC",
"1 	c #729ACB",
"2 	c #6499D3",
"3 	c #609BDA",
"4 	c #619AD9",
"5 	c #649AD5",
"6 	c #689ACF",
"7 	c #6B9BCA",
"8 	c #6998C8",
"9 	c #6392C6",
"0 	c #5D8EBE",
"a 	c #5A87B7",
"b 	c #5185BE",
"c 	c #477DAC",
"d 	c #3C6187",
"e 	c #06153B",
"f 	c #3D5D7B",
"g 	c #669CD2",
"h 	c #2B578A",
"i 	c #3B5B8D",
"j 	c #3F5B87",
"k 	c #415C86",
"l 	c #425C83",
"m 	c #425B83",
"n 	c #415A83",
"o 	c #3F5883",
"p 	c #3D5782",
"q 	c #395A84",
"r 	c #365586",
"s 	c #305491",
"t 	c #2E5789",
"u 	c #324B75",
"v 	c #284066",
"w 	c #303C44",
"x 	c #3D5C7A",
"y 	c #6298CD",
"z 	c #35598C",
"A 	c #70A6DF",
"B 	c #6CA6DE",
"C 	c #72A9E0",
"D 	c #76AAE0",
"E 	c #77AADF",
"F 	c #74A9DE",
"G 	c #6EA5DC",
"H 	c #68A1DA",
"I 	c #63A0D7",
"J 	c #619AD7",
"K 	c #5697DE",
"L 	c #4C95D4",
"M 	c #558DC6",
"N 	c #4E7DB3",
"O 	c #1E3749",
"P 	c #3F5C7A",
"Q 	c #649AD0",
"R 	c #3D598C",
"S 	c #4D87C2",
"T 	c #498AC7",
"U 	c #508EC9",
"V 	c #5692CB",
"W 	c #5791CA",
"X 	c #548FC9",
"Y 	c #4D8AC5",
"Z 	c #4586C3",
"` 	c #4283BD",
" .	c #457EBA",
"..	c #3A79C1",
"+.	c #2F78B7",
"@.	c #3671AE",
"#.	c #356AA7",
"$.	c #132F45",
"%.	c #3B5876",
"&.	c #3E5B8E",
"*.	c #6CA1DA",
"=.	c #74AADE",
"-.	c #7AACDF",
";.	c #7BACDF",
">.	c #77AADD",
",.	c #72A7DB",
"'.	c #6CA4D9",
").	c #64A2D9",
"!.	c #639DDC",
"~.	c #5998E0",
"{.	c #4F98D9",
"].	c #5292D4",
"^.	c #4F8ACE",
"/.	c #1B3752",
"(.	c #3C5977",
"_.	c #5D93C9",
":.	c #405C8F",
"<.	c #64A0DD",
"[.	c #5C9FE2",
"}.	c #61A2E4",
"|.	c #66A5E5",
"1.	c #67A6E5",
"2.	c #64A3E3",
"3.	c #5EA0E1",
"4.	c #589CDF",
"5.	c #4D99DD",
"6.	c #4B92DE",
"7.	c #438EE1",
"8.	c #398ED9",
"9.	c #3886D5",
"0.	c #2E79CB",
"a.	c #0E3055",
"b.	c #5B91C6",
"c.	c #405D90",
"d.	c #5D9BDD",
"e.	c #5099E5",
"f.	c #559CE6",
"g.	c #599EE6",
"h.	c #5B9FE6",
"i.	c #589DE5",
"j.	c #539AE4",
"k.	c #4D96E1",
"l.	c #4592DB",
"m.	c #468BD4",
"n.	c #4186D5",
"o.	c #3786CE",
"p.	c #3580CC",
"q.	c #2B73C3",
"r.	c #102F51",
"s.	c #395673",
"t.	c #558BC0",
"u.	c #5B98DB",
"v.	c #4D94E1",
"w.	c #5297E1",
"x.	c #5498E1",
"y.	c #5598E1",
"z.	c #5396E0",
"A.	c #5095DF",
"B.	c #4B92DF",
"C.	c #4190DC",
"D.	c #418AD7",
"E.	c #3D85D6",
"F.	c #3284CF",
"G.	c #2F7ECE",
"H.	c #2672C5",
"I.	c #0F3053",
"J.	c #3C536B",
"K.	c #5386B3",
"L.	c #395D93",
"M.	c #5297DD",
"N.	c #4792DF",
"O.	c #4A94E2",
"P.	c #4C96E3",
"Q.	c #4C95E2",
"R.	c #4A94E0",
"S.	c #4892DF",
"T.	c #448FDC",
"U.	c #3E8DDD",
"V.	c #3B88D9",
"W.	c #3883D6",
"X.	c #2F80D6",
"Y.	c #277DD9",
"Z.	c #2070C6",
"`.	c #0D2F5E",
" +	c #40566D",
".+	c #507FAA",
"++	c #325E9A",
"@+	c #4F94DC",
"#+	c #458CD7",
"$+	c #478ED9",
"%+	c #4890DB",
"&+	c #488FDB",
"*+	c #468DD8",
"=+	c #4289D4",
"-+	c #3B8AD5",
";+	c #3587D2",
">+	c #3582CD",
",+	c #2D7FD0",
"'+	c #237BCF",
")+	c #2271B9",
"!+	c #0F3358",
"~+	c #2D415B",
"{+	c #436B99",
"]+	c #395D9E",
"^+	c #498BD4",
"/+	c #3F89D4",
"(+	c #408AD6",
"_+	c #428CD7",
":+	c #408AD5",
"<+	c #3E88D3",
"[+	c #3488D6",
"}+	c #2D85D3",
"|+	c #2E80CD",
"1+	c #2A7DCC",
"2+	c #2478C7",
"3+	c #246DAD",
"4+	c #113051",
"5+	c #28456A",
"6+	c #385284",
"7+	c #4981C0",
"8+	c #367DC2",
"9+	c #377EC3",
"0+	c #387FC4",
"a+	c #377EC2",
"b+	c #357CC0",
"c+	c #327AC2",
"d+	c #2E76C1",
"e+	c #3072BC",
"f+	c #2E6EBA",
"g+	c #2A6BB5",
"h+	c #2E64A2",
"i+	c #162D51",
"j+	c #1D2940",
"k+	c #19304E",
"l+	c #173356",
"m+	c #183456",
"n+	c #173355",
"o+	c #163254",
"p+	c #163256",
"q+	c #163156",
"r+	c #153054",
"s+	c #142F55",
"t+	c #122E55",
"u+	c #162E4E",
"v+	c #0C1B2B",
"      . + @ #                       ",
"    $ % & * = -                     ",
"; > , ' ) ! ~ { ] ^ / ( _ : < [     ",
"} | 1 2 3 4 5 6 7 8 9 0 a b c d e   ",
"f g h i j k l m n o p q r s t u v w ",
"x y z A B C D E F G H I J K L M N O ",
"P Q R S T U V W X Y Z `  ...+.@.#.$.",
"%.y &.*.G =.-.;.>.,.'.).!.~.{.].^./.",
"(._.:.<.[.}.|.1.2.3.4.5.6.7.8.9.0.a.",
"%.b.c.d.e.f.g.h.i.j.k.l.m.n.o.p.q.r.",
"s.t.c.u.v.w.x.y.z.A.B.C.D.E.F.G.H.I.",
"J.K.L.M.N.O.P.Q.R.S.T.U.V.W.X.Y.Z.`.",
" +.+++@+#+$+%+&+$+*+=+-+;+>+,+'+)+!+",
"~+{+]+^+/+(+_+_+_+:+<+[+}+|+1+2+3+4+",
"  5+6+7+8+9+0+9+9+a+b+c+d+e+f+g+h+i+",
"    j+k+l+m+m+l+l+n+o+p+q+r+s+t+u+v+"};
