/* XPM */
static char * drop_xpm[] = {
"34 34 23 1",
" 	c None",
".	c #000000",
"+	c #2A2A2A",
"@	c #404040",
"#	c #484848",
"$	c #414141",
"%	c #A6A6A6",
"&	c #CCCCCC",
"*	c #FFFFFF",
"=	c #474747",
"-	c #CFCFCF",
";	c #7B7B7B",
">	c #E4E4E4",
",	c #3B3B3B",
"'	c #989898",
")	c #C9C9C9",
"!	c #FBFBFB",
"~	c #979797",
"{	c #646464",
"]	c #656565",
"^	c #B9B9B9",
"/	c #BABABA",
"(	c #424242",
"                                  ",
"                                  ",
"            ..........            ",
"            .+@####$+.            ",
"            .$%&&&&%$.            ",
"            .#&****&#.            ",
"            .#&****&#.            ",
"            .#&****&#.            ",
"            .#&****&#.            ",
"            .#&****&#.            ",
"            .#&****&#.            ",
"            .#&****&#.            ",
"            .#&****&#.            ",
"            .#&****&#.            ",
"            .#&****&#.            ",
"            .#&****&#.            ",
"            .#&****&#.            ",
"            .=&****&=.            ",
"   ..........#-****-#..........   ",
"   .+$#####=#;>****>;#=#####$+.   ",
"   .,')&&&&&->!****!>-&&&&&)~,.   ",
"   .+{-!******************!-{+.   ",
"   ..+]-!****************!-]+..   ",
"    ..+]-!**************!-]+..    ",
"     ..+]-!************!-]+..     ",
"      ..+]-!**********!-]+..      ",
"       ..+]-!********!-]+..       ",
"        ..+]-!******!-]+..        ",
"         ..+]-!****!-]+..         ",
"          ..+]-!**!-]+..          ",
"           ..+{^&&/{+..           ",
"            ..+(##$+..            ",
"             ........             ",
"                                  "};
