/* XPM */
static char * error_xpm[] = {
"44 28 4 1",
" 	c None",
".	c #000000000000",
"X	c #FFFF00000000",
"o	c #FFFFFFFFFFFF",
"                                            ",
"                                            ",
"                                            ",
"                                            ",
"............................................",
".XXXXXXXXXXXXXXXXXXXXXXXXXXXXXXXXXXXXXXXXXX.",
".XXXXXXXXXXXXXXXXXXXXXXXXXXXXXXXXXXXXXXXXXX.",
".XXooooooXXoooooXXXoooooXXXXooooXXXoooooXXX.",
".XXooooooXXooooooXXooooooXXooooooXXooooooXX.",
".XXooXXXXXXooXXooXXooXXooXXooXXooXXooXXooXX.",
".XXooXXXXXXooXXooXXooXXooXXooXXooXXooXXooXX.",
".XXooXXXXXXooXXooXXooXXooXXooXXooXXooXXooXX.",
".XXoooooXXXoooooXXXoooooXXXooXXooXXoooooXXX.",
".XXoooooXXXoooooXXXoooooXXXooXXooXXoooooXXX.",
".XXooXXXXXXooXXooXXooXXooXXooXXooXXooXXooXX.",
".XXooXXXXXXooXXooXXooXXooXXooXXooXXooXXooXX.",
".XXooXXXXXXooXXooXXooXXooXXooXXooXXooXXooXX.",
".XXooooooXXooXXooXXooXXooXXooooooXXooXXooXX.",
".XXooooooXXooXXooXXooXXooXXXooooXXXooXXooXX.",
".XXXXXXXXXXXXXXXXXXXXXXXXXXXXXXXXXXXXXXXXXX.",
".XXXXXXXXXXXXXXXXXXXXXXXXXXXXXXXXXXXXXXXXXX.",
"............................................",
"                                            ",
"                                            ",
"                                            ",
"                                            ",
"                                            ",
"                                            "};
