/* XPM */
static char *ramfs[] = {
/* columns rows colours chars-per-pixel */
"43 30 17 1"/* palette data */
,
"A c #ffffff",
"B c #dddddd",
"C c #bbbbbb",
"D c #999999",
"E c #777777",
"F c #555555",
"G c #333333",
"H c #000000",
"I c #004499",
"J c #eeee00",
"K c #00cc00",
"L c #dd0000",
"M c #eeeebb",
"N c #558800",
"O c #ffbb00",
"P c #00bbff"
"  c None"
/* pixel data */,
"                              HH           ",
"                            HHHHHH         ",
"                          HHHHHHHHHH       ",
"                        HHHHHHCCHHHHHH     ",
"                      HHHHHHCCHHHHHHHHHH   ",
"                    HHHHHHHHHHHHHHHHHHHHHH ",
"                  HHHHHHCCHHHHHHHHHHHHHHHHH",
"                HHHHHHCCHHHHHHHHHHHHHHHHHHH",
"              HHHHHHCCHHHHHHHHHHHHHHHHHHHHF",
"            HHHHHHCCHHHHHHHHHHHHHHHHHHHHFFF",
"          HHHHHHCCHHHHHCCHHHHHHHHHHHHHFFFF ",
"        HHHHHHCCHHHHHCCHHHHHHHHHHHHHFFFE F ",
"      HHHHHHHHHHHHHCCHHHHHHHHHHHHHFFFEF  F ",
"    HHHHHHCCHHHHHHHHHHHHHHHHHHHHFFFF  F  F ",
"  HHHHHHCCHHHHHCCHHHHHHHHHHHHHFFFE F  F  F ",
" HHHHHCCHHHHHCCHHHHHHHHHHHHHFFFEF  F  F  F ",
" HHHHHHHHHHCCHHHHHHHHHHHHHFFFF  F  F  F    ",
" FHHHHHHHCCHHHHHHHHHHHHHFFFE F  F  F  D    ",
"  FFHHHHHHHHHHCCHHHHHHFFFEF  F  F  F       ",
"  F  FHHHHHHCCHHHHHHFFFF  F  F  F          ",
"  F  F  HHHHHHHHHHFFFE F  F  F  D          ",
"  F  F    HHHHHHFFFEF  F  F  F             ",
"  F  D      HHFFFF  F  F  F                ",
"  F          FFE F  F  F  D                ",
"             DF  F  F  F                   ",
"              F  F  F                      ",
"              F  F  D                      ",
"              F  F                         ",
"              F                            ",
"              D                            "
};
