/* XPM */
static char * exec_xpm[] = {
"34 34 756 2",
"  	c None",
". 	c #3E270B",
"+ 	c #3C240C",
"@ 	c #3D2910",
"# 	c #35260F",
"$ 	c #130C04",
"% 	c #CF842E",
"& 	c #B87228",
"* 	c #AF661F",
"= 	c #7B4B19",
"- 	c #070401",
"; 	c #0C0701",
"> 	c #1E1104",
", 	c #4A3619",
"' 	c #C78B39",
") 	c #613D14",
"! 	c #120A02",
"~ 	c #C97520",
"{ 	c #B56A1D",
"] 	c #B76F20",
"^ 	c #764816",
"/ 	c #060300",
"( 	c #8A6327",
"_ 	c #BB8033",
": 	c #755729",
"< 	c #1B1409",
"[ 	c #9B5E1C",
"} 	c #D38B32",
"| 	c #C38836",
"1 	c #9B6624",
"2 	c #291C0B",
"3 	c #0D0903",
"4 	c #443114",
"5 	c #7F561F",
"6 	c #CE802B",
"7 	c #BB7425",
"8 	c #BC7525",
"9 	c #915C1F",
"0 	c #5A3A12",
"a 	c #301D06",
"b 	c #462608",
"c 	c #D89737",
"d 	c #BF8130",
"e 	c #B57225",
"f 	c #9D6523",
"g 	c #2B1F0D",
"h 	c #0E0903",
"i 	c #C18533",
"j 	c #BF8335",
"k 	c #C07F2F",
"l 	c #BA7F30",
"m 	c #9E6D2C",
"n 	c #CD933D",
"o 	c #CA8C3B",
"p 	c #C8903C",
"q 	c #C08638",
"r 	c #BD873A",
"s 	c #B8792F",
"t 	c #B46921",
"u 	c #B47027",
"v 	c #AB641A",
"w 	c #BA6A19",
"x 	c #B8691B",
"y 	c #B87829",
"z 	c #BD8231",
"A 	c #7E5622",
"B 	c #150E05",
"C 	c #5E421A",
"D 	c #C9913E",
"E 	c #C08635",
"F 	c #BF8938",
"G 	c #C39042",
"H 	c #BC8438",
"I 	c #BA8233",
"J 	c #BE8939",
"K 	c #BD863A",
"L 	c #BA8336",
"M 	c #B9782E",
"N 	c #B57327",
"O 	c #AF681C",
"P 	c #AF6617",
"Q 	c #B67121",
"R 	c #B67426",
"S 	c #BB8131",
"T 	c #B47F35",
"U 	c #3C2A11",
"V 	c #463618",
"W 	c #E5AE49",
"X 	c #C48C38",
"Y 	c #C69A44",
"Z 	c #C8913F",
"` 	c #C08833",
" .	c #C28835",
"..	c #C48D38",
"+.	c #C5913E",
"@.	c #C08B39",
"#.	c #BE812F",
"$.	c #BC7826",
"%.	c #BA7725",
"&.	c #BF7E2B",
"*.	c #BD7725",
"=.	c #BD7B2A",
"-.	c #C38C3A",
";.	c #B78639",
">.	c #7F5F28",
",.	c #0D0A04",
"'.	c #715221",
").	c #3E2A0F",
"!.	c #2A1E0B",
"~.	c #D89939",
"{.	c #D49A41",
"].	c #C89643",
"^.	c #CAA04E",
"/.	c #CFAF5A",
"(.	c #CFA956",
"_.	c #CBA44F",
":.	c #CBA552",
"<.	c #CCA04D",
"[.	c #CBA14C",
"}.	c #C58F3A",
"|.	c #BF7E29",
"1.	c #BF802C",
"2.	c #C38A37",
"3.	c #C58730",
"4.	c #C68934",
"5.	c #C88D37",
"6.	c #C28631",
"7.	c #BF8A39",
"8.	c #785B28",
"9.	c #261C0C",
"0.	c #685A2E",
"a.	c #CDAA57",
"b.	c #423519",
"c.	c #462E0F",
"d.	c #D6892F",
"e.	c #B67730",
"f.	c #946228",
"g.	c #D68A34",
"h.	c #CA8539",
"i.	c #C0833D",
"j.	c #C88C41",
"k.	c #C99345",
"l.	c #CC9E50",
"m.	c #CCA150",
"n.	c #C69647",
"o.	c #C89E4C",
"p.	c #C8984C",
"q.	c #C59044",
"r.	c #C07D30",
"s.	c #C1792E",
"t.	c #BE7B2F",
"u.	c #BB7729",
"v.	c #BF7C31",
"w.	c #BD7D33",
"x.	c #B9772D",
"y.	c #BF7D35",
"z.	c #BF823C",
"A.	c #BA823B",
"B.	c #CD9748",
"C.	c #E5B35A",
"D.	c #CFA452",
"E.	c #8A6932",
"F.	c #110D06",
"G.	c #C28032",
"H.	c #C07F33",
"I.	c #BD7A2E",
"J.	c #B7752E",
"K.	c #C27F33",
"L.	c #C58A41",
"M.	c #C69144",
"N.	c #C08238",
"O.	c #BD8035",
"P.	c #C59049",
"Q.	c #C79445",
"R.	c #C39146",
"S.	c #C48E41",
"T.	c #C18A3E",
"U.	c #C0893C",
"V.	c #B77228",
"W.	c #BA752D",
"X.	c #BE7B31",
"Y.	c #BC7B31",
"Z.	c #BD7B30",
"`.	c #B7752D",
" +	c #BD7B31",
".+	c #C08439",
"++	c #C58E47",
"@+	c #C79546",
"#+	c #B88843",
"$+	c #523D1C",
"%+	c #2F1E09",
"&+	c #C07D2F",
"*+	c #BA7934",
"=+	c #B7742D",
"-+	c #B47430",
";+	c #AF6A26",
">+	c #B67026",
",+	c #B7712B",
"'+	c #BD7E38",
")+	c #BC7D37",
"!+	c #BC8439",
"~+	c #C08239",
"{+	c #BF853A",
"]+	c #C0843A",
"^+	c #B77A36",
"/+	c #BB8139",
"(+	c #AE6E2A",
"_+	c #B47029",
":+	c #B9762B",
"<+	c #B57531",
"[+	c #B7702A",
"}+	c #BE7E38",
"|+	c #BB7D36",
"1+	c #BC8339",
"2+	c #BE8139",
"3+	c #9F6E31",
"4+	c #473115",
"5+	c #311E09",
"6+	c #8D5920",
"7+	c #AD6520",
"8+	c #AC6927",
"9+	c #B26C29",
"0+	c #B56D27",
"a+	c #B5722C",
"b+	c #AC6A2A",
"c+	c #AC6E2F",
"d+	c #B4752F",
"e+	c #AF6925",
"f+	c #B46A20",
"g+	c #AB651D",
"h+	c #B66E26",
"i+	c #AD6621",
"j+	c #B57126",
"k+	c #B16821",
"l+	c #AD6420",
"m+	c #AC6826",
"n+	c #B26D29",
"o+	c #B5722D",
"p+	c #AD6A2B",
"q+	c #A96D2E",
"r+	c #6D4820",
"s+	c #2C1D0B",
"t+	c #42270C",
"u+	c #C97B29",
"v+	c #B97730",
"w+	c #BC7A30",
"x+	c #B67125",
"y+	c #AC6725",
"z+	c #B16B26",
"A+	c #B4722A",
"B+	c #B6722B",
"C+	c #B87A30",
"D+	c #B97B33",
"E+	c #AE6A26",
"F+	c #B26A20",
"G+	c #B16A1F",
"H+	c #AC631D",
"I+	c #A8601B",
"J+	c #B16D21",
"K+	c #B06D22",
"L+	c #AD6922",
"M+	c #B8762F",
"N+	c #BB7A2F",
"O+	c #B77226",
"P+	c #AD6825",
"Q+	c #B4712A",
"R+	c #B4712B",
"S+	c #654219",
"T+	c #040301",
"U+	c #4C3210",
"V+	c #C17326",
"W+	c #AA621C",
"X+	c #AA6421",
"Y+	c #B06922",
"Z+	c #B6742C",
"`+	c #B97A30",
" @	c #B97D35",
".@	c #BA7B31",
"+@	c #BD8033",
"@@	c #B6792D",
"#@	c #AE6724",
"$@	c #B1681F",
"%@	c #A45A18",
"&@	c #A9601C",
"*@	c #AB621D",
"=@	c #AE661C",
"-@	c #B16E22",
";@	c #AF6922",
">@	c #AA631D",
",@	c #AA6420",
"'@	c #B5722A",
")@	c #B97E34",
"!@	c #BB7C32",
"~@	c #7F5421",
"{@	c #0B0803",
"]@	c #090602",
"^@	c #844B14",
"/@	c #B3651D",
"(@	c #B0661F",
"_@	c #AE6520",
":@	c #B46D27",
"<@	c #B46A22",
"[@	c #B06923",
"}@	c #BB7C33",
"|@	c #BE7F32",
"1@	c #B8762C",
"2@	c #AF6C28",
"3@	c #A56226",
"4@	c #A36023",
"5@	c #A66328",
"6@	c #A86220",
"7@	c #BA762D",
"8@	c #B2722A",
"9@	c #AB611B",
"0@	c #AF661E",
"a@	c #B26C26",
"b@	c #B56B22",
"c@	c #B06823",
"d@	c #BA7A32",
"e@	c #BF8033",
"f@	c #9A6225",
"g@	c #35210C",
"h@	c #1F1106",
"i@	c #211409",
"j@	c #3A250D",
"k@	c #D1903A",
"l@	c #C28539",
"m@	c #CA8937",
"n@	c #BB7D33",
"o@	c #B87A33",
"p@	c #B06D26",
"q@	c #B36D23",
"r@	c #B36E27",
"s@	c #A75F20",
"t@	c #AC621B",
"u@	c #B76D24",
"v@	c #B06C29",
"w@	c #AE6B29",
"x@	c #AB6522",
"y@	c #B76F22",
"z@	c #C18434",
"A@	c #BD8338",
"B@	c #B77A31",
"C@	c #B97C32",
"D@	c #B16F27",
"E@	c #B26C22",
"F@	c #B57028",
"G@	c #A96420",
"H@	c #B46B22",
"I@	c #B06C28",
"J@	c #B7722C",
"K@	c #9F5E1F",
"L@	c #130B04",
"M@	c #43260A",
"N@	c #BB6E1C",
"O@	c #B87025",
"P@	c #B06D20",
"Q@	c #B7711F",
"R@	c #BA7222",
"S@	c #A9661E",
"T@	c #A45F1A",
"U@	c #B26F22",
"V@	c #B47025",
"W@	c #BB792F",
"X@	c #B57831",
"Y@	c #B9762C",
"Z@	c #BA792D",
"`@	c #B7762A",
" #	c #B46F25",
".#	c #AB6118",
"+#	c #AF661D",
"@#	c #AB6419",
"##	c #B77024",
"$#	c #B16E21",
"%#	c #B66F1E",
"&#	c #BA7322",
"*#	c #AC681F",
"=#	c #A35E1A",
"-#	c #BA782E",
";#	c #B9752C",
">#	c #BA792C",
",#	c #B8762B",
"'#	c #A06422",
")#	c #0B0601",
"!#	c #482E11",
"~#	c #C67C2B",
"{#	c #BA7727",
"]#	c #BD792A",
"^#	c #A95F18",
"/#	c #BD7524",
"(#	c #B56C1F",
"_#	c #A05C19",
":#	c #B7722A",
"<#	c #BD792D",
"[#	c #B66F25",
"}#	c #AE651F",
"|#	c #B9792D",
"1#	c #BA7D34",
"2#	c #BA7B32",
"3#	c #BA782B",
"4#	c #B26B1E",
"5#	c #B97629",
"6#	c #B67228",
"7#	c #B97626",
"8#	c #BE7B2B",
"9#	c #A85F19",
"0#	c #B66D1E",
"a#	c #A15B19",
"b#	c #B57129",
"c#	c #BD782C",
"d#	c #AD631D",
"e#	c #BA7C32",
"f#	c #A56A26",
"g#	c #0B0702",
"h#	c #33210C",
"i#	c #A86E29",
"j#	c #966023",
"k#	c #9E5F1D",
"l#	c #AC651C",
"m#	c #AC661B",
"n#	c #A85D17",
"o#	c #AA5E15",
"p#	c #AE671D",
"q#	c #BD8032",
"r#	c #B26B20",
"s#	c #B16B21",
"t#	c #BF8234",
"u#	c #BB7F33",
"v#	c #BA7A2E",
"w#	c #B67629",
"x#	c #AE6A23",
"y#	c #B67329",
"z#	c #B87328",
"A#	c #AF6920",
"B#	c #AC641C",
"C#	c #AD671C",
"D#	c #A75D17",
"E#	c #AD651C",
"F#	c #BC7E31",
"G#	c #B36E22",
"H#	c #B0691F",
"I#	c #B87C31",
"J#	c #855C25",
"K#	c #835722",
"L#	c #744B19",
"M#	c #0F0802",
"N#	c #0E0802",
"O#	c #7C4E18",
"P#	c #BC7B2A",
"Q#	c #BB7C2D",
"R#	c #BC7E30",
"S#	c #C18A3B",
"T#	c #C0873A",
"U#	c #C08637",
"V#	c #B26A1F",
"W#	c #BB7C2A",
"X#	c #B17328",
"Y#	c #AE6D24",
"Z#	c #AD621A",
"`#	c #AF651B",
" $	c #B4691D",
".$	c #B36B1C",
"+$	c #B36A1D",
"@$	c #B46E1E",
"#$	c #B87222",
"$$	c #BB7B2C",
"%$	c #C1893B",
"&$	c #C1873A",
"*$	c #C08838",
"=$	c #B46C20",
"-$	c #BA7A29",
";$	c #915E20",
">$	c #050300",
",$	c #4D300F",
"'$	c #C77E2B",
")$	c #BF8735",
"!$	c #BA7D2F",
"~$	c #BB7A2D",
"{$	c #C08234",
"]$	c #C38C3B",
"^$	c #BF8030",
"/$	c #BC7F30",
"($	c #BB7D2E",
"_$	c #BC792C",
":$	c #B77426",
"<$	c #B57024",
"[$	c #B87021",
"}$	c #BC7625",
"|$	c #BA7627",
"1$	c #BD7726",
"2$	c #BC7728",
"3$	c #BF8734",
"4$	c #BA7A2C",
"5$	c #BF8032",
"6$	c #C48E3E",
"7$	c #BD8031",
"8$	c #764E1C",
"9$	c #BE6B19",
"0$	c #AA6117",
"a$	c #B77929",
"b$	c #B87C2D",
"c$	c #BA7B2E",
"d$	c #BC7B2B",
"e$	c #BD8131",
"f$	c #B98335",
"g$	c #BF8C3B",
"h$	c #BC8538",
"i$	c #C18A38",
"j$	c #BC8032",
"k$	c #BD8437",
"l$	c #B9782D",
"m$	c #B66E23",
"n$	c #B7752A",
"o$	c #AD661A",
"p$	c #AB6016",
"q$	c #A96016",
"r$	c #B67727",
"s$	c #B97D2D",
"t$	c #B97B2D",
"u$	c #BD7C2C",
"v$	c #BD8030",
"w$	c #B68134",
"x$	c #5A421B",
"y$	c #050401",
"z$	c #211305",
"A$	c #9F5D16",
"B$	c #CC7D24",
"C$	c #B47124",
"D$	c #BB7F2F",
"E$	c #C38838",
"F$	c #C48D3C",
"G$	c #BF8333",
"H$	c #BE883C",
"I$	c #B87E33",
"J$	c #B97F32",
"K$	c #C08A3B",
"L$	c #BA8436",
"M$	c #B6762C",
"N$	c #B26D23",
"O$	c #AB6218",
"P$	c #AC6216",
"Q$	c #B36D1F",
"R$	c #B47022",
"S$	c #BA7E2E",
"T$	c #C28837",
"U$	c #C48D3D",
"V$	c #BC8232",
"W$	c #BB853A",
"X$	c #9A6C2D",
"Y$	c #503715",
"Z$	c #090601",
"`$	c #D08327",
" %	c #CA832B",
".%	c #BC7522",
"+%	c #BF7E2D",
"@%	c #C58F3D",
"#%	c #C6913F",
"$%	c #C4933E",
"%%	c #C48C39",
"&%	c #C69A45",
"*%	c #C48E3D",
"=%	c #BF8531",
"-%	c #BE8230",
";%	c #C08734",
">%	c #C38C39",
",%	c #BE8535",
"'%	c #BD7F2F",
")%	c #BB7727",
"!%	c #BA7625",
"~%	c #BE7B28",
"{%	c #BC7523",
"]%	c #BE7C2B",
"^%	c #C48D3B",
"/%	c #C6913E",
"(%	c #C48D39",
"_%	c #C69944",
":%	c #C48F3E",
"<%	c #BF8632",
"[%	c #B37A2D",
"}%	c #412D10",
"|%	c #865B1F",
"1%	c #CA8F3A",
"2%	c #C68830",
"3%	c #C48733",
"4%	c #C58E37",
"5%	c #C48934",
"6%	c #CB943F",
"7%	c #C89843",
"8%	c #CAA24F",
"9%	c #D0AF59",
"0%	c #CDA752",
"a%	c #CCA652",
"b%	c #CCA653",
"c%	c #CDA350",
"d%	c #CCA44F",
"e%	c #C48F3A",
"f%	c #C1802A",
"g%	c #BF812B",
"h%	c #C48B38",
"i%	c #C58830",
"j%	c #C58733",
"k%	c #C68E37",
"l%	c #CB933E",
"m%	c #C9A04E",
"n%	c #CFAF59",
"o%	c #CDA853",
"p%	c #8D7238",
"q%	c #100D06",
"r%	c #1B1107",
"s%	c #B97528",
"t%	c #B3732C",
"u%	c #794F1F",
"v%	c #A26928",
"w%	c #C38136",
"x%	c #C08139",
"y%	c #C78B3F",
"z%	c #C89345",
"A%	c #CB9F50",
"B%	c #CDA251",
"C%	c #C89644",
"D%	c #CA9F4C",
"E%	c #C89649",
"F%	c #C49042",
"G%	c #C17F31",
"H%	c #BE772A",
"I%	c #BB7628",
"J%	c #BE7A2E",
"K%	c #BC7C31",
"L%	c #BC7A2E",
"M%	c #C28035",
"N%	c #BF8038",
"O%	c #A97534",
"P%	c #7D5B2A",
"Q%	c #B78F48",
"R%	c #C1994D",
"S%	c #342711",
"T%	c #4E3515",
"U%	c #4E3415",
"V%	c #170F06",
"W%	c #402910",
"X%	c #A77436",
"Y%	c #C8954A",
"Z%	c #C5893D",
"`%	c #BF8539",
" &	c #C5924B",
".&	c #C99849",
"+&	c #C49349",
"@&	c #C69344",
"#&	c #C49043",
"$&	c #B9742A",
"%&	c #BC772E",
"&&	c #BE7B30",
"*&	c #BD7C30",
"=&	c #C17F34",
"-&	c #BC7931",
";&	c #C1863E",
">&	c #AD8141",
",&	c #4A3418",
"'&	c #0A0803",
")&	c #302614",
"!&	c #5B4621",
"~&	c #090703",
"{&	c #301F0C",
"]&	c #C67C31",
"^&	c #BE7E36",
"/&	c #BD7C36",
"(&	c #C0873D",
"_&	c #C1833A",
":&	c #C28A3E",
"<&	c #C0863B",
"[&	c #BC7F39",
"}&	c #BC823A",
"|&	c #B2712A",
"1&	c #B5712A",
"2&	c #BA7933",
"3&	c #B8772E",
"4&	c #B77731",
"5&	c #B36E29",
"6&	c #B2702A",
"7&	c #553514",
"8&	c #060401",
"9&	c #29180A",
"0&	c #D8812F",
"a&	c #B3722D",
"b&	c #AE6E2E",
"c&	c #AC7231",
"d&	c #B57935",
"e&	c #B5752E",
"f&	c #B16B25",
"g&	c #B1681E",
"h&	c #AC6820",
"i&	c #A96321",
"j&	c #B8722B",
"k&	c #AE6922",
"l&	c #BA772C",
"m&	c #AE661F",
"n&	c #A9611E",
"o&	c #A96524",
"p&	c #B16B28",
"q&	c #744519",
"r&	c #090502",
"s&	c #955D1F",
"t&	c #B66D27",
"u&	c #B26D27",
"v&	c #895620",
"w&	c #946229",
"x&	c #A46D2D",
"y&	c #A86625",
"z&	c #B26A21",
"A&	c #B06B20",
"B&	c #AF651E",
"C&	c #A85F1A",
"D&	c #A4631D",
"E&	c #895319",
"F&	c #BB7A32",
"G&	c #BC7D31",
"H&	c #B67428",
"I&	c #995C21",
"J&	c #271707",
"K&	c #40240B",
"L&	c #995F22",
"M&	c #B4742C",
"N&	c #A46E2C",
"O&	c #120C04",
"P&	c #261809",
"Q&	c #3F240C",
"R&	c #B4691C",
"S&	c #A45617",
"T&	c #AA601E",
"U&	c #874D17",
"V&	c #301D08",
"W&	c #180F05",
"X&	c #0F0903",
"Y&	c #90531A",
"Z&	c #A9611F",
"`&	c #8C5219",
" *	c #44290D",
".*	c #0C0702",
"+*	c #160E06",
"@*	c #5C3A17",
"#*	c #69461E",
"$*	c #AA6626",
"%*	c #A35D1C",
"&*	c #88531D",
"**	c #261505",
"=*	c #663C13",
"-*	c #1C1105",
";*	c #AC6626",
">*	c #A56421",
",*	c #B06F24",
"'*	c #885F26",
")*	c #0F0B04",
"!*	c #251607",
"~*	c #281707",
"{*	c #271606",
"]*	c #1C1004",
"                              . + @ #                               ",
"                            $ % & * = -     ; >                     ",
"                , ' )       ! ~ { ] ^ /     ( _ : <                 ",
"              [ } | 1 2 3 4 5 6 7 8 9 0 a b c d e f g               ",
"            h i j k l m n o p q r s t u v w x y z A B               ",
"              C D E F G H I J K L M N O P Q R S T U                 ",
"              V W X Y Z `  ...+.@.#.$.%.&.*.=.-.;.>.,.              ",
"      '.).  !.~.{.].^./.(._.:.<.[.}.|.1.2.3.4.5.6.7.8.9.0.a.b.      ",
"    c.d.e.f.g.h.i.j.k.l.m.n.o.p.q.r.s.t.u.v.w.x.y.z.A.B.C.D.E.F.    ",
"    G.H.I.J.K.L.M.N.O.P.Q.R.S.T.U.V.W.X.Y.Z.`. +L.q..+O.++@+#+$+    ",
"  %+&+*+=+-+;+>+,+'+)+!+~+{+]+^+/+(+_+:+*+=+<+;+>+[+}+|+1+2+3+4+    ",
"    5+6+7+7+8+9+0+a+b+c+^+d+e+f+g+7+h+i+j+k+l+m+n+0+o+p+q+r+s+-     ",
"      t+u+v+w+x+y+z+A+B+C+D+E+F+G+H+I+J+K+L+M+N+O+P+z+Q+R+S+T+      ",
"      U+V+W+X+Y+Z+`+ @.@+@@@#@$@%@&@*@=@-@;@>@,@Y+'@`+)@!@~@{@      ",
"  ]@]@^@/@(@_@:@<@[@}@|@1@2@3@4@5@6@7@8@W+9@0@_@a@b@c@d@e@f@g@h@i@  ",
"j@k@l@m@n@o@p@q@r@s@,@t@u@v@w@x@Y+y@z@A@B@C@D+D@E@F@s@G@t@H@I@J@K@L@",
"M@N@O@P@Q@R@S@T@U@V@W@X@Y@Z@`@ #.#+#@###$#%#&#*#=#$#V@-#X@;#>#,#'#)#",
"!#~#{#]#^#/#(#_#:#<#[#}#|#1#2#3#4#5#6#7#8#9#/#0#a#b#c#O+d#|#1#e#f#g#",
"h#i#j#k#l#m#n#o#p#q#r#s#t#u#v#w#'@x#y#z#A#B#C#D#o#E#F#G#H#I#J#K#L#g#",
"  M#N#O#P#Q#R#S#T#U#V#W#X#Y#Z#`# $.$+$@$#$y $$R#%$&$*$=$-$;$$ >$-   ",
"      ,$'$)$!$~${$]$^$/$($_$:$<$[$}$|$1$/#2$3$!$4$5$6$^$7$8$]@      ",
"      > 9$0$a$b$c$d$e$f$g$h$i$j$k$l$m$n$o$p$q$r$s$t$u$v$w$x$y$      ",
"    z$A$B$C$D$E$F$G$S H$I$J$K$r L$M$N$O$P$Q$R$S$T$U$G$V$W$X$Y$]@    ",
"  Z$`$ %.%+%@%#%$%%%&%*%=%-%;%>%,%'%)%!%~%{%]%^%/%$%(%_%:%<%[%}%    ",
"    |%1%2%3%4%5%6%7%8%9%0%a%b%c%d%e%f%g%h%i%j%k%5%l%7%m%n%o%p%q%    ",
"    r%s%t%u%v%w%x%y%z%A%B%C%D%E%F%G%H%t.I%J%K%L%M%N%O%P%Q%R%S%      ",
"      T%U%V%W%X%Y%Z%`% &.&+&@&#&F%$&%&&&*&=&-&Y.;&>&,&'&)&!&~&      ",
"              {&]&^&/&(&_&:&<&[&}&|&1&-#2&3&4&5&6&7&8&              ",
"              9&0&a&b&c&d&e&f&g&h&i&j&k&l&m&n&o&p&q&r&              ",
"              s&t&u&_+v&w&x&y&z&A&B&C&D&E&= F&G&H&I&J&              ",
"              K&L&M&N&{&O&P&Q&R&S&T&U&V&W&X&Y&Z&`& *.*              ",
"                +*@*#*]@      $*3@%*&*h     **=*-*-                 ",
"                    -         ;*>*,*'*)*                            ",
"                              !*~*{*]*                              "};
