/* XPM */
static char * file_xpm[] = {
"31 28 2 1",
" 	c #000000000000",
".	c #FFFFFFFFFFFF",
"                               ",
" ............................. ",
" ............................. ",
" ............................. ",
" ............................. ",
" ............................. ",
" ............................. ",
" ............................. ",
" ............................. ",
" ............................. ",
" ............................. ",
" ............................. ",
" ............................. ",
" ............................. ",
" ............................. ",
" ............................. ",
" ............................. ",
" ............................. ",
" ............................. ",
" ............................. ",
" ............................. ",
" ............................. ",
" ............................. ",
" ............................. ",
" ............................. ",
" ............................. ",
" ............................. ",
"                               "};
