/* XPM */
static char * help_xpm[] = {
"14 14 12 1",
" 	c None",
".	c #0091FF",
"+	c #38A9FF",
"@	c #219FFF",
"#	c #FFFFFF",
"$	c #C6E6FF",
"%	c #1C9DFF",
"&	c #71C1FF",
"*	c #E2F2FF",
"=	c #AADAFF",
"-	c #55B5FF",
";	c #8DCDFF",
"    ...+@.    ",
"   ...+#$%.   ",
"  ....&#*+..  ",
" ......&+.... ",
"..............",
"....&=##-.....",
".....=##-.....",
".....=##......",
".....##;......",
"....+##-+%....",
" ...=##%=+... ",
"  ..=##;-...  ",
"   .+==&...   ",
"    ......    "};
