/* XPM */
static char * help_xpm[] = {
"14 14 11 1",
" 	c None",
".	c #2828EF",
"+	c #8787F6",
"@	c #CECEFB",
"#	c #FFFFFF",
"$	c #9E9EF7",
"%	c #5757F2",
"&	c #E6E6FD",
"*	c #B7B7F9",
"=	c #6F6FF4",
"-	c #3F3FF0",
"    ......    ",
"   ....+...   ",
"  ....@#$...  ",
" .....%&%.... ",
"..............",
"....%+*+......",
".....*#*......",
".....@#=......",
".....##-......",
"....+##%+.....",
" ...*#*$=.... ",
"  ..+##%....  ",
"   ........   ",
"    ......    "};
