/* XPM */
static char *magick[] = {
/* columns rows colors chars-per-pixel */
"17 16 25 1",
"  c Gray0",
". c #626d5a",
"X c #6a7962",
"o c #7b896a",
"O c #7b8d73",
"+ c #83917b",
"@ c #a4b29c",
"# c #b4c2b4",
"$ c #bdc2b4",
"% c #c5cec5",
"& c #cdcec5",
"* c #cdd2c5",
"= c #cdd2cd",
"- c #cdd6cd",
"; c #d5d6cd",
": c #d5dacd",
"> c #d5d2d5",
", c #d5d6d5",
"< c #d5dad5",
"1 c #deded5",
"2 c #dedade",
"3 c #e6e6de",
"4 c #eef2ee",
"5 c Gray100",
"6 c None",
/* pixels */
"66666666 66   666",
"6666666 5 6 - 666",
"666666 53+  * 666",
"66666 55<$O % 666",
"6666 55;=&#O& 666",
"666 45;&&&*$o 666",
"66 55:&&*&&&$X 66",
"6 555*&&*&%%%@. 6",
"   55&&&&%%%%X   ",
"66 55*&%%%%%%X 66",
"66 55    %%%%X 66",
"66 55 %% %%%&X 66",
"66 55 && &&&%X 66",
"66 51 == &&%%X 66",
"66 *X XX XXXXX 66",
"66             66"
};
