/* XPM */
static char * home_xpm[] = {
"14 14 6 1",
" 	c None",
".	c #000000",
"+	c #F9B62F",
"@	c #D35D26",
"#	c #02ACDB",
"$	c #9E4306",
"              ",
"   ........   ",
"  .++++++++.  ",
" .++++++++++. ",
".++++++++++++.",
"..............",
" .@@@@@@@@@@. ",
" .@##@##@##@. ",
" .@##@##@##@. ",
" .@@@@@@@@@@. ",
" .@##@$$@##@. ",
" .@##@$$@##@. ",
" .@@@@$$@@@@. ",
" ............ "};
