/* XPM */
static char * mount_xpm[] = {
"8 12 3 1",
" 	c None",
".	c #000000",
"+	c #25BBF7",
"........",
".++++++.",
".+++++. ",
".++++.  ",
".+++.   ",
".++.    ",
".++.    ",
".+++.   ",
".++++.  ",
".+++++. ",
".++++++.",
"........"};
