/* XPM */
static char * mount_xpm[] = {
"16 16 7 1",
" 	c None",
".	c #000000",
"+	c #FFFFFF",
"@	c #C0C0C0",
"#	c #A0A0A4",
"$	c #585858",
"%	c #808080",
"      ....      ",
"    ..+@#@..    ",
"   .++++.#++.   ",
"  .++@$%..#++.  ",
" .+@$......#+@. ",
" .@$........@+. ",
".@%........@++%.",
".%.....%..#+++#.",
".$.....@.%++++@.",
".$....@+@++++##.",
" ....#++++++@.. ",
" ...$++++++@... ",
"  ...%+++@%...  ",
"   ...%+#%...   ",
"    ...#%...    ",
"      ....      "};
