/* XPM */
static char * mounted_xpm[] = {
"28 12 4 1",
" 	c None",
".	c #000000",
"+	c #25BBF7",
"@	c #FFC300",
"............................",
".++++++.@@@@@@@@@@@@@@@@@@@.",
".+++++.@@@@@@@@@@@@@@@@@@@@.",
".++++.@@@@@@@@@@@@@@@@@@@@@.",
".+++.@@@@@@@@@@@@@@@@@@@@@@.",
".++.@@@@@@@@@@@@@@@@@@@@@@@.",
".++.@@@@@@@@@@@@@@@@@@@@@@@.",
".+++.@@@@@@@@@@@@@@@@@@@@@@.",
".++++.@@@@@@@@@@@@@@@@@@@@@.",
".+++++.@@@@@@@@@@@@@@@@@@@@.",
".++++++.@@@@@@@@@@@@@@@@@@@.",
"............................"};
