/* XPM */
static char * mounted_xpm[] = {
"16 16 8 1",
" 	c None",
".	c #000000",
"+	c #00CE02",
"@	c #C0C0C0",
"#	c #A0A0A4",
"$	c #585858",
"%	c #404000",
"&	c #808080",
"      ....      ",
"    ..+@#@..    ",
"   .++++.#++.   ",
"  .++@$%..#++.  ",
" .+@$......#+@. ",
" .@$........@+. ",
".@&........@++&.",
".&.....%..#+++#.",
".$.....@.&++++@.",
".$....@+@++++#%.",
" ....#++++++@.. ",
" ...$++++++@... ",
"  ...&+++@&...  ",
"   ...&+#%...   ",
"    ...#&...    ",
"      ....      "};
