/* XPM */
static char *package[] = {
/* columns rows colours chars-per-pixel */
"46 44 17 1"/* palette data */
,
"A c #ffffff",
"B c #dddddd",
"C c #bbbbbb",
"D c #999999",
"E c #777777",
"F c #555555",
"G c #333333",
"H c #000000",
"I c #004499",
"J c #eeee00",
"K c #00cc00",
"L c #dd0000",
"M c #eeeebb",
"N c #558800",
"O c #ffbb00",
"P c #00bbff"
"  c None"
/* pixel data */,
"FHHHHHHHHHHHHHHHHHHHHHHHHHHHHHHHHF            ",
"HBAAAAAAAAAAAAAAAAAAAAAAAAAAAAAADH            ",
"HAAAAAAAAAAAAAAAAAAAAAAAAAAAAAACEH            ",
"HAABBCBCBCBCBCBCBCBCBCBCBCBCBCCEDH            ",
"HAABCBCBCBCBCBCBCBCBCBCBCBCBCBCDEH            ",
"HAACBCFHHHHHHHHHHHHHHHHHHHHHHHHHHHHHHHHF      ",
"HAABCBHBAAAAAAAAAAAAAAAAAAAAAAAAAAAAAADH      ",
"HAACBCHAAAAAAAAAAAAAAAAAAAAAAAAAAAAAACEH      ",
"HAABCBHAABBCBCBCBCBCBCBCBCBCBCBCBCBCCEDH      ",
"HAACBCHAABCBCBCBCBCBCBCBCBCBCBCBCBCBCDEH      ",
"HAABCBHAACBCFHHHHHHHHHHHHHHHHHHHHHHHHHHHHHHHHF",
"HAACBCHAABCBHBAAAAAAAAAAAAAAAAAAAAAAAAAAAAAADH",
"HAABCBHAACBCHAAAAAAAAAAAAAAAAAAAAAAAAAAAAAACEH",
"HAACBCHAABCBHAABBCBCBCBCBCBCBCBCBCBCBCBCBCCEDH",
"HAABCBHAACBCHAABCBCBCBCBCBCBCBCBCBCBCBCBCBCDEH",
"HAACBCHAABCBHAACBCBCBCBCBCBCBCBCBCBCBCBCBCBEDH",
"HAABCBHAACBCHAABCBCBCBCBCBCBCBCBCBCBCBCBCBCDEH",
"HAACBCHAABCBHAACBCBCBCBCBCBCBCBCBCBCBCBCBCBEDH",
"HAABCBHAACBCHAABCBCBCBCBCBCBCBCBCBCBCBCBCBCDEH",
"HAACBCHAABCBHAACBCBCBCBCBCBCBCBCBCBCBCBCBCBEDH",
"HAABCBHAACBCHAABCBCBCBCBCBCBCBCBCBCBCBCBCBCDEH",
"HAACBCHAABCBHAACBCBCBCBCBCBCBCBCBCBCBCBCBCBEDH",
"HAABCBHAACBCHAABCBCBCBCBCBCBCBCBCBCBCBCBCBCDEH",
"HAACBCHAABCBHAACBCBCBCBCBCBCBCBCBCBCBCBCBCBEDH",
"HAABCBHAACBCHAABCBCBCBCBCBCBCBCBCBCBCBCBCBCDEH",
"HAACBCHAABCBHAACBCBCBCBCBCBCBCBCBCBCBCBCBCBEDH",
"HAABCBHAACBCHAABCBCBCBCBCBCBCBCBCBCBCBCBCBCDEH",
"HAACBCHAABCBHAACBCBCBCBCBCBCBCBCBCBCBCBCBCBEDH",
"HAABCBHAACBCHAABCBCBCBCBCBCBCBCBCBCBCBCBCBCDEH",
"HAACBCHAABCBHAACBCBCBCBCBCBCBCBCBCBCBCBCBCBEDH",
"HAACCBHAACBCHAABCBCBCBCBCBCBCBCBCBCBCBCBCBCDEH",
"HACEDEHAABCBHAACBCBCBCBCBCBCBCBCBCBCBCBCBCBEDH",
"HDEDEDHAACBCHAABCBCBCBCBCBCBCBCBCBCBCBCBCBCDEH",
"FHHHHHHAABCBHAACBCBCBCBCBCBCBCBCBCBCBCBCBCBEDH",
"      HAACBCHAABCBCBCBCBCBCBCBCBCBCBCBCBCBCDEH",
"      HAACCBHAACBCBCBCBCBCBCBCBCBCBCBCBCBCBEDH",
"      HACEDEHAABCBCBCBCBCBCBCBCBCBCBCBCBCBCDEH",
"      HDEDEDHAACBCBCBCBCBCBCBCBCBCBCBCBCBCBEDH",
"      FHHHHHHAABCBCBCBCBCBCBCBCBCBCBCBCBCBCDEH",
"            HAACBCBCBCBCBCBCBCBCBCBCBCBCBCBEDH",
"            HAACCBCBCBCBCBCBCBCBCBCBCBCBCBDDEH",
"            HACEDEDEDEDEDEDEDEDEDEDEDEDEDEDEDH",
"            HDEDEDEDEDEDEDEDEDEDEDEDEDEDEDEDFH",
"            FHHHHHHHHHHHHHHHHHHHHHHHHHHHHHHHHF"
};
