/* XPM */
static char * multiple_xpm[] = {
"31 28 3 1",
" 	c #000000000000",
".	c None",
"X	c #FFFFFFFFFFFF",
"                         ......",
" XXXXXXXXXXXXXXXXXXXXXXX ......",
" XXXXXXXXXXXXXXXXXXXXXXX ......",
" XXXXXXXXXXXXXXXXXXXXXXX    ...",
" XXXXXXXXXXXXXXXXXXXXXXX XX ...",
" XXXXXXXXXXXXXXXXXXXXXXX XX ...",
" XXXXXXXXXXXXXXXXXXXXXXX XX    ",
" XXXXXXXXXXXXXXXXXXXXXXX XX XX ",
" XXXXXXXXXXXXXXXXXXXXXXX XX XX ",
" XXXXXXXXXXXXXXXXXXXXXXX XX XX ",
" XXXXXXXXXXXXXXXXXXXXXXX XX XX ",
" XXXXXXXXXXXXXXXXXXXXXXX XX XX ",
" XXXXXXXXXXXXXXXXXXXXXXX XX XX ",
" XXXXXXXXXXXXXXXXXXXXXXX XX XX ",
" XXXXXXXXXXXXXXXXXXXXXXX XX XX ",
" XXXXXXXXXXXXXXXXXXXXXXX XX XX ",
" XXXXXXXXXXXXXXXXXXXXXXX XX XX ",
" XXXXXXXXXXXXXXXXXXXXXXX XX XX ",
" XXXXXXXXXXXXXXXXXXXXXXX XX XX ",
" XXXXXXXXXXXXXXXXXXXXXXX XX XX ",
" XXXXXXXXXXXXXXXXXXXXXXX XX XX ",
"                         XX XX ",
"... XXXXXXXXXXXXXXXXXXXXXXX XX ",
"... XXXXXXXXXXXXXXXXXXXXXXX XX ",
"...                         XX ",
"...... XXXXXXXXXXXXXXXXXXXXXXX ",
"...... XXXXXXXXXXXXXXXXXXXXXXX ",
"......                         "};
