/* XPM */
static char * pipe_xpm[] = {
"44 28 6 1",
" 	c None",
".	c #000000000000",
"X	c #FFFFFFFFFFFF",
"o	c #E1E1E6E6E6E6",
"O	c #C8C8C4C4CCCC",
"+	c #A0A0A3A3A3A3",
"                                            ",
"                                            ",
"  ......                            ....... ",
"  .XXXXX.                          .XXXXXX. ",
"  .oXXXXX.                        .XXXXXXo. ",
"  .oooooOO........................OOoooooo. ",
"  .oooooOO.OOOOOOOOOOOOOOOOOOOOOO.OOoooooo. ",
"  .oooooOO.OOOOOOOOOOOOOOOOOOOOOO.OOoooooo. ",
"  .oooooOO........................OOoooooo. ",
"  .oooooOO.XXXXXXXXXXXXXXXXXXXXXX.OOoooooo. ",
"  .oooooOO.XXXXXXXXXXXXXXXXXXXXXX.OOoooooo. ",
"  .oooooOO........................OOoooooo. ",
"  .oooooOO.OOOOOOOOOOOOOOOOOOOOOO.OOoooooo. ",
"  .oooooOO.OOOOOOOOOOOOOOOOOOOOOO.OOoooooo. ",
"  .oooooOO........................OOoooooo. ",
"  .oooooOO.++++++++++++++++++++++.OOoooooo. ",
"  .ooooOOO.++++++++++++++++++++++.OOOooooo. ",
"  .oooOOOO........................OOOOoooo. ",
"  .OOOOOO.                        .OOOOOOO. ",
"  .OOOOO.                          .OOOOOO. ",
"  ......                            ....... ",
"                                            ",
"                                            ",
"                                            ",
"                                            ",
"                                            ",
"                                            ",
"                                            "};
