/* XPM */
static char * refresh_xpm[] = {
"14 14 36 1",
" 	c None",
".	c #1B1BA6",
"+	c #5151A3",
"@	c #0000E4",
"#	c #0000F5",
"$	c #18189E",
"%	c #1010AE",
"&	c #4A4AB1",
"*	c #0000E6",
"=	c #2727AF",
"-	c #0C0CAF",
";	c #5656AB",
">	c #4747AC",
",	c #2C2CAD",
"'	c #1E1EAD",
")	c #0E0EA1",
"!	c #2D2DB1",
"~	c #7D7DB7",
"{	c #0000FE",
"]	c #5555A0",
"^	c #03039D",
"/	c #0909CE",
"(	c #2727B9",
"_	c #1313AC",
":	c #6565A0",
"<	c #2D2DB0",
"[	c #0202BA",
"}	c #0000C3",
"|	c #5D5DBE",
"1	c #2B2BAF",
"2	c #131395",
"3	c #0E0E8E",
"4	c #19199F",
"5	c #2727B2",
"6	c #0000F8",
"7	c #6060AC",
"              ",
"              ",
"     .+ @#$   ",
"    %   &*=   ",
"   -      ;>  ",
"  ,        '  ",
"  )         ! ",
"~{#]        ^ ",
" /(         _ ",
"              ",
"  :<     [@}  ",
"    |1234567  ",
"              ",
"              "};
