/* XPM */
static char *magick[] = {
/* columns rows colors chars-per-pixel */
"14 16 13 1",
"  c Gray0",
". c #314429",
"X c #415031",
"o c #415531",
"O c #415931",
"+ c #4a6139",
"@ c #526541",
"# c #526941",
"$ c #5a7141",
"% c #5a754a",
"& c #d5d2d5",
"* c #d5d6d5",
"= c None",
/* pixels */
"====== =======",
"=====  =======",
"==== #+   ====",
"=== @$@@+o  ==",
"==== #@   oo =",
"== ==  === . =",
"= ==== ==== . ",
"  ==========  ",
"  ==========  ",
" X ==== ==== =",
"= X ===  == ==",
"= o+   @O ====",
"==  @@%@+@ ===",
"====   +o ====",
"=======  =====",
"======= ======"
};
