/* XPM */
static char * small_xpm[] = {
"17 16 8 1",
" 	c None",
".	c #000000",
"+	c #FFFFFF",
"@	c #EEF2EE",
"#	c #DEDED5",
"$	c #C5CEC5",
"%	c #83917B",
"&	c #6A7962",
"........ ........",
".++++@#. .++++@#.",
".+$$$$%. .+$$$$%.",
".+$$$$&. .+$$$$&.",
".@$$$$&. .@$$$$&.",
".#%&&&&. .#%&&&&.",
"........ ........",
"                 ",
"                 ",
"........ ........",
".++++@#. .++++@#.",
".+$$$$%. .+$$$$%.",
".+$$$$&. .+$$$$&.",
".@$$$$&. .@$$$$&.",
".#%&&&&. .#%&&&&.",
"........ ........"};
