/* XPM */
static char * symlink_xpm[] = {
"26 12 3 1",
" 	c None",
".	c #000000000000",
"X	c #FFFFFFFF0000",
"                  ...     ",
"                  ....    ",
"                  ..X..   ",
"....................XX..  ",
"....................XXX.. ",
"..XXXXXXXXXXXXXXXXXXXXXX..",
"..XXXXXXXXXXXXXXXXXXXXXX..",
"....................XXX.. ",
"....................XX..  ",
"                  ..X..   ",
"                  ....    ",
"                  ...     "};
