/* XPM */
static char * symlink_xpm[] = {
"6 12 5 1",
" 	c None",
".	c #000000",
"+	c #FFFF00",
"@	c #D8D800",
"#	c #BCBC00",
".     ",
"..    ",
".+.   ",
".++.  ",
".@@+. ",
".@@@@.",
".@@@#.",
".@##. ",
".##.  ",
".#.   ",
"..    ",
".     "};
