/* XPM */
static char * unknown_xpm[] = {
"44 28 4 1",
" 	c None",
".	c #000000000000",
"X	c #FFFFFFFFFFFF",
"o	c #00000000FFFF",
"       ...............................      ",
"       .XXXXXXXXXXXXXXXXXXXXXXXXXXXXX.      ",
"       .XXXXXXXXXX......XXXXXXXXXXXXX.      ",
"       .XXXXXXXX..XXXXXo..XXXXXXXXXXX.      ",
"       .XXXXXXX.XXoooooooo.XXXXXXXXXX.      ",
"       .XXXXXX.Xooooooooooo.XXXXXXXXX.      ",
"       .XXXXXX.oooo....oooo.XXXXXXXXX.      ",
"       .XXXXX.Xoo..XXXX.ooo.XXXXXXXXX.      ",
"       .XXXXX.ooo.XXXXX.ooo.XXXXXXXXX.      ",
"       .XXXXXX...XXXXX.Xooo.XXXXXXXXX.      ",
"       .XXXXXXXXXXXXXX.Xoo.XXXXXXXXXX.      ",
"       .XXXXXXXXXXXXX.Xooo.XXXXXXXXXX.      ",
"       .XXXXXXXXXXXX.Xooo.XXXXXXXXXXX.      ",
"       .XXXXXXXXXXXX.Xooo.XXXXXXXXXXX.      ",
"       .XXXXXXXXXXX.Xooo.XXXXXXXXXXXX.      ",
"       .XXXXXXXXXXX.Xoo.XXXXXXXXXXXXX.      ",
"       .XXXXXXXXXXX.ooo.XXXXXXXXXXXXX.      ",
"       .XXXXXXXXXXX.ooo.XXXXXXXXXXXXX.      ",
"       .XXXXXXXXXXXX...XXXXXXXXXXXXXX.      ",
"       .XXXXXXXXXXXXXXXXXXXXXXXXXXXXX.      ",
"       .XXXXXXXXXXXXXXXXXXXXXXXXXXXXX.      ",
"       .XXXXXXXXXXXX...XXXXXXXXXXXXXX.      ",
"       .XXXXXXXXXXX.XXo.XXXXXXXXXXXXX.      ",
"       .XXXXXXXXXXX.Xoo.XXXXXXXXXXXXX.      ",
"       .XXXXXXXXXXX.ooo.XXXXXXXXXXXXX.      ",
"       .XXXXXXXXXXXX...XXXXXXXXXXXXXX.      ",
"       .XXXXXXXXXXXXXXXXXXXXXXXXXXXXX.      ",
"       ...............................      "};
