/* XPM */
static char * unknown_xpm[] = {
"31 28 3 1",
" 	c #000000000000",
".	c #FFFFFFFFFFFF",
"X	c #00000000FFFF",
"                               ",
" ............................. ",
" ..........      ............. ",
" ........  .....X  ........... ",
" ....... ..XXXXXXXX .......... ",
" ...... .XXXXXXXXXXX ......... ",
" ...... XXXX    XXXX ......... ",
" ..... .XX  .... XXX ......... ",
" ..... XXX ..... XXX ......... ",
" ......   ..... .XXX ......... ",
" .............. .XX .......... ",
" ............. .XXX .......... ",
" ............ .XXX ........... ",
" ............ .XXX ........... ",
" ........... .XXX ............ ",
" ........... .XX ............. ",
" ........... XXX ............. ",
" ........... XXX ............. ",
" ............   .............. ",
" ............................. ",
" ............................. ",
" ............   .............. ",
" ........... ..X ............. ",
" ........... .XX ............. ",
" ........... XXX ............. ",
" ............   .............. ",
" ............................. ",
"                               "};
