/* XPM */
static char * up_xpm[] = {
"14 14 29 1",
" 	c None",
".	c #00070A",
"+	c #000709",
"@	c #00607C",
"#	c #005876",
"$	c #019ACD",
"%	c #000608",
"&	c #00506F",
"*	c #018CC2",
"=	c #000508",
"-	c #004869",
";	c #017FB8",
">	c #00121C",
",	c #002234",
"'	c #0171AD",
")	c #000F19",
"!	c #0064A2",
"~	c #000D18",
"{	c #005698",
"]	c #000B16",
"^	c #00488D",
"/	c #000914",
"(	c #003B82",
"_	c #000713",
":	c #002D78",
"<	c #000411",
"[	c #001F6D",
"}	c #00020C",
"|	c #000D43",
"      ..      ",
"     +@@+     ",
"    +#$$#+    ",
"   %&****&%   ",
"  =-;;;;;;-=  ",
"  =>,'''',>=  ",
"    )!!!!)    ",
"    ~{{{{~    ",
"    ]^^^^]    ",
"    /((((/    ",
"    _::::_    ",
"    <[[[[<    ",
"    }||||}    ",
"              "};
