/* XPM */
static char *magick[] = {
/* columns rows colors chars-per-pixel */
"14 14 38 1",
"  c Gray0",
". c #000400",
"X c #181c18",
"o c #627d52",
"O c #62855a",
"+ c #6a855a",
"@ c #738d62",
"# c #739162",
"$ c #7b956a",
"% c #839d73",
"& c #8ba57b",
"* c #8baa7b",
"= c #8bae7b",
"- c #8ba583",
"; c #8baa83",
": c #8bae83",
"> c #94aa83",
", c #94ae83",
"< c #94aa8b",
"1 c #94b283",
"2 c #94b683",
"3 c #94b28b",
"4 c #9cb68b",
"5 c #9cb694",
"6 c #bdbeb4",
"7 c #bdc2bd",
"8 c #d5d2d5",
"9 c #d5d6d5",
"0 c #d5dad5",
"q c #dedad5",
"w c Gray87",
"e c #e6e2e6",
"r c #e6e6e6",
"t c #eeeaee",
"y c #eeeeee",
"u c #f6eef6",
"i c #f6f2f6",
"p c None",
/* pixels */
"pppppp  pppppp",
"pppppp  pppppp",
"pppppX0<.ppppp",
"ppppp w> ppppp",
"pppp ee3+ pppp",
"pppp tt5- pppp",
"ppp eyu4>O ppp",
"ppp tuu2,# ppp",
"pp eyui1,%+ pp",
"pp tuii==;$ pp",
"p eyuii===&+ p",
"p qrttr:,*&@ p",
" 667777####+o ",
"              "
};
