/* XPM */
static char * zoom_xpm[] = {
"17 16 13 1",
" 	c None",
".	c #727272",
"+	c #2B2B2B",
"@	c #050505",
"#	c #002F59",
"$	c #0066C0",
"%	c #0083F7",
"&	c #004A8C",
"*	c #0088FF",
"=	c #9BFFFF",
"-	c #000000",
";	c #707070",
">	c #939393",
"   .+@@+.        ",
"  +#$%%$#+       ",
" +&******&+      ",
".#****==**#.     ",
"+$******=*$+     ",
"@%********%@     ",
"@%********%@     ",
"+$********$+     ",
".#********#.     ",
" +&******&+-     ",
"  +#$%%$#+--;    ",
"   .+@@+.>;--;   ",
"           ;--;  ",
"            ;--; ",
"             ;--;",
"              ;; "};
