/* XPM */
static char * text_x_java_xpm[] = {
"39 39 1044 2",
"  	c None",
". 	c #435964",
"+ 	c #001121",
"@ 	c #00071C",
"# 	c #00031C",
"$ 	c #000D2B",
"% 	c #00021C",
"& 	c #4F5B71",
"* 	c #506673",
"= 	c #19394E",
"- 	c #85AAC5",
"; 	c #8FB1D4",
"> 	c #8AAAD1",
", 	c #9AB5E0",
"' 	c #889FC8",
") 	c #293D5E",
"! 	c #42546C",
"~ 	c #364C5A",
"{ 	c #1E3D52",
"] 	c #84B1D2",
"^ 	c #6C9FCA",
"/ 	c #79A9DA",
"( 	c #6997CB",
"_ 	c #759ED6",
": 	c #7B9ED4",
"< 	c #7FA0CD",
"[ 	c #203D5F",
"} 	c #3B5468",
"| 	c #364C61",
"1 	c #3A5369",
"2 	c #7295B3",
"3 	c #629BC6",
"4 	c #6EAFE5",
"5 	c #4987C4",
"6 	c #5A93D6",
"7 	c #588ACF",
"8 	c #6D9DDF",
"9 	c #7BA6DD",
"0 	c #7FA4D0",
"a 	c #143651",
"b 	c #476371",
"c 	c #57606F",
"d 	c #000215",
"e 	c #00122A",
"f 	c #1E3650",
"g 	c #829BB9",
"h 	c #8AB1D8",
"i 	c #64A5DB",
"j 	c #519CDD",
"k 	c #5199E1",
"l 	c #5497E5",
"m 	c #65A2F2",
"n 	c #4F87D2",
"o 	c #6699DA",
"p 	c #85B3E5",
"q 	c #82AACD",
"r 	c #1C3F53",
"s 	c #000D17",
"t 	c #000E13",
"u 	c #00040E",
"v 	c #000717",
"w 	c #060E25",
"x 	c #000019",
"y 	c #000C1F",
"z 	c #000D1D",
"A 	c #000F1F",
"B 	c #011120",
"C 	c #051222",
"D 	c #081422",
"E 	c #0B1521",
"F 	c #0D1520",
"G 	c #7A818B",
"H 	c #474F5C",
"I 	c #2C4059",
"J 	c #89A4C2",
"K 	c #859FC0",
"L 	c #98B5D7",
"M 	c #85A5CC",
"N 	c #6C9DC8",
"O 	c #529DD4",
"P 	c #4A9EDE",
"Q 	c #5CA1EC",
"R 	c #5594E4",
"S 	c #5491E4",
"T 	c #69A2F3",
"U 	c #5C94DE",
"V 	c #679DDB",
"W 	c #76A6D6",
"X 	c #87B5D7",
"Y 	c #7CA6BF",
"Z 	c #88AEC5",
"` 	c #96B5D1",
" .	c #88A3C1",
"..	c #899FC4",
"+.	c #8FA3C6",
"@.	c #899DB6",
"#.	c #8B9CB0",
"$.	c #9198AB",
"%.	c #9295A8",
"&.	c #9192A4",
"*.	c #9190A0",
"=.	c #908F9F",
"-.	c #8D8F9C",
";.	c #3E4150",
">.	c #858995",
",.	c #000513",
"'.	c #82ACD2",
").	c #73A5D6",
"!.	c #719AC6",
"~.	c #7CA1CD",
"{.	c #7AA4D6",
"].	c #5591C3",
"^.	c #4CA5D1",
"/.	c #4CA4D6",
"(.	c #6099DC",
"_.	c #6994E2",
":.	c #6693E6",
"<.	c #6295E8",
"[.	c #5A98E5",
"}.	c #5898E0",
"|.	c #619CDE",
"1.	c #6AA5E1",
"2.	c #629ED4",
"3.	c #6AA3D8",
"4.	c #6198CE",
"5.	c #76A9E2",
"6.	c #668FCD",
"7.	c #6E92C6",
"8.	c #6F90AF",
"9.	c #7C8DA1",
"0.	c #B3A7BF",
"a.	c #EFD6EC",
"b.	c #FBE2F5",
"c.	c #EFD7E7",
"d.	c #EED9E8",
"e.	c #A294A3",
"f.	c #7A7687",
"g.	c #4C4E5D",
"h.	c #000D1A",
"i.	c #73A6D5",
"j.	c #5694CD",
"k.	c #6593C5",
"l.	c #6B95C5",
"m.	c #5483B9",
"n.	c #6DABDE",
"o.	c #55A4CB",
"p.	c #59A4CC",
"q.	c #6C99D2",
"r.	c #7594D5",
"s.	c #7394DB",
"t.	c #6E96DE",
"u.	c #639ADD",
"v.	c #5F9DDA",
"w.	c #5C97D1",
"x.	c #6299D1",
"y.	c #598BBE",
"z.	c #6C97CA",
"A.	c #6189BC",
"B.	c #5273A8",
"C.	c #8EA7DF",
"D.	c #B7C9F9",
"E.	c #9DAECA",
"F.	c #D8DDF0",
"G.	c #D8C5DB",
"H.	c #B99CB2",
"I.	c #B19AAC",
"J.	c #B8A3B2",
"K.	c #AC95A7",
"L.	c #E6D3E6",
"M.	c #B8ADBE",
"N.	c #535260",
"O.	c #AEBBC4",
"P.	c #091724",
"Q.	c #7EB1E0",
"R.	c #66A4DD",
"S.	c #6C9ACC",
"T.	c #5B85B5",
"U.	c #09386E",
"V.	c #001444",
"W.	c #001538",
"X.	c #001536",
"Y.	c #001039",
"Z.	c #000E3E",
"`.	c #000B3F",
" +	c #000D3F",
".+	c #00133C",
"++	c #001637",
"@+	c #001028",
"#+	c #001B2E",
"$+	c #000213",
"%+	c #050112",
"&+	c #4B3A4C",
"*+	c #E5CDDD",
"=+	c #E4C3D6",
"-+	c #C0A1B3",
";+	c #FFF6FF",
">+	c #AF9EAE",
",+	c #C4B5C8",
"'+	c #DBD4E6",
")+	c #A1AABB",
"!+	c #A8B4C4",
"~+	c #EEE9FD",
"{+	c #9B8EA2",
"]+	c #F2E6F4",
"^+	c #86858B",
"/+	c #6C7C7B",
"(+	c #889B97",
"_+	c #010F1C",
":+	c #70A3D2",
"<+	c #032D5D",
"[+	c #18477D",
"}+	c #7CABDF",
"|+	c #89B0D9",
"1+	c #8BB1D5",
"2+	c #89B3D9",
"3+	c #8DB2DC",
"4+	c #98AEDF",
"5+	c #98AFDB",
"6+	c #8EB5D6",
"7+	c #8AB8CF",
"8+	c #87B7C1",
"9+	c #A1C0C3",
"0+	c #B5B0B6",
"a+	c #EECFD4",
"b+	c #FFDBDE",
"c+	c #976365",
"d+	c #B57D7E",
"e+	c #FFD0D3",
"f+	c #DAACB6",
"g+	c #D9B9C6",
"h+	c #ECDEED",
"i+	c #C7CDDB",
"j+	c #98B4C2",
"k+	c #91ACBD",
"l+	c #BABCD1",
"m+	c #F9EDFF",
"n+	c #A89AA7",
"o+	c #EBE6EA",
"p+	c #ADBEB6",
"q+	c #81988E",
"r+	c #AEB7B6",
"s+	c #6DABE4",
"t+	c #517FB1",
"u+	c #002151",
"v+	c #74A3D9",
"w+	c #6FA0D8",
"x+	c #77A4DB",
"y+	c #74A7DC",
"z+	c #68B0E0",
"A+	c #6BB1E4",
"B+	c #7CAAE5",
"C+	c #81AAE2",
"D+	c #77B0DD",
"E+	c #73B4D4",
"F+	c #7EBFD1",
"G+	c #76A0AC",
"H+	c #BDB9C7",
"I+	c #F2D0DE",
"J+	c #A0757E",
"K+	c #C49397",
"L+	c #FFD7DA",
"M+	c #FFEDF0",
"N+	c #B8858C",
"O+	c #FFEEF8",
"P+	c #B1A1AB",
"Q+	c #C6CFD8",
"R+	c #95B6BF",
"S+	c #93B1BC",
"T+	c #A6A7BB",
"U+	c #EDDBF1",
"V+	c #AB96A5",
"W+	c #FCF3F8",
"X+	c #A9BDB4",
"Y+	c #A2BCB1",
"Z+	c #9DA9A7",
"`+	c #6C9FCE",
" @	c #62A0D9",
".@	c #608EC0",
"+@	c #000737",
"@@	c #78A7DD",
"#@	c #81B4ED",
"$@	c #6393D1",
"%@	c #5C98D4",
"&@	c #4CA3D8",
"*@	c #4FA4DB",
"=@	c #659CDD",
"-@	c #6C9CDC",
";@	c #63A2D5",
">@	c #61A6CD",
",@	c #64A6C0",
"'@	c #87ADC2",
")@	c #FAEEFF",
"!@	c #A98199",
"~@	c #B58C9A",
"{@	c #F8D0D8",
"]@	c #E3BFC3",
"^@	c #CDA4A8",
"/@	c #FFD2D9",
"(@	c #F1C4CB",
"_@	c #D0B7BD",
":@	c #CDCBCE",
"<@	c #8FA3A4",
"[@	c #92A1A8",
"}@	c #B5A7B8",
"|@	c #FCDFF3",
"1@	c #B89BAD",
"2@	c #F4E7F0",
"3@	c #A7B7B4",
"4@	c #B1CAC4",
"5@	c #A6B4B4",
"6@	c #000916",
"7@	c #7DB0DF",
"8@	c #5785B7",
"9@	c #001343",
"0@	c #8AB9EF",
"a@	c #5386BF",
"b@	c #5487C0",
"c@	c #4B8CC2",
"d@	c #3B97C8",
"e@	c #4198CD",
"f@	c #5B8ED0",
"g@	c #648DCF",
"h@	c #5B94CB",
"i@	c #5996C2",
"j@	c #5489AB",
"k@	c #BBD2F2",
"l@	c #BEA3C6",
"m@	c #D4A5C5",
"n@	c #CFB0C2",
"o@	c #C3ACB6",
"p@	c #E8D3D8",
"q@	c #C2A5AA",
"r@	c #FFE4EB",
"s@	c #BF9096",
"t@	c #FFE0E1",
"u@	c #F9DBD9",
"v@	c #E2D5CD",
"w@	c #A3918F",
"x@	c #F9D1DA",
"y@	c #DFB0C2",
"z@	c #CEA7BC",
"A@	c #FCE7F8",
"B@	c #CED8E1",
"C@	c #9BB0B3",
"D@	c #ABB6BA",
"E@	c #000B18",
"F@	c #6DA0CF",
"G@	c #6CAAE3",
"H@	c #6391C3",
"I@	c #000A3A",
"J@	c #5685BB",
"K@	c #4275AC",
"L@	c #4073AA",
"M@	c #3978AB",
"N@	c #2D81B0",
"O@	c #3282B5",
"P@	c #4C79BA",
"Q@	c #5379BA",
"R@	c #4980B6",
"S@	c #4982AD",
"T@	c #6086AB",
"U@	c #D9DFFF",
"V@	c #B689B2",
"W@	c #E5ACCD",
"X@	c #EECFDF",
"Y@	c #9D8A90",
"Z@	c #F2DCDF",
"`@	c #B69397",
" #	c #FFECF2",
".#	c #D09297",
"+#	c #FFC9C9",
"@#	c #A6716B",
"##	c #FFE3D9",
"$#	c #FFDED6",
"%#	c #FFC7CD",
"&#	c #D092A1",
"*#	c #FFE9FE",
"=#	c #D2B6CC",
"-#	c #E3E9F5",
";#	c #C5D6DD",
">#	c #C1CACF",
",#	c #000714",
"'#	c #77AAD9",
")#	c #64A2DB",
"!#	c #5D8BBD",
"~#	c #000D3D",
"{#	c #86B5EB",
"]#	c #7AADE4",
"^#	c #86B5E9",
"/#	c #82BAEB",
"(#	c #7CC0EF",
"_#	c #80BFF4",
":#	c #92B5F5",
"<#	c #96B5F5",
"[#	c #8AC0EF",
"}#	c #8EC2E9",
"|#	c #9FB7D9",
"1#	c #FFF4FF",
"2#	c #C88AAF",
"3#	c #E59FBB",
"4#	c #FFD9E1",
"5#	c #D3B6B2",
"6#	c #FFEEEA",
"7#	c #C78B8B",
"8#	c #FCAAAE",
"9#	c #FBA0A5",
"0#	c #B45C5B",
"a#	c #DA8F89",
"b#	c #D0968A",
"c#	c #FFCFC6",
"d#	c #B87175",
"e#	c #FFD9E5",
"f#	c #C2879B",
"g#	c #E3C1D2",
"h#	c #EBE9F4",
"i#	c #C2D0D3",
"j#	c #CDD2D5",
"k#	c #000815",
"l#	c #63A1DA",
"m#	c #5B89BB",
"n#	c #000B3B",
"o#	c #82B1E7",
"p#	c #75A8E1",
"q#	c #70A4DD",
"r#	c #6FA7E0",
"s#	c #6EACE7",
"t#	c #74ACE9",
"u#	c #80A7EC",
"v#	c #80A9E9",
"w#	c #74B4E4",
"x#	c #7AB6DB",
"y#	c #A4BEE1",
"z#	c #EEE0FF",
"A#	c #E1A4C5",
"B#	c #FFBFD5",
"C#	c #CFA5A6",
"D#	c #FFDED5",
"E#	c #FFD9D4",
"F#	c #DA8280",
"G#	c #E26B6F",
"H#	c #E6696D",
"I#	c #C15354",
"J#	c #E8918A",
"K#	c #E4A69B",
"L#	c #C28C82",
"M#	c #FFC9CD",
"N#	c #C17985",
"O#	c #AF7180",
"P#	c #FFE6F4",
"Q#	c #CFCACE",
"R#	c #619FD8",
"S#	c #5987B9",
"T#	c #000939",
"U#	c #7EADE3",
"V#	c #6CA2E0",
"W#	c #5995DD",
"X#	c #5799E5",
"Y#	c #5A9CEA",
"Z#	c #609DED",
"`#	c #679BEE",
" $	c #62A0E9",
".$	c #55ACE2",
"+$	c #5BACD7",
"@$	c #7DA9CE",
"#$	c #D8DBFC",
"$$	c #C79AB7",
"%$	c #FFE2F4",
"&$	c #BE9291",
"*$	c #F2C0B7",
"=$	c #FFD6D2",
"-$	c #D45E5E",
";$	c #EB4A50",
">$	c #EF4B52",
",$	c #E86869",
"'$	c #DF8682",
")$	c #D1A099",
"!$	c #DAB5AF",
"~$	c #CC959B",
"{$	c #E4A5B0",
"]$	c #F7BBC5",
"^$	c #FFD7DB",
"/$	c #DDD6CE",
"($	c #609ED7",
"_$	c #689FDF",
":$	c #5092DE",
"<$	c #5195E8",
"[$	c #5698EE",
"}$	c #5B98F1",
"|$	c #5D99F1",
"1$	c #589DEB",
"2$	c #4AA7E2",
"3$	c #50A8D6",
"4$	c #649CC1",
"5$	c #DDF0FF",
"6$	c #B49AB3",
"7$	c #FFE9F6",
"8$	c #FFF1F1",
"9$	c #DFA39B",
"0$	c #EF9491",
"a$	c #B12F2F",
"b$	c #DF2E34",
"c$	c #ED3A40",
"d$	c #FF8A8E",
"e$	c #EC9292",
"f$	c #9D7470",
"g$	c #C4AAA9",
"h$	c #FFF1FA",
"i$	c #D6A2AE",
"j$	c #FFD4DC",
"k$	c #F2CCCB",
"l$	c #F9F3E7",
"m$	c #75A8D7",
"n$	c #5E9CD5",
"o$	c #5886B8",
"p$	c #80AFE5",
"q$	c #68A0DD",
"r$	c #5195DC",
"s$	c #5398E6",
"t$	c #5997EA",
"u$	c #5E97EE",
"v$	c #5F97EC",
"w$	c #599BE7",
"x$	c #4FA3DF",
"y$	c #53A5D4",
"z$	c #6DACCD",
"A$	c #9DC0D6",
"B$	c #C7C0D2",
"C$	c #C8A7B0",
"D$	c #F9C9C9",
"E$	c #FFDCD6",
"F$	c #FFD7D3",
"G$	c #DC6261",
"H$	c #C31A1F",
"I$	c #EA3F45",
"J$	c #FF9FA4",
"K$	c #FCA6A7",
"L$	c #B99392",
"M$	c #FFF4F5",
"N$	c #EDCED6",
"O$	c #FFDEE9",
"P$	c #C39BA3",
"Q$	c #FEE2E1",
"R$	c #5A98D1",
"S$	c #5684B6",
"T$	c #000C3C",
"U$	c #81B0E6",
"V$	c #67A2DC",
"W$	c #4F96D8",
"X$	c #4E98DF",
"Y$	c #5396E4",
"Z$	c #5895E6",
"`$	c #5D94E7",
" %	c #5C97E5",
".%	c #579EE0",
"+%	c #57A3D5",
"@%	c #6CB2D6",
"#%	c #72A4BD",
"$%	c #DBEAFD",
"%%	c #D5C7D4",
"&%	c #C8A0A8",
"*%	c #FFCDD0",
"=%	c #FFCECF",
"-%	c #CB6B6C",
";%	c #C73C41",
">%	c #D03D43",
",%	c #E86D72",
"'%	c #FFB4B8",
")%	c #EDC1C0",
"!%	c #ECD4D4",
"~%	c #DBC0C7",
"{%	c #FADFE8",
"]%	c #D0B5BE",
"^%	c #D8C5CB",
"/%	c #EEEAEB",
"(%	c #71A4D3",
"_%	c #5280B2",
":%	c #64A1D8",
"<%	c #4697CF",
"[%	c #4399D4",
"}%	c #4C97DB",
"|%	c #5294E0",
"1%	c #5A91E3",
"2%	c #6093E6",
"3%	c #6199E4",
"4%	c #60A0DE",
"5%	c #5FA9D6",
"6%	c #70B2D4",
"7%	c #82AAC4",
"8%	c #C9D5EB",
"9%	c #EDDAF0",
"0%	c #CBAABB",
"a%	c #C6A6B1",
"b%	c #FFD1D7",
"c%	c #D67B82",
"d%	c #F18489",
"e%	c #BF5258",
"f%	c #FFB9BE",
"g%	c #D89C9B",
"h%	c #FFDFDC",
"i%	c #FFE9ED",
"j%	c #F5E1EA",
"k%	c #FFF0FF",
"l%	c #B6ADBE",
"m%	c #F3F0FF",
"n%	c #000716",
"o%	c #73A2CC",
"p%	c #5692C6",
"q%	c #4C7FAE",
"r%	c #78AFE5",
"s%	c #5DA0D7",
"t%	c #4496CE",
"u%	c #4298D3",
"v%	c #4796D8",
"w%	c #5094DD",
"x%	c #5A91E1",
"y%	c #6295E4",
"z%	c #699AE6",
"A%	c #6AA1E2",
"B%	c #68ACDD",
"C%	c #77B8E0",
"D%	c #83B0D7",
"E%	c #C2DAFF",
"F%	c #EBE5FF",
"G%	c #FDEDFF",
"H%	c #EEE6FF",
"I%	c #D0B8DA",
"J%	c #C790A7",
"K%	c #AB5D6D",
"L%	c #A34A5C",
"M%	c #B76372",
"N%	c #CC8D95",
"O%	c #D5A6AC",
"P%	c #F6D6E1",
"Q%	c #F3E0F3",
"R%	c #F4EAFF",
"S%	c #D7D3F4",
"T%	c #9898BC",
"U%	c #8E8EB0",
"V%	c #B7B0CF",
"W%	c #001020",
"X%	c #7AA3C1",
"Y%	c #5589B1",
"Z%	c #5089B4",
"`%	c #000D3E",
" &	c #6AB0E4",
".&	c #5BA6E0",
"+&	c #4393D2",
"@&	c #4293D5",
"#&	c #4792D6",
"$&	c #4C92D8",
"%&	c #5694DD",
"&&	c #6099E0",
"*&	c #699FDF",
"=&	c #6FA3DC",
"-&	c #78ACDC",
";&	c #92C1EF",
">&	c #CBECFF",
",&	c #8EA2DD",
"'&	c #646BB3",
")&	c #424093",
"!&	c #6965C3",
"~&	c #7667BA",
"{&	c #876097",
"]&	c #814A72",
"^&	c #7B3D62",
"/&	c #FFC3E2",
"(&	c #D89DB9",
"_&	c #F7C5E0",
":&	c #AB84A3",
"<&	c #FFECFF",
"[&	c #BDB1E1",
"}&	c #3C3C70",
"|&	c #353C73",
"1&	c #2E376E",
"2&	c #4A5082",
"3&	c #646993",
"4&	c #000519",
"5&	c #83A6C2",
"6&	c #6B99BD",
"7&	c #346D9A",
"8&	c #001A4E",
"9&	c #63ACE3",
"0&	c #57A3E1",
"a&	c #428FD3",
"b&	c #4491D9",
"c&	c #4892D9",
"d&	c #4F95DB",
"e&	c #5899DD",
"f&	c #639FDE",
"g&	c #6DA4DC",
"h&	c #77A7D8",
"i&	c #7DA8D5",
"j&	c #ABCDFB",
"k&	c #95B0E5",
"l&	c #364A89",
"m&	c #434E9E",
"n&	c #3D41A2",
"o&	c #413FAD",
"p&	c #786CD2",
"q&	c #7B60A5",
"r&	c #D0AADD",
"s&	c #CD9FCE",
"t&	c #BD8DB7",
"u&	c #8F5B81",
"v&	c #AD7DA3",
"w&	c #77517A",
"x&	c #9478A8",
"y&	c #5B5088",
"z&	c #9496D3",
"A&	c #F1FBFF",
"B&	c #8E9CD9",
"C&	c #A2ADE5",
"D&	c #828AB9",
"E&	c #7D7FA8",
"F&	c #00041C",
"G&	c #7998B7",
"H&	c #6993BB",
"I&	c #4274A5",
"J&	c #000B43",
"K&	c #71B3F0",
"L&	c #5399DE",
"M&	c #408DD5",
"N&	c #438FDA",
"O&	c #4A94DD",
"P&	c #5298DE",
"Q&	c #5C9DE1",
"R&	c #67A1E0",
"S&	c #72A7DD",
"T&	c #7CABD9",
"U&	c #8EB5DE",
"V&	c #94B4DB",
"W&	c #D6EDFF",
"X&	c #D8E8FF",
"Y&	c #3E458B",
"Z&	c #7C7DCF",
"`&	c #9C96F6",
" *	c #7164BE",
".*	c #AA93D7",
"+*	c #C0A2D8",
"@*	c #C8A2D3",
"#*	c #996E9B",
"$*	c #EFC1E8",
"%*	c #CDA3C9",
"&*	c #D0ADD7",
"**	c #D3BCEA",
"=*	c #746BA0",
"-*	c #C8CAFF",
";*	c #DBE5FF",
">*	c #7481B8",
",*	c #ACB6E7",
"'*	c #B6BEE5",
")*	c #8888AA",
"!*	c #00031B",
"~*	c #809ABD",
"{*	c #50729F",
"]*	c #386398",
"^*	c #001F59",
"/*	c #68A2E2",
"(*	c #5090D7",
"_*	c #428AD4",
":*	c #4690D9",
"<*	c #5096DE",
"[*	c #589BE1",
"}*	c #629FE0",
"|*	c #6CA4DD",
"1*	c #77A9DA",
"2*	c #81ACD6",
"3*	c #95B9DD",
"4*	c #98B5D5",
"5*	c #A5B9DE",
"6*	c #CEDBFF",
"7*	c #E0E5FF",
"8*	c #5F5EA2",
"9*	c #272070",
"0*	c #493C8C",
"a*	c #715DA2",
"b*	c #927AB4",
"c*	c #826498",
"d*	c #91709F",
"e*	c #BE97C3",
"f*	c #BA95C0",
"g*	c #A184B0",
"h*	c #AA97C5",
"i*	c #F7F0FF",
"j*	c #E8EBFF",
"k*	c #6B75A8",
"l*	c #DBE7FF",
"m*	c #6D769F",
"n*	c #8888A0",
"o*	c #081630",
"p*	c #3A4E71",
"q*	c #476490",
"r*	c #5479AE",
"s*	c #000742",
"t*	c #70A1E3",
"u*	c #5E97DC",
"v*	c #4B8BD3",
"w*	c #4E92D9",
"x*	c #5999E0",
"y*	c #68A3DF",
"z*	c #73A6DB",
"A*	c #80ACD9",
"B*	c #8AB0D4",
"C*	c #8EADCA",
"D*	c #9DB5D1",
"E*	c #A1B2D0",
"F*	c #CAD4F8",
"G*	c #A7A9D9",
"H*	c #6B66A0",
"I*	c #BAB1F4",
"J*	c #F8EDFF",
"K*	c #F9EEFF",
"L*	c #EADCFF",
"M*	c #BAA5E0",
"N*	c #D9C1F5",
"O*	c #BA9DCD",
"P*	c #A88DBA",
"Q*	c #9A83AF",
"R*	c #CFBFEC",
"S*	c #F5F2FF",
"T*	c #6C709F",
"U*	c #CBD4FF",
"V*	c #7F8BB1",
"W*	c #C2CBEA",
"X*	c #767B91",
"Y*	c #AEB9CF",
"Z*	c #081839",
"`*	c #374E77",
" =	c #41608F",
".=	c #00053B",
"+=	c #769ED9",
"@=	c #6D9DDB",
"#=	c #538ACB",
"$=	c #5793D2",
"%=	c #639ADA",
"&=	c #6AA1DA",
"*=	c #72A4D7",
"==	c #7AA9D5",
"-=	c #87AFD3",
";=	c #92B3D2",
">=	c #9EB9D4",
",=	c #A2B6CF",
"'=	c #C8D6F3",
")=	c #D4DAFC",
"!=	c #D2D3FF",
"~=	c #2D295C",
"{=	c #564C89",
"]=	c #544B8E",
"^=	c #595399",
"/=	c #6962A6",
"(=	c #786CAC",
"_=	c #7A68A2",
":=	c #8672A7",
"<=	c #8A76A7",
"[=	c #8878A5",
"}=	c #867DAA",
"|=	c #D2D1FD",
"1=	c #DFE4FF",
"2=	c #929AC1",
"3=	c #7982A1",
"4=	c #7F859D",
"5=	c #B8C4DC",
"6=	c #061735",
"7=	c #31496F",
"8=	c #00113C",
"9=	c #83A3D2",
"0=	c #587EAF",
"a=	c #5684B8",
"b=	c #5C8BBF",
"c=	c #6694C6",
"d=	c #709BC8",
"e=	c #759FC7",
"f=	c #7FA5C9",
"g=	c #8CADCC",
"h=	c #98B3CE",
"i=	c #A7BCD7",
"j=	c #A0B1CD",
"k=	c #AEB9D9",
"l=	c #CBD0F6",
"m=	c #B0B1E1",
"n=	c #8E8BC2",
"o=	c #9A94D2",
"p=	c #7E79BC",
"q=	c #A6A6F0",
"r=	c #A9ABF5",
"s=	c #A4A1E6",
"t=	c #C9C0FF",
"u=	c #ADA2DC",
"v=	c #AB9ED3",
"w=	c #9389BB",
"x=	c #E6E0FF",
"y=	c #E2E3FF",
"z=	c #B1B4DD",
"A=	c #4E5478",
"B=	c #AEB5D1",
"C=	c #AAB7CA",
"D=	c #0E2038",
"E=	c #000926",
"F=	c #617A99",
"G=	c #5B789A",
"H=	c #5A7AA1",
"I=	c #6082A8",
"J=	c #6B8BB1",
"K=	c #7492B4",
"L=	c #7A98B4",
"M=	c #84A0B8",
"N=	c #8FA9C0",
"O=	c #9AB0C8",
"P=	c #9FB0CA",
"Q=	c #B8C7E6",
"R=	c #BFC9ED",
"S=	c #E1E8FF",
"T=	c #E6E9FF",
"U=	c #8888C4",
"V=	c #272467",
"W=	c #55539C",
"X=	c #7F85D1",
"Y=	c #868CDA",
"Z=	c #8284CE",
"`=	c #7F7EC2",
" -	c #908CC9",
".-	c #928DC5",
"+-	c #817DB0",
"@-	c #DAD8FF",
"#-	c #AAABD7",
"$-	c #BDC1E7",
"%-	c #ECF1FF",
"&-	c #A6B3BC",
"*-	c #21323C",
"=-	c #0E202E",
"--	c #293C4B",
";-	c #36485E",
">-	c #3D4F67",
",-	c #47596F",
"'-	c #56697A",
")-	c #657686",
"!-	c #6A7B8B",
"~-	c #768799",
"{-	c #8C9DB1",
"]-	c #BDCBE6",
"^-	c #DEEBFF",
"/-	c #C5D0FD",
"(-	c #A8AFE5",
"_-	c #989EDC",
":-	c #F1F6FF",
"<-	c #343681",
"[-	c #454895",
"}-	c #737AC8",
"|-	c #727BC8",
"1-	c #868CD6",
"2-	c #6669AE",
"3-	c #303070",
"4-	c #6766A0",
"5-	c #CECEFF",
"6-	c #EDEEFF",
"7-	c #DDE1FF",
"8-	c #DEE3FF",
"9-	c #EEF3FF",
"0-	c #9AA5A7",
"a-	c #949DA6",
"b-	c #9DA3AF",
"c-	c #A2ABB4",
"d-	c #AAB3BA",
"e-	c #B1BABF",
"f-	c #B2BDC3",
"g-	c #BFC9D3",
"h-	c #D4DFF1",
"i-	c #D0DAF5",
"j-	c #717B9F",
"k-	c #394172",
"l-	c #B6BFF8",
"m-	c #E8F0FF",
"n-	c #F1F8FF",
"o-	c #E7EFFF",
"p-	c #C3CAFF",
"q-	c #8A93DE",
"r-	c #7781C8",
"s-	c #7F86CC",
"t-	c #A1A6E8",
"u-	c #CCD0FF",
"v-	c #F7F9FF",
"w-	c #F8FAFF",
"x-	c #E5E7FF",
"y-	c #E9ECFF",
"z-	c #F7FAFF",
"A-	c #E6EAFF",
"B-	c #A8A9BE",
"C-	c #B8BDB6",
"D-	c #585F79",
"E-	c #8991B6",
"F-	c #7078A9",
"G-	c #757EB7",
"H-	c #98A0E1",
"I-	c #717ABF",
"J-	c #757FC6",
"K-	c #7D87CE",
"L-	c #838CCD",
"M-	c #858DCB",
"N-	c #7881BC",
"O-	c #7C82BC",
"P-	c #8C91C9",
"Q-	c #8285BA",
"R-	c #7678A8",
"S-	c #8588B3",
"T-	c #8284AA",
"U-	c #9091B0",
"V-	c #85859F",
"W-	c #C8C7D9",
"X-	c #A6A5AD",
"Y-	c #9398AE",
"Z-	c #797FA1",
"`-	c #606491",
" ;	c #4F5589",
".;	c #6269A0",
"+;	c #8C95D0",
"@;	c #7A84BF",
"#;	c #7B86BE",
"$;	c #7077AB",
"%;	c #7F85B5",
"&;	c #7B81B1",
"*;	c #838AB8",
"=;	c #777BA8",
"-;	c #787BA4",
";;	c #9B9EC1",
">;	c #E4E5FF",
",;	c #EFEFFF",
"';	c #E1DFF4",
");	c #9493A1",
"!;	c #8E8C99",
"~;	c #979CC4",
"{;	c #6F779E",
"];	c #7F87AE",
"^;	c #7F87AB",
"/;	c #878BAE",
"(;	c #8386A7",
"_;	c #7D82A2",
":;	c #8185A8",
"<;	c #8A8EB1",
"[;	c #8B90B0",
"};	c #878CAA",
"|;	c #888CA7",
"1;	c #9E9FB4",
"2;	c #7D7C8E",
"3;	c #AFAEBC",
"                                                                              ",
"                                                                              ",
"              . + @ # $ % &                                                   ",
"            * = - ; > , ' ) !                                                 ",
"          ~ { ] ^ / ( _ : < [ }                                               ",
"        | 1 2 3 4 5 6 7 8 9 0 a b                                             ",
"  c d e f g h i j k l m n o p q r s t u v w x y z A B C D E F G               ",
"H I J K L M N O P Q R S T U V W X Y Z `  ...+.@.#.$.%.&.*.=.-.;.>.            ",
",.'.).!.~.{.].^./.(._.:.<.[.}.|.1.2.3.4.5.6.7.8.9.0.a.b.c.d.e.f.g.            ",
"h.i.j.k.l.m.n.o.p.q.r.s.t.u.v.w.x.y.z.A.B.C.D.E.F.G.H.I.J.K.L.M.N.O.          ",
"P.Q.R.S.T.U.V.W.X.Y.Z.`. +.+++@+#+$+%+&+*+=+-+;+>+,+'+)+!+~+{+]+^+/+(+        ",
"_+:+R.k.<+[+}+|+1+2+3+4+5+6+7+8+9+0+a+b+c+d+e+f+g+h+i+j+k+l+m+n+o+p+q+r+      ",
"h.Q.s+t+u+v+w+x+y+z+A+B+C+D+E+F+G+H+I+J+K+L+M+N+O+P+Q+R+S+T+U+V+W+X+Y+Z+      ",
"_+`+ @.@+@@@#@$@%@&@*@=@-@;@>@,@'@)@!@~@{@]@^@/@(@_@:@<@[@}@|@1@2@3@4@5@      ",
"6@7@s+8@9@0@a@b@c@d@e@f@g@h@i@j@k@l@m@n@o@p@q@r@s@t@u@v@w@x@y@z@A@B@C@D@      ",
"E@F@G@H@I@J@K@L@M@N@O@P@Q@R@S@T@U@V@W@X@Y@Z@`@ #.#+#@###$#%#&#*#=#-#;#>#      ",
",#'#)#!#~#{#]#^#/#(#_#:#<#[#}#|#1#2#3#4#5#6#7#8#9#0#a#b#c#d#e#f#g#h#i#j#      ",
"k#'#l#m#n#o#p#q#r#s#t#u#v#w#x#y#z#A#B#C#D#E#F#G#H#I#J#K#L#M#N#O#P#Q#          ",
"k#'#R#S#T#U#V#W#X#Y#Z#`# $.$+$@$#$$$%$&$*$=$-$;$>$,$'$)$!$~${$]$^$/$          ",
"k#'#($S#T#U#_$:$<$[$}$|$1$2$3$4$5$6$7$8$9$0$a$b$c$d$e$f$g$h$i$j$k$l$          ",
",#m$n$o$n#p$q$r$s$t$u$v$w$x$y$z$A$B$C$D$E$F$G$H$I$J$K$L$M$N$O$P$Q$            ",
",#i.R$S$T$U$V$W$X$Y$Z$`$ %.%+%@%#%$%%%&%*%=%-%;%>%,%'%)%!%~%{%]%^%/%          ",
",#(%j._%I@p$:%<%[%}%|%1%2%3%4%5%6%7%8%9%0%a%b%c%d%e%f%g%h%i%j%k%l%m%          ",
"n%o%p%q%I@r%s%t%u%v%w%x%y%z%A%B%C%D%E%F%G%H%I%J%K%L%M%N%O%P%Q%R%S%T%U%V%      ",
"W%X%Y%Z%`% &.&+&@&#&$&%&&&*&=&-&;&>&,&'&)&!&~&{&]&^&/&(&_&:&<&[&}&|&1&2&3&    ",
"4&5&6&7&8&9&0&a&b&c&d&e&f&g&h&i&j&k&l&m&n&o&p&q&r&s&t&u&v&w&x&y&z&A&B&C&D&E&  ",
"F&G&H&I&J&K&L&M&N&O&P&Q&R&S&T&U&V&W&X&Y&Z&`& *.*+*@*#*$*%*&***=*-*;*>*,*'*)*  ",
"!*~*{*]*^*/*(*_*:*<*[*}*|*1*2*3*4*5*6*7*8*9*0*a*b*c*d*e*f*g*h*i*j*k*l*m*  n*  ",
"o*p*q*r*s*t*u*v*w*x*}*y*z*A*B*C*D*E*F*G*H*I*J*K*L*M*N*O*P*Q*R*S*T*U*V*W*X*    ",
"Y*Z*`* =.=+=@=#=$=%=&=*===-=;=>=,='=)=!=~={=]=^=/=(=_=:=<=[=}=|=1=2=3=4=      ",
"  5=6=7=8=9=0=a=b=c=d=e=f=g=h=i=j=k=l=m=n=o=p=q=r=s=t=u=v=w=x=y=z=A=B=        ",
"    C=D=E=F=G=H=I=J=K=L=M=N=O=P=Q=R=S=T=U=V=W=X=Y=Z=`= -.-+-@-#-$-%-          ",
"      &-*-=---;->-,-'-)-!-~-{-]-^-/-(-_-:-<-[-}-|-1-2-3-4-5-6-j*7-8-9-        ",
"            0-a-b-c-d-e-f-g-h-i-j-k-l-m-n-o-p-q-r-s-t-u-v-w-x-y-z-A-B-        ",
"            C-                D-E-F-G-H-I-J-K-L-M-N-O-P-Q-R-S-T-U-V-W-  X-    ",
"                              Y-Z-`- ;.;+;@;#;$;%;&;&;*;=;-;;;>;,;';);!;      ",
"                                      ~;{;];^;/;(;_;:;<;[;};|;1;2;3;          ",
"                                                                              ",
"                                                                              "};
