/* XPM */
static char * application_xpm[] = {
"31 36 200 2",
"  	c None",
". 	c #030303",
"+ 	c #090909",
"@ 	c #040404",
"# 	c #050505",
"$ 	c #767676",
"% 	c #757575",
"& 	c #787878",
"* 	c #737373",
"= 	c #7B7B7B",
"- 	c #797979",
"; 	c #7C7C7C",
"> 	c #777777",
", 	c #7F7F7F",
"' 	c #7D7D7D",
") 	c #6C6C6C",
"! 	c #707070",
"~ 	c #696969",
"{ 	c #565656",
"] 	c #3F3F3F",
"^ 	c #060606",
"/ 	c #070707",
"( 	c #6B6B6B",
"_ 	c #666666",
": 	c #686868",
"< 	c #6A6A6A",
"[ 	c #636363",
"} 	c #848484",
"| 	c #5C5C5C",
"1 	c #626262",
"2 	c #5F5F5F",
"3 	c #606060",
"4 	c #5A5A5A",
"5 	c #676767",
"6 	c #515151",
"7 	c #4E4E4E",
"8 	c #4A4A4A",
"9 	c #2B2B2B",
"0 	c #000000",
"a 	c #B2B2B2",
"b 	c #C1C1C1",
"c 	c #0A0A0A",
"d 	c #646464",
"e 	c #555555",
"f 	c #4B4B4B",
"g 	c #505050",
"h 	c #4F4F4F",
"i 	c #5E5E5E",
"j 	c #616161",
"k 	c #545454",
"l 	c #535353",
"m 	c #525252",
"n 	c #4C4C4C",
"o 	c #393939",
"p 	c #3E3E3E",
"q 	c #313131",
"r 	c #1D1D1D",
"s 	c #A9A9A9",
"t 	c #4D4D4D",
"u 	c #595959",
"v 	c #5D5D5D",
"w 	c #464646",
"x 	c #484848",
"y 	c #474747",
"z 	c #454545",
"A 	c #323232",
"B 	c #2A2A2A",
"C 	c #7E7E7E",
"D 	c #BCBCBC",
"E 	c #959595",
"F 	c #FEFEFE",
"G 	c #A4A4A4",
"H 	c #FFFFFF",
"I 	c #ADADAD",
"J 	c #A7A7A7",
"K 	c #FBFBFB",
"L 	c #A1A1A1",
"M 	c #9E9E9E",
"N 	c #FCFCFC",
"O 	c #9A9A9A",
"P 	c #F6F6F6",
"Q 	c #373737",
"R 	c #161616",
"S 	c #808080",
"T 	c #585858",
"U 	c #888888",
"V 	c #5B5B5B",
"W 	c #ABABAB",
"X 	c #FAFAFA",
"Y 	c #838383",
"Z 	c #575757",
"` 	c #818181",
" .	c #828282",
"..	c #A6A6A6",
"+.	c #EDEDED",
"@.	c #212121",
"#.	c #010101",
"$.	c #B4B4B4",
"%.	c #F9F9F9",
"&.	c #F7F7F7",
"*.	c #656565",
"=.	c #8A8A8A",
"-.	c #F8F8F8",
";.	c #F3F3F3",
">.	c #353535",
",.	c #1F1F1F",
"'.	c #080808",
").	c #B1B1B1",
"!.	c #ACACAC",
"~.	c #AFAFAF",
"{.	c #3B3B3B",
"].	c #202020",
"^.	c #7A7A7A",
"/.	c #B5B5B5",
"(.	c #444444",
"_.	c #343434",
":.	c #A8A8A8",
"<.	c #B6B6B6",
"[.	c #EFEFEF",
"}.	c #A5A5A5",
"|.	c #F5F5F5",
"1.	c #FDFDFD",
"2.	c #303030",
"3.	c #272727",
"4.	c #B0B0B0",
"5.	c #ECECEC",
"6.	c #969696",
"7.	c #F2F2F2",
"8.	c #939393",
"9.	c #929292",
"0.	c #B3B3B3",
"a.	c #878787",
"b.	c #8F8F8F",
"c.	c #F4F4F4",
"d.	c #262626",
"e.	c #292929",
"f.	c #B9B9B9",
"g.	c #EEEEEE",
"h.	c #F0F0F0",
"i.	c #3D3D3D",
"j.	c #181818",
"k.	c #494949",
"l.	c #2E2E2E",
"m.	c #AEAEAE",
"n.	c #717171",
"o.	c #9D9D9D",
"p.	c #A3A3A3",
"q.	c #AAAAAA",
"r.	c #E9E9E9",
"s.	c #858585",
"t.	c #3A3A3A",
"u.	c #232323",
"v.	c #747474",
"w.	c #EAEAEA",
"x.	c #F1F1F1",
"y.	c #434343",
"z.	c #252525",
"A.	c #242424",
"B.	c #A2A2A2",
"C.	c #B7B7B7",
"D.	c #414141",
"E.	c #171717",
"F.	c #727272",
"G.	c #E7E7E7",
"H.	c #9F9F9F",
"I.	c #E8E8E8",
"J.	c #424242",
"K.	c #EBEBEB",
"L.	c #333333",
"M.	c #2D2D2D",
"N.	c #6F6F6F",
"O.	c #282828",
"P.	c #363636",
"Q.	c #3C3C3C",
"R.	c #2C2C2C",
"S.	c #1A1A1A",
"T.	c #6E6E6E",
"U.	c #404040",
"V.	c #9C9C9C",
"W.	c #222222",
"X.	c #6D6D6D",
"Y.	c #9B9B9B",
"Z.	c #8D8D8D",
"`.	c #1B1B1B",
" +	c #383838",
".+	c #2F2F2F",
"++	c #191919",
"@+	c #1E1E1E",
"#+	c #131313",
"$+	c #141414",
"%+	c #0F0F0F",
"&+	c #1C1C1C",
"*+	c #101010",
"=+	c #0E0E0E",
"-+	c #111111",
";+	c #020202",
">+	c #8E8E8E",
",+	c #898989",
"'+	c #BDBDBD",
")+	c #C3C3C3",
". . + @ # # # # # # # # # # # # # # # # # # # # # # # # +     ",
"@ $ % & * = - & $ = ; > & , ' - & > % $ $ = ) ! % ~ { ] ^     ",
"/ $ ( _ : < [ _ } | ) ( < 1 2 _ 3 < _ 4 | 5 6 ! 7 2 8 9 0 a b ",
"c > d e f g { g h h i e j k { 4 l 6 m 8 n 8 f o n p q r / , s ",
"c - d m 5 t u k v { v g w i 7 { h 4 x | x e 7 y f z A B / C D ",
"/ > _ { E F G | s H e I H s 1 J K L u M N O t J P w Q R 0 S b ",
"# $ _ T H U F V W X 3 H Y N Z H ` H 4 K  .K g ..+.l p @.#.' $.",
"^ & : T %.S H T 3 &.*.K =.F v H } -.Z K } ;.k 4 F ] >.,.'.; ).",
"'.; < Z !.N s _ | &.5 ~.P ~.u W %.W l W K s y f -.z {.].0 ^./.",
". C 5 T V u j | *.< i _ [ d 4 4 5 k | l e n 7 h (.7 _.r @ ' /.",
". C _ T :.H j <.[.a ) !.P <.3 W X }.h I |.e W 1.l h 2.3.@ ' /.",
". C _ Z 4.5.u |.6.7.) H 8.H V K 9.K g 0.H t :.[.x (._.,.@ ' /.",
". C _ Z 6 H *.H a.1.d |.b.[.*.[.U c.3 7 |.u 8 H T m d.e.@ ' /.",
". ' *.{ 4 |.1 O H f.| $.g.0.*.$.X ~.g T K V y h.z p i.j.@ ' /.",
". ' *.{ V V _ i | 2 2 i < *.k.i T l 4 u k o Z 2 k.i.9 l.@ ' /.",
". ' *.{ m.g.J n.o.-.~.3 s 5.) m.;._ p.|.q.t I r.m k 2.j.@ ' /.",
". ' d e F s.K Z K 8.K T W H 4 G F h H ` K 6 J X x t.t.u.@ ' /.",
"c v.: l H , ;.~ 7.} H V 3 &.4 4 N T w.Y %.{ f x.Z y.z.A.@ ' /.",
"c v.5 m B.%.:.m f.5.4.k g 1.t u &.Z C.X :.D.k c.t.7 Q d.@ ' /.",
"+ * _ g e e v 6 m _ k V v e { v z k.n x t k.(.8 Z o l.E.@ ' /.",
"+ F.d 7 q.G.3 a x.h L 1.M T M H e p.H x s %.y o.x.z >.z.@ ' /.",
"+ n.1 n G H f G %.u H ; K | H.1.k p.I.u o.H J.m.&.(.B r @ ' /.",
"'.! j 8 k K.u 7 1.m ;.' 1.x h X x k H ] y.x.t L.K z M.u.@ ' /.",
"'.N.3 k.k.H h t 5.e ..P ..g { P t t.H t n X z g &.p O.r @ ' /.",
"'.N.2 x x w y y l l ] g y t D.f t g P.f w ] (.Q.D.z R.S.@ ' /.",
". T.e z :.P o.f I 7.U.G c.l }.P p.(.}.K U.p.&.V.(.{.W.u.. ; $.",
"@ n.u w 7.X.H w E H Z }.H w H % F 8 o.P 8 7.} K.>.Q.R.E.. ; $.",
"@ ! 4 J.H $ N D.6 5.D.J.N y.h. .x.Q.f H y.&.) H i.{.B S.. ; $.",
"@ X.T p b.F O k.i.H y p F D.Y.H W Q.z P (.}.H Z.i.>.@.`.. ; $.",
"/ : Z p x i.] P.y p ] y.>.y y. + +A M.z t.>.P.i.U.A d.r . ; $.",
"+ i h i.P.{.i.U.t.>.Q.p D. +] o y.U.8 L.t.L.y ].l.2.3.j.. ; $.",
"# 8 Q..+.+A @.Q 9 R.Q u..+R.u.A R.O.`.l.d.B ].2.B O.].++. ; $.",
"0  +O.@+#+B j.$+A.r %+u.&+u.W.*+3.#+u.S.@+R ,.=+,.S.&+-+. ; $.",
"0 / '.@ #.#.#.#.#.#.#.#.;+;+;+;+;+;+;+;+;+;+;+;+;+;+;+;+0 >+~.",
"    s , C C C C C C C C , , , , , , , , , , , , , , , , ,+& '+",
"    )+W 0.0.0.0.0.0.0.0.$.$.$.$.$.$.$.$.$.$.$.$.$.$.$.$.m.!.C."};
