/* XPM */
static char * application_zip_xpm[] = {
"40 37 961 2",
"  	c None",
". 	c #46575E",
"+ 	c #02141E",
"@ 	c #000C1E",
"# 	c #00041B",
"$ 	c #0C1A35",
"% 	c #00001C",
"& 	c #49546A",
"* 	c #3D505F",
"= 	c #18394C",
"- 	c #7DA5BE",
"; 	c #8BAFD1",
"> 	c #81A3C9",
", 	c #94B1DB",
"' 	c #8CA8D0",
") 	c #294062",
"! 	c #3B4F67",
"~ 	c #445161",
"{ 	c #213C51",
"] 	c #87B8D8",
"^ 	c #66A1C9",
"/ 	c #74AAD9",
"( 	c #6FA2D7",
"_ 	c #6D9AD3",
": 	c #759DD1",
"< 	c #85A7D4",
"[ 	c #193857",
"} 	c #354F5E",
"| 	c #475766",
"1 	c #2D3E50",
"2 	c #83A5C0",
"3 	c #5E9DC8",
"4 	c #60ADE3",
"5 	c #3D84C2",
"6 	c #5599DA",
"7 	c #639EE2",
"8 	c #6295D6",
"9 	c #6F9DD1",
"0 	c #94BAE1",
"a 	c #1B3B50",
"b 	c #395257",
"c 	c #00182E",
"d 	c #1D334B",
"e 	c #97B1CC",
"f 	c #76A1C4",
"g 	c #5EA4D8",
"h 	c #4B9CDB",
"i 	c #5AA7EB",
"j 	c #4B91D7",
"k 	c #5292D9",
"l 	c #68A1E4",
"m 	c #699DD7",
"n 	c #719FD0",
"o 	c #7EA6CA",
"p 	c #244860",
"q 	c #000D1D",
"r 	c #000F1B",
"s 	c #000E1B",
"t 	c #000713",
"u 	c #000717",
"v 	c #050B1B",
"w 	c #020A15",
"x 	c #000A13",
"y 	c #000915",
"z 	c #000C1A",
"A 	c #06101C",
"B 	c #0A141E",
"C 	c #0E171E",
"D 	c #6C7477",
"E 	c #54616A",
"F 	c #0C3458",
"G 	c #77AAD7",
"H 	c #88ADD7",
"I 	c #87AAD2",
"J 	c #7EA7D3",
"K 	c #6C9FD4",
"L 	c #5596D6",
"M 	c #5298DE",
"N 	c #5499DC",
"O 	c #5899D9",
"P 	c #5D9AD9",
"Q 	c #5F9AD6",
"R 	c #629AD7",
"S 	c #6399D5",
"T 	c #71A5E1",
"U 	c #80B4ED",
"V 	c #82B3EB",
"W 	c #84B2E4",
"X 	c #80ABD8",
"Y 	c #7FA4CE",
"Z 	c #7799BE",
"` 	c #7899B8",
" .	c #7998B4",
"..	c #7C9EB9",
"+.	c #779ABA",
"@.	c #7496BB",
"#.	c #7798C1",
"$.	c #7494BB",
"%.	c #84A1C1",
"&.	c #708AA1",
"*.	c #3C505B",
"=.	c #6E7D80",
"-.	c #000310",
";.	c #84B7E6",
">.	c #62A0D9",
",.	c #6B99CB",
"'.	c #759FCF",
").	c #6897CD",
"!.	c #6296D2",
"~.	c #629BDE",
"{.	c #629DDF",
"].	c #649FDB",
"^.	c #679ED7",
"/.	c #6A9FD5",
"(.	c #6B9ED3",
"_.	c #699DD6",
":.	c #699DD9",
"<.	c #6DA2E4",
"[.	c #6CA3E6",
"}.	c #5E93D7",
"|.	c #5E91D2",
"1.	c #6E9DD5",
"2.	c #537FAE",
"3.	c #7198BF",
"4.	c #7DA3C7",
"5.	c #5D86A6",
"6.	c #517C9E",
"7.	c #618EB7",
"8.	c #5B89BA",
"9.	c #6E9CD0",
"0.	c #6893C6",
"a.	c #5B84B0",
"b.	c #6E91B1",
"c.	c #6A8596",
"d.	c #43565C",
"e.	c #000815",
"f.	c #7AADDC",
"g.	c #65A3DC",
"h.	c #6896C8",
"i.	c #6690C0",
"j.	c #699AD4",
"k.	c #6796CE",
"l.	c #6896CA",
"m.	c #6B97C8",
"n.	c #6D96C4",
"o.	c #6F96C1",
"p.	c #6E95C0",
"q.	c #6B94C2",
"r.	c #6A94C6",
"s.	c #6792C9",
"t.	c #6892CC",
"u.	c #6C95CD",
"v.	c #7499CD",
"w.	c #6485B0",
"x.	c #607D9F",
"y.	c #223A54",
"z.	c #2B455C",
"A.	c #32546F",
"B.	c #295071",
"C.	c #507AA2",
"D.	c #4B77A6",
"E.	c #4977AB",
"F.	c #517CAF",
"G.	c #638CB8",
"H.	c #6387A9",
"I.	c #678398",
"J.	c #41555E",
"K.	c #A7B5B5",
"L.	c #CAD3CE",
"M.	c #000D1A",
"N.	c #75A8D7",
"O.	c #6CAAE3",
"P.	c #4E7CAE",
"Q.	c #729CCC",
"R.	c #0D3C72",
"S.	c #000840",
"T.	c #001044",
"U.	c #001142",
"V.	c #00113E",
"W.	c #00123C",
"X.	c #00123A",
"Y.	c #00113B",
"Z.	c #00123D",
"`.	c #001240",
" +	c #00063A",
".+	c #00144B",
"++	c #000E44",
"@+	c #000433",
"#+	c #00153A",
"$+	c #00031E",
"%+	c #435466",
"&+	c #8093A2",
"*+	c #567288",
"=+	c #000E2C",
"-+	c #001337",
";+	c #032E59",
">+	c #113C6F",
",+	c #053063",
"'+	c #1D4875",
")+	c #2A5075",
"!+	c #3C5A72",
"~+	c #4F6773",
"{+	c #7A898C",
"]+	c #858E8D",
"^+	c #81B4E3",
"/+	c #619FD8",
"(+	c #6A98CA",
"_+	c #0B3565",
":+	c #0E3D73",
"<+	c #83B4EC",
"[+	c #82AFE6",
"}+	c #85B0E3",
"|+	c #88B2E2",
"1+	c #89B4E1",
"2+	c #8AB5E0",
"3+	c #8AB6E3",
"4+	c #88B6E7",
"5+	c #88B7EB",
"6+	c #8ABBF5",
"7+	c #87B5F0",
"8+	c #8FBAF1",
"9+	c #99BDEF",
"0+	c #91AFD5",
"a+	c #8098B4",
"b+	c #091A2A",
"c+	c #011321",
"d+	c #000E22",
"e+	c #395771",
"f+	c #97B9DC",
"g+	c #7CA3CC",
"h+	c #88B4E3",
"i+	c #91BFF0",
"j+	c #99C5F4",
"k+	c #95BCE3",
"l+	c #9EC0DC",
"m+	c #A4BECF",
"n+	c #A9BAC2",
"o+	c #9BA5A7",
"p+	c #AFB3B4",
"q+	c #000B18",
"r+	c #7BAEDD",
"s+	c #609ED7",
"t+	c #6492C4",
"u+	c #000737",
"v+	c #88B7ED",
"w+	c #6EA1DA",
"x+	c #72A3DD",
"y+	c #73A4DC",
"z+	c #77A6DA",
"A+	c #77A9DA",
"B+	c #79ABDC",
"C+	c #7AAEE0",
"D+	c #78AFE5",
"E+	c #77AFEA",
"F+	c #82B9F9",
"G+	c #6AA0E0",
"H+	c #6B9CD7",
"I+	c #7BA4D8",
"J+	c #88AAD0",
"K+	c #3D5772",
"L+	c #5D7081",
"M+	c #B8CAD6",
"N+	c #99AFBD",
"O+	c #000C22",
"P+	c #7D9CB9",
"Q+	c #91B4DA",
"R+	c #7CA7D2",
"S+	c #89B5E4",
"T+	c #75A1CE",
"U+	c #8FB9E1",
"V+	c #9ABDDD",
"W+	c #9AB4CB",
"X+	c #A0B2BE",
"Y+	c #A8B1B8",
"Z+	c #979B9E",
"`+	c #010F1C",
" @	c #6997C9",
".@	c #7FAEE4",
"+@	c #70A4DE",
"@@	c #5F95D1",
"#@	c #5F97D4",
"$@	c #6199D2",
"%@	c #649CD5",
"&@	c #649FD7",
"*@	c #65A2DB",
"=@	c #63A3E0",
"-@	c #62A3E3",
";@	c #5C9DE1",
">@	c #6AA7EA",
",@	c #74ABEB",
"'@	c #6496CB",
")@	c #6C93BC",
"!@	c #6483A0",
"~@	c #001224",
"{@	c #000813",
"]@	c #000410",
"^@	c #354857",
"/@	c #809AB1",
"(@	c #82A3C2",
"_@	c #89B0D9",
":@	c #6A95C0",
"<@	c #97C4EE",
"[@	c #82ACD4",
"}@	c #90B2D5",
"|@	c #A2BCD5",
"1@	c #A9BACA",
"2@	c #B5BFC8",
"3@	c #B3B6BB",
"4@	c #78ABDA",
"5@	c #5F8DBF",
"6@	c #001141",
"7@	c #7AA9DF",
"8@	c #6397D1",
"9@	c #5189C6",
"0@	c #508BC7",
"a@	c #528DC7",
"b@	c #548FC7",
"c@	c #5592C9",
"d@	c #5694CD",
"e@	c #5395D2",
"f@	c #5495D5",
"g@	c #5899DD",
"h@	c #4D8ACD",
"i@	c #5890CD",
"j@	c #5B8DC0",
"k@	c #6087AE",
"l@	c #375770",
"m@	c #495F6D",
"n@	c #BFD0D8",
"o@	c #99A8AF",
"p@	c #071822",
"q@	c #7C93A5",
"r@	c #7B99B3",
"s@	c #7CA0C2",
"t@	c #8AB1D8",
"u@	c #78A2CA",
"v@	c #8DB4DB",
"w@	c #93B4D5",
"x@	c #A0BAD5",
"y@	c #B1C2D4",
"z@	c #B6C0CA",
"A@	c #B7BABF",
"B@	c #D3D1D2",
"C@	c #000512",
"D@	c #77AAD9",
"E@	c #69A7E0",
"F@	c #6391C3",
"G@	c #6392C8",
"H@	c #4074AD",
"I@	c #3F73AF",
"J@	c #447BB4",
"K@	c #4279AF",
"L@	c #427AAD",
"M@	c #4179AC",
"N@	c #457EB3",
"O@	c #4682B8",
"P@	c #4784BD",
"Q@	c #4782BE",
"R@	c #396FAB",
"S@	c #5284B9",
"T@	c #49729E",
"U@	c #587998",
"V@	c #536D7E",
"W@	c #00040B",
"X@	c #041010",
"Y@	c #030D0F",
"Z@	c #39444A",
"`@	c #7C8E9A",
" #	c #738CA0",
".#	c #8CABC7",
"+#	c #7CA0C0",
"@#	c #7CA2C6",
"##	c #93B7D9",
"$#	c #98B5D5",
"%#	c #AABFDA",
"&#	c #B6C5DA",
"*#	c #BCC4D1",
"=#	c #C7CAD1",
"-#	c #000916",
";#	c #73A6D5",
">#	c #5F9DD6",
",#	c #5A88BA",
"'#	c #000D3D",
")#	c #83B2E8",
"!#	c #73A7E1",
"~#	c #7FB5F1",
"{#	c #7AB2ED",
"]#	c #82B9EF",
"^#	c #82BAED",
"/#	c #8DC5F6",
"(#	c #96CEFF",
"_#	c #89C1F4",
":#	c #8AC3F8",
"<#	c #91C8FF",
"[#	c #90C3F8",
"}#	c #8BB9EA",
"|#	c #93B9E0",
"1#	c #8EACC6",
"2#	c #556B79",
"3#	c #536164",
"4#	c #B6BFBC",
"5#	c #888E8C",
"6#	c #000204",
"7#	c #C3D2D7",
"8#	c #B6CCD7",
"9#	c #90ADBF",
"0#	c #B6D6ED",
"a#	c #ABCDE8",
"b#	c #B1D0ED",
"c#	c #B4CEE9",
"d#	c #BFD0EA",
"e#	c #C6D1E5",
"f#	c #C9CFDD",
"g#	c #D3D3DB",
"h#	c #5987B9",
"i#	c #000C3C",
"j#	c #87B6EC",
"k#	c #79AFEB",
"l#	c #6CA8E7",
"m#	c #75B2F1",
"n#	c #6AA7E0",
"o#	c #71ADE3",
"p#	c #81BBED",
"q#	c #72AADB",
"r#	c #7CB4E5",
"s#	c #72AADD",
"t#	c #7AAFE3",
"u#	c #6DA1D3",
"v#	c #96C5F3",
"w#	c #89AFD4",
"x#	c #7F9DB7",
"y#	c #384F5D",
"z#	c #001113",
"A#	c #020D09",
"B#	c #0D120C",
"C#	c #0D120E",
"D#	c #4C5E62",
"E#	c #9EB6C0",
"F#	c #AECAD8",
"G#	c #B3CEE1",
"H#	c #ADC6DC",
"I#	c #C3D5ED",
"J#	c #C8D4EA",
"K#	c #CED5E8",
"L#	c #000838",
"M#	c #7CABE1",
"N#	c #669ED9",
"O#	c #508FD2",
"P#	c #5FA3E4",
"Q#	c #5292CF",
"R#	c #6BA8DE",
"S#	c #5690C2",
"T#	c #6FA7D6",
"U#	c #659BC9",
"V#	c #7AAEDD",
"W#	c #70A2D3",
"X#	c #72A2D0",
"Y#	c #6691BB",
"Z#	c #7B9FC1",
"`#	c #557489",
" $	c #18303C",
".$	c #C9DDDE",
"+$	c #DEEBE4",
"@$	c #E2E7E0",
"#$	c #DDE0D7",
"$$	c #B3BDB5",
"%$	c #495855",
"&$	c #142829",
"*$	c #72878C",
"=$	c #B8CCD7",
"-$	c #C1D3E1",
";$	c #C3CEE0",
">$	c #C7CEE0",
",$	c #D0D3E4",
"'$	c #5C9AD3",
")$	c #5785B7",
"!$	c #000B3B",
"~$	c #82B1E7",
"{$	c #6BA3E0",
"]$	c #4D90D4",
"^$	c #458CCE",
"/$	c #4E90CC",
"($	c #5592C8",
"_$	c #306897",
":$	c #6396C1",
"<$	c #376891",
"[$	c #4F7CA5",
"}$	c #2C5781",
"|$	c #6B95BD",
"1$	c #2C5277",
"2$	c #325470",
"3$	c #072235",
"4$	c #C2D9E1",
"5$	c #DBEDED",
"6$	c #AFBCB5",
"7$	c #B9BCB1",
"8$	c #C4C6B9",
"9$	c #CCD4C7",
"0$	c #C3CFC5",
"a$	c #87968F",
"b$	c #142421",
"c$	c #ADBBBE",
"d$	c #CBD6DC",
"e$	c #CFD5E1",
"f$	c #D2D4E1",
"g$	c #000714",
"h$	c #72A5D4",
"i$	c #5997D0",
"j$	c #000F3F",
"k$	c #6AA0DC",
"l$	c #4D8AC9",
"m$	c #3575B2",
"n$	c #4E8ABE",
"o$	c #205483",
"p$	c #5D8AB1",
"q$	c #113859",
"r$	c #567997",
"s$	c #001835",
"t$	c #54718F",
"u$	c #000B28",
"v$	c #4B637D",
"w$	c #00091C",
"x$	c #C9DAE2",
"y$	c #E1EFEF",
"z$	c #465047",
"A$	c #1F2517",
"B$	c #1D1F11",
"C$	c #A2A496",
"D$	c #CFD6C6",
"E$	c #B9C1B2",
"F$	c #C0CBBD",
"G$	c #3A463C",
"H$	c #68716C",
"I$	c #C9CFCF",
"J$	c #74A7D6",
"K$	c #5B99D2",
"L$	c #5684B6",
"M$	c #7BAAE0",
"N$	c #6295CC",
"O$	c #6194C9",
"P$	c #4878A8",
"Q$	c #77A1C9",
"R$	c #2A4D6B",
"S$	c #AEC8DF",
"T$	c #152837",
"U$	c #BBC9D6",
"V$	c #0C1620",
"W$	c #DDE5F0",
"X$	c #000610",
"Y$	c #DADDE4",
"Z$	c #000002",
"`$	c #EEEBE4",
" %	c #BCB6A6",
".%	c #221C04",
"+%	c #FFFAE2",
"@%	c #BFBEAA",
"#%	c #0E1100",
"$%	c #6B705C",
"%%	c #0A1200",
"&%	c #0B1401",
"*%	c #707869",
"=%	c #161C12",
"-%	c #B1B2AD",
";%	c #77A4CD",
">%	c #5A92C5",
",%	c #4E7CAD",
"'%	c #000839",
")%	c #7AADE4",
"!%	c #689CD5",
"~%	c #356394",
"{%	c #7CA6CE",
"]%	c #274A6A",
"^%	c #7490A8",
"/%	c #22394B",
"(%	c #8696A5",
"_%	c #000B17",
":%	c #89929B",
"<%	c #0A0D14",
"[%	c #929294",
"}%	c #14110C",
"|%	c #E8E0D3",
"1%	c #BEB39F",
"2%	c #2F2106",
"3%	c #BEB598",
"4%	c #EEECD5",
"5%	c #B8BBA6",
"6%	c #0F1200",
"7%	c #6F745E",
"8%	c #A4A995",
"9%	c #171B0A",
"0%	c #5A5C4E",
"a%	c #14140A",
"b%	c #CFCBC8",
"c%	c #000817",
"d%	c #7E9FBE",
"e%	c #6591B8",
"f%	c #4D7EA9",
"g%	c #001244",
"h%	c #73AEE6",
"i%	c #619FDA",
"j%	c #3D7BB8",
"k%	c #4884C0",
"l%	c #255D96",
"m%	c #3C74A7",
"n%	c #0C3F6E",
"o%	c #2A5A82",
"p%	c #10385C",
"q%	c #214462",
"r%	c #001830",
"s%	c #3A4F60",
"t%	c #07161D",
"u%	c #030C0B",
"v%	c #D2D4C9",
"w%	c #D8D5C4",
"x%	c #A49C87",
"y%	c #1C1600",
"z%	c #B5B49F",
"A%	c #E6EAD3",
"B%	c #B4B8A1",
"C%	c #070B00",
"D%	c #989B86",
"E%	c #BDC0AD",
"F%	c #121504",
"G%	c #0D0F02",
"H%	c #898981",
"I%	c #041726",
"J%	c #748FAA",
"K%	c #7197BB",
"L%	c #4575A3",
"M%	c #000E43",
"N%	c #70AEE9",
"O%	c #599ADA",
"P%	c #4588CC",
"Q%	c #4E91D5",
"R%	c #4687CB",
"S%	c #5B9CDC",
"T%	c #508EC9",
"U%	c #6AA6DC",
"V%	c #689ECD",
"W%	c #79A9D1",
"X%	c #86AFCF",
"Y%	c #7C9CB3",
"Z%	c #98AEBC",
"`%	c #152429",
" &	c #B9BFBB",
".&	c #C8CABD",
"+&	c #E3DDCF",
"@&	c #797461",
"#&	c #151701",
"$&	c #959982",
"%&	c #D2D6BF",
"&&	c #A2A68F",
"*&	c #111400",
"=&	c #909380",
"-&	c #B1B4A3",
";&	c #111305",
">&	c #6C6E63",
",&	c #B9BAB4",
"'&	c #000417",
")&	c #7B98B6",
"!&	c #658CB5",
"~&	c #4E7DB1",
"{&	c #00134E",
"]&	c #68A5E6",
"^&	c #5F9FE6",
"/&	c #4A8DD4",
"(&	c #4B8FD6",
"_&	c #5194DB",
":&	c #5596DA",
"<&	c #5E9BDC",
"[&	c #639EDA",
"}&	c #6FA4DA",
"|&	c #76A6D4",
"1&	c #86B0D6",
"2&	c #8FB1CD",
"3&	c #97B0C4",
"4&	c #42535D",
"5&	c #485254",
"6&	c #DBE0DA",
"7&	c #B6B3AC",
"8&	c #090700",
"9&	c #717260",
"0&	c #1C1F0A",
"a&	c #9C9F8A",
"b&	c #C4C7B2",
"c&	c #6C6F5C",
"d&	c #121502",
"e&	c #A3A695",
"f&	c #B9BBAD",
"g&	c #16180B",
"h&	c #787971",
"i&	c #000E25",
"j&	c #7391B3",
"k&	c #7198C3",
"l&	c #3E6DA3",
"m&	c #000F4D",
"n&	c #73AEF4",
"o&	c #5A9AE2",
"p&	c #4688D2",
"q&	c #4789D3",
"r&	c #609DE0",
"s&	c #619BDA",
"t&	c #6FA3DC",
"u&	c #74A4D5",
"v&	c #8AB4DC",
"w&	c #89ACCC",
"x&	c #9EB8D1",
"y&	c #8B9EAD",
"z&	c #142129",
"A&	c #8B9093",
"B&	c #BDBFBC",
"C&	c #1B1B13",
"D&	c #A7AA99",
"E&	c #929580",
"F&	c #111401",
"G&	c #676A57",
"H&	c #353825",
"I&	c #2F321F",
"J&	c #0F1201",
"K&	c #A5A799",
"L&	c #B2B4A7",
"M&	c #14160B",
"N&	c #BBBCB6",
"O&	c #00041C",
"P&	c #7E9CBE",
"Q&	c #4F74A1",
"R&	c #39669F",
"S&	c #000B4C",
"T&	c #6FA8EF",
"U&	c #5A96DF",
"V&	c #4886D1",
"W&	c #4D8DD7",
"X&	c #5393DB",
"Y&	c #5F9EE3",
"Z&	c #67A2E4",
"`&	c #7BAFE8",
" *	c #85B3E5",
".*	c #7FA8D4",
"+*	c #93B5DA",
"@*	c #9EB9D6",
"#*	c #B6CBE0",
"$*	c #82909D",
"%*	c #0F1821",
"&*	c #3C4145",
"**	c #6B6D6A",
"=*	c #212316",
"-*	c #AEB19E",
";*	c #A1A493",
">*	c #1A1D0C",
",*	c #7A7D6C",
"'*	c #4E5140",
")*	c #181A0C",
"!*	c #D0D2C5",
"~*	c #A0A297",
"{*	c #080901",
"]*	c #BDBEB8",
"^*	c #0E223A",
"/*	c #354F70",
"(*	c #3B5E88",
"_*	c #517AAE",
":*	c #000B47",
"<*	c #6FA0E3",
"[*	c #6297DD",
"}*	c #5089D0",
"|*	c #5792D6",
"1*	c #5590D4",
"2*	c #66A0E0",
"3*	c #74A8E2",
"4*	c #75A4DA",
"5*	c #7FABDC",
"6*	c #97BCE6",
"7*	c #9ABBDE",
"8*	c #ABC0D5",
"9*	c #BCC9D9",
"0*	c #AFB9C3",
"a*	c #757C84",
"b*	c #0B0F10",
"c*	c #4D5047",
"d*	c #151709",
"e*	c #9EA092",
"f*	c #B0B3A2",
"g*	c #272A19",
"h*	c #414433",
"i*	c #202312",
"j*	c #A1A395",
"k*	c #B8BAAC",
"l*	c #7D7F72",
"m*	c #9EA095",
"n*	c #171810",
"o*	c #A7A8A2",
"p*	c #A7B8CA",
"q*	c #001630",
"r*	c #476388",
"s*	c #486A97",
"t*	c #00073B",
"u*	c #81A9E4",
"v*	c #618FCB",
"w*	c #598BC8",
"x*	c #5F93CD",
"y*	c #6395D0",
"z*	c #70A3DA",
"A*	c #73A5DA",
"B*	c #83B1E3",
"C*	c #89B3E3",
"D*	c #94B9E3",
"E*	c #9ABCE1",
"F*	c #99B6D4",
"G*	c #BAD0E8",
"H*	c #AABBCD",
"I*	c #C8D4E2",
"J*	c #C6CFD8",
"K*	c #C9CED4",
"L*	c #A9ADAE",
"M*	c #181B14",
"N*	c #15170A",
"O*	c #202215",
"P*	c #AAAC9E",
"Q*	c #9B9D8F",
"R*	c #191B0D",
"S*	c #9C9E90",
"T*	c #7D7F71",
"U*	c #0E1002",
"V*	c #2F3124",
"W*	c #424437",
"X*	c #8A8C81",
"Y*	c #26271F",
"Z*	c #B7B8B2",
"`*	c #F2FEFF",
" =	c #000F2A",
".=	c #000F37",
"+=	c #7899C4",
"@=	c #668BB8",
"#=	c #5D85B6",
"$=	c #5E8AB9",
"%=	c #6792BF",
"&=	c #6D96C2",
"*=	c #789FCA",
"==	c #7FA5CC",
"-=	c #8BADD2",
";=	c #91B0CF",
">=	c #96B1CC",
",=	c #AAC0D7",
"'=	c #AEC1D2",
")=	c #BECCD9",
"!=	c #C2CBD4",
"~=	c #CBD0D6",
"{=	c #BFC0BA",
"]=	c #6B6D62",
"^=	c #101205",
"/=	c #A9AB9E",
"(=	c #DFE1D3",
"_=	c #A8AA9C",
":=	c #97998B",
"<=	c #383A2C",
"[=	c #3F4134",
"}=	c #96988B",
"|=	c #070800",
"1=	c #878880",
"2=	c #EAF4FD",
"3=	c #B4C2CF",
"4=	c #081B2C",
"5=	c #00071F",
"6=	c #657D97",
"7=	c #5F7A97",
"8=	c #5A7998",
"9=	c #5F809F",
"0=	c #6B8AA9",
"a=	c #7392AF",
"b=	c #7B99B5",
"c=	c #86A1BC",
"d=	c #90AAC1",
"e=	c #9BB1C6",
"f=	c #A1B4C3",
"g=	c #A8B8C5",
"h=	c #B4C1CA",
"i=	c #C1CACF",
"j=	c #CDD2D5",
"k=	c #B0B1AB",
"l=	c #83847C",
"m=	c #15170C",
"n=	c #AAAC9F",
"o=	c #727467",
"p=	c #2E3023",
"q=	c #333528",
"r=	c #45473A",
"s=	c #929487",
"t=	c #0B0D00",
"u=	c #76776F",
"v=	c #8A8B83",
"w=	c #C0C1B9",
"x=	c #ADB8BE",
"y=	c #2E3B44",
"z=	c #0B1924",
"A=	c #213341",
"B=	c #34495A",
"C=	c #3B5264",
"D=	c #475E70",
"E=	c #536879",
"F=	c #5E7482",
"G=	c #6C7F8D",
"H=	c #798996",
"I=	c #84929B",
"J=	c #9FACB4",
"K=	c #A8B1B6",
"L=	c #B4BCBE",
"M=	c #C3C7C6",
"N=	c #D0D2CF",
"O=	c #B3B4AC",
"P=	c #1B1D12",
"Q=	c #93958A",
"R=	c #414336",
"S=	c #484A3D",
"T=	c #8B8D80",
"U=	c #1B1D10",
"V=	c #97998E",
"W=	c #B5B6AE",
"X=	c #A9AAA2",
"Y=	c #C1C7C7",
"Z=	c #A3ADAF",
"`=	c #909DA3",
" -	c #95A4AB",
".-	c #9DACB3",
"+-	c #A5B2BA",
"@-	c #ACB9BF",
"#-	c #B6C1C5",
"$-	c #BFC9CB",
"%-	c #C5CDCF",
"&-	c #C2C8C8",
"*-	c #C8CCCB",
"=-	c #D2D4CF",
"--	c #AAABA3",
";-	c #1B1C14",
">-	c #A1A398",
",-	c #818378",
"'-	c #27291E",
")-	c #888A7F",
"!-	c #92938B",
"~-	c #AEAFA9",
"{-	c #B5B7B4",
"]-	c #C4CACA",
"^-	c #C4CCCE",
"/-	c #C6CED0",
"(-	c #C7CFD1",
"_-	c #C8CECE",
":-	c #CACECF",
"<-	c #CCD0CF",
"[-	c #CFD1CE",
"}-	c #BEBFB9",
"|-	c #060700",
"1-	c #1C1D15",
"2-	c #71726A",
"3-	c #9A9B95",
"4-	c #9E9F99",
"5-	c #BBBCB7",
"6-	c #BABBB5",
"7-	c #84857F",
"8-	c #8E8F89",
"9-	c #9B9C97",
"0-	c #A5A6A1",
"a-	c #C1C2BD",
"b-	c #B0B0AE",
"              . + @ # $ % &                                                     ",
"            * = - ; > , ' ) !                                                   ",
"          ~ { ] ^ / ( _ : < [ }                                                 ",
"        | 1 2 3 4 5 6 7 8 9 0 a b                                               ",
"  * c # d e f g h i j k l m n o p q r s t u v w x x y z A B C D                 ",
"E F G H I J K L M N O P Q R S T U V W X Y Z `  ...+.@.#.$.%.&.*.=.              ",
"-.;.>.,.'.).!.~.{.].^./.(._.:.<.[.}.|.1.2.3.4.5.6.7.8.9.0.a.b.c.d.              ",
"e.f.g.h.i.).j.k.l.m.n.o.p.q.r.s.t.u.v.w.x.y.z.A.B.C.D.E.F.G.H.I.J.K.L.          ",
"M.N.O.P.Q.R.S.T.U.V.W.X.Y.Z.`. +.+++@+#+$+%+&+*+=+-+;+>+,+'+)+!+~+{+]+          ",
"-.^+/+(+_+:+<+[+}+|+1+2+3+4+5+6+7+8+9+0+a+b+c+d+e+f+g+h+i+j+k+l+m+n+o+p+        ",
"q+r+s+t+u+v+w+x+y+z+A+B+C+D+E+F+G+H+I+J+K+L+M+N+O+P+Q+R+S+T+U+V+W+X+Y+Z+        ",
"`+r+g. @u+.@+@@@#@$@%@&@*@=@-@;@>@,@'@)@!@~@{@]@^@/@(@_@:@<@[@}@|@1@2@3@        ",
"e.4@/+5@6@7@8@9@0@a@b@c@d@e@f@g@h@i@j@k@l@m@n@o@p@q@r@s@t@u@v@w@x@y@z@A@B@      ",
"C@D@E@F@u+G@H@I@J@K@L@M@N@O@P@Q@R@S@T@U@V@W@X@Y@Z@`@ #.#+#@###$#%#&#*#=#        ",
"-#;#>#,#'#)#!#~#{#]#^#/#(#_#:#<#[#}#|#1#2#3#4#5#6#7#8#9#0#a#b#c#d#e#f#g#        ",
"-#4@/+h#i#j#k#l#m#n#o#p#q#r#s#t#u#v#w#x#y#z#A#B#C#X@D#E#F#G#H#I#J#K#            ",
"e.r+g.,#L#M#N#O#P#Q#R#S#T#U#V#W#X#Y#Z#`# $.$+$@$#$$$%$&$*$=$-$;$>$,$            ",
"e.N.'$)$!$~${$]$^$/$($_$:$<$[$}$|$1$2$3$4$5$6$7$8$9$0$a$b$c$d$e$f$              ",
"g$h$i$)$j$)#k$l$m$n$o$p$q$r$s$t$u$v$w$x$y$z$A$B$C$D$E$F$G$H$I$                  ",
"g$J$K$L$!$M$N$O$P$Q$R$S$T$U$V$W$X$Y$Z$`$ %.%+%@%#%$%%%&%*%=%-%                  ",
"-#;%>%,%'%)%!%'@~%{%]%^%/%(%_%:%<%[%}%|%1%2%3%4%5%6%7%8%9%0%a%b%                ",
"c%d%e%f%g%h%i%j%k%l%m%n%o%p%q%r%s%t%u%v%w%x%y%z%A%B%C%D%E%F%G%H%                ",
"I%J%K%L%M%N%O%P%Q%R%S%T%U%V%W%X%Y%Z%`% &.&+&@&#&$&%&&&*&=&-&;&>&,&              ",
"'&)&!&~&{&]&^&/&(&_&:&<&[&}&|&1&2&3&4&5&6&7&8&9&0&a&b&c&d&e&f&g&h&              ",
"i&j&k&l&m&n&o&p&q&_&k r&s&t&u&v&w&x&y&z&A&B&C&D&E&F&G&H&I&J&K&L&M&N&            ",
"O&P&Q&R&S&T&U&V&W&X&Y&Z&,@`& *.*+*@*#*$*%*&***=*-*;*J&>*,*'*)*!*~*{*]*          ",
"^*/*(*_*:*<*[*}*|*1*2*R 3*4*5*6*7*x@8*9*0*a*b*c*d*e*f*g*h*i*j*k*l*m*n*o*        ",
"p*q*r*s*t*u*v*w*x*y*z*A*B*C*D*E*F*G*H*I*J*K*L*M*N*O*P*Q*R*S*T*U*V*W*X*Y*Z*      ",
"`*p* =/*.=+=@=#=$=%=&=*===-=;=>=,='=)=!=~=    {=X*]=^=/=(=_=B$:=<=[=}=|=1=      ",
"  2=3=4=5=6=7=8=9=0=a=b=c=d=e=f=g=h=i=j=          k=l=m=n=o=p=q=r=s=t=u=v=w=    ",
"      x=y=z=A=B=C=D=E=F=G=H=I=J=K=L=M=N=              O=P=Q=R=S=T=U=V=W=v=X=    ",
"          Y=Z=`= -.-+-@-#-$-%-&-*-=-                    --;->-,-'-)-!-v=~-      ",
"            {-]-^-/-(-_-:-<-[-                            }-|-1-2-3-4-5-        ",
"                                                            6-7-8-9-0-          ",
"                                                                a-b-            ",
"                                                                                ",
"                                                                                "};
