/* XPM */
static char * application_postscript_xpm[] = {
"45 39 208 2",
"  	c None",
". 	c #000000",
"+ 	c #FFFFFF",
"@ 	c #0A0A0A",
"# 	c #656564",
"$ 	c #262726",
"% 	c #181919",
"& 	c #BEBDBE",
"* 	c #CAC9CA",
"= 	c #CDCDCD",
"- 	c #D9D4D6",
"; 	c #DCDADB",
"> 	c #29292A",
", 	c #454543",
"' 	c #32322D",
") 	c #343533",
"! 	c #B3B3B3",
"~ 	c #B9B9B9",
"{ 	c #C4C3C4",
"] 	c #D9DAD7",
"^ 	c #DDE2E7",
"/ 	c #EAEAE4",
"( 	c #ECEBEA",
"_ 	c #D3CED1",
": 	c #949493",
"< 	c #58595A",
"[ 	c #302E26",
"} 	c #2B3626",
"| 	c #ACACAC",
"1 	c #E6E5D7",
"2 	c #F0EDDE",
"3 	c #FBFAE5",
"4 	c #F6F6EA",
"5 	c #111100",
"6 	c #262619",
"7 	c #393A36",
"8 	c #4C4C44",
"9 	c #A4A4A4",
"0 	c #DDDDC8",
"a 	c #EBE9B8",
"b 	c #F1E0C0",
"c 	c #F3F3B7",
"d 	c #F6F3D3",
"e 	c #E4E3C4",
"f 	c #DDD3A2",
"g 	c #3F2E00",
"h 	c #514F44",
"i 	c #464437",
"j 	c #D4D3C3",
"k 	c #F1E3B3",
"l 	c #EDEDB3",
"m 	c #F5F0C1",
"n 	c #EADCAD",
"o 	c #E8E7A9",
"p 	c #D9D7BA",
"q 	c #D8D886",
"r 	c #A7A59D",
"s 	c #585537",
"t 	c #8C8956",
"u 	c #80806E",
"v 	c #334333",
"w 	c #C1BCB9",
"x 	c #E3D2C3",
"y 	c #ECE7E9",
"z 	c #E5E3E3",
"A 	c #CAC5C4",
"B 	c #D8D698",
"C 	c #BFB271",
"D 	c #686735",
"E 	c #847D6B",
"F 	c #BFC2C6",
"G 	c #DACAB9",
"H 	c #EBDCB5",
"I 	c #F0DFB3",
"J 	c #F8EBAC",
"K 	c #959599",
"L 	c #949287",
"M 	c #89898A",
"N 	c #786E3A",
"O 	c #94813A",
"P 	c #F0F0A4",
"Q 	c #9B9B9B",
"R 	c #7A797A",
"S 	c #747473",
"T 	c #9A9445",
"U 	c #9A9654",
"V 	c #444411",
"W 	c #221100",
"X 	c #DBCB7A",
"Y 	c #B5B4A9",
"Z 	c #838482",
"` 	c #A9A5A3",
" .	c #797A86",
"..	c #3E3E3D",
"+.	c #6A6658",
"@.	c #40400F",
"#.	c #212100",
"$.	c #E2D28B",
"%.	c #76736B",
"&.	c #B3B1AD",
"*.	c #83817C",
"=.	c #474A4B",
"-.	c #110000",
";.	c #B8B5B7",
">.	c #E9E996",
",.	c #D3D072",
"'.	c #414140",
").	c #1F231E",
"!.	c #A4944A",
"~.	c #333311",
"{.	c #E8DB93",
"].	c #F1EAE7",
"^.	c #CDCAC5",
"/.	c #413D41",
"(.	c #867A35",
"_.	c #3F300E",
":.	c #392811",
"<.	c #B6B356",
"[.	c #68686A",
"}.	c #E2DCDD",
"|.	c #EFF1ED",
"1.	c #C4C4BD",
"2.	c #A28B37",
"3.	c #17170B",
"4.	c #38444A",
"5.	c #B8AB45",
"6.	c #F2EBEC",
"7.	c #635B56",
"8.	c #47452D",
"9.	c #635E49",
"0.	c #413D32",
"a.	c #D4D3D3",
"b.	c #F5EFF1",
"c.	c #524D39",
"d.	c #76714C",
"e.	c #F5F4F3",
"f.	c #6B664E",
"g.	c #D8CB9B",
"h.	c #D7C884",
"i.	c #C1C158",
"j.	c #ECD9FC",
"k.	c #756C69",
"l.	c #39D323",
"m.	c #D5C8A6",
"n.	c #CDC776",
"o.	c #F5F6FD",
"p.	c #0D0D19",
"q.	c #F7ECFA",
"r.	c #E1C571",
"s.	c #C9C98C",
"t.	c #C9BC8B",
"u.	c #F8F6F7",
"v.	c #D0CDC7",
"w.	c #D4D2CB",
"x.	c #FBFCFA",
"y.	c #8B8B3C",
"z.	c #B0AEAB",
"A.	c #FBFAF4",
"B.	c #575649",
"C.	c #3D3627",
"D.	c #827E79",
"E.	c #EBF8F8",
"F.	c #ACA451",
"G.	c #201C13",
"H.	c #020202",
"I.	c #1E400C",
"J.	c #A49E97",
"K.	c #C4BFA5",
"L.	c #B7AA79",
"M.	c #D2CECD",
"N.	c #E0DAD6",
"O.	c #050503",
"P.	c #40F826",
"Q.	c #E9E4E5",
"R.	c #B8CBD9",
"S.	c #DBD7DA",
"T.	c #68592A",
"U.	c #999179",
"V.	c #3DE725",
"W.	c #E3DEE1",
"X.	c #C9C5CB",
"Y.	c #C1BDC3",
"Z.	c #151527",
"`.	c #7C8288",
" +	c #B9BAC6",
".+	c #2D2D3A",
"++	c #37CC23",
"@+	c #4C4C54",
"#+	c #9395A2",
"$+	c #9A9AA5",
"%+	c #C6C9D7",
"&+	c #B1BDD1",
"*+	c #DACDE4",
"=+	c #353842",
"-+	c #34BB22",
";+	c #4D9F1B",
">+	c #332530",
",+	c #4E962E",
"'+	c #BFB26B",
")+	c #B1ADB2",
"!+	c #A19FA8",
"~+	c #858691",
"{+	c #51B233",
"]+	c #649A39",
"^+	c #75AE53",
"/+	c #8E95A3",
"(+	c #A9ADC1",
"_+	c #D4D8E3",
". . . . . . . . . . . . . . . . . . . . . . . . . . . . . . . . . . . . . . . . . . . . . ",
". + + + + + + + + + + + + + + + + + + + + + + + + + + + + + + + + + + + + + + + + + + + . ",
". + + + + + + + + + + + + + + + . . . . . . . . . . @ # $ % + + + + + + + + + + + + + + . ",
". + + + + + + + + + + + + + . . . . . & * = - ; . . % $ > , ' ) + + + + + + + + + + + + . ",
". + + + + + + + + + + + + . . . ! ~ { * = - ] ^ / ( _ : > > < [ } + + + + + + + + + + + . ",
". + + + + + + + + + + . . . | ! ~ & { = - ; 1 1 2 3 4 3 4 5 6 6 6 7 8 + + + + + + + + + . ",
". + + + + + + + + + . . 9 | ! ~ & { = - 0 0 a b c d a a a e f g 6 h i ) + + + + + + + + . ",
". + + + + + + + + . . 9 | ! ~ & & * j j e a c k l m l n o p q r s t u v % + + + + + + + . ",
". + + + + + + + + . 9 | ! ~ ~ & { w p x a n c k c k y z = A B C D D t E i + + + + + + + . ",
". + + + + + + + . . | ! ~ ~ & F p G e H o I l J ( _ | K : L M : < N O E t 6 5 + + + + + . ",
". + + + + + + + . | ! ~ & { { = p p a n l l P = ! Q # # R S # i S < 7 T U V W 5 5 + + + . ",
". + + + + + + . . ! ~ & & { * j e a o k c P X Y R S Z ` ` `  .< ..+.> ) U N @.6 #.5 + + . ",
". + + + + + + . ! ~ ~ ~ ~ * = G a k l I P $.Y R %.Z : ! ! &.| *.=.....$ T O V #.W #.-.5 . ",
". + + + + + + . ~ ~ ;.~ ~ { 0 H l k l o >.,.%.%.K | 0 1 ] = { : S '.' ).i !.D V ~.~.#.5 . ",
". + + + + + + . & { ~ ! ~ { e k l c P {.>.X S : ! ^ ]./ 1 ] ^.! r R ) /.'.!.(.V _.~.:.#.. ",
". + . + + + + . * . . . . . #.k c c o >.<.,.[.M }.d |.z 1 0 j 1.` : [.8 , v 2.3.V i 4.'.. ",
". + . + + + + . = * . & * ] #._.c J >.{.>.5.# Q 4 / 6.6.2 1 0 ^.! 9 M 7.8 ' > [ 7 8.9.0.. ",
". + . + + + + . a.{ . * a.; e _.o n B {.>.<.%.& |.6.6.b.].2 / ( a.| r S 8 7 ' i c.s d.'.. ",
". + . . + + + . a.~ . * - ^ #.g o f q $.>.<.i ^ ( ( ( |.( ].3 e.z ~ = r 8 7 i h 9.f.t !.. ",
". + . . + + + . - | . . . . #.g.B B B h.{.i.% |.( a.] 3 j.d 3 . ( ; ^.^.8 8 8 k.L n X !.. ",
". + . l.. + + . y * . = = . e m.B g.q n.q 5.).( o.o.p.3 q.3 . . . / a.= %.k.L Y 1 c r.!.. ",
". + . l.. + + . ( / . = = - #.m.s.t.s.n.n.5.> - o.3.% . u.u.. . . |.] v.Y ~ w.a I {.i.(.. ",
". + . l.. + + . u.x.. a.= 9 %.[ # L s.s.y.<.) z.o.p.3.. A.o.. . . A.e.j 1.4 e n {.$.(.B.. ",
". + . l.. + + . x.. . . = 6 C.9.B.i [ D.(.' v R o.o.@ . A.q.3 . x.A.A.x.( 1 H n g.$.D c.. ",
". + . l.l.. + . u.; a.= = 3.9.E E B.i 7 R L , Z ` o.. E.u.x.x.A.u.x.q.3 x.p m.g.h.F.c.0.. ",
". + . . l.. + . e.a.= * A G.c.E D.D.+.S %.R R 9 * z o.o.o.H.q.3 x.A.E.A.|.p m.B d.d.c.8.. ",
". + + I.I.. + . z a.* * & L 8.%.J.Y ;.^.| : | ^.] e.x.A.. . . 3 x.|.6./ }.j K.L.F.9.0.0.. ",
". + + I.I.. + . ; = { { & A 3.9.` w v.M.w.a./ e.|.4 x.A.. . H.3 e.b.b.b.N.j Y d.N c.) @ . ",
". . . I.I.. . . = { ~ & ! { { G.E ! A M.- ; 1 z ( u.x.x.. . . 3 ; e.b.b.N.v.Y 9.s 0.5 O.. ",
". P.P.l.I.I.. . * ~ ! ! | & - O.8 ` 1.M.; }.z / ( |.u.u.E.. . e.e.b.Q.}.N.w.w f.s c.@ @ . ",
". H.P.P.l.I.I.. ~ ! 9 | 9 ! { R.6 M v.- 1 Q.Q./ ( ( u.x.E.A.o.b.b.b.}.S._ M.A E f.f.@ 3.. ",
". . . . l.I.I.. ! 9 Q Q M 9 { a.T.0.&.w Q.( ( ( ( ( e.u.E.A.6.6.Q.Q.}.- M.M.N.r U.E 7 $ . ",
". + + . l.V.I.. 9 Q R # S M ~ = O c.: ` - 6.y Q.Q.Q.W.}.W.y W.a.X.X.; S.* Y.- w.w r %.p.. ",
". + + H.I.l.I.. Q M S # # S Q &.2.i Z Q w }.S.A { = S.S.S.W.- = Y.{ - W._ Y.M.N.^.&.*.Z.. ",
". I.. . I.l.l.. Z R [.< 7 '.`.9 O ' Z Q ~ - ^.;.;.A _ - - - = Y.;. +_ Q.W._ X.W.}.Y.S .+. ",
". I.I.I.I.l.++. [.< @+=.7 > .+E.L.i Q ! A M.w ` | ;.A * & X.X.;.#+$+_ W.y ; %+ +&+*+.+=+. ",
". I.++++-+++-+. < ;+;+, ) >+,+y '+h &.A - M.Q Q ` )+X.!+!+~ X.)+~+#+ +S.Q.S.F $+I.I.-+-+. ",
". ~.-+-+-+-+-+. $ ;+;+;+.+{+]+^+@ 8 z.^.S._ M !+| )+)+~+K ;.Y.!+`./+(+a._+;  +K I.I.~.-+. ",
". . . . . . . . . . . . . . . . . . . . . . . . . . . . . . . . . . . . . . . . . . . . . "};
