/* XPM */
static char * application_vvsh_xpm[] = {
"34 34 150 2",
"  	c None",
". 	c #000000",
"+ 	c #FFFFFF",
"@ 	c #BBBBBB",
"# 	c #777777",
"$ 	c #DDDDDD",
"% 	c #999999",
"& 	c #D2D2D2",
"* 	c #828282",
"= 	c #6E6E6E",
"- 	c #898989",
"; 	c #929292",
"> 	c #020000",
", 	c #080202",
"' 	c #0B0303",
") 	c #090202",
"! 	c #030000",
"~ 	c #4F4F4F",
"{ 	c #4D1616",
"] 	c #802626",
"^ 	c #611C1C",
"/ 	c #100404",
"( 	c #414141",
"_ 	c #D6D6D6",
": 	c #BABABA",
"< 	c #882929",
"[ 	c #E84747",
"} 	c #EA4848",
"| 	c #AD3434",
"1 	c #180707",
"2 	c #858585",
"3 	c #7B7B7B",
"4 	c #8C8C8C",
"5 	c #212121",
"6 	c #424242",
"7 	c #4E4E4E",
"8 	c #D3D3D3",
"9 	c #5C1B1B",
"0 	c #992E2E",
"a 	c #732222",
"b 	c #120505",
"c 	c #393939",
"d 	c #585858",
"e 	c #0B0B0B",
"f 	c #030304",
"g 	c #101217",
"h 	c #242733",
"i 	c #1A1D25",
"j 	c #08090C",
"k 	c #2E2E2E",
"l 	c #909090",
"m 	c #3A3A3A",
"n 	c #0A0202",
"o 	c #0D0303",
"p 	c #040000",
"q 	c #272727",
"r 	c #010202",
"s 	c #161820",
"t 	c #4A5169",
"u 	c #7B86AD",
"v 	c #636D8D",
"w 	c #2E3241",
"x 	c #C6C6C6",
"y 	c #686868",
"z 	c #AEAEAE",
"A 	c #0B0C10",
"B 	c #3F455A",
"C 	c #838FB9",
"D 	c #99A7D8",
"E 	c #919FCD",
"F 	c #646D8D",
"G 	c #1A1D26",
"H 	c #939393",
"I 	c #0F1116",
"J 	c #555D78",
"K 	c #92A0CF",
"L 	c #9BA9DB",
"M 	c #99A7D9",
"N 	c #7B86AE",
"O 	c #252834",
"P 	c #07080B",
"Q 	c #2F3342",
"R 	c #737EA3",
"S 	c #94A2D2",
"T 	c #8794BF",
"U 	c #4F5771",
"V 	c #12141A",
"W 	c #303030",
"X 	c #696969",
"Y 	c #010102",
"Z 	c #0C0D11",
"` 	c #5A627F",
" .	c #444B61",
"..	c #0D0D0E",
"+.	c #575757",
"@.	c #08080B",
"#.	c #0D0E13",
"$.	c #040405",
"%.	c #646464",
"&.	c #626262",
"*.	c #868686",
"=.	c #848484",
"-.	c #9C9C9C",
";.	c #D8D8D8",
">.	c #4D4D4D",
",.	c #101210",
"'.	c #131713",
").	c #101410",
"!.	c #030403",
"~.	c #000100",
"{.	c #000300",
"].	c #1A1A1A",
"^.	c #353535",
"/.	c #011E05",
"(.	c #033A0B",
"_.	c #03410C",
":.	c #022B08",
"<.	c #012507",
"[.	c #022D08",
"}.	c #012606",
"|.	c #3F3F3F",
"1.	c #067416",
"2.	c #07841A",
"3.	c #067917",
"4.	c #033F0C",
"5.	c #0D120E",
"6.	c #023009",
"7.	c #067F19",
"8.	c #08931D",
"9.	c #07921C",
"0.	c #07861A",
"a.	c #03440D",
"b.	c #101511",
"c.	c #022E09",
"d.	c #067617",
"e.	c #07881A",
"f.	c #067C18",
"g.	c #03400C",
"h.	c #012005",
"i.	c #03420C",
"j.	c #034A0E",
"k.	c #03450D",
"l.	c #022907",
"m.	c #0D110D",
"n.	c #000500",
"o.	c #000901",
"p.	c #000601",
"q.	c #101010",
"r.	c #B5B5B5",
"s.	c #B6B6B6",
". . . . . . . . . . . . . . . . . . . . . . . . . . . . . . . . . . ",
". + + + + + + + + + + + + + + + + + + + + + + + + + + + + + + + @ . ",
". + + + + + + + + + + + + + + + + + + + + + + + + + + + + + + @ # . ",
". + + @ $ @ $ @ $ @ $ @ $ @ $ @ $ @ $ @ $ @ $ @ $ @ $ @ $ @ $ # % . ",
". + + $ @ $ @ $ @ $ @ $ @ $ @ $ @ $ @ $ @ $ @ $ @ $ @ $ @ $ @ % # . ",
". + + @ $ @ $ @ $ @ $ @ $ @ $ @ $ @ $ @ $ @ $ @ $ @ $ @ $ @ $ # % . ",
". + & * = * = * = * = * = * = * = * = * - $ @ $ @ $ @ $ @ $ @ % # . ",
". + ; > , ' ' ' ' ' ' ' ' ' ' ' ' ' ) ! ~ @ $ @ $ @ $ @ $ @ $ # % . ",
". + ; , { ] ] ] ] ] ] ] ] ] ] ] ] ] ^ / ( _ : $ @ $ @ $ @ $ @ % # . ",
". + ; ' < [ [ [ [ } } } } } [ } } } | 1 . . 2 @ $ @ $ @ $ @ $ # % . ",
". + ; ' < [ [ [ [ } } } } } [ } } } | 1 . . . 3 4 $ @ $ @ $ @ % # . ",
". + ; ' < [ [ [ [ } } } } } [ } } } | 1 . . . . 5 6 7 6 7 6 8 # % . ",
". + ; ) 9 0 0 0 0 0 0 0 0 0 0 0 0 0 a b c d e . . f g h i j k l m . ",
". + ; > n o o o o o o o o o o o o o ' p ~ @ $ q r s t u v w j . . . ",
". + x y d y d y d y d y d y d y d y d y 3 $ @ z A B C D E F G . . . ",
". + + @ $ @ $ @ $ @ $ @ $ @ $ @ $ @ $ @ $ @ $ H I J K L M N O . . . ",
". + + $ @ $ @ $ @ $ @ $ @ $ @ $ @ $ @ $ @ $ @ z P Q R S T U V W X . ",
". + + @ $ @ $ @ $ @ $ @ $ @ $ @ $ @ $ @ $ @ $ H Y Z w `  .i ..( % . ",
". + + $ @ $ @ $ @ $ @ $ @ $ @ $ @ $ @ $ @ $ @ +.. . @.V #.$.%.% # . ",
". + + @ $ @ $ @ $ @ $ @ $ @ $ @ $ @ $ @ $ @ &.. . . *.=.-.=.;.# % . ",
". + + $ @ $ @ >.,.'.).'.).'.).'.).'.).'.).'.!.. ~.{.].$ @ $ @ % # . ",
". + + @ $ @ $ ^./.(._._._._._._._._._._._._.:.<.[.}.).@ $ @ $ # % . ",
". + + $ @ $ @ |.[.1.2.2.2.2.2.2.2.2.2.2.2.2.2.2.3.4.5.$ @ $ @ % # . ",
". + + @ $ @ $ ^.6.7.8.8.8.8.9.8.8.8.8.8.8.8.8.8.0.a.b.@ $ @ $ # % . ",
". + + $ @ $ @ |.6.7.8.8.8.8.9.8.8.8.8.8.8.8.8.8.0.a.5.$ @ $ @ % # . ",
". + + @ $ @ $ ^.c.d.e.e.e.e.e.e.e.e.e.e.e.e.e.e.f.g.b.@ $ @ $ # % . ",
". + + $ @ $ @ |.h.i.j.j.j.j.j.j.j.j.j.j.j.j.j.j.k.l.m.$ @ $ @ % # . ",
". + + @ $ @ $ ^.n.o.o.o.o.o.o.o.o.o.o.o.o.o.o.o.o.p.q.@ $ @ $ # % . ",
". + + $ @ $ @ ;.r._ r._ r._ r._ r._ r._ r._ r._ r._ s.$ @ $ @ % # . ",
". + + @ $ @ $ @ $ @ $ @ $ @ $ @ $ @ $ @ $ @ $ @ $ @ $ @ $ @ $ # % . ",
". + + $ @ $ @ $ @ $ @ $ @ $ @ $ @ $ @ $ @ $ @ $ @ $ @ $ @ $ @ % # . ",
". + @ # % # % # % # % # % # % # % # % # % # % # % # % # % # % # % . ",
". @ # % # % # % # % # % # % # % # % # % # % # % # % # % # % # % # . ",
". . . . . . . . . . . . . . . . . . . . . . . . . . . . . . . . . . "};
