/* XPM */
static char * application_x_class_file_xpm[] = {
"39 39 805 2",
"  	c None",
". 	c #050505",
"+ 	c #060606",
"@ 	c #101010",
"# 	c #000000",
"$ 	c #171717",
"% 	c #737373",
"& 	c #7B7B7B",
"* 	c #696969",
"= 	c #828282",
"- 	c #777777",
"; 	c #7A7A7A",
"> 	c #7E7E7E",
", 	c #808080",
"' 	c #707070",
") 	c #858585",
"! 	c #717171",
"~ 	c #727272",
"{ 	c #7C7C7C",
"] 	c #747474",
"^ 	c #6E6E6E",
"/ 	c #6F6F6F",
"( 	c #5B5B5B",
"_ 	c #3D3D3D",
": 	c #020202",
"< 	c #7D7D7D",
"[ 	c #6C6C6C",
"} 	c #666666",
"| 	c #686868",
"1 	c #626262",
"2 	c #767676",
"3 	c #5E5E5E",
"4 	c #6D6D6D",
"5 	c #636363",
"6 	c #676767",
"7 	c #616161",
"8 	c #646464",
"9 	c #555555",
"0 	c #6B6B6B",
"a 	c #595959",
"b 	c #4E4E4E",
"c 	c #333333",
"d 	c #373737",
"e 	c #080808",
"f 	c #ADADAD",
"g 	c #C4C4C4",
"h 	c #0C0C0C",
"i 	c #515151",
"j 	c #5A5A5A",
"k 	c #4D4D4D",
"l 	c #656565",
"m 	c #474747",
"n 	c #505050",
"o 	c #575757",
"p 	c #494949",
"q 	c #585858",
"r 	c #535353",
"s 	c #4C4C4C",
"t 	c #4B4B4B",
"u 	c #353535",
"v 	c #272727",
"w 	c #ABABAB",
"x 	c #030303",
"y 	c #525252",
"z 	c #5C5C5C",
"A 	c #6A6A6A",
"B 	c #5F5F5F",
"C 	c #454545",
"D 	c #464646",
"E 	c #343434",
"F 	c #323232",
"G 	c #1E1E1E",
"H 	c #888888",
"I 	c #B3B3B3",
"J 	c #121212",
"K 	c #F7F7F7",
"L 	c #B1B1B1",
"M 	c #A1A1A1",
"N 	c #FFFFFF",
"O 	c #ACACAC",
"P 	c #EFEFEF",
"Q 	c #A6A6A6",
"R 	c #969696",
"S 	c #A3A3A3",
"T 	c #FAFAFA",
"U 	c #383838",
"V 	c #191919",
"W 	c #848484",
"X 	c #898989",
"Y 	c #FEFEFE",
"Z 	c #FCFCFC",
"` 	c #545454",
" .	c #F5F5F5",
"..	c #8C8C8C",
"+.	c #FBFBFB",
"@.	c #818181",
"#.	c #F6F6F6",
"$.	c #878787",
"%.	c #4F4F4F",
"&.	c #999999",
"*.	c #363636",
"=.	c #2F2F2F",
"-.	c #262626",
";.	c #040404",
">.	c #F8F8F8",
",.	c #F4F4F4",
"'.	c #838383",
").	c #F0F0F0",
"!.	c #3C3C3C",
"~.	c #2B2B2B",
"{.	c #7F7F7F",
"].	c #B9B9B9",
"^.	c #0A0A0A",
"/.	c #A5A5A5",
"(.	c #AFAFAF",
"_.	c #B2B2B2",
":.	c #FAFCF9",
"<.	c #A8A8A6",
"[.	c #5E5A59",
"}.	c #ACA8A7",
"|.	c #FCFBF9",
"1.	c #A1A29D",
"2.	c #555553",
"3.	c #474944",
"4.	c #F4F9F5",
"5.	c #4C4C4A",
"6.	c #2F2526",
"7.	c #362A2C",
"8.	c #1B0F11",
"9.	c #928889",
"0.	c #C3BDBD",
"a.	c #606060",
"b.	c #5F615E",
"c.	c #565B54",
"d.	c #5A5B53",
"e.	c #584D49",
"f.	c #695E5A",
"g.	c #534E48",
"h.	c #55574C",
"i.	c #51544B",
"j.	c #464E41",
"k.	c #475347",
"l.	c #818179",
"m.	c #D7BABC",
"n.	c #FCD5DA",
"o.	c #FFE0E7",
"p.	c #FEE1E5",
"q.	c #D7C4C6",
"r.	c #010101",
"s.	c #565656",
"t.	c #B0B0B0",
"u.	c #BABABA",
"v.	c #ABADAA",
"w.	c #FBFFFA",
"x.	c #B0B2A7",
"y.	c #65534F",
"z.	c #AD9593",
"A.	c #FFF9F6",
"B.	c #8D8078",
"C.	c #B7B5A9",
"D.	c #FFFFF4",
"E.	c #BEBCB0",
"F.	c #E6D9D1",
"G.	c #CDABAC",
"H.	c #B78A8F",
"I.	c #C499A0",
"J.	c #AE8A8E",
"K.	c #111111",
"L.	c #A8A8A8",
"M.	c #F9F9F9",
"N.	c #8B8B8B",
"O.	c #EBEBEB",
"P.	c #949494",
"Q.	c #F0F5F1",
"R.	c #727F75",
"S.	c #FBFEF5",
"T.	c #6E5958",
"U.	c #E5BCC0",
"V.	c #FFEEF5",
"W.	c #EFC2C7",
"X.	c #BFAAA7",
"Y.	c #FFF1ED",
"Z.	c #E2BEC0",
"`.	c #CEA5A9",
" +	c #E8CACC",
".+	c #C5ABAC",
"++	c #CBAEB2",
"@+	c #FADBE0",
"#+	c #B79A9F",
"$+	c #868686",
"%+	c #F2F2F2",
"&+	c #9A9A9A",
"*+	c #F9FEFA",
"=+	c #88938B",
"-+	c #F8F9F3",
";+	c #AB8D8F",
">+	c #FFD1DA",
",+	c #B87984",
"'+	c #AC737C",
")+	c #F7D5D6",
"!+	c #FFE2E1",
"~+	c #CA8E98",
"{+	c #FBC2CB",
"]+	c #CDADAE",
"^+	c #604E4C",
"/+	c #463837",
"(+	c #C8B4B5",
"_+	c #FFE7EE",
":+	c #AB8E93",
"<+	c #F9F1EF",
"[+	c #0D0D0D",
"}+	c #5D5D5D",
"|+	c #B4B4B4",
"1+	c #A9A9A9",
"2+	c #A9ABA8",
"3+	c #F6FBF5",
"4+	c #DFD5D3",
"5+	c #FFE1E8",
"6+	c #A96F7B",
"7+	c #B07881",
"8+	c #FFD2D8",
"9+	c #FCD2D4",
"0+	c #C08F92",
"a+	c #FFE2EC",
"b+	c #BF8089",
"c+	c #D5AEB1",
"d+	c #554641",
"e+	c #4C4D45",
"f+	c #A09B95",
"g+	c #FFE4EA",
"h+	c #BC979E",
"i+	c #FFFCFA",
"j+	c #959595",
"k+	c #615D5C",
"l+	c #766C6B",
"m+	c #FFE8EB",
"n+	c #AF7D86",
"o+	c #C18C94",
"p+	c #FFE2E2",
"q+	c #9B7C79",
"r+	c #FFE9E9",
"s+	c #C79395",
"t+	c #FFCCD3",
"u+	c #E09FA5",
"v+	c #E2B6B7",
"w+	c #7E6964",
"x+	c #53594D",
"y+	c #B2B2A8",
"z+	c #FFE7EC",
"A+	c #B58A91",
"B+	c #FFFAF7",
"C+	c #070707",
"D+	c #797979",
"E+	c #A4A4A4",
"F+	c #B7ADAE",
"G+	c #FFE5EA",
"H+	c #E5B6BC",
"I+	c #EEBBC0",
"J+	c #BD9796",
"K+	c #D2CCBE",
"L+	c #777463",
"M+	c #DABFB6",
"N+	c #EEBEBA",
"O+	c #CD908F",
"P+	c #FFE9EA",
"Q+	c #F1BEBD",
"R+	c #DDBEB9",
"S+	c #77786A",
"T+	c #CAC6BA",
"U+	c #ECBFC2",
"V+	c #DEADB1",
"W+	c #EEEEEE",
"X+	c #8A8A8A",
"Y+	c #B2A2A5",
"Z+	c #FFEFF8",
"`+	c #B87C84",
" @	c #E4B8B9",
".@	c #F0DACF",
"+@	c #F1F4DF",
"@@	c #AFB19B",
"#@	c #C8AE9F",
"$@	c #FFD2C9",
"%@	c #D7908E",
"&@	c #FFC4C4",
"*@	c #B27773",
"=@	c #FFDDD5",
"-@	c #E7D7C8",
";@	c #F7E3D8",
">@	c #C38C8F",
",@	c #FFE1E5",
"'@	c #F1F1F1",
")@	c #705C5E",
"!@	c #FFE9F3",
"~@	c #BE8085",
"{@	c #E3C5BD",
"]@	c #D8CDBB",
"^@	c #FFFFEA",
"/@	c #B9AA95",
"(@	c #C19C8A",
"_@	c #FBBBB1",
":@	c #E38384",
"<@	c #CB696A",
"[@	c #C8837C",
"}@	c #C9978C",
"|@	c #F8CDC4",
"1@	c #AA7974",
"2@	c #FFDEE0",
"3@	c #C68E91",
"4@	c #CCB4B2",
"5@	c #F3F3F3",
"6@	c #6D5A5C",
"7@	c #FFDAE0",
"8@	c #D59D9E",
"9@	c #F9E3D6",
"0@	c #B8AD99",
"a@	c #D7C2AF",
"b@	c #D2AB9A",
"c@	c #D28F86",
"d@	c #D1746F",
"e@	c #F37A7F",
"f@	c #BC484B",
"g@	c #EA9A93",
"h@	c #E4A69B",
"i@	c #C98D85",
"j@	c #FFCBC7",
"k@	c #CF8586",
"l@	c #9B5F61",
"m@	c #FFF2F3",
"n@	c #0B0B0B",
"o@	c #5D5151",
"p@	c #FFE3E6",
"q@	c #BC9391",
"r@	c #FFEDE2",
"s@	c #B29C8E",
"t@	c #FFDACF",
"u@	c #FFD1CC",
"v@	c #E87A7D",
"w@	c #E15963",
"x@	c #E95563",
"y@	c #E37F7F",
"z@	c #E79A94",
"A@	c #E49F9A",
"B@	c #D7918F",
"C@	c #F9AAAD",
"D@	c #F4B6B9",
"E@	c #989898",
"F@	c #EDEDED",
"G@	c #9F9F9F",
"H@	c #9D9D9D",
"I@	c #FFFCFD",
"J@	c #E4CFCE",
"K@	c #BA9E9B",
"L@	c #FFF3EA",
"M@	c #FFE3D8",
"N@	c #EAB5AF",
"O@	c #E48B8D",
"P@	c #C74350",
"Q@	c #BF2235",
"R@	c #D73A4B",
"S@	c #FF8F9B",
"T@	c #FF9298",
"U@	c #C6706F",
"V@	c #E7A6A0",
"W@	c #FFE4E1",
"X@	c #F5B1B2",
"Y@	c #F4BCBF",
"Z@	c #FEE3E8",
"`@	c #A0A0A0",
" #	c #979797",
".#	c #FFFFFD",
"+#	c #938B89",
"@#	c #E5D7D6",
"##	c #C1A9A7",
"$#	c #FFE0DE",
"%#	c #FFD2CE",
"&#	c #FFCCCF",
"*#	c #F16E7E",
"=#	c #CF3349",
"-#	c #CC3548",
";#	c #FFADBC",
">#	c #F6808C",
",#	c #CF797C",
"'#	c #FFE7E0",
")#	c #F0CBC3",
"!#	c #FFD4D2",
"~#	c #C0969A",
"{#	c #F9E2EA",
"]#	c #D1C7D0",
"^#	c #3E3E3E",
"/#	c #414141",
"(#	c #787677",
"_#	c #C6BDBE",
":#	c #C3ADAF",
"<#	c #BF9FA0",
"[#	c #F6D3D1",
"}#	c #FFDFDF",
"|#	c #E37B86",
"1#	c #C34052",
"2#	c #C2344A",
"3#	c #FF8EA2",
"4#	c #FFA6B4",
"5#	c #E39499",
"6#	c #EAC9C2",
"7#	c #E8DACF",
"8#	c #DCC2C5",
"9#	c #BAA9B3",
"0#	c #FEF0FF",
"a#	c #434343",
"b#	c #A2A2A2",
"c#	c #FFFDFF",
"d#	c #6C676D",
"e#	c #746A72",
"f#	c #FFF9FF",
"g#	c #E8D4D6",
"h#	c #C2B0AC",
"i#	c #C6A9A5",
"j#	c #E7B4B3",
"k#	c #D9878D",
"l#	c #EF7085",
"m#	c #C13D54",
"n#	c #FFA5B2",
"o#	c #CE9395",
"p#	c #FBEDE4",
"q#	c #D4DACC",
"r#	c #E3E4DC",
"s#	c #F0ECEB",
"t#	c #BFB3BF",
"u#	c #F9ECFD",
"v#	c #484848",
"w#	c #4A4A4A",
"x#	c #656567",
"y#	c #706D74",
"z#	c #938D9B",
"A#	c #BBB2C7",
"B#	c #EAE0F8",
"C#	c #F8F0FF",
"D#	c #E6D8F1",
"E#	c #E4CBE1",
"F#	c #C48EA6",
"G#	c #C35E7C",
"H#	c #C35570",
"I#	c #BF6D7B",
"J#	c #A27175",
"K#	c #B5A5A5",
"L#	c #F0F4F3",
"M#	c #DADFE5",
"N#	c #F6F8FF",
"O#	c #F0E7FF",
"P#	c #968BAD",
"Q#	c #9289A6",
"R#	c #B9B3CD",
"S#	c #F0EDFF",
"T#	c #ECEEFD",
"U#	c #F3F4F6",
"V#	c #C0C3CA",
"W#	c #EDEFFF",
"X#	c #9C9DC9",
"Y#	c #6664A5",
"Z#	c #524D9F",
"`#	c #6456AE",
" $	c #7158AB",
".$	c #8F64AB",
"+$	c #8A477A",
"@$	c #9D5374",
"#$	c #F0B0BE",
"$$	c #B8868F",
"%$	c #FFDEEC",
"&$	c #9B849E",
"*$	c #FEEFFF",
"=$	c #C2B8ED",
"-$	c #3D3473",
";$	c #433D7B",
">$	c #35326B",
",$	c #484677",
"'$	c #5F5E86",
")$	c #EBEDFF",
"!$	c #3F3F3F",
"~$	c #FDFDFD",
"{$	c #97989A",
"]$	c #F8FDFF",
"^$	c #A0A7BA",
"/$	c #42487A",
"($	c #4E4F9F",
"_$	c #3B38A1",
":$	c #473DAE",
"<$	c #8871DD",
"[$	c #805FB8",
"}$	c #C99DD8",
"|$	c #C492B5",
"1$	c #DDAABB",
"2$	c #885866",
"3$	c #A07890",
"4$	c #7B5B82",
"5$	c #8D75AF",
"6$	c #48397E",
"7$	c #A7A1EB",
"8$	c #EFEDFF",
"9$	c #B4B3F5",
"0$	c #AFB0E9",
"a$	c #8586B4",
"b$	c #75789B",
"c$	c #F8FAFF",
"d$	c #787878",
"e$	c #3A3A3A",
"f$	c #E7E7E7",
"g$	c #A0A2A1",
"h$	c #E4E8E7",
"i$	c #E3E9F5",
"j$	c #DDE2FF",
"k$	c #3F4383",
"l$	c #7878D2",
"m$	c #938DF1",
"n$	c #7E6FCE",
"o$	c #8D74C7",
"p$	c #CEABE5",
"q$	c #C096BC",
"r$	c #9C6F86",
"s$	c #EEC3D7",
"t$	c #B997B2",
"u$	c #CFB3DB",
"v$	c #C7B4EB",
"w$	c #8478B8",
"x$	c #BFBAFD",
"y$	c #E1E1FF",
"z$	c #7978B2",
"A$	c #BBBBED",
"B$	c #BDBFE6",
"C$	c #7D819E",
"D$	c #F0F3FF",
"E$	c #444444",
"F$	c #E8E8E6",
"G$	c #C3C5C0",
"H$	c #9EA1A8",
"I$	c #C4C9E7",
"J$	c #DEE4FF",
"K$	c #6266B0",
"L$	c #26267C",
"M$	c #473F94",
"N$	c #7969B4",
"O$	c #9276B1",
"P$	c #9978A5",
"Q$	c #856081",
"R$	c #C09DBB",
"S$	c #C0A2C4",
"T$	c #8F78A2",
"U$	c #B2A4D9",
"V$	c #DED4FF",
"W$	c #F9F5FF",
"X$	c #7778B0",
"Y$	c #D7D7FF",
"Z$	c #6F719A",
"`$	c #E1E4FF",
" %	c #86889F",
".%	c #FCFEFF",
"+%	c #404040",
"@%	c #424242",
"#%	c #909090",
"$%	c #888886",
"%%	c #8C8B87",
"&%	c #A4A5A9",
"*%	c #C5CAE0",
"=%	c #9EA6CD",
"-%	c #6D73B1",
";%	c #ACB0F9",
">%	c #E3E2FF",
",%	c #E4DCFF",
"'%	c #F9E9FF",
")%	c #C5AEE4",
"!%	c #DDC2EF",
"~%	c #B59AC3",
"{%	c #9C87B0",
"]%	c #9687B2",
"^%	c #B9AFE1",
"/%	c #FCF8FF",
"(%	c #8886B8",
"_%	c #CBCCFA",
":%	c #898BB4",
"<%	c #C7CAEB",
"[%	c #81839A",
"}%	c #DCDFEE",
"|%	c #D8DBE2",
"1%	c #0E0E0E",
"2%	c #3B3B3B",
"3%	c #959394",
"4%	c #AAA6A7",
"5%	c #9D9AA3",
"6%	c #CCCEE3",
"7%	c #E5EBFF",
"8%	c #121C51",
"9%	c #444E8C",
"0%	c #5C60A7",
"a%	c #52529A",
"b%	c #4E4489",
"c%	c #6E609E",
"d%	c #7A69A0",
"e%	c #8878A9",
"f%	c #8E81AF",
"g%	c #9289B6",
"h%	c #827FAC",
"i%	c #C2C1ED",
"j%	c #E1E3FF",
"k%	c #898BB1",
"l%	c #7F82A3",
"m%	c #72738F",
"n%	c #E5E8F9",
"o%	c #EFF3FC",
"p%	c #E1E5E8",
"q%	c #2A2A2A",
"r%	c #939393",
"s%	c #A19FA4",
"t%	c #ACA4B1",
"u%	c #ADA5BA",
"v%	c #DCDCF8",
"w%	c #A0A4CA",
"x%	c #757FB2",
"y%	c #96A2DE",
"z%	c #606AAF",
"A%	c #AAB0FA",
"B%	c #B1B1FB",
"C%	c #B6B0F8",
"D%	c #B9B0F3",
"E%	c #BBB3EF",
"F%	c #A39CD0",
"G%	c #7572A1",
"H%	c #E7E9FF",
"I%	c #F2F6FF",
"J%	c #ABAED1",
"K%	c #6A6B8A",
"L%	c #A5A6C2",
"M%	c #FCFDFF",
"N%	c #E2E4F3",
"O%	c #CFD2D9",
"P%	c #E6E7E9",
"Q%	c #212121",
"R%	c #242424",
"S%	c #929292",
"T%	c #A09DA6",
"U%	c #AAA0B9",
"V%	c #C3B9DC",
"W%	c #DED9FF",
"X%	c #808ABD",
"Y%	c #202C68",
"Z%	c #505DA1",
"`%	c #7881CC",
" &	c #8389D7",
".&	c #7A7BCB",
"+&	c #7D7BC6",
"@&	c #9794D7",
"#&	c #8B8AC3",
"$&	c #8688B8",
"%&	c #CACEF4",
"&&	c #AAAFCF",
"*&	c #BFC0DF",
"=&	c #EFEFFF",
"-&	c #E4E4FE",
";&	c #DDDEF2",
">&	c #DEE0ED",
",&	c #DBDEE5",
"'&	c #EAEBED",
")&	c #151515",
"!&	c #1F1F1F",
"~&	c #252525",
"{&	c #303030",
"]&	c #CDC9D7",
"^&	c #F6EAFF",
"/&	c #D1C4F9",
"(&	c #A8A1D5",
"_&	c #9999CF",
":&	c #F1F7FF",
"<&	c #37417F",
"[&	c #3C468D",
"}&	c #6F7BC7",
"|&	c #767DCE",
"1&	c #878CDE",
"2&	c #686BBA",
"3&	c #383B80",
"4&	c #5C5E99",
"5&	c #C2C6F5",
"6&	c #F5FBFF",
"7&	c #E4E9FF",
"8&	c #E7E8FF",
"9&	c #E3E0FB",
"0&	c #F5F3FF",
"a&	c #F1F0FF",
"b&	c #EBEBF7",
"c&	c #E7E7EF",
"d&	c #DADBDF",
"e&	c #9C9C9C",
"f&	c #AEAEAE",
"g&	c #C0C0C0",
"h&	c #C7C3D2",
"i&	c #8A7EAE",
"j&	c #453775",
"k&	c #CCC2FE",
"l&	c #F3EFFF",
"m&	c #EFF1FF",
"n&	c #ECF4FF",
"o&	c #BCC5FF",
"p&	c #8A93DE",
"q&	c #828BDA",
"r&	c #7279C9",
"s&	c #888EDA",
"t&	c #C8CDFF",
"u&	c #F2F7FF",
"v&	c #F0F4FF",
"w&	c #ECF0FF",
"x&	c #F5F5FF",
"y&	c #A6A4BA",
"z&	c #B5B4C6",
"A&	c #EDEDF9",
"B&	c #F8F8FF",
"C&	c #DCDDE1",
"D&	c #C1C1C1",
"E&	c #C6C6C6",
"F&	c #6D6A7B",
"G&	c #857BAD",
"H&	c #867ABA",
"I&	c #7C72AF",
"J&	c #928CC8",
"K&	c #8180BC",
"L&	c #7E80BD",
"M&	c #8C91D1",
"N&	c #8188CC",
"O&	c #7E85CB",
"P&	c #868DD3",
"Q&	c #8C91D3",
"R&	c #888ECA",
"S&	c #8288B8",
"T&	c #8287AD",
"U&	c #878CAA",
"V&	c #8E90A9",
"W&	c #8885A0",
"X&	c #928EA7",
"Y&	c #D2CFE4",
"Z&	c #FFFCFF",
"`&	c #AEACB9",
" *	c #D0CFD7",
".*	c #F3F2F8",
"+*	c #9E9CAA",
"@*	c #7E77A1",
"#*	c #605790",
"$*	c #645D93",
"%*	c #686497",
"&*	c #847FB5",
"**	c #8282B6",
"=*	c #7778AE",
"-*	c #7D82B9",
";*	c #8287BF",
">*	c #6A6FA7",
",*	c #7076AA",
"'*	c #888EBE",
")*	c #7C81A9",
"!*	c #646989",
"~*	c #9094AF",
"{*	c #DFDFF7",
"]*	c #F8F6FF",
"^*	c #D4D1E6",
"/*	c #9491A4",
"(*	c #898795",
"_*	c #BAB8C3",
":*	c #FFFEFF",
"<*	c #DFDEE3",
"[*	c #E9E9F3",
"}*	c #F2EFFF",
"|*	c #C9C7EE",
"1*	c #F8F3FF",
"2*	c #A8A4C9",
"3*	c #847FA7",
"4*	c #918CB4",
"5*	c #75739A",
"6*	c #8787AD",
"7*	c #797BA1",
"8*	c #878BB0",
"9*	c #8D91B4",
"0*	c #8489A9",
"a*	c #8286A3",
"b*	c #8E8FAB",
"c*	c #9898B0",
"d*	c #9B99AF",
"e*	c #878499",
"f*	c #BBB7C8",
"g*	c #DFDBEA",
"h*	c #F1EDFB",
"i*	c #F8F7FF",
"j*	c #E2E1E7",
"k*	c #CECED0",
"l*	c #F0F2FF",
"m*	c #DFE0F5",
"n*	c #E0DEF4",
"o*	c #F0EBFF",
"p*	c #FEF9FF",
"q*	c #F6F2FF",
"r*	c #F9F7FF",
"s*	c #F1F2FF",
"t*	c #EDF0FF",
"u*	c #EFF2FF",
"v*	c #F4F5FF",
"w*	c #F2F3FF",
"x*	c #F0EEFF",
"y*	c #EDEAFF",
"z*	c #E7E3F4",
"A*	c #EAE6F4",
"B*	c #E4E1EA",
"C*	c #DBDAE0",
"D*	c #D9D9DB",
". . . . . . . . . . . . . . . . . . . . . . . . + @ # # $                     ",
". % & * = - ; > , ' ) ! ~ = ; % { ] ; ; ^ ] ~ ! ] / ( _ :                     ",
"# < [ } | * } 1 2 3 ~ ~ 4 5 | 6 7 6 ( 3 6 8 9 0 a b c d e f g                 ",
"h ^ } i i j k l m 3 i n o p a a q r 9 n s t p d m n u v # ; w                 ",
"x = 0 9 p y b n 7 z a s A B k n m o s i C n b s D E F G e H I                 ",
"J 7 0 s I K L 1 M N o O P Q 5 O N f z M N R o S T z U V : W I                 ",
"# X } ( Y ) Z ` O  .A N ..N ( +.@.T 9 #.$.N %.&.+.*.=.-.;.= f                 ",
"+ & | r >.X ,.| [ +.B #.'. .B +...).7 Z - +.y %.+.t !.~.# {.].                ",
"^.] ^ q /.N (.z q Z 3 _.N O 1 O :.<.[.}.|.1.2.3.4.5.6.7.8.9.0.                ",
"+ < 3 o a 5 a 5 l a.8 } } 7 i b.c.d.e.f.g.h.i.j.k.l.m.n.o.p.q.                ",
"r.~ , s.t.N 8 Q T I } u.#.I A v.w.x.y.z.A.B.C.D.E.F.G.H.I.J.                  ",
"K.* - s L.M.o N N.M.0 O.P.>.8 Q.R.S.T.U.V.W.X.Y.Z.`. +.+++@+#+                ",
". $+B } B >.} %+&+).] N .. .B *+=+-+;+>+,+'+)+!+~+{+]+^+/+(+_+:+<+            ",
"[+4 | ` }+P A |+>.1+a.O Y t.4 2+3+4+5+6+7+8+9+0+a+b+c+d+e+f+g+h+i+            ",
"# j+| i z q t B 3 ~ 5 o l q q k+l+m+n+o+p+q+r+s+t+u+v+w+x+y+z+A+B+            ",
"C+D+3 y _.N 1+1 E+#.w B 1+N s.F+G+H+I+J+K+L+M+N+O+P+Q+R+S+T+U+V+              ",
";.; ^ j W+X+ .}+N $.N ( 1+%+B Y+Z+`+ @.@+@@@#@$@%@&@*@=@-@;@>@,@              ",
"r.@.a.a Z > M.z #...'@} o %+j )@!@~@{@]@^@/@(@_@:@<@[@}@|@1@2@3@4@            ",
": W a.n /.N f s.L 5@E+q i N %.6@7@8@9@0@a@b@c@d@e@f@g@h@i@j@k@l@m@            ",
"n@4 a.o ( m t q y j l %.q i q o@p@q@r@s@t@u@v@w@x@w@y@z@A@B@C@D@p.            ",
": > a.p E@N i w F@7 G@Z Q j H@I@J@K@L@M@N@O@P@Q@R@S@T@U@V@W@X@Y@Z@            ",
". < B i _.%+i `@N q T < ,.j  #.#+#@###$#%#&#*#=#-#;#>#,#'#)#!#~#{#  ]#        ",
"e } }+k ^#N a 9  ./#N $.'@s.} P (#_#:#<#[#}#|#1#2#3#4#5#6#7#Y.8#9#0#          ",
"C+2 B p y 5@s a#Y s.b#'@L.r r c#d#e#f#g#h#i#j#k#l#m#n#o#p#q#r#s#t#  u#        ",
"+ 0 a.a#t v#w#k a#b n p s.s.0 x#y#z#A#B#C#D#E#F#G#H#I#J#K#L#M#N#O#P#Q#R#S#T#  ",
"x / q v#E+%+/.C G@Z w#`@%+[ O U#V#W#X#Y#Z#`# $.$+$@$#$$$%$&$*$=$-$;$>$,$'$  )$",
"r.] ` !$T {.'@y E+Y ( 1+~$6 #.{$]$^$/$($_$:$<$[$}$|$1$2$3$4$5$6$7$8$9$0$a$b$c$",
"# d$3 d N ~ N e$n f$w#^ W+1 T g$h$i$j$k$l$m$n$o$p$q$r$s$t$u$v$w$x$y$z$A$B$C$D$",
"^.B k m R M.G@t E$>.A ( '@X+I F$G$H$I$J$K$L$M$N$O$P$Q$R$S$T$U$V$W$X$Y$Z$`$ %.%",
": ~ B +%U @%C _ ` 5 3 / ; [ #%$%%%&%*%=%-%;%>%,%'%)%!%~%{%]%^%/%(%_%:%<%[%}%|%",
"1%q p _ ~.w#2%q r ( * 4 ) > E@3%4%5%6%7%8%9%0%a%b%c%d%e%f%g%h%i%j%k%l%m%n%o%p%",
"x s ^#q%F *.E$a#i | [ 6 '.D+r%s%t%u%v%w%x%y%z%A%B%C%D%E%F%G%H%I%J%K%L%M%N%O%P%",
". e$Q%R%G U c w#9 j 1 d$@.N.S%T%U%V%W%D$X%Y%Z%`% &.&+&@&#&$&%&&&*&=&-&;&>&,&'&",
"C+)&: . !&~&{&/#n b a.@.{ ) r%]&^&/&(&_&:&<&[&}&|&1&2&3&4&5&6&7&8&9&0&a&b&c&d&",
"%+  I #%R E@e&G@L.f&f&I f g&  h&i&j&k&l&m&n&o&p&q&r&s&t&u&v&7%w&x&S#y&z&A&B&C&",
"      _.].D&E&D&g             F&G&H&I&J&K&L&M&N&O&P&Q&R&S&T&U&V&W&X&Y&Z&`& *.*",
"    %+        5@              +*@*#*$*%*&***=*-*;*>*,*'*)*!*~*{*]*^*/*(*_*:*<*",
"                              [*}*|*1*2*3*4*5*6*7*8*9*0*a*b*c*d*e*f*g*h*i*j*k*",
"                                  l*m*n*o*p*q*q*r*s*t*u*v*w*x*y*z*W$A*B*C*D*M."};
