/* XPM */
static char * application_pdf_xpm[] = {
"38 39 797 2",
"  	c None",
". 	c #0C0C0C",
"+ 	c #020202",
"@ 	c #060606",
"# 	c #080808",
"$ 	c #040404",
"% 	c #010101",
"& 	c #0D0D0D",
"* 	c #090909",
"= 	c #000000",
"- 	c #070707",
"; 	c #030303",
"> 	c #0A0A0A",
", 	c #F9F9F9",
"' 	c #FAFAFA",
") 	c #FEFEFE",
"! 	c #F5F5F5",
"~ 	c #FFFFFF",
"{ 	c #F4F4F4",
"] 	c #F7F7F7",
"^ 	c #FDFDFD",
"/ 	c #F8F8F8",
"( 	c #F2F2F2",
"_ 	c #F0F0F0",
": 	c #F1F1F1",
"< 	c #DBDBDB",
"[ 	c #0E0E0E",
"} 	c #0F0F0F",
"| 	c #EBEBEB",
"1 	c #E8E8E8",
"2 	c #FCFCFC",
"3 	c #F3F3F3",
"4 	c #EFEFEF",
"5 	c #EDEDED",
"6 	c #E2E2E2",
"7 	c #C6C6C6",
"8 	c #A9A9A9",
"9 	c #181818",
"0 	c #EEEEEE",
"a 	c #F6F6F6",
"b 	c #E7E7E7",
"c 	c #E9E9E9",
"d 	c #E1E1E1",
"e 	c #D2D2D2",
"f 	c #7C7C7C",
"g 	c #AFAFAF",
"h 	c #FBFBFB",
"i 	c #A5A5A5",
"j 	c #BCBCBC",
"k 	c #BABABA",
"l 	c #C0C0C0",
"m 	c #D9D9D9",
"n 	c #BFBFBF",
"o 	c #9F9F9F",
"p 	c #D1D1D1",
"q 	c #989898",
"r 	c #D7D7D7",
"s 	c #B7B7B7",
"t 	c #C8C8C8",
"u 	c #D6D6D6",
"v 	c #CFCFCF",
"w 	c #8A8A8A",
"x 	c #CECECE",
"y 	c #868686",
"z 	c #959595",
"A 	c #B2B2B2",
"B 	c #9D9D9D",
"C 	c #A0A0A0",
"D 	c #A1A1A1",
"E 	c #8D8D8D",
"F 	c #C1C1C1",
"G 	c #C4C4C4",
"H 	c #919191",
"I 	c #A2A2A2",
"J 	c #858585",
"K 	c #B0B0B0",
"L 	c #D5D5D5",
"M 	c #A4A4A4",
"N 	c #DADADA",
"O 	c #DCDCDC",
"P 	c #BEBEBE",
"Q 	c #ACACAC",
"R 	c #7A7A7A",
"S 	c #B1B1B1",
"T 	c #ECECEC",
"U 	c #CBCBCB",
"V 	c #EAEAEA",
"W 	c #E5E5E5",
"X 	c #E0E0E0",
"Y 	c #AEAEAE",
"Z 	c #7F7F7F",
"` 	c #C2C2C2",
" .	c #B4B4B4",
"..	c #B9B9B9",
"+.	c #D3D5D4",
"@.	c #E7E9E8",
"#.	c #C7C5C6",
"$.	c #CCCCCC",
"%.	c #9D9F9E",
"&.	c #B6B6B6",
"*.	c #B7B3B4",
"=.	c #C6C0C2",
"-.	c #BDB9BA",
";.	c #CECCCD",
">.	c #AAA8A9",
",.	c #BCBEBD",
"'.	c #E9EFED",
").	c #C2C8C6",
"!.	c #0E0A0B",
"~.	c #848283",
"{.	c #B5B5B5",
"].	c #050505",
"^.	c #AAAAAA",
"/.	c #A3A3A3",
"(.	c #848484",
"_.	c #A6A6A6",
":.	c #7B7D7C",
"<.	c #BBC4C1",
"[.	c #DCE2E0",
"}.	c #9C9899",
"|.	c #929091",
"1.	c #999F9B",
"2.	c #999B98",
"3.	c #A09194",
"4.	c #AF9A9F",
"5.	c #918587",
"6.	c #A9A0A1",
"7.	c #B9B3B5",
"8.	c #9FA3A2",
"9.	c #E3F6F2",
"0.	c #C0D0CD",
"a.	c #B0ABAF",
"b.	c #150A10",
"c.	c #8C8889",
"d.	c #E6E6E6",
"e.	c #F9FBFA",
"f.	c #E3ECE9",
"g.	c #F9FFFF",
"h.	c #EFEDEE",
"i.	c #E5EBE7",
"j.	c #DBDBD9",
"k.	c #F7E4E8",
"l.	c #FFEEF4",
"m.	c #FFEAEF",
"n.	c #F6EAEC",
"o.	c #F3EDEF",
"p.	c #EDF1F0",
"q.	c #E0F5F0",
"r.	c #C0D3CF",
"s.	c #AEA9AF",
"t.	c #23161D",
"u.	c #8F8B8C",
"v.	c #C5C5C5",
"w.	c #B9BBBA",
"x.	c #C2C6C5",
"y.	c #B7BDBB",
"z.	c #ADB3B1",
"A.	c #DFE3E2",
"B.	c #F5F7F4",
"C.	c #C3BDBD",
"D.	c #DFCCCE",
"E.	c #FAE1E5",
"F.	c #DAC1C5",
"G.	c #EFDCDE",
"H.	c #E1DDDC",
"I.	c #AAB0AC",
"J.	c #DEEDE8",
"K.	c #C5D0CC",
"L.	c #B5B0B4",
"M.	c #352C31",
"N.	c #111111",
"O.	c #9E9E9E",
"P.	c #ACB2B0",
"Q.	c #ABB4B1",
"R.	c #A7ADAB",
"S.	c #B9B9B7",
"T.	c #B2AAA8",
"U.	c #E1CED0",
"V.	c #C7ACB1",
"W.	c #B99CA1",
"X.	c #E6D0D3",
"Y.	c #E0DCDB",
"Z.	c #939995",
"`.	c #E7F2EE",
" +	c #CAD0CE",
".+	c #B2B0B3",
"++	c #3B3539",
"@+	c #989697",
"#+	c #F8F9FB",
"$+	c #ECF0F1",
"%+	c #DEE7E4",
"&+	c #DBE1DF",
"*+	c #FEFEFC",
"=+	c #F8EEED",
"-+	c #FFEFF1",
";+	c #AE9195",
">+	c #EFCFD4",
",+	c #FCE2E5",
"'+	c #FDF3F2",
")+	c #DEE0DB",
"!+	c #E7EDE9",
"~+	c #D1D7D5",
"{+	c #B3B1B4",
"]+	c #464145",
"^+	c #9F9D9E",
"/+	c #CACACA",
"(+	c #CDCDCD",
"_+	c #BDBFBE",
":+	c #BEC2C3",
"<+	c #D8DCDD",
"[+	c #D9DDDC",
"}+	c #BDBFBC",
"|+	c #C4C5C0",
"1+	c #CEC6C3",
"2+	c #F2DCDE",
"3+	c #A58588",
"4+	c #FCD4DC",
"5+	c #F7D4DA",
"6+	c #EAD8D8",
"7+	c #B4B0AD",
"8+	c #D9E3DB",
"9+	c #D0D9D4",
"0+	c #BFBBBC",
"a+	c #524C50",
"b+	c #A6A4A5",
"c+	c #C9C9C9",
"d+	c #969696",
"e+	c #DFDFDF",
"f+	c #C1CAC9",
"g+	c #9DA3A3",
"h+	c #878384",
"i+	c #938D8D",
"j+	c #A3A49F",
"k+	c #9B9893",
"l+	c #CFBBBA",
"m+	c #BC9A9B",
"n+	c #E6B7BF",
"o+	c #ECBFC6",
"p+	c #EACDCF",
"q+	c #938987",
"r+	c #DCE9E0",
"s+	c #C9D8D1",
"t+	c #C4C0C1",
"u+	c #5A4F53",
"v+	c #ADA9AA",
"w+	c #F0F4F3",
"x+	c #E8F2F1",
"y+	c #FBFFFF",
"z+	c #FDF2F6",
"A+	c #F7EBED",
"B+	c #F5F4F0",
"C+	c #F3F0E9",
"D+	c #FFF7F1",
"E+	c #CBABAC",
"F+	c #D498A2",
"G+	c #DDA1AB",
"H+	c #FFE4E6",
"I+	c #EFE4E0",
"J+	c #E0F2E6",
"K+	c #C8DCD1",
"L+	c #C8C2C2",
"M+	c #6D6165",
"N+	c #B0ACAD",
"O+	c #C7C7C7",
"P+	c #CFD3D2",
"Q+	c #C3CFCD",
"R+	c #BCC5C4",
"S+	c #C3B7BB",
"T+	c #D9C6CA",
"U+	c #E3D9D7",
"V+	c #CBC6C0",
"W+	c #DCD9D0",
"X+	c #E5CCC8",
"Y+	c #A45865",
"Z+	c #EA99A8",
"`+	c #FFE3E5",
" @	c #D5CCC5",
".@	c #CEE2D6",
"+@	c #D6EADF",
"@@	c #B7B1B1",
"#@	c #87787B",
"$@	c #E3E3E3",
"%@	c #BBBBBB",
"&@	c #888888",
"*@	c #9FA3A4",
"=@	c #94A0A0",
"-@	c #6B7375",
";@	c #C5B8BF",
">@	c #C4B1B5",
",@	c #DCCCCC",
"'@	c #EAE1DA",
")@	c #FCFFF4",
"!@	c #FFF0E9",
"~@	c #923A4A",
"{@	c #FFABBE",
"]@	c #FFE1E3",
"^@	c #ECE3DA",
"/@	c #F1FFF4",
"(@	c #C6D8CC",
"_@	c #CCC7C4",
":@	c #897A7D",
"<@	c #BAB6B7",
"[@	c #0B0B0B",
"}@	c #D4D4D4",
"|@	c #E7EFF1",
"1@	c #ECF1F4",
"2@	c #F9F3F7",
"3@	c #FFFAFD",
"4@	c #DFCAC9",
"5@	c #91827D",
"6@	c #F6FFEE",
"7@	c #FFF3E9",
"8@	c #AE495B",
"9@	c #FFAEC3",
"0@	c #FFF0F2",
"a@	c #9F988E",
"b@	c #B1BBB0",
"c@	c #EDF7EE",
"d@	c #CDC8C5",
"e@	c #8F8586",
"f@	c #C0BCBD",
"g@	c #B8B8B8",
"h@	c #BBBCBE",
"i@	c #F1F6F9",
"j@	c #C3C7CA",
"k@	c #E8E6E9",
"l@	c #FFFCFD",
"m@	c #FFEDEC",
"n@	c #D6C5BE",
"o@	c #BDBEB0",
"p@	c #FFF8EF",
"q@	c #902B3B",
"r@	c #F4879A",
"s@	c #FFD8D9",
"t@	c #D9CCC3",
"u@	c #FFFFF6",
"v@	c #F6F9F0",
"w@	c #F1EEE9",
"x@	c #989390",
"y@	c #C5C3C4",
"z@	c #8F8F8F",
"A@	c #ADADAD",
"B@	c #B0B0B2",
"C@	c #B3B2B7",
"D@	c #C3C4C8",
"E@	c #9B9C9E",
"F@	c #EDECEA",
"G@	c #F6E8E5",
"H@	c #B7A49E",
"I@	c #D7C3BA",
"J@	c #D1A5A2",
"K@	c #C86E7A",
"L@	c #A24452",
"M@	c #FFDFE2",
"N@	c #DDC1BD",
"O@	c #E6DDD6",
"P@	c #E0E0D8",
"Q@	c #9D9C97",
"R@	c #B4B5B0",
"S@	c #DDDDDD",
"T@	c #EAEAEC",
"U@	c #F3EEF4",
"V@	c #FFFEFF",
"W@	c #C1C5C6",
"X@	c #E1E6E2",
"Y@	c #F3F4EC",
"Z@	c #EAD9D2",
"`@	c #FFF1F1",
" #	c #A46465",
".#	c #E79CA1",
"+#	c #CA8286",
"@#	c #CA8C8F",
"##	c #FFE7E8",
"$#	c #E8D7D0",
"%#	c #FBF8F1",
"&#	c #CCCFC8",
"*#	c #EDF2EC",
"=#	c #B3B3B3",
"-#	c #DEDEDE",
";#	c #989699",
">#	c #E4DDE5",
",#	c #FFFCFF",
"'#	c #FEFFFF",
")#	c #D1DAD5",
"!#	c #B2C4B6",
"~#	c #DDD3C9",
"{#	c #FFC3CA",
"]#	c #A24852",
"^#	c #FFEBEA",
"/#	c #FFE1DD",
"(#	c #985157",
"_#	c #FFD2D7",
":#	c #FDE5E1",
"<#	c #DFDFD7",
"[#	c #EDF2EB",
"}#	c #F2F9F2",
"|#	c #F5F3F4",
"1#	c #E9E7E8",
"2#	c #B8B6B7",
"3#	c #8B8B8B",
"4#	c #9C9C9C",
"5#	c #949492",
"6#	c #B2B0B1",
"7#	c #ACABA9",
"8#	c #908C8D",
"9#	c #8E8A8B",
"0#	c #E4DAE2",
"a#	c #DBD4DB",
"b#	c #E5E3E4",
"c#	c #9EA59E",
"d#	c #8B9D8F",
"e#	c #F1E4DC",
"f#	c #DE8895",
"g#	c #D0707E",
"h#	c #FFE5DF",
"i#	c #FFE4DB",
"j#	c #E6A6A7",
"k#	c #A26064",
"l#	c #FFDFDD",
"m#	c #ECD8D1",
"n#	c #FFF9EF",
"o#	c #CFD1C6",
"p#	c #090B0A",
"q#	c #FDFBFC",
"r#	c #F4F0F1",
"s#	c #F4F0EF",
"t#	c #E7E3E2",
"u#	c #E6E5E3",
"v#	c #F6F6F4",
"w#	c #EBEBE9",
"x#	c #ECEBE7",
"y#	c #EFEBEA",
"z#	c #FBF6F3",
"A#	c #EEE4E5",
"B#	c #EDE3E4",
"C#	c #F6EBEF",
"D#	c #A69DA0",
"E#	c #DAD1D2",
"F#	c #E7E3E0",
"G#	c #EDF0E9",
"H#	c #FEE9E6",
"I#	c #9A4958",
"J#	c #FFBECE",
"K#	c #FFE3E1",
"L#	c #EED6CC",
"M#	c #FFE7E1",
"N#	c #C88E8C",
"O#	c #B36B6E",
"P#	c #FFD6D6",
"Q#	c #FEDED3",
"R#	c #A79B8B",
"S#	c #020403",
"T#	c #F9F7F8",
"U#	c #F7F3F4",
"V#	c #E3DFDE",
"W#	c #B4B0AF",
"X#	c #CFCFCD",
"Y#	c #B5B7B4",
"Z#	c #B5B7B2",
"`#	c #BDBFBA",
" $	c #B9B8B4",
".$	c #BDB9B6",
"+$	c #C3BBB9",
"@$	c #CDC5C3",
"#$	c #EEE9E6",
"$$	c #FEFDF9",
"%$	c #FFFFFB",
"&$	c #C4C1BC",
"*$	c #FCECEC",
"=$	c #BF9B9F",
"-$	c #BA7884",
";$	c #FFDEE8",
">$	c #E4C1BF",
",$	c #DEC5BE",
"'$	c #FBD9D0",
")$	c #FFE5E1",
"!$	c #D08486",
"~$	c #A95D5F",
"{$	c #FAC5BD",
"]$	c #FFEBE0",
"^$	c #FEE8DD",
"/$	c #FCE8DF",
"($	c #FFEEE4",
"_$	c #F8EEE4",
":$	c #FFFBFC",
"<$	c #D7D3D2",
"[$	c #8F8E8C",
"}$	c #9D9F9C",
"|$	c #9AA09C",
"1$	c #A1A8A1",
"2$	c #B2B9B2",
"3$	c #8E938D",
"4$	c #7B7D78",
"5$	c #A5A4A0",
"6$	c #AEADA9",
"7$	c #DCDDD8",
"8$	c #E6F0E7",
"9$	c #E6FAEE",
"0$	c #C5CBC1",
"a$	c #FFEDF3",
"b$	c #854C55",
"c$	c #F4C7CA",
"d$	c #F2CECE",
"e$	c #F0D3CF",
"f$	c #FADBD6",
"g$	c #FFE0DC",
"h$	c #FFD8D4",
"i$	c #F2BFBC",
"j$	c #B37776",
"k$	c #8A4446",
"l$	c #B6696F",
"m$	c #AC5B64",
"n$	c #BB6975",
"o$	c #B36773",
"p$	c #9F5C65",
"q$	c #AA7178",
"r$	c #DAACAF",
"s$	c #FFDCDE",
"t$	c #080607",
"u$	c #F8F4F5",
"v$	c #F3EFF0",
"w$	c #F3F2F0",
"x$	c #DFDFDD",
"y$	c #DCE5E0",
"z$	c #DFEAE2",
"A$	c #DBE6DE",
"B$	c #CDD7CF",
"C$	c #EEF5EE",
"D$	c #E4E6E1",
"E$	c #E5E7E2",
"F$	c #DEDFD9",
"G$	c #FBFFF7",
"H$	c #697368",
"I$	c #E8DDD7",
"J$	c #D69AA4",
"K$	c #C78390",
"L$	c #FFF6F4",
"M$	c #F7E4DE",
"N$	c #F4DBD7",
"O$	c #C5A8A4",
"P$	c #C5A49F",
"Q$	c #A1847E",
"R$	c #CAB4A9",
"S$	c #CAA7A1",
"T$	c #824044",
"U$	c #E7919C",
"V$	c #AA4759",
"W$	c #CB687A",
"X$	c #FFA5B7",
"Y$	c #FFD4E3",
"Z$	c #FFCFDB",
"`$	c #EFB3BB",
" %	c #E8B7BD",
".%	c #FAD6DA",
"+%	c #F6DDE0",
"@%	c #090506",
"#%	c #FFF9FB",
"$%	c #F5F1F2",
"%%	c #C5C7C4",
"&%	c #9CA29E",
"*%	c #E5F0EA",
"=%	c #9BABA1",
"-%	c #B2C2B8",
";%	c #A0ADA4",
">%	c #A8B3AB",
",%	c #D1D8D1",
"'%	c #D2D3CD",
")%	c #C9C4BE",
"!%	c #C4B2AE",
"~%	c #FFECED",
"{%	c #FFE7EC",
"]%	c #994D5A",
"^%	c #FEBAC5",
"/%	c #E4C8C5",
"(%	c #C9BCB4",
"_%	c #DEC6C2",
":%	c #F3DED9",
"<%	c #FFFEF3",
"[%	c #EBF1E3",
"}%	c #F2FFEE",
"|%	c #FFFFF4",
"1%	c #FFE8EA",
"2%	c #FFCFD7",
"3%	c #FFC5D2",
"4%	c #E393A0",
"5%	c #B36976",
"6%	c #A96771",
"7%	c #AD747D",
"8%	c #B7888E",
"9%	c #D8B4B8",
"0%	c #FCE2E3",
"a%	c #F6E4E4",
"b%	c #060203",
"c%	c #FFFDFF",
"d%	c #FCF8F9",
"e%	c #D6D5D3",
"f%	c #979996",
"g%	c #D7E2DC",
"h%	c #657269",
"i%	c #9CA9A0",
"j%	c #989F98",
"k%	c #B6BBB5",
"l%	c #A5A49F",
"m%	c #A7A098",
"n%	c #EBD2CD",
"o%	c #FFECF4",
"p%	c #D18794",
"q%	c #B36F7A",
"r%	c #D4A1A6",
"s%	c #F6E1DC",
"t%	c #FFFCF6",
"u%	c #FDE8E5",
"v%	c #FFFBF8",
"w%	c #D8E4D8",
"x%	c #BCD4C4",
"y%	c #BDD5C5",
"z%	c #D6DCD2",
"A%	c #FFEBED",
"B%	c #FFE3EB",
"C%	c #FCCED1",
"D%	c #FED1D4",
"E%	c #EFC7C8",
"F%	c #DFBBBB",
"G%	c #ECCECE",
"H%	c #FFEFED",
"I%	c #E3D8D6",
"J%	c #0A0607",
"K%	c #EEE8EA",
"L%	c #E7E3E4",
"M%	c #E0E0DE",
"N%	c #DCE1DD",
"O%	c #DBE1DD",
"P%	c #E2ECE4",
"Q%	c #DAE1DA",
"R%	c #DDE2DC",
"S%	c #E6E7E2",
"T%	c #CBC7C4",
"U%	c #F9F6F1",
"V%	c #F4DDD5",
"W%	c #FFC4CF",
"X%	c #A85C68",
"Y%	c #FEDBD9",
"Z%	c #BFB0A9",
"`%	c #FFFBF4",
" &	c #F6E7E2",
".&	c #978885",
"+&	c #F5F0EC",
"@&	c #F0FFF6",
"#&	c #BAD2C4",
"$&	c #CEDED4",
"%&	c #FFE2EA",
"&&	c #FCDDE3",
"*&	c #F1F4E9",
"=&	c #FAFDF2",
"-&	c #C9CFC5",
";&	c #B4BCB1",
">&	c #BFC9C0",
",&	c #D8E2D9",
"'&	c #0E0C0D",
")&	c #FAF6F7",
"!&	c #DDD9DA",
"~&	c #D3CFCE",
"{&	c #C5C4C2",
"]&	c #C9C9C7",
"^&	c #D1D3D0",
"/&	c #C4C6C1",
"(&	c #CBCCC7",
"_&	c #DFDAD7",
":&	c #CCC2C1",
"<&	c #F8EAEA",
"[&	c #F7E9E6",
"}&	c #C1B8AF",
"|&	c #FFE8E1",
"1&	c #B36D75",
"2&	c #F1B0B6",
"3&	c #FFF2EA",
"4&	c #F7F9EC",
"5&	c #F5ECE5",
"6&	c #F2E7E3",
"7&	c #C4BCB9",
"8&	c #F7F8F3",
"9&	c #F0FDF4",
"0&	c #D8E3DD",
"a&	c #D3D1D2",
"b&	c #E9D6DA",
"c&	c #D4E9D8",
"d&	c #D4E9DA",
"e&	c #D7ECDD",
"f&	c #E2F7E8",
"g&	c #F1FFF7",
"h&	c #ECFCF1",
"i&	c #E9F6ED",
"j&	c #101010",
"k&	c #D6D2D3",
"l&	c #C8C4C5",
"m&	c #A5A1A0",
"n&	c #AFABAA",
"o&	c #AFAEAC",
"p&	c #BCBBB9",
"q&	c #AFAAA7",
"r&	c #B9AFAE",
"s&	c #C8B8B9",
"t&	c #DDC7CA",
"u&	c #FFE8ED",
"v&	c #B09294",
"w&	c #FCDEDC",
"x&	c #D4AEAB",
"y&	c #B68487",
"z&	c #FFE8E9",
"A&	c #FFFCF3",
"B&	c #D5D9CB",
"C&	c #FEFBF2",
"D&	c #DBDBD3",
"E&	c #D3D8D2",
"F&	c #D1D1CF",
"G&	c #D8E3DF",
"H&	c #D1DAD9",
"I&	c #DBD5D9",
"J&	c #D8DEDA",
"K&	c #0B090A",
"L&	c #040001",
"M&	c #140E0E",
"N&	c #251F1F",
"O&	c #2D2928",
"P&	c #2E2828",
"Q&	c #4D4342",
"R&	c #655757",
"S&	c #6F595C",
"T&	c #FFE2E7",
"U&	c #9A777E",
"V&	c #FFE0E9",
"W&	c #F6C5C9",
"X&	c #8F6163",
"Y&	c #FFECE8",
"Z&	c #E9DED8",
"`&	c #D6DCD8",
" *	c #DAD4D6",
".*	c #D0E0DD",
"+*	c #D4DEDF",
"@*	c #FEFCFD",
"#*	c #959190",
"$*	c #8A8685",
"%*	c #8F8989",
"&*	c #A49B9C",
"**	c #AA9E9E",
"=*	c #9F8F90",
"-*	c #E2C9CD",
";*	c #D8B7BE",
">*	c #BA929B",
",*	c #FAC6D2",
"'*	c #9B5967",
")*	c #F0B7C0",
"!*	c #FFF0EE",
"~*	c #EDE2DC",
"{*	c #D6C2C1",
"]*	c #FFF5F4",
"^*	c #CFDFD5",
"/*	c #D3E8E3",
"(*	c #CEE9E4",
"_*	c #D2E7E2",
":*	c #FAF8F9",
"<*	c #BCB8B9",
"[*	c #B3B2B0",
"}*	c #C4C3C1",
"|*	c #CBC7C6",
"1*	c #D7CFCD",
"2*	c #C7B9B9",
"3*	c #F0DADD",
"4*	c #C5A8AD",
"5*	c #BE99A1",
"6*	c #A87884",
"7*	c #E9AFBD",
"8*	c #FFEFF9",
"9*	c #F0E6E4",
"0*	c #B6B7B1",
"a*	c #FFF7F7",
"b*	c #D3DED6",
"c*	c #D2EBE5",
"d*	c #D0E7E1",
"e*	c #F8F8F6",
"f*	c #F6F5F1",
"g*	c #F6F1EE",
"h*	c #FBEDED",
"i*	c #FFE5EA",
"j*	c #EBCED3",
"k*	c #F2D9DF",
"l*	c #EBDFE1",
"m*	c #B0BBB5",
"n*	c #E7F6EF",
"o*	c #D8E1DE",
"p*	c #D7CDCC",
"q*	c #F7E7E8",
"r*	c #CECACB",
"s*	c #B7BDBD",
"t*	c #F4FFFF",
"u*	c #D4DEDD",
"v*	c #D8D8DA",
". + @ # $ % & @ @ * = - + ; > = . @ # > * > ; - * + * * ;                   ",
"= , ' ) ' ' ! ~ { ] ) ~ ^ ! ~ ! ~ / ] ! ( _ ~ / ' ! : < [                   ",
"} ~ ] , | ~ 1 2 { 3 ! 4 ] ) 2 , 4 ' 5 ~ / ^ : , ] 3 6 7 = 8                 ",
"9 0 3 : ~ 5 a 5 3 ] ~ ( 2 4 / b / 0 ] 4 1 c 0 b d c e 8 + f g               ",
"; ! h 5 i j ' k j l m n j e 6 o p q r s t u v w m / x s = y                 ",
"- 2 h 0 z A d y B C D E B F G H I J K g k L M f N O P Q # R S               ",
"= ~ 2 T { ] ~ U V ] { ( ~ ( 2 ' ( : V ! | 5 | { ] W X Y % Z s               ",
"- , { 2 P G v `  .l m O ..+.@.#.$.%.&.*.=.-.;.>.,.'.).>.!.~.{.              ",
"].a ~ V E ^.P /.(.^._.S :.<.[.}.|.1.2.3.4.5.6.7.8.9.0.a.b.c.                ",
"= ~ , 3 4 4 ~ d.~ ) , T e.f.g.' h.i.j.k.l.m.n.o.p.q.r.s.t.u.                ",
". ] ! , O v r j v.$.N N w.x.y.z.A.B.C.D.E.F.G.H.I.J.K.L.M.|.                ",
"N.3 ] / ` F O._.^.I H ..M %.P.Q.R.S.T.U.V.W.X.Y.Z.`. +.+++@+                ",
"; ~ / ! 3 ^ ] 3 / h a ^ / #+$+%+&+*+=+-+;+>+,+'+)+!+~+{+]+^+                ",
"].^ ^ : /+_.e /+M a V (+_+:+<+[+}+|+1+2+3+4+5+6+7+8+9+0+a+b+c+              ",
". : 2 ( I y o &.d+e+/.B w.f+g+h+i+j+k+l+m+n+o+p+q+r+s+t+u+v+                ",
"$ ' 3 / a _ ! / ( a ~ ] w+x+y+z+A+B+C+D+E+F+G+H+I+J+K+L+M+N+                ",
"$ ] ) a c+..( O+&.n $.O+P+Q+R+S+T+U+V+W+X+Y+Z+`+ @.@+@@@#@*.                ",
"> ) 3 $@%@(.v K Z o ^.&@*@=@-@;@>@,@'@)@!@~@{@]@^@/@(@_@:@<@                ",
"[@( 0 h 0 ] 5 / 5 ^ T }@$+|@1@2@3@4@5@6@7@8@9@0@a@b@c@d@e@f@                ",
"; h ~ 4 g@` %@O ` n j t h@i@j@k@l@m@n@o@p@q@r@s@t@u@v@w@x@y@                ",
"+ , 2 c S z@&.l q M z@A@B@C@D@E@F@G@H@I@J@K@L@M@N@O@P@Q@R@                  ",
". { _ h 0 _ 4 5 d.] S@h T@U@V@W@X@Y@Z@`@ #.#+#@###$#%#&#*#                  ",
"[ ~ , c F G s ` =#l u -#;#>#,#'#)#!#~#{#]#^#/#(#_#:#<#[#}#                  ",
"; 3 |#1#2#z@3#4#5#6#7#8#9#0#a#b#c#d#e#f#g#h#i#j#k#l#m#n#o#                  ",
"p#q#r#s#t#u#v#w#x#y#z#A#B#C#D#E#F#G#H#I#J#K#L#M#N#O#P#Q#R#                  ",
"S#T#U#V#W#X#Y#Z#`# $.$+$@$#$$$%$&$*$=$-$;$>$,$'$)$!$~${$]$]$^$/$($_$        ",
"; V@:$<$[$}$|$1$2$3$4$5$6$7$8$9$0$a$b$c$d$e$f$g$h$i$j$k$l$m$n$o$p$q$r$s$^#  ",
"t$u$v$w$x$X@y$z$A$B$C$D$E$F$G$H$I$J$K$L$M$N$O$P$Q$R$S$T$U$V$W$X$Y$Z$`$ %.%+%",
"@%#%$%u#%%&%*%=%-%;%>%,%'%)%!%~%{%]%^%/%(%_%:%<%[%}%|%1%2%3%4%5%6%7%8%9%0%a%",
"b%c%d%e%f%|$g%h%i%>%j%k%l%m%n%o%p%q%r%s%t%u%v%w%x%y%z%A%B%C%D%E%F%G%H%H%I%  ",
"J%K%L%F@M%N%O%P%Q%R%S%T%U%|%V%W%X%Y%Z%`% &.&+&@&#&$&B+%&&&  *&=&  -&;&>&,&  ",
"'&)&!&~&{&]&^&/&(&_&:&<&[&}&|&1&2&3&4&5&6&7&8&9&  0&a&  b&  c&d&e&f&@&g&h&i&",
"j&k&l&m&n&o&p&q&r&s&t&u&v&w&x&y&z&A&B&C&D&  E&F&  G&H&I&                  J&",
"* K&L&M&N&O&P&Q&R&S&T&U&V&W&X&d$Y&Z&        `& *    .*+*                    ",
"  @*0+#*$*%*&***=*-*;*>*,*'*)*!*~*{*]*  ^*          /*(*_*                  ",
"  :*<*[*}*}*|*1*2*3*4*5*6*7*8*9*0*a*  b*              c*d*                  ",
"  V@|#e*      f*g*h*#%i*j*k*l*m*n*    0&                o*                  ",
"                    p*q*  r*s*t*  u*                                        ",
"                                    v*                                      "};
