/* XPM */
static char * application_x_tar_xpm[] = {
"39 35 905 2",
"  	c None",
". 	c #41586A",
"+ 	c #00132B",
"@ 	c #00051E",
"# 	c #00051B",
"$ 	c #001126",
"% 	c #000718",
"& 	c #495A6A",
"* 	c #3C4D55",
"= 	c #163957",
"- 	c #87B3DA",
"; 	c #8BB5DB",
"> 	c #84AACE",
", 	c #96B9D9",
"' 	c #7C9BB7",
") 	c #243E57",
"! 	c #475E70",
"~ 	c #3E4442",
"{ 	c #2C404B",
"] 	c #81AED7",
"^ 	c #5A93C8",
"/ 	c #74ACDF",
"( 	c #689CCB",
"_ 	c #6B9AC4",
": 	c #82ACD2",
"< 	c #8CAFCF",
"[ 	c #16344C",
"} 	c #384F61",
"| 	c #405159",
"1 	c #2A3C46",
"2 	c #88A7BC",
"3 	c #73A6D3",
"4 	c #68A6DF",
"5 	c #4E8BC4",
"6 	c #659DD6",
"7 	c #679CD2",
"8 	c #6494C5",
"9 	c #76A1CC",
"0 	c #8EB2D4",
"a 	c #234159",
"b 	c #3A5463",
"c 	c #3C6082",
"d 	c #00143C",
"e 	c #000D2F",
"f 	c #1F4262",
"g 	c #7FA7CA",
"h 	c #78A5CC",
"i 	c #689DC9",
"j 	c #5E96C7",
"k 	c #6199D2",
"l 	c #5B92D2",
"m 	c #6499DD",
"n 	c #5F92D3",
"o 	c #6F9DD8",
"p 	c #79A3D3",
"q 	c #84ABCC",
"r 	c #1D4056",
"s 	c #001828",
"t 	c #000E1A",
"u 	c #000C1D",
"v 	c #00152D",
"w 	c #000524",
"x 	c #000D2E",
"y 	c #000F28",
"z 	c #00192D",
"A 	c #000D24",
"B 	c #001328",
"C 	c #00071D",
"D 	c #03192E",
"E 	c #0E2132",
"F 	c #546473",
"G 	c #59636F",
"H 	c #063762",
"I 	c #6AA7DD",
"J 	c #80B0DE",
"K 	c #75A2CC",
"L 	c #7FB2E1",
"M 	c #6BA3D4",
"N 	c #659DCE",
"O 	c #5E9ACE",
"P 	c #5F9BDA",
"Q 	c #5C98E0",
"R 	c #5E99E7",
"S 	c #5992DF",
"T 	c #6298DE",
"U 	c #699DD7",
"V 	c #7CABD9",
"W 	c #729EC1",
"X 	c #8AB3CF",
"Y 	c #88B0CA",
"Z 	c #7FA6C7",
"` 	c #87AED7",
" .	c #7DA5D9",
"..	c #7AA3D7",
"+.	c #73A0C9",
"@.	c #6C9ABC",
"#.	c #75A1C4",
"$.	c #729DC0",
"%.	c #7EA4C8",
"&.	c #7FA2C2",
"*.	c #7897B4",
"=.	c #758FAA",
"-.	c #3D5169",
";.	c #6A798C",
">.	c #00030F",
",.	c #70A1CC",
"'.	c #6CA9DF",
").	c #6C9CCA",
"!.	c #86B3DD",
"~.	c #6093C2",
"{.	c #5992C7",
"].	c #5999D6",
"^.	c #569BDE",
"/.	c #569BE6",
"(.	c #59A0F0",
"_.	c #569CF1",
":.	c #549AEF",
"<.	c #5699E7",
"[.	c #5D9CE3",
"}.	c #69A4DE",
"|.	c #78B0E3",
"1.	c #7DB2DE",
"2.	c #6A9FCB",
"3.	c #5F93C3",
"4.	c #669BD1",
"5.	c #659BD9",
"6.	c #6094D0",
"7.	c #6B9ACE",
"8.	c #5E8ABB",
"9.	c #638DBD",
"0.	c #5F88B6",
"a.	c #668CB9",
"b.	c #6F92BC",
"c.	c #5F7FA6",
"d.	c #637DA0",
"e.	c #6A81A0",
"f.	c #394B63",
"g.	c #00020E",
"h.	c #91C2ED",
"i.	c #629FD5",
"j.	c #5787B5",
"k.	c #618EB8",
"l.	c #6598C7",
"m.	c #689FD5",
"n.	c #5F9AD6",
"o.	c #5F9CDF",
"p.	c #5C9BE2",
"q.	c #5EA1E8",
"r.	c #599BE7",
"s.	c #5C9CE6",
"t.	c #5A96DE",
"u.	c #5D97D7",
"v.	c #5F93CD",
"w.	c #6193C6",
"x.	c #5684B5",
"y.	c #5988B6",
"z.	c #6290C2",
"A.	c #5B8ABE",
"B.	c #5586BE",
"C.	c #4F80B8",
"D.	c #4B79AD",
"E.	c #5079AD",
"F.	c #4670A2",
"G.	c #577FB0",
"H.	c #5076A5",
"I.	c #6489B5",
"J.	c #6686AD",
"K.	c #7794B6",
"L.	c #6B82A1",
"M.	c #50657A",
"N.	c #A9B6C6",
"O.	c #000814",
"P.	c #73A4CF",
"Q.	c #6797C5",
"R.	c #6B98C2",
"S.	c #0D406F",
"T.	c #00093A",
"U.	c #001144",
"V.	c #001145",
"W.	c #001245",
"X.	c #001244",
"Y.	c #001141",
"Z.	c #000E3D",
"`.	c #000B38",
" +	c #000D37",
".+	c #000D35",
"++	c #00062D",
"@+	c #001237",
"#+	c #01173C",
"$+	c #00092D",
"%+	c #00082A",
"&+	c #000C32",
"*+	c #000F38",
"=+	c #001B47",
"-+	c #001640",
";+	c #032D55",
">+	c #082F56",
",+	c #0E3256",
"'+	c #244564",
")+	c #2C4A64",
"!+	c #395467",
"~+	c #4B616E",
"{+	c #65787C",
"]+	c #8B9A95",
"^+	c #7FB0DB",
"/+	c #69A6DC",
"(+	c #5585B3",
"_+	c #03305A",
":+	c #124574",
"<+	c #77A7D8",
"[+	c #8AAEE0",
"}+	c #8BABDC",
"|+	c #93B5E2",
"1+	c #89AED8",
"2+	c #96BDE4",
"3+	c #92B8DC",
"4+	c #9BBFE3",
"5+	c #99B7DB",
"6+	c #9FB7DD",
"7+	c #9FB2DA",
"8+	c #A0AFD6",
"9+	c #9AAACE",
"0+	c #96A6C8",
"a+	c #97AAC8",
"b+	c #96AEC8",
"c+	c #95B0CD",
"d+	c #8EB0D6",
"e+	c #85AAD4",
"f+	c #87ACD6",
"g+	c #87ADD4",
"h+	c #99BCE2",
"i+	c #8AACCF",
"j+	c #A1C0DF",
"k+	c #A2BDD8",
"l+	c #B0C9DD",
"m+	c #ABC1CE",
"n+	c #9EAFB6",
"o+	c #92A19E",
"p+	c #B1BCB4",
"q+	c #0A1420",
"r+	c #7BACD7",
"s+	c #5F9CD2",
"t+	c #6898C6",
"u+	c #000C36",
"v+	c #77AAD9",
"w+	c #7CAFE4",
"x+	c #74A2DE",
"y+	c #7EB0E5",
"z+	c #6A9ECD",
"A+	c #82B9E2",
"B+	c #74AAD0",
"C+	c #84B5DD",
"D+	c #7AA7D0",
"E+	c #81A7D6",
"F+	c #7A9CCC",
"G+	c #8FADDF",
"H+	c #86A5D4",
"I+	c #7B9BC4",
"J+	c #86A8CD",
"K+	c #7CA1BE",
"L+	c #789CBC",
"M+	c #7E9EC7",
"N+	c #7796C4",
"O+	c #8EAAD9",
"P+	c #91AEDA",
"Q+	c #88A5CF",
"R+	c #99B5DD",
"S+	c #89A3C8",
"T+	c #A6BDDF",
"U+	c #9CAFCF",
"V+	c #A5B5CF",
"W+	c #A2AFC2",
"X+	c #A7B1BD",
"Y+	c #949BA3",
"Z+	c #6EABE1",
"`+	c #5B8BB9",
" @	c #00143E",
".@	c #6A9DD2",
"+@	c #5E8CC7",
"@@	c #5683BC",
"#@	c #6597C8",
"$@	c #4479A1",
"%@	c #5E94B6",
"&@	c #427796",
"*@	c #5182A2",
"=@	c #406B8E",
"-@	c #6689B1",
";@	c #496894",
">@	c #5B76A3",
",@	c #39527B",
"'@	c #021F41",
")@	c #00152E",
"!@	c #000A1D",
"~@	c #00172A",
"{@	c #00102B",
"]@	c #0B2241",
"^@	c #3E5575",
"/@	c #6C83A3",
"(@	c #3D5474",
"_@	c #859AB9",
":@	c #455876",
"<@	c #8B9CB8",
"[@	c #677590",
"}@	c #94A0B8",
"|@	c #878FA2",
"1@	c #AFB5C3",
"2@	c #898D98",
"3@	c #77A8D3",
"4@	c #66A3D9",
"5@	c #6393C1",
"6@	c #00133D",
"7@	c #76A9D8",
"8@	c #5C8CBC",
"9@	c #4B6D9D",
"0@	c #5878A1",
"a@	c #305373",
"b@	c #5C8299",
"c@	c #194051",
"d@	c #4E747F",
"e@	c #062633",
"f@	c #546E7D",
"g@	c #000A1E",
"h@	c #5D697F",
"i@	c #070F26",
"j@	c #000416",
"k@	c #777F8A",
"l@	c #E3EEF0",
"m@	c #E8F4F0",
"n@	c #E5F4ED",
"o@	c #E1F1EE",
"p@	c #657876",
"q@	c #000808",
"r@	c #041618",
"s@	c #586A6E",
"t@	c #000E12",
"u@	c #69787F",
"v@	c #09161E",
"w@	c #6C777D",
"x@	c #374045",
"y@	c #848C8F",
"z@	c #717576",
"A@	c #A0A2A1",
"B@	c #9B9C97",
"C@	c #000915",
"D@	c #78A9D4",
"E@	c #609DD3",
"F@	c #5686B4",
"G@	c #000933",
"H@	c #679AC9",
"I@	c #507EAF",
"J@	c #355681",
"K@	c #31506C",
"L@	c #8CADC0",
"M@	c #1A3C48",
"N@	c #B8D6DE",
"O@	c #001217",
"P@	c #D6E9EF",
"Q@	c #020C15",
"R@	c #C8CCD5",
"S@	c #000005",
"T@	c #868487",
"U@	c #F6F3EE",
"V@	c #E9EADC",
"W@	c #E9ECD9",
"X@	c #CED3BD",
"Y@	c #D1DAC7",
"Z@	c #D0DBCA",
"`@	c #5C6958",
" #	c #000500",
".#	c #A7B2AA",
"+#	c #0F1A14",
"@#	c #CFD9D8",
"##	c #121B1A",
"$#	c #CFD7D9",
"%#	c #3B4043",
"&#	c #D2D6D7",
"*#	c #4D4F4E",
"=#	c #D2D1CF",
"-#	c #8A8987",
";#	c #B6B2AF",
">#	c #A19D9A",
",#	c #000511",
"'#	c #79AAD5",
")#	c #64A1D7",
"!#	c #5E8EBC",
"~#	c #83B6E5",
"{#	c #73A3D3",
"]#	c #6D93C0",
"^#	c #8EB1D7",
"/#	c #42698A",
"(#	c #89B1CB",
"_#	c #254B60",
":#	c #82A6B6",
"<#	c #0D2B35",
"[#	c #8198A0",
"}#	c #00060C",
"|#	c #111619",
"1#	c #7A7A78",
"2#	c #FFFDF6",
"3#	c #E5E1D5",
"4#	c #B3B09D",
"5#	c #3C3C24",
"6#	c #272911",
"7#	c #A8AB98",
"8#	c #D6DACB",
"9#	c #D0D4C6",
"0#	c #52554C",
"a#	c #151A14",
"b#	c #000102",
"c#	c #989BA0",
"d#	c #181B22",
"e#	c #989BA4",
"f#	c #474753",
"g#	c #9C9CA8",
"h#	c #4F4D5A",
"i#	c #A7A4AF",
"j#	c #69636F",
"k#	c #958D9A",
"l#	c #7F7A81",
"m#	c #7AABD6",
"n#	c #5989B7",
"o#	c #7EB1E0",
"p#	c #6EA2D2",
"q#	c #6898C8",
"r#	c #4574A2",
"s#	c #5483AF",
"t#	c #2A5A82",
"u#	c #4A789A",
"v#	c #08314F",
"w#	c #4C6F85",
"x#	c #001A28",
"y#	c #0E1F27",
"z#	c #515B5C",
"A#	c #EEF1EA",
"B#	c #D8D6C9",
"C#	c #D4D1C0",
"D#	c #3F3D28",
"E#	c #C3C1AA",
"F#	c #C2C2AA",
"G#	c #2B2A15",
"H#	c #D5D4C0",
"I#	c #C0C1B1",
"J#	c #C0C0B4",
"K#	c #3F4038",
"L#	c #22241F",
"M#	c #050608",
"N#	c #5A5B60",
"O#	c #37373F",
"P#	c #5E5E68",
"Q#	c #4D4D59",
"R#	c #6D6B78",
"S#	c #6A6772",
"T#	c #6E6B76",
"U#	c #958F9B",
"V#	c #85828B",
"W#	c #619ED4",
"X#	c #78ABDA",
"Y#	c #649CCF",
"Z#	c #5B94CB",
"`#	c #639ED8",
" $	c #68A3DD",
".$	c #669ED7",
"+$	c #669DD5",
"@$	c #72A4D5",
"#$	c #749EC4",
"$$	c #6D8FAA",
"%$	c #001624",
"&$	c #B5C5C5",
"*$	c #E8EFE7",
"=$	c #DCDED0",
"-$	c #E3E4D2",
";$	c #030200",
">$	c #E4E3D1",
",$	c #D7D6C2",
"'$	c #141300",
")$	c #BFBEA0",
"!$	c #CBCBB1",
"~$	c #C2C4AE",
"{$	c #8D907D",
"]$	c #151709",
"^$	c #63A0D6",
"/$	c #5C8CBA",
"($	c #86B9E8",
"_$	c #73ACE1",
":$	c #5090CD",
"<$	c #5091D3",
"[$	c #5E9EE5",
"}$	c #5492DB",
"|$	c #66A2EA",
"1$	c #699FDF",
"2$	c #618FC1",
"3$	c #83A7CB",
"4$	c #DDEFF1",
"5$	c #CDD7CC",
"6$	c #C3C7B6",
"7$	c #CDCEBC",
"8$	c #030100",
"9$	c #E0DED1",
"0$	c #CECCBD",
"a$	c #070500",
"b$	c #B6B597",
"c$	c #D5D5BB",
"d$	c #BEC0A8",
"e$	c #ACAF9A",
"f$	c #0A0E00",
"g$	c #B5B8AD",
"h$	c #000713",
"i$	c #76A7D2",
"j$	c #5C99CF",
"k$	c #5383B1",
"l$	c #7AADDC",
"m$	c #639FD5",
"n$	c #5CA0DF",
"o$	c #5096DE",
"p$	c #4D92E0",
"q$	c #5A9CF0",
"r$	c #5E9BEE",
"s$	c #5A92DD",
"t$	c #719FDD",
"u$	c #7095C1",
"v$	c #021D32",
"w$	c #BDCFD1",
"x$	c #CDD8CA",
"y$	c #8B8E7B",
"z$	c #151400",
"A$	c #120F00",
"B$	c #D9D5CC",
"C$	c #CAC6BB",
"D$	c #141100",
"E$	c #131000",
"F$	c #747263",
"G$	c #B2B3A5",
"H$	c #9C9E93",
"I$	c #080B04",
"J$	c #000514",
"K$	c #78A1CD",
"L$	c #5D94CA",
"M$	c #5384AD",
"N$	c #000C35",
"O$	c #7CB1E3",
"P$	c #66A4DF",
"Q$	c #4E93D8",
"R$	c #4C95E2",
"S$	c #59A0F2",
"T$	c #5193E9",
"U$	c #5692E8",
"V$	c #6095E3",
"W$	c #6E9BDC",
"X$	c #6B8FBF",
"Y$	c #264059",
"Z$	c #708389",
"`$	c #C9D3CB",
" %	c #040700",
".%	c #BAB9A7",
"+%	c #070100",
"@%	c #D4CEC2",
"#%	c #BFB9AD",
"$%	c #040100",
"%%	c #BDBBAE",
"&%	c #0B0B00",
"*%	c #A3A59A",
"=%	c #62635D",
"-%	c #3F413C",
";%	c #ADB1B0",
">%	c #B6BCBC",
",%	c #000C1C",
"'%	c #7D98C7",
")%	c #6990C7",
"!%	c #4B7DA2",
"~%	c #00183D",
"{%	c #67A4DA",
"]%	c #65A9EA",
"^%	c #4B90DB",
"/%	c #4A91E1",
"(%	c #4D91E2",
"_%	c #5190DF",
":%	c #5791DB",
"<%	c #6193D8",
"[%	c #6D97D3",
"}%	c #789ACA",
"|%	c #677FA1",
"1%	c #0C1D2F",
"2%	c #C6D1D5",
"3%	c #0A0F08",
"4%	c #D7D8C8",
"5%	c #060400",
"6%	c #D0CAB2",
"7%	c #B8B39D",
"8%	c #0F0E00",
"9%	c #CCCDBF",
"0%	c #080A00",
"a%	c #A5A79C",
"b%	c #181911",
"c%	c #84857F",
"d%	c #999B98",
"e%	c #000B1C",
"f%	c #8EA4D5",
"g%	c #5E7FB5",
"h%	c #5284A9",
"i%	c #001A3F",
"j%	c #65A7E1",
"k%	c #5BA1E7",
"l%	c #4790DD",
"m%	c #4890E2",
"n%	c #5291DE",
"o%	c #5A93DA",
"p%	c #6396D7",
"q%	c #6F99D3",
"r%	c #789CCC",
"s%	c #7892B7",
"t%	c #001029",
"u%	c #CBD7E3",
"v%	c #000908",
"w%	c #D1D3C6",
"x%	c #161500",
"y%	c #BCB89D",
"z%	c #AEAA8F",
"A%	c #040600",
"B%	c #E2E5D4",
"C%	c #000200",
"D%	c #9C9E91",
"E%	c #0E0F07",
"F%	c #979892",
"G%	c #A6A7A2",
"H%	c #000313",
"I%	c #7E99C8",
"J%	c #698EC5",
"K%	c #487DA5",
"L%	c #000E37",
"M%	c #72B6F3",
"N%	c #559DE7",
"O%	c #438EDF",
"P%	c #4590E3",
"Q%	c #5093E1",
"R%	c #5995DD",
"S%	c #6398DA",
"T%	c #78A0D1",
"U%	c #819EC6",
"V%	c #001630",
"W%	c #CBDBEA",
"X%	c #000305",
"Y%	c #E0E5DE",
"Z%	c #000300",
"`%	c #A2A18C",
" &	c #95957D",
".&	c #040500",
"+&	c #DADDCC",
"@&	c #060800",
"#&	c #95978A",
"$&	c #030400",
"%&	c #8C8D87",
"&&	c #BBBCB7",
"*&	c #000C1A",
"=&	c #7490BF",
"-&	c #6C93CC",
";&	c #4077A0",
">&	c #000E3A",
",&	c #72B7F8",
"'&	c #549DEA",
")&	c #408DDD",
"!&	c #428FE1",
"~&	c #4992E1",
"{&	c #5194E2",
"]&	c #5998DF",
"^&	c #659CDD",
"/&	c #70A1DB",
"(&	c #7AA4D6",
"_&	c #81A3C9",
":&	c #000B29",
"<&	c #000716",
"[&	c #00080E",
"}&	c #CCD5D0",
"|&	c #1D200D",
"1&	c #0F1100",
"2&	c #050800",
"3&	c #D8DACC",
"4&	c #020400",
"5&	c #0D0F04",
"6&	c #000100",
"7&	c #90918B",
"8&	c #A4A5A0",
"9&	c #001725",
"0&	c #83A2D0",
"a&	c #527BB3",
"b&	c #457CA5",
"c&	c #001945",
"d&	c #60A3E7",
"e&	c #539AE8",
"f&	c #3E8BDB",
"g&	c #418EDE",
"h&	c #4992DF",
"i&	c #5296E1",
"j&	c #5B9AE1",
"k&	c #66A0E0",
"l&	c #72A5DE",
"m&	c #7DA7D9",
"n&	c #89ACD4",
"o&	c #91ACC9",
"p&	c #98ADC0",
"q&	c #00080F",
"r&	c #C8D4D2",
"s&	c #0C1409",
"t&	c #ADB4A4",
"u&	c #CDD1C0",
"v&	c #CED0C2",
"w&	c #A0A297",
"x&	c #A8A9A1",
"y&	c #767771",
"z&	c #000610",
"A&	c #7592BE",
"B&	c #5078AC",
"C&	c #4478A0",
"D&	c #00133F",
"E&	c #61A0E3",
"F&	c #589BE9",
"G&	c #428CD7",
"H&	c #458FDA",
"I&	c #4E94DC",
"J&	c #5699DF",
"K&	c #619EDF",
"L&	c #6CA4E1",
"M&	c #77A9DE",
"N&	c #81ACD9",
"O&	c #93B5DB",
"P&	c #9EB9D6",
"Q&	c #A2B7CA",
"R&	c #00050D",
"S&	c #B5C1C1",
"T&	c #000400",
"U&	c #000600",
"V&	c #121406",
"W&	c #CBCDC0",
"X&	c #0B0D02",
"Y&	c #7C7D75",
"Z&	c #B2B3AD",
"`&	c #B7B8B3",
" *	c #B4B4B2",
".*	c #0B2327",
"+*	c #38547B",
"@*	c #4D6F9F",
"#*	c #427092",
"$*	c #000B33",
"%*	c #6FA6E6",
"&*	c #609CE4",
"**	c #4A8DD3",
"=*	c #4E91D5",
"-*	c #5697D9",
";*	c #609CDB",
">*	c #6AA2DD",
",*	c #75A8DF",
"'*	c #81ADDE",
")*	c #8AAFD9",
"!*	c #8EAFD0",
"~*	c #A1BBD4",
"{*	c #9AADBC",
"]*	c #031219",
"^*	c #D2DEDE",
"/*	c #D0DAD2",
"(*	c #C4CAC0",
"_*	c #CFD3C5",
":*	c #BABCAF",
"<*	c #D0D2C5",
"[*	c #82837B",
"}*	c #BDBEB8",
"|*	c #A6BAB9",
"1*	c #0C2343",
"2*	c #2B4872",
"3*	c #4A718E",
"4*	c #001132",
"5*	c #71A0D6",
"6*	c #6497D8",
"7*	c #568ECB",
"8*	c #5893CB",
"9*	c #6198D1",
"0*	c #6A9FD5",
"a*	c #74A3D7",
"b*	c #7EAAD9",
"c*	c #91B2D5",
"d*	c #9DB8D3",
"e*	c #A8BFD1",
"f*	c #ADBDCA",
"g*	c #000B11",
"h*	c #BBC4C3",
"i*	c #C1C6C0",
"j*	c #C9CCC3",
"k*	c #C8CABF",
"l*	c #D4D6CB",
"m*	c #80817B",
"n*	c #B4B5B0",
"o*	c #B8C8E2",
"p*	c #001335",
"q*	c #365569",
"r*	c #000C22",
"s*	c #88ADD9",
"t*	c #5880B4",
"u*	c #5C88B9",
"v*	c #608FBB",
"w*	c #6A96C3",
"x*	c #729CC6",
"y*	c #79A0C7",
"z*	c #83A5CA",
"A*	c #8EADCC",
"B*	c #98B2CB",
"C*	c #A0B5C8",
"D*	c #B5C5D2",
"E*	c #ABB8C0",
"F*	c #01090C",
"G*	c #C1C6C2",
"H*	c #4A4B45",
"I*	c #070700",
"J*	c #080800",
"K*	c #494B40",
"L*	c #C2C3BB",
"M*	c #050600",
"N*	c #83847E",
"O*	c #B0B1AC",
"P*	c #AEBCD7",
"Q*	c #031924",
"R*	c #000613",
"S*	c #6A84A5",
"T*	c #55729A",
"U*	c #517398",
"V*	c #597B9E",
"W*	c #6586A7",
"X*	c #708FAE",
"Y*	c #7A98B4",
"Z*	c #87A1BA",
"`*	c #95ABC2",
" =	c #9FB2C3",
".=	c #A8B6C3",
"+=	c #A8B2BB",
"@=	c #C5CDD0",
"#=	c #C3C4BF",
"$=	c #0F0F07",
"%=	c #7A776E",
"&=	c #78756C",
"*=	c #010100",
"==	c #C6C7BF",
"-=	c #060701",
";=	c #797A75",
">=	c #B5B5B3",
",=	c #B8C6C7",
"'=	c #1E3032",
")=	c #192A3E",
"!=	c #233752",
"~=	c #384E66",
"{=	c #3F556C",
"]=	c #4A6075",
"^=	c #576C7F",
"/=	c #647788",
"(=	c #718191",
"_=	c #7E8C99",
":=	c #88929C",
"<=	c #A1AAB1",
"[=	c #ABB0B4",
"}=	c #ABAFAE",
"|=	c #13140F",
"1=	c #BDBCB7",
"2=	c #030000",
"3=	c #151209",
"4=	c #0E0B02",
"5=	c #BCBDB7",
"6=	c #080904",
"7=	c #848580",
"8=	c #B8B8B6",
"9=	c #B6C0CA",
"0=	c #94A0B0",
"a=	c #919DAB",
"b=	c #95A3AE",
"c=	c #9DA9B5",
"d=	c #A4B1BA",
"e=	c #ADB7C0",
"f=	c #B5BEC5",
"g=	c #010000",
"h=	c #BBBAB5",
"i=	c #B8B5AE",
"j=	c #C6C3BA",
"k=	c #B6B3AC",
"l=	c #BEBDB8",
"m=	c #B9BAB4",
"n=	c #020300",
"o=	c #7C7C7A",
"p=	c #B5B5B5",
"q=	c #060501",
"r=	c #070602",
"s=	c #0F0E09",
"t=	c #090803",
"u=	c #020200",
"v=	c #868684",
"w=	c #B8B8B8",
"x=	c #BABAB8",
"y=	c #70706E",
"z=	c #777775",
"A=	c #8C8D88",
"B=	c #83847F",
"C=	c #737371",
"D=	c #81817F",
"E=	c #B2B2B2",
"F=	c #B5B7B6",
"G=	c #B7B8BA",
"H=	c #BFC1C0",
"I=	c #A2A2A0",
"J=	c #BCBDB8",
"K=	c #BDBDBB",
"L=	c #ADADAB",
"              . + @ # $ % &                                                   ",
"            * = - ; > , ' ) !                                                 ",
"          ~ { ] ^ / ( _ : < [ }                                               ",
"        | 1 2 3 4 5 6 7 8 9 0 a b                                             ",
"  c d e f g h i j k l m n o p q r s t u v w x y z A B C $ D E F               ",
"G H I J K L M N O P Q R S T U V W X Y Z `  ...+.@.#.$.%.&.*.=.-.;.            ",
">.,.'.).!.~.{.].^./.(._.:.<.[.}.|.1.2.3.4.5.6.7.8.9.0.a.b.c.d.e.f.            ",
"g.h.i.j.k.l.m.n.o.p.q.r.s.t.u.v.w.x.y.z.A.B.C.D.E.F.G.H.I.J.K.L.M.N.          ",
"O.P.i.Q.R.S.T.U.V.W.X.X.Y.Z.`. +.+++@+#+$+%+&+*+=+-+;+>+,+'+)+!+~+{+]+        ",
"g.^+/+(+_+:+<+[+}+|+1+2+3+4+5+6+7+8+9+0+a+b+c+d+e+f+g+h+i+j+k+l+m+n+o+p+      ",
"q+r+s+t+u+v+w+x+o y+z+A+B+C+D+E+F+G+H+I+J+K+L+M+N+O+P+Q+R+S+T+U+V+W+X+Y+      ",
"g.r+Z+`+ @v+.@+@@@#@$@%@&@*@=@-@;@>@,@'@)@!@~@{@]@^@/@(@_@:@<@[@}@|@1@2@      ",
">.3@4@5@6@7@8@9@0@a@b@c@d@e@f@g@h@i@j@k@l@m@n@o@p@q@r@s@t@u@v@w@x@y@z@A@B@    ",
"C@D@E@F@G@H@I@J@K.K@L@M@N@O@P@Q@R@S@T@U@V@W@X@Y@Z@`@ #.#+#@###$#%#&#*#=#-#;#>#",
",#'#)#!# @~#{#]#^#/#(#_#:#<#[#}#|#1#2#3#4#5#6#7#8#9#0#a#b#c#d#e#f#g#h#i#j#k#l#",
"O.m#i.n# +o#p#q#r#s#t#u#v#w#x#y#z#A#B#C#D#E#F#G#H#I#J#K#L#M#N#O#P#Q#R#S#T#U#V#",
"C@r+W#(+G@X#Y#Z#`# $.$+$@$#$$$%$&$*$=$-$;$>$,$'$)$!$~${$]$                    ",
",#'#^$/$6@($_$:$<$[$}$|$1$2$3$% 4$5$6$7$8$9$0$a$b$c$d$e$f$g$                  ",
"h$i$j$k$G@l$m$n$o$p$q$r$s$t$u$v$w$x$y$z$A$B$C$D$E$F$G$H$I$                    ",
"J$K$L$M$N$O$P$Q$R$S$T$U$V$W$X$Y$Z$`$ %.%+%@%#%$%%%&%*%=%-%;%>%                ",
",%'%)%!%~%{%]%^%/%(%_%:%<%[%}%|%1%2%3%4%5%6%7%8%9%0%a%b%c%d%                  ",
"e%f%g%h%i%j%k%l%m%p$n%o%p%q%r%s%t%u%v%w%x%y%z%A%B%C%D%E%F%G%                  ",
"H%I%J%K%L%M%N%O%P%/%Q%R%S%o T%U%V%W%X%Y%Z%`% &.&+&@&#&$&%&&&                  ",
"*&=&-&;&>&,&'&)&!&~&{&]&^&/&(&_&:&<&[&}&Z%|&1&2&3&4&5&6&7&8&                  ",
"9&0&a&b&c&d&e&f&g&h&i&j&k&l&m&n&o&p&q&r&s&t&u&C%v&C%w&x&y&                    ",
"z&A&B&C&D&E&F&G&H&I&J&K&L&M&N&O&P&Q&R&S&T&U&T&V&W&X&Y&Z&`& *                  ",
".*+*@*#*$*%*&***=*-*;*>*,*'*)*!*~*{*]*^*/*(*_*:*<*C%[*}*                      ",
"|*1*2*3*4*5*6*7*8*9*0*a*b*1+c*d*e*f*g*h*i*j*k*l*k*.&m*n*                      ",
"  o*p*q*r*s*t*u*v*w*x*y*z*A*B*C*D*E*F*G*H*I*J*K*L*M*N*O*                      ",
"    P*Q*R*S*T*U*V*W*X*Y*Z*`* =.=+=@=6&#=$=%=&=*===-=;=>=                      ",
"      ,='=)=!=~={=]=^=/=(=_=:=<=[=}=|=1=2=3=4=I*5=6=7=8=                      ",
"          9=0=a=b=c=d=e=f=          g=h=i=j=k=l=m=n=o=p=                      ",
"                                    q=r=s=t=s=.&6=u=v=w=                      ",
"                                        x=y=z=A=B=C=D=E=                      ",
"                                        F=G=H=I=J=K=L=                        "};
