/* XPM */
static char * image_x_xpixmap_xpm[] = {
"48 48 326 2",
"  	c None",
". 	c #000000",
"+ 	c #8C8C8C",
"@ 	c #AAAAAA",
"# 	c #A7A7A6",
"$ 	c #999999",
"% 	c #121212",
"& 	c #464646",
"* 	c #828282",
"= 	c #B2B2B2",
"- 	c #B5B5B5",
"; 	c #B1B1B0",
"> 	c #AFAFAE",
", 	c #AEAEAD",
"' 	c #4D4D4C",
") 	c #161616",
"! 	c #767676",
"~ 	c #9F9F9F",
"{ 	c #B9B9B8",
"] 	c #B8B8B7",
"^ 	c #B6B6B5",
"/ 	c #B4B4B4",
"( 	c #B0B0B0",
"_ 	c #AFAFAF",
": 	c #ADADAC",
"< 	c #989897",
"[ 	c #181818",
"} 	c #9D9D9D",
"| 	c #AAAAA9",
"1 	c #ACACAB",
"2 	c #B0B0AF",
"3 	c #B8B8B8",
"4 	c #B7B7B7",
"5 	c #B6B6B6",
"6 	c #B5B5B4",
"7 	c #B4B4B3",
"8 	c #B2B2B1",
"9 	c #ADADAD",
"0 	c #252525",
"a 	c #D3D3D3",
"b 	c #7A7A7A",
"c 	c #878787",
"d 	c #A8A8A7",
"e 	c #B3B3B3",
"f 	c #B1B1B1",
"g 	c #878786",
"h 	c #D5D5D5",
"i 	c #E1E1E0",
"j 	c #7F7F7F",
"k 	c #6B6B6B",
"l 	c #808080",
"m 	c #ABABAB",
"n 	c #B3B3B2",
"o 	c #AEAEAE",
"p 	c #131313",
"q 	c #A0A0A0",
"r 	c #DDDDDD",
"s 	c #DBDBDB",
"t 	c #CBCBCB",
"u 	c #5A5A59",
"v 	c #787878",
"w 	c #999998",
"x 	c #A4A4A4",
"y 	c #ACACAC",
"z 	c #868686",
"A 	c #191919",
"B 	c #D4D4D4",
"C 	c #DFDFDF",
"D 	c #525252",
"E 	c #727272",
"F 	c #909090",
"G 	c #9D9D9C",
"H 	c #A6A6A5",
"I 	c #E4E4E4",
"J 	c #626261",
"K 	c #4D4D4D",
"L 	c #5D5D5D",
"M 	c #6F6F6F",
"N 	c #8D8D8D",
"O 	c #989898",
"P 	c #95A8A4",
"Q 	c #7ECBB2",
"R 	c #6CE1AB",
"S 	c #4DFC93",
"T 	c #4DFC76",
"U 	c #4DFC59",
"V 	c #62F357",
"W 	c #8BD877",
"X 	c #A3BC96",
"Y 	c #646464",
"Z 	c #5C5C5C",
"` 	c #535353",
" .	c #616161",
"..	c #707070",
"+.	c #747474",
"@.	c #8F8F8F",
"#.	c #77C4C3",
"$.	c #4DFCE9",
"%.	c #4DFCD1",
"&.	c #4DFCB8",
"*.	c #4DFC97",
"=.	c #4DFC55",
"-.	c #62FC4D",
";.	c #7EFC4D",
">.	c #93FC4D",
",.	c #A9D877",
"'.	c #141414",
").	c #424242",
"!.	c #777777",
"~.	c #8B8B8B",
"{.	c #64C4D8",
"].	c #4DE9FC",
"^.	c #4DFCFA",
"/.	c #4DFCE1",
"(.	c #4DFCC4",
"_.	c #4DFC9F",
":.	c #4DFC4D",
"<.	c #72FC4D",
"[.	c #8FFC4D",
"}.	c #A8FC4D",
"|.	c #B8FC4D",
"1.	c #BDDA78",
"2.	c #888888",
"3.	c #1A1A1A",
"4.	c #8E8E8E",
"5.	c #828281",
"6.	c #7CA1B6",
"7.	c #4DC9FC",
"8.	c #4DD5FC",
"9.	c #4DE5FC",
"0.	c #4DFCD9",
"a.	c #4DFCAC",
"b.	c #59FC4D",
"c.	c #87FC4D",
"d.	c #BCFC4D",
"e.	c #D1FC4D",
"f.	c #DDFC4D",
"g.	c #BFC49D",
"h.	c #B7B7B6",
"i.	c #272727",
"j.	c #030303",
"k.	c #A8A8A8",
"l.	c #A2A2A2",
"m.	c #A2A2A1",
"n.	c #60A7E8",
"o.	c #4DB0FC",
"p.	c #4DB8FC",
"q.	c #4DDDFC",
"r.	c #58F4F2",
"s.	c #7DDEBF",
"t.	c #96D0A4",
"u.	c #9AD889",
"v.	c #ABED64",
"w.	c #C9FC4D",
"x.	c #E9FC4D",
"y.	c #F2FC4D",
"z.	c #DCDD7C",
"A.	c #B9B9B9",
"B.	c #8F8F8E",
"C.	c #BCBCBC",
"D.	c #4D93FC",
"E.	c #4D97FC",
"F.	c #4D9BFC",
"G.	c #4DA3FC",
"H.	c #73B5E7",
"I.	c #BEBEBE",
"J.	c #BFBFBF",
"K.	c #C0C0C0",
"L.	c #E6EE66",
"M.	c #FCF64D",
"N.	c #FCEE4D",
"O.	c #FCE94D",
"P.	c #F4E059",
"Q.	c #BBBBBB",
"R.	c #292929",
"S.	c #C2C2C2",
"T.	c #BFBFBE",
"U.	c #95A4CF",
"V.	c #4D7AFC",
"W.	c #A9B3D0",
"X.	c #C6C6C5",
"Y.	c #C8C8C7",
"Z.	c #C7C7C6",
"`.	c #C6C6C6",
" +	c #C5C5C5",
".+	c #DDC88E",
"++	c #FCCD4D",
"@+	c #C0C0BF",
"#+	c #BDBDBD",
"$+	c #CDCDCD",
"%+	c #C8C8C8",
"&+	c #9CA4D6",
"*+	c #4D62FC",
"=+	c #4D5DFC",
"-+	c #4D59FC",
";+	c #4D51FC",
">+	c #AFAED5",
",+	c #CCCCCC",
"'+	c #CCCCCB",
")+	c #CBCBCA",
"!+	c #E0B391",
"~+	c #FCA34D",
"{+	c #FCAC4D",
"]+	c #FCB44D",
"^+	c #FCB84D",
"/+	c #C4C4C4",
"(+	c #C2C2C1",
"_+	c #C1C1C0",
":+	c #7D7D7C",
"<+	c #505050",
"[+	c #D8D8D8",
"}+	c #D0D0D0",
"|+	c #4D4DFC",
"1+	c #554DFC",
"2+	c #5D4DFC",
"3+	c #6E4DFC",
"4+	c #9D79EE",
"5+	c #D2D2D2",
"6+	c #D1D1D1",
"7+	c #F7785B",
"8+	c #FC834D",
"9+	c #FC8F4D",
"0+	c #FC974D",
"a+	c #F6A35B",
"b+	c #C3C3C2",
"c+	c #151514",
"d+	c #E3E3E3",
"e+	c #E0E0DF",
"f+	c #7C6CF3",
"g+	c #7A4DFC",
"h+	c #8B4DFC",
"i+	c #A34DFC",
"j+	c #CD8BEC",
"k+	c #DAC8DB",
"l+	c #D7D7D7",
"m+	c #DEB7C8",
"n+	c #F36A84",
"o+	c #FC4D4D",
"p+	c #FC624D",
"q+	c #FC724D",
"r+	c #E6A885",
"s+	c #CACAC9",
"t+	c #C7C7C7",
"u+	c #9E9E9E",
"v+	c #E8E8E8",
"w+	c #E6E6E6",
"x+	c #BDAFE9",
"y+	c #834DFC",
"z+	c #8F4DFC",
"A+	c #BC4DFC",
"B+	c #D94DFC",
"C+	c #FC4DFA",
"D+	c #F85CD2",
"E+	c #FC4DA8",
"F+	c #FC4D83",
"G+	c #FC4D66",
"H+	c #FC5D4D",
"I+	c #FC6E4D",
"J+	c #D5C7C2",
"K+	c #CFCFCF",
"L+	c #CECECE",
"M+	c #C9C9C8",
"N+	c #2A2A2A",
"O+	c #FC4DD1",
"P+	c #FC4DB0",
"Q+	c #FC4D93",
"R+	c #FC4D76",
"S+	c #FC4D62",
"T+	c #E3ADA8",
"U+	c #FFFFFF",
"V+	c #FC4DB8",
"W+	c #FC4D9B",
"X+	c #FC4D6E",
"Y+	c #E6ACB1",
"Z+	c #DADADA",
"`+	c #D8D8D7",
" @	c #D6D6D5",
".@	c #D4D4D3",
"+@	c #C9C9C9",
"@@	c #A0A09F",
"#@	c #FC4DA3",
"$@	c #F66EA1",
"%@	c #E6BFC9",
"&@	c #DEDEDE",
"*@	c #DCDCDC",
"=@	c #D6D6D6",
"-@	c #D2D2D1",
";@	c #D0D0CF",
">@	c #F0B5E1",
",@	c #EEB4D9",
"'@	c #E9D6E0",
")@	c #E5E5E5",
"!@	c #DFDFDE",
"~@	c #929292",
"{@	c #EDEDED",
"]@	c #EBEBEB",
"^@	c #E9E9E9",
"/@	c #E7E7E7",
"(@	c #E1E1E1",
"_@	c #DDDDDC",
":@	c #DBDBDA",
"<@	c #171717",
"[@	c #F0F0F0",
"}@	c #EEEEEE",
"|@	c #ECECEB",
"1@	c #F2F2F2",
"2@	c #ECECEC",
"3@	c #EAEAEA",
"4@	c #E8E8E7",
"5@	c #E6E6E5",
"6@	c #A3A3A3",
"7@	c #FDFDFD",
"8@	c #FBFBFB",
"9@	c #F9F9F9",
"0@	c #F7F7F6",
"a@	c #F4F4F4",
"b@	c #969696",
"c@	c #7D7D7D",
"d@	c #F7F7F7",
"e@	c #F5F5F5",
"f@	c #F3F3F2",
"g@	c #343434",
"h@	c #E2E2E2",
"i@	c #A7A7A7",
"j@	c #373737",
"k@	c #383838",
"                                                                                                ",
"                                                                                                ",
"                                                                                                ",
"                                                                                                ",
"                                                                                                ",
"                                                                                                ",
"                                                    . .                                         ",
"                                                . . + + .                                       ",
"                                            . . + @ # $ %                                       ",
"                                  . . . & * = - = ; > , '                                       ",
"                          . . ) ) ! ~ { ] ] ^ / = ( _ : < .                                     ",
"                        [ } | 1 2 3 3 3 4 5 6 7 8 ; > 9 9 0                                     ",
"                      . a b c ~ d ; 7 - / / e = f 2 , , : g                                     ",
"                    . h i j k l ~ m ( 8 n ; 8 _ ( o 9 9 : : p                                   ",
"                  . q r s t u v w x y _ _ _ > > o 9 9 9 y 9 z                                   ",
"                  A B C r a D E F G H y 9 9 9 9 9 : : 1 : : 9 p                                 ",
"                . m I # J K L M N O P Q R S T U V W X y : , > g                                 ",
"                . Y Z ` D  ...+.@.#.$.%.&.*.T =.-.;.>.,.9 _ ( f '.                              ",
"                . ).j !.!.v v ~.{.].^./.(._.T :.<.[.}.|.1.f = e 2..                             ",
"                  3.4.< 5.@.j 6.7.8.9.^.0.a.T b.c.}.d.e.f.g.6 ^ h.i.                            ",
"                  j.f k.l.~ m.n.o.p.7.q.r.s.t.u.v.w.f.x.y.z.A.{ { B..                           ",
"                  . C.5 / f f D.E.F.G.H.I.J.K.K.J.L.M.N.O.P.C.C.Q.Q.R.                          ",
"                  . Q.S.T.Q.U.V.V.V.V.W.X.Y.Z.`. +.+++++++++@+@+J.#+k..                         ",
"                  . o $+%+ +&+*+=+-+;+>+,+,+$+'+)+!+~+{+]+^+/+/+(+_+@+:+.                       ",
"                  . <+[+B }+$+|+1+2+3+4+5+5+6+6+}+7+8+9+0+a+%+`. +/+b+(+c+                      ",
"                    . d+e+s [+f+3+g+h+i+j+k+l+m+n+o+p+q+8+r+'+s+%+t+`./+u+.                     ",
"                    . r v+w+d+x+y+z+i+A+B+C+D+E+F+G+o+H+I+J+K+L+'+)+M+`./+N+                    ",
"              . . . . . . . . . . . . . . . O+P+Q+R+S+o+T+B 5+6+K+$+t M+Z., .                   ",
"              . . U+. U+. U+U+. . U+. U+. . O+V+W+F+X+Y+Z+`+ @.@6+K+$+t +@t+@@.                 ",
"              . . U+. U+. U+. U+. U+U+U+. . O+V+#@$@%@&@*@Z+[+=@.@-@;@$+t /+F .                 ",
"              . . . U+. . U+U+. . U+. U+. . >@,@'@)@d+i !@*@Z+[+=@B 5+;@~@) .                   ",
"              . . U+. U+. U+. . . U+. U+. . {@]@^@/@)@d+(@C _@:@[+=@9 <@.                       ",
"              . . U+. U+. U+. . . U+. U+. . [@}@|@^@/@)@d+(@C r 2 <@. . . .                     ",
"              . . . . . . . . . . . . . . . 1@[@}@2@3@4@5@h 6@. . . . . . . .                   ",
"                        . I.U+U+U+U+7@8@9@0@a@1@[@}@2@`.b@. . . . . . .                         ",
"                        . c@U+U+U+U+U+7@8@9@d@e@f@q g@. . . . . .                               ",
"                          . U+U+U+U+U+U+7@8@K+@.. . . . . .                                     ",
"                          . I.U+U+U+U+h@i@j@. . . . .                                           ",
"                            k@U+h@Q.c@. . . . .                                                 ",
"                            . . . . . . .                                                       ",
"                              . .                                                               ",
"                                                                                                ",
"                                                                                                ",
"                                                                                                ",
"                                                                                                ",
"                                                                                                ",
"                                                                                                ",
"                                                                                                "};
