/* XPM */
static char * image_xpm[] = {
"31 36 1035 2",
"  	c None",
". 	c #050304",
"+ 	c #0A0605",
"@ 	c #090100",
"# 	c #0E0500",
"$ 	c #190C04",
"% 	c #1A0D05",
"& 	c #0A0000",
"* 	c #0F0500",
"= 	c #0F0600",
"- 	c #100600",
"; 	c #110400",
"> 	c #120500",
", 	c #130400",
"' 	c #120300",
") 	c #110200",
"! 	c #120100",
"~ 	c #110000",
"{ 	c #180400",
"] 	c #1C0702",
"^ 	c #180500",
"/ 	c #130401",
"( 	c #110705",
"_ 	c #070101",
": 	c #080403",
"< 	c #DFD7D4",
"[ 	c #FCF1EB",
"} 	c #F3E5DC",
"| 	c #E8D7CD",
"1 	c #F9E6D8",
"2 	c #F4E1D3",
"3 	c #F2E0D4",
"4 	c #F2E2D5",
"5 	c #F3E1D5",
"6 	c #F2DED3",
"7 	c #F5DFD4",
"8 	c #F5DDD3",
"9 	c #F4DCD2",
"0 	c #F3DBD1",
"a 	c #F1D9CF",
"b 	c #F1D6CD",
"c 	c #F0D5CC",
"d 	c #F4D6CC",
"e 	c #E8CAC0",
"f 	c #DDC4BD",
"g 	c #D9C5BE",
"h 	c #CABBB6",
"i 	c #0B0300",
"j 	c #060000",
"k 	c #F1E6E0",
"l 	c #E4D6CD",
"m 	c #F6E0D2",
"n 	c #FDE3D2",
"o 	c #FAE0CF",
"p 	c #FAE0D1",
"q 	c #F8E1D1",
"r 	c #FBE1D4",
"s 	c #FBE1D2",
"t 	c #FAE0D3",
"u 	c #F9DFD0",
"v 	c #FADED2",
"w 	c #F9DDCF",
"x 	c #F9DBD0",
"y 	c #F9DCCE",
"z 	c #FBDBD0",
"A 	c #FADACD",
"B 	c #FAD8CE",
"C 	c #F8D6CA",
"D 	c #F6D4CA",
"E 	c #F7D3C7",
"F 	c #F3CDC0",
"G 	c #EFC9BC",
"H 	c #F2D2C7",
"I 	c #D8BDB4",
"J 	c #C1AEA7",
"K 	c #0E0300",
"L 	c #AEA9A5",
"M 	c #B6B6B4",
"N 	c #130A05",
"O 	c #F6E8DF",
"P 	c #EFDDD1",
"Q 	c #F2DBCB",
"R 	c #E8CDBA",
"S 	c #EECFBA",
"T 	c #FEDEC7",
"U 	c #F9D8C5",
"V 	c #F9D8C7",
"W 	c #FAD6C6",
"X 	c #F9D6C3",
"Y 	c #F9D4C4",
"Z 	c #F8D3C1",
"` 	c #F7D0C1",
" .	c #F7D0BF",
"..	c #F9CFC1",
"+.	c #F9CFBF",
"@.	c #F9CDC0",
"#.	c #F8CDBD",
"$.	c #F7CBBE",
"%.	c #F8CABB",
"&.	c #FFD0BE",
"*.	c #DFB1A1",
"=.	c #FBD4C5",
"-.	c #DABAAD",
";.	c #9C867B",
">.	c #190B02",
",.	c #8E8781",
"'.	c #B7B6B2",
").	c #0C0000",
"!.	c #E7D6CC",
"~.	c #F9E3D5",
"{.	c #F1D6C3",
"].	c #F8D8C1",
"^.	c #FFDFC4",
"/.	c #F2CEB4",
"(.	c #FBD5BE",
"_.	c #FBD5C0",
":.	c #FDD4C0",
"<.	c #FCD3BF",
"[.	c #FCD1BE",
"}.	c #FBD0BD",
"|.	c #FCCFBC",
"1.	c #FACDBA",
"2.	c #FBCCBA",
"3.	c #FBCAB9",
"4.	c #FCC9B8",
"5.	c #FBC8B7",
"6.	c #FBC6B4",
"7.	c #FECAB5",
"8.	c #DFAC97",
"9.	c #ECBFAC",
"0.	c #D2AE9E",
"a.	c #B09689",
"b.	c #100000",
"c.	c #746B62",
"d.	c #B7B4AF",
"e.	c #170A02",
"f.	c #FCE2D1",
"g.	c #EBCCB7",
"h.	c #F8D6BB",
"i.	c #FFDDC0",
"j.	c #F6CDB1",
"k.	c #FED1BA",
"l.	c #FED1BC",
"m.	c #FECFBB",
"n.	c #FDCEBA",
"o.	c #FDCDB9",
"p.	c #FCCCB8",
"q.	c #FDCAB7",
"r.	c #FBC8B5",
"s.	c #FCC7B5",
"t.	c #FDC5B4",
"u.	c #FBC3B2",
"v.	c #FBC2B1",
"w.	c #F9C0AF",
"x.	c #F9BEAC",
"y.	c #E6AC96",
"z.	c #E4AE96",
"A.	c #D1A18B",
"B.	c #97715E",
"C.	c #947767",
"D.	c #8E847B",
"E.	c #BFBCB5",
"F.	c #1D0C04",
"G.	c #F2D7CC",
"H.	c #EECDBE",
"I.	c #FFD6C2",
"J.	c #FCCFB8",
"K.	c #F0C4A9",
"L.	c #FFD3B9",
"M.	c #FECEB8",
"N.	c #FFCDBA",
"O.	c #FFCCB9",
"P.	c #FFCCB7",
"Q.	c #FFCBB6",
"R.	c #FDC9B4",
"S.	c #FEC7B3",
"T.	c #FDC6B2",
"U.	c #FEC5B2",
"V.	c #FDC4B1",
"W.	c #FDC2B0",
"X.	c #FCC1AF",
"Y.	c #FABFAD",
"Z.	c #F7BCAA",
"`.	c #F7BAA8",
" +	c #F6B9A6",
".+	c #FABDA8",
"++	c #D19982",
"@+	c #F3C0AB",
"#+	c #E6BDAB",
"$+	c #A58576",
"%+	c #0F0000",
"&+	c #8D837A",
"*+	c #ADAAA5",
"=+	c #1A0500",
"-+	c #F7D0CB",
";+	c #FFCDC6",
">+	c #FFC7BC",
",+	c #FFC6B6",
"'+	c #FFCBB7",
")+	c #F9C6B1",
"!+	c #FAC5B5",
"~+	c #F9C4B4",
"{+	c #FFC7B6",
"]+	c #FEC5B4",
"^+	c #FABFAF",
"/+	c #F6BBAB",
"(+	c #F9BCAA",
"_+	c #F6B9A7",
":+	c #F2B5A3",
"<+	c #F0B2A3",
"[+	c #E4A697",
"}+	c #FABCAD",
"|+	c #F5B8A6",
"1+	c #F8BEAA",
"2+	c #CF9884",
"3+	c #E5B4A3",
"4+	c #D4AD9E",
"5+	c #A98B80",
"6+	c #170300",
"7+	c #897E7A",
"8+	c #B5B1AE",
"9+	c #1F0A05",
"0+	c #F9CDCA",
"a+	c #FFC9C5",
"b+	c #FAB7B1",
"c+	c #FBB9AD",
"d+	c #F5BCAB",
"e+	c #F2BAA9",
"f+	c #F3BBAE",
"g+	c #F1B9AC",
"h+	c #F2B8AC",
"i+	c #F7BCAE",
"j+	c #F9BBAE",
"k+	c #F5B5A9",
"l+	c #EEAEA2",
"m+	c #EBA99B",
"n+	c #E19F91",
"o+	c #EDAA9A",
"p+	c #FDB9AC",
"q+	c #F8B4A7",
"r+	c #E9A799",
"s+	c #D59385",
"t+	c #EEAC9E",
"u+	c #F0B1A2",
"v+	c #F1B4A2",
"w+	c #BF8776",
"x+	c #E1B0A1",
"y+	c #D2AA9E",
"z+	c #AB8D83",
"A+	c #817674",
"B+	c #B6B2B1",
"C+	c #1D0803",
"D+	c #E7BBB8",
"E+	c #EBB1AD",
"F+	c #CC8B85",
"G+	c #CF8F83",
"H+	c #C68E7D",
"I+	c #CA9281",
"J+	c #CD9186",
"K+	c #CF9087",
"L+	c #D6968D",
"M+	c #E1A198",
"N+	c #E8A59D",
"O+	c #E5A198",
"P+	c #DF9991",
"Q+	c #E0978E",
"R+	c #EBA299",
"S+	c #DC9287",
"T+	c #D58B82",
"U+	c #D48A81",
"V+	c #DD9088",
"W+	c #D1847C",
"X+	c #DC8F85",
"Y+	c #CA8276",
"Z+	c #C28072",
"`+	c #AC7264",
" @	c #B07C6F",
".@	c #875D51",
"+@	c #5D3C33",
"@@	c #190500",
"#@	c #978C8A",
"$@	c #BBB7B6",
"%@	c #160300",
"&@	c #CCA39F",
"*@	c #C68F8A",
"=@	c #995A53",
"-@	c #A16356",
";@	c #986351",
">@	c #A3705F",
",@	c #B68076",
"'@	c #B07972",
")@	c #B67C78",
"!@	c #C38882",
"~@	c #C98C87",
"{@	c #C3877F",
"]@	c #C07F79",
"^@	c #C18178",
"/@	c #BE7B73",
"(@	c #C37F76",
"_@	c #CD877F",
":@	c #C8827A",
"<@	c #C27972",
"[@	c #B46B64",
"}@	c #D78E85",
"|@	c #E09A90",
"1@	c #DD9B8D",
"2@	c #AE7466",
"3@	c #D29E91",
"4@	c #C99E95",
"5@	c #9E7D76",
"6@	c #180000",
"7@	c #807271",
"8@	c #B8B2B2",
"9@	c #130000",
"0@	c #C09994",
"a@	c #B8837D",
"b@	c #8E524A",
"c@	c #9F6456",
"d@	c #A06D5A",
"e@	c #AD806D",
"f@	c #BE988D",
"g@	c #AA857D",
"h@	c #9E7772",
"i@	c #A07972",
"j@	c #A17872",
"k@	c #976E68",
"l@	c #966964",
"m@	c #9C6D67",
"n@	c #9F6E67",
"o@	c #9A685F",
"p@	c #9F6A62",
"q@	c #A36C65",
"r@	c #A76E65",
"s@	c #9D625A",
"t@	c #B87E73",
"u@	c #BB7F74",
"v@	c #BE8073",
"w@	c #9A5E53",
"x@	c #E8B2A8",
"y@	c #BD9188",
"z@	c #A98680",
"A@	c #8A7C7B",
"B@	c #BCB6B6",
"C@	c #C69F9A",
"D@	c #C29089",
"E@	c #AD726A",
"F@	c #C3897B",
"G@	c #CC9986",
"H@	c #D1AB98",
"I@	c #B69B92",
"J@	c #94817B",
"K@	c #836E69",
"L@	c #86716C",
"M@	c #89746F",
"N@	c #816965",
"O@	c #7D6460",
"P@	c #846864",
"Q@	c #73544F",
"R@	c #75544D",
"S@	c #825D57",
"T@	c #855E57",
"U@	c #885D56",
"V@	c #845751",
"W@	c #B1857C",
"X@	c #CA988F",
"Y@	c #C5897F",
"Z@	c #92564B",
"`@	c #BF897F",
" #	c #BF928C",
".#	c #9B7874",
"+#	c #200703",
"@#	c #7E6E6E",
"##	c #BFB6B7",
"$#	c #D4AFA9",
"%#	c #D8A69F",
"&#	c #D79C94",
"*#	c #E5AD9E",
"=#	c #E9B9A5",
"-#	c #E1BEAB",
";#	c #9C8D86",
">#	c #7C7877",
",#	c #74706F",
"'#	c #858180",
")#	c #8D8988",
"!#	c #7C7774",
"~#	c #69615F",
"{#	c #645A58",
"]#	c #766867",
"^#	c #655653",
"/#	c #614E4A",
"(#	c #624A46",
"_#	c #674B47",
":#	c #593C38",
"<#	c #73524D",
"[#	c #7A514B",
"}#	c #8F564D",
"|#	c #75392F",
"1#	c #7C453E",
"2#	c #5F322C",
"3#	c #3C1915",
"4#	c #210804",
"5#	c #877777",
"6#	c #B5ACAD",
"7#	c #100100",
"8#	c #E3BEB8",
"9#	c #EAB8B1",
"0#	c #F2B7AF",
"a#	c #F5BDAE",
"b#	c #F0C0AC",
"c#	c #D9B8A7",
"d#	c #9A8F8D",
"e#	c #808186",
"f#	c #838489",
"g#	c #9C9DA2",
"h#	c #A0A1A6",
"i#	c #7C7D82",
"j#	c #525156",
"k#	c #3D3B40",
"l#	c #3A3438",
"m#	c #5C5356",
"n#	c #8A7E82",
"o#	c #968687",
"p#	c #836F70",
"q#	c #685050",
"r#	c #917574",
"s#	c #B28C8B",
"t#	c #B7827C",
"u#	c #864B43",
"v#	c #CF9A94",
"w#	c #A87B76",
"x#	c #120000",
"y#	c #847474",
"z#	c #BFB7B5",
"A#	c #140300",
"B#	c #E9C2BD",
"C#	c #EFBDB6",
"D#	c #F1B6AE",
"E#	c #F4BAAC",
"F#	c #F2BFAC",
"G#	c #DFBBAD",
"H#	c #938386",
"I#	c #8F8997",
"J#	c #A29CAA",
"K#	c #A19DAB",
"L#	c #A6A2B1",
"M#	c #8A8896",
"N#	c #3E3A49",
"O#	c #373341",
"P#	c #372F3C",
"Q#	c #695D69",
"R#	c #91818E",
"S#	c #9D8994",
"T#	c #927B85",
"U#	c #775C65",
"V#	c #9D7E86",
"W#	c #B1888E",
"X#	c #BD8A87",
"Y#	c #864F48",
"Z#	c #CA9994",
"`#	c #AF8682",
" $	c #866462",
".$	c #1C0402",
"+$	c #8D7D7D",
"@$	c #BBB3B1",
"#$	c #0E0000",
"$$	c #DFB8B3",
"%$	c #E8B3AD",
"&$	c #EEB2AA",
"*$	c #F4B9AB",
"=$	c #F3BEAC",
"-$	c #E0BAAD",
";$	c #A28D94",
">$	c #887D8E",
",$	c #9990A1",
"'$	c #A69FB1",
")$	c #A39EB2",
"!$	c #7A778A",
"~$	c #373447",
"{$	c #393649",
"]$	c #383445",
"^$	c #42394A",
"/$	c #8D8091",
"($	c #A291A1",
"_$	c #9C8595",
":$	c #553B48",
"<$	c #9F808F",
"[$	c #B7929A",
"}$	c #CD9D9B",
"|$	c #67352E",
"1$	c #D9ACA7",
"2$	c #B7908B",
"3$	c #876A66",
"4$	c #837574",
"5$	c #C0B8B6",
"6$	c #150200",
"7$	c #E3BAB6",
"8$	c #E9B2AD",
"9$	c #F0B1AA",
"0$	c #F8BAAD",
"a$	c #FAC2B1",
"b$	c #E9BFB3",
"c$	c #A18C91",
"d$	c #7C7181",
"e$	c #8E8596",
"f$	c #9894A5",
"g$	c #9693A6",
"h$	c #7A7B8D",
"i$	c #4E5164",
"j$	c #484B5E",
"k$	c #3C3D4F",
"l$	c #666577",
"m$	c #4D495A",
"n$	c #5E5665",
"o$	c #6F6170",
"p$	c #695463",
"q$	c #5E4855",
"r$	c #6F5159",
"s$	c #7E5553",
"t$	c #764943",
"u$	c #502721",
"v$	c #3B1814",
"w$	c #311511",
"x$	c #8E837F",
"y$	c #B4AFAC",
"z$	c #140000",
"A$	c #E1B5B2",
"B$	c #E3A8A4",
"C$	c #E6A39D",
"D$	c #F0AEA2",
"E$	c #F9BEAE",
"F$	c #EEC2B5",
"G$	c #C9B0B4",
"H$	c #887C86",
"I$	c #8E8391",
"J$	c #97919F",
"K$	c #8F8E9C",
"L$	c #747786",
"M$	c #5F6774",
"N$	c #5A6171",
"O$	c #676E7E",
"P$	c #383E4C",
"Q$	c #747685",
"R$	c #7F7D8A",
"S$	c #827A87",
"T$	c #443844",
"U$	c #AF9FAA",
"V$	c #C7B0B6",
"W$	c #D0ADAB",
"X$	c #603731",
"Y$	c #EEC9C3",
"Z$	c #C6A7A2",
"`$	c #9C8480",
" %	c #150300",
".%	c #857C77",
"+%	c #B3AEAA",
"@%	c #160000",
"#%	c #E5B5B3",
"$%	c #E2A5A2",
"%%	c #E09995",
"&%	c #EAA49A",
"*%	c #FBBCAD",
"=%	c #F9C8BA",
"-%	c #E5C7C7",
";%	c #8E7E81",
">%	c #877C82",
",%	c #938C93",
"'%	c #8E8D95",
")%	c #6D717A",
"!%	c #717A83",
"~%	c #76838B",
"{%	c #6F7C85",
"]%	c #4B555E",
"^%	c #818892",
"/%	c #74777E",
"(%	c #6E6B72",
"_%	c #463F46",
":%	c #C1B6BC",
"<%	c #D1BEC0",
"[%	c #DCBDBA",
"}%	c #4E2B25",
"|%	c #DEC0B8",
"1%	c #BFA49D",
"2%	c #A3908A",
"3%	c #857E78",
"4%	c #C2BFBA",
"5%	c #1F0300",
"6%	c #EDBBBA",
"7%	c #E6A5A3",
"8%	c #DB908D",
"9%	c #DE948B",
"0%	c #EBA79A",
"a%	c #ECB4A7",
"b%	c #E4BCBA",
"c%	c #B19496",
"d%	c #AA9194",
"e%	c #958284",
"f%	c #8F8488",
"g%	c #827D83",
"h%	c #94959A",
"i%	c #858A90",
"j%	c #8D9298",
"k%	c #565B61",
"l%	c #929398",
"m%	c #858388",
"n%	c #8B8287",
"o%	c #4A3E42",
"p%	c #BFB0B3",
"q%	c #C8B4B5",
"r%	c #C5A8A4",
"s%	c #4B2D25",
"t%	c #E6CBC4",
"u%	c #B7A09A",
"v%	c #A08F88",
"w%	c #080000",
"x%	c #7D7874",
"y%	c #B1B0AB",
"z%	c #1C0000",
"A%	c #EBB8B7",
"B%	c #E5A1A0",
"C%	c #D58785",
"D%	c #D0817A",
"E%	c #D38D81",
"F%	c #D09285",
"G%	c #CB918F",
"H%	c #B98788",
"I%	c #B98D8E",
"J%	c #946D70",
"K%	c #87686D",
"L%	c #745B5F",
"M%	c #85747A",
"N%	c #70636A",
"O%	c #72676D",
"P%	c #6E6369",
"Q%	c #5A4B52",
"R%	c #514046",
"S%	c #654E54",
"T%	c #51363B",
"U%	c #614247",
"V%	c #533334",
"W%	c #472A26",
"X%	c #331811",
"Y%	c #29100B",
"Z%	c #23160E",
"`%	c #0A0100",
" &	c #908D88",
".&	c #B2B3AD",
"+&	c #F1C1BF",
"@&	c #EFAFAD",
"#&	c #E29895",
"$&	c #DE9189",
"%&	c #DF978B",
"&&	c #D9958A",
"*&	c #DB9A96",
"=&	c #BF8281",
"-&	c #D39B9A",
";&	c #DCA8AA",
">&	c #D8ACAD",
",&	c #9F787B",
"'&	c #B7979A",
")&	c #CEB1B5",
"!&	c #C9AFB2",
"~&	c #6A4F54",
"{&	c #E2C8CB",
"]&	c #E7CACE",
"^&	c #D8B8BB",
"/&	c #603D41",
"(&	c #F1CACD",
"_&	c #E7C1C0",
":&	c #E7C6BF",
"<&	c #290D02",
"[&	c #D3B8AF",
"}&	c #AE9A91",
"|&	c #7C6D66",
"1&	c #110801",
"2&	c #7D7872",
"3&	c #E9C4BE",
"4&	c #EDBCB5",
"5&	c #DE9F98",
"6&	c #CE8A7F",
"7&	c #DD9587",
"8&	c #DE988C",
"9&	c #DE9B95",
"0&	c #A66966",
"a&	c #DFA4A0",
"b&	c #D69C9A",
"c&	c #D59F9D",
"d&	c #8F5E5A",
"e&	c #D9ACA9",
"f&	c #D8ACAB",
"g&	c #E0B8B8",
"h&	c #704A49",
"i&	c #E6BFC0",
"j&	c #EAC6C6",
"k&	c #DAB6B6",
"l&	c #512D2D",
"m&	c #EECACA",
"n&	c #E4BEBB",
"o&	c #E7C1B6",
"p&	c #2D0900",
"q&	c #D3B3A6",
"r&	c #B3988D",
"s&	c #958178",
"t&	c #877E79",
"u&	c #B8B4B1",
"v&	c #F9DBD3",
"w&	c #EABFB6",
"x&	c #E4AEA2",
"y&	c #B7776B",
"z&	c #E29A8C",
"A&	c #E9A193",
"B&	c #E5A29A",
"C&	c #90514A",
"D&	c #CB8F87",
"E&	c #E6ABA3",
"F&	c #CF948E",
"G&	c #814A43",
"H&	c #D09B95",
"I&	c #D7A59E",
"J&	c #D0A19B",
"K&	c #61342F",
"L&	c #DCB0AD",
"M&	c #DEB5B1",
"N&	c #E2BAB8",
"O&	c #401A17",
"P&	c #E0BAB7",
"Q&	c #F2CBC4",
"R&	c #ECC5B6",
"S&	c #2C0500",
"T&	c #C5A193",
"U&	c #B29587",
"V&	c #8F796E",
"W&	c #1B0D04",
"X&	c #7F7671",
"Y&	c #B9B4B1",
"Z&	c #170400",
"`&	c #C9ACA4",
" *	c #DDB5AB",
".*	c #BC887B",
"+*	c #C58A7A",
"@*	c #C07D6D",
"#*	c #B57061",
"$*	c #AD6D61",
"%*	c #A86A5F",
"&*	c #894D42",
"**	c #975D51",
"=*	c #82483D",
"-*	c #814B3F",
";*	c #733F34",
">*	c #6B392E",
",*	c #512117",
"'*	c #6F4036",
")*	c #491D14",
"!*	c #42170E",
"~*	c #41160F",
"{*	c #2E0600",
"]*	c #270000",
"^*	c #340C04",
"/*	c #1F0000",
"(*	c #210000",
"_*	c #2B0A00",
":*	c #1D0100",
"<*	c #938A85",
"[*	c #170600",
"}*	c #FFE5DA",
"|*	c #EBBCAC",
"1*	c #BB8372",
"2*	c #F5B6A5",
"3*	c #F9B7A7",
"4*	c #ECAE9F",
"5*	c #935848",
"6*	c #F1B8A7",
"7*	c #F1B7A9",
"8*	c #DFA798",
"9*	c #733E2E",
"0*	c #DFAB9D",
"a*	c #DDAC9D",
"b*	c #ECBCAE",
"c*	c #3A0C00",
"d*	c #D9ADA0",
"e*	c #E3B7AA",
"f*	c #DBB1A5",
"g*	c #2D0300",
"h*	c #E3B8AF",
"i*	c #D6AEA2",
"j*	c #DDB6A7",
"k*	c #2A0500",
"l*	c #CFADA1",
"m*	c #B89C91",
"n*	c #9A837B",
"o*	c #0B0000",
"p*	c #7C736E",
"q*	c #BDB9B6",
"r*	c #ECD4C8",
"s*	c #F8D7C8",
"t*	c #F9CEBD",
"u*	c #BA8774",
"v*	c #F1B8A5",
"w*	c #FFC7B3",
"x*	c #915D48",
"y*	c #F7C3AE",
"z*	c #F5C0AE",
"A*	c #F1BEAB",
"B*	c #6E3E2A",
"C*	c #E1B09F",
"D*	c #E1B2A0",
"E*	c #DDAE9E",
"F*	c #4D1F0F",
"G*	c #ECC1B1",
"H*	c #D9AE9E",
"I*	c #DAAF9F",
"J*	c #310700",
"K*	c #DFB5A7",
"L*	c #D7B0A1",
"M*	c #E4C4B9",
"N*	c #BFA29A",
"O*	c #9B847E",
"P*	c #170803",
"Q*	c #8A807E",
"R*	c #BAB6B3",
"S*	c #130500",
"T*	c #F6E0D3",
"U*	c #E6C9B9",
"V*	c #E3BEAC",
"W*	c #AE816E",
"X*	c #F4C4AE",
"Y*	c #F6C3AE",
"Z*	c #ECBCA6",
"`*	c #90624B",
" =	c #F2C4AD",
".=	c #EBBCA8",
"+=	c #E5B8A3",
"@=	c #71442F",
"#=	c #DDB39D",
"$=	c #DDB29F",
"%=	c #E0B5A2",
"&=	c #3C1301",
"*=	c #DDB4A2",
"==	c #DAB19F",
"-=	c #D0A696",
";=	c #D0A998",
">=	c #D3AC9D",
",=	c #E4BEB1",
"'=	c #190000",
")=	c #C9ABA1",
"!=	c #8B7770",
"~=	c #150601",
"{=	c #7B7370",
"]=	c #1B1105",
"^=	c #BEAC9E",
"/=	c #C6AC9B",
"(=	c #997A66",
"_=	c #8F6B55",
":=	c #A07761",
"<=	c #89604A",
"[=	c #7E5841",
"}=	c #704C34",
"|=	c #78543C",
"1=	c #65412B",
"2=	c #411D07",
"3=	c #57331D",
"4=	c #4A2512",
"5=	c #3D1805",
"6=	c #2A0700",
"7=	c #310E00",
"8=	c #2F0C00",
"9=	c #2A0600",
"0=	c #270300",
"a=	c #1D0000",
"b=	c #30130B",
"c=	c #200700",
"d=	c #0F0100",
"e=	c #918986",
"f=	c #AEADA9",
"g=	c #F4E7D7",
"h=	c #E2CFBE",
"i=	c #EBD2BE",
"j=	c #866A54",
"k=	c #E7C7B2",
"l=	c #F7D7C0",
"m=	c #F3D7C1",
"n=	c #624732",
"o=	c #EFD4BF",
"p=	c #F8DDC8",
"q=	c #EACFBC",
"r=	c #4C311E",
"s=	c #E7CCB9",
"t=	c #F0D3C1",
"u=	c #F3D6C4",
"v=	c #220500",
"w=	c #EDD0C0",
"x=	c #DFC2B2",
"y=	c #E8CBBD",
"z=	c #1B0000",
"A=	c #E1C4B6",
"B=	c #E2C5B7",
"C=	c #E2C4BA",
"D=	c #210400",
"E=	c #DDC2BB",
"F=	c #BEA7A1",
"G=	c #A18F8B",
"H=	c #807B77",
"I=	c #B9B8B4",
"J=	c #090300",
"K=	c #ECE0D2",
"L=	c #DECEBF",
"M=	c #CBB8A7",
"N=	c #735D48",
"O=	c #C4AB97",
"P=	c #D5BCA8",
"Q=	c #CBB9A5",
"R=	c #3E2D1B",
"S=	c #D5C4B4",
"T=	c #D0BFAF",
"U=	c #C6B5A5",
"V=	c #301F0F",
"W=	c #CCB9AA",
"X=	c #CAB7A8",
"Y=	c #140100",
"Z=	c #C3B0A2",
"`=	c #D0BDAF",
" -	c #BEA89D",
".-	c #170100",
"+-	c #C6B0A5",
"@-	c #C4AEA3",
"#-	c #C8ADA6",
"$-	c #C6AEAA",
"%-	c #AE9B97",
"&-	c #9C8D8A",
"*-	c #140A08",
"=-	c #827D7A",
"--	c #B6B5B1",
";-	c #0F0800",
">-	c #DCD4C9",
",-	c #C6BAAC",
"'-	c #AA9D8D",
")-	c #564636",
"!-	c #AE9D8B",
"~-	c #A49484",
"{-	c #A79B8D",
"]-	c #362E21",
"^-	c #A59D90",
"/-	c #978F82",
"(-	c #AFA79C",
"_-	c #2A2014",
":-	c #998F85",
"<-	c #A3998D",
"[-	c #A4978E",
"}-	c #1A0D04",
"|-	c #93867D",
"1-	c #9E9087",
"2-	c #A4968D",
"3-	c #92847B",
"4-	c #9E8D86",
"5-	c #9C8782",
"6-	c #1D0805",
"7-	c #A89692",
"8-	c #988986",
"9-	c #9B908E",
"0-	c #797572",
"a-	c #B9B9B7",
"b-	c #040000",
"c-	c #120B03",
"d-	c #110A00",
"e-	c #0D0500",
"f-	c #070000",
"g-	c #030000",
"h-	c #0E0B02",
"i-	c #080500",
"j-	c #0F0A04",
"k-	c #080400",
"l-	c #0C0500",
"m-	c #0E0701",
"n-	c #1B120D",
"o-	c #120904",
"p-	c #110602",
"q-	c #160704",
"r-	c #150704",
"s-	c #0E0603",
"t-	c #0C0704",
"u-	c #797876",
"v-	c #BDBDBB",
"w-	c #B4B1AA",
"x-	c #817D74",
"y-	c #88847B",
"z-	c #7B776E",
"A-	c #848178",
"B-	c #80817B",
"C-	c #82837E",
"D-	c #7F807B",
"E-	c #7A7B76",
"F-	c #878883",
"G-	c #83827E",
"H-	c #807F7B",
"I-	c #82817D",
"J-	c #7E7D79",
"K-	c #87847F",
"L-	c #7D7976",
"M-	c #7C7974",
"N-	c #85807D",
"O-	c #86817D",
"P-	c #7D7875",
"Q-	c #847C79",
"R-	c #827877",
"S-	c #8E8482",
"T-	c #736B69",
"U-	c #928A88",
"V-	c #7C7875",
"W-	c #888886",
"X-	c #ADADAB",
"Y-	c #A9A8A4",
"Z-	c #BCBDB8",
"`-	c #B6B7B2",
" ;	c #B2B4AF",
".;	c #B3B5B2",
"+;	c #AEB0AD",
"@;	c #ADAFAC",
"#;	c #B0B2AF",
"$;	c #B4B6B3",
"%;	c #AFAFAD",
"&;	c #AEAEAC",
"*;	c #B2B2B0",
"=;	c #B5B5B3",
"-;	c #B8B7B3",
";;	c #B8B7B5",
">;	c #C0BCBB",
",;	c #B7B3B0",
"';	c #B7B3B2",
");	c #B9B5B2",
"!;	c #C2BCBC",
"~;	c #B7B2AF",
"{;	c #B8B4B3",
"];	c #B4B0AF",
"^;	c #BDBCBA",
"/;	c #B1B1AF",
"(;	c #B7B9B6",
". + @ # $ % & * = - - - - ; ; > > , , ' ) ! ~ { ] ^ / ( _     ",
": < [ } | 1 2 3 4 5 5 5 3 6 6 7 7 8 9 0 a b c d e f g h i     ",
"j k l 3 m n o p q r s t u v w x y z A B C D E F G H I J K L M ",
"N O P Q R S T U U V U W X Y Z `  ...+.@.#.$.%.&.*.=.-.;.>.,.'.",
").!.~.{.].^./.(._.:.:.<.[.}.|.1.2.2.3.3.4.5.6.7.8.9.0.a.b.c.d.",
"e.1 f.g.h.i.j.k.l.m.m.n.o.p.q.r.s.s.t.u.v.w.x.y.z.A.B.C.~ D.E.",
"F.G.H.I.J.K.L.M.N.O.P.Q.R.S.T.U.V.W.X.Y.Z.`. +.+++@+#+$+%+&+*+",
"=+-+;+>+,+'+)+s.!+~+t.{+]+^+/+(+_+`.:+<+[+}+|+1+2+3+4+5+6+7+8+",
"9+0+a+b+c+d+e+f+g+h+i+j+k+l+m+n+o+p+q+r+s+t+u+v+w+x+y+z+%+A+B+",
"C+D+E+F+G+H+I+J+K+L+M+N+O+P+Q+R+S+T+U+V+W+X+Y+Z+`+ @.@+@@@#@$@",
"%@&@*@=@-@;@>@,@'@)@!@~@{@]@^@/@(@_@:@<@[@}@|@1@2@3@4@5@6@7@8@",
"9@0@a@b@c@d@e@f@g@h@i@j@k@l@m@n@o@p@q@r@s@t@u@v@w@x@y@z@~ A@B@",
"%+C@D@E@F@G@H@I@J@K@L@M@N@O@P@Q@R@S@T@U@V@W@X@Y@Z@`@ #.#+#@###",
").$#%#&#*#=#-#;#>#,#'#)#!#~#{#]#^#/#(#_#:#<#[#}#|#1#2#3#4#5#6#",
"7#8#9#0#a#b#c#d#e#f#g#h#i#j#k#l#m#n#o#p#q#r#s#t#u#v#w#.#x#y#z#",
"A#B#C#D#E#F#G#H#I#J#K#L#M#N#O#P#Q#R#S#T#U#V#W#X#Y#Z#`# $.$+$@$",
"#$$$%$&$*$=$-$;$>$,$'$)$!$~${$]$^$/$($_$:$<$[$}$|$1$2$3$%+4$5$",
"6$7$8$9$0$a$b$c$d$e$f$g$h$i$j$k$l$m$n$o$p$q$r$s$t$u$v$w$x#x$y$",
"z$A$B$C$D$E$F$G$H$I$J$K$L$M$N$O$P$Q$R$S$T$U$V$W$X$Y$Z$`$ %.%+%",
"@%#%$%%%&%*%=%-%;%>%,%'%)%!%~%{%]%^%/%(%_%:%<%[%}%|%1%2%& 3%4%",
"5%6%7%8%9%0%a%b%c%d%e%f%g%h%i%j%k%l%m%n%o%p%q%r%s%t%u%v%w%x%y%",
"z%A%B%C%D%E%F%G%H%I%J%K%L%M%N%O%P%Q%R%S%T%U%V%W%X%Y%%@Z%`% &.&",
"5%+&@&#&$&%&&&*&=&-&;&>&,&'&)&!&~&{&]&^&/&(&_&:&<&[&}&|&1&2&'.",
"x#3&4&5&6&7&8&9&0&a&b&c&d&e&f&g&h&i&j&k&l&m&n&o&p&q&r&s&; t&u&",
"b.v&w&x&y&z&A&B&C&D&E&F&G&H&I&J&K&L&M&N&O&P&Q&R&S&T&U&V&W&X&Y&",
"Z&`& *.*+*@*#*$*%*&***=*-*;*>*,*'*)*!*~*{*]*^*/*(*_*:*z$' <*8+",
"[*}*G |*1*2*3*4*5*6*7*8*9*0*a*b*c*d*e*f*g*h*i*j*k*l*m*n*o*p*q*",
"b.r*s*t*u*v*w*T.x*y*z*A*B*C*D*E*F*G*H*I*J*K*j*L*z%M*N*O*P*Q*R*",
"S*T*U*V*W*X*Y*Z*`* =.=+=@=#=$=%=&=*===-=g*;=>=,='=)=I@!=~={=8+",
"]=^=/=(=_=:=<=[=}=|=1=1=2=3=4=5=6=7=8=9=(*0=9=a=6@b=c=x#d=e=f=",
"w%g=h=i=j=k=l=m=n=o=p=q=r=s=t=u=v=w=x=y=z=A=B=C=D=E=F=G=K H=I=",
"J=K=L=M=N=O=P=Q=R=S=T=U=V=U=W=X=Y=Z=`= -.-+-@-#-x#$-%-&-*-=---",
";->-,-'-)-!-~-{-]-^-/-(-_-:-<-[-}-|-1-2->.3-4-5-6-7-8-9-@ 0-a-",
"b-c-d-e-w%- f-b-g-h-i-g-b-j-k-l-j m-n-f-f-o-p-q-o*r-o*s-t-u-v-",
"    w-x-y-z-A-B-C-D-E-F-G-H-I-J-K-L-M-N-O-P-Q-R-S-T-U-P-V-W-X-",
"    Y-Z-`-Z- ;.;+;@;#;$;%;&;*;=;-;;;f=>;,;';);!;~;{;];^;/;=;(;"};
