/* XPM */
static char * socket_xpm[] = {
"44 28 6 1",
" 	c #CCCCDDDDE0E0",
".	c #000000000000",
"X	c None",
"o	c #FFFFFFFFFFFF",
"O	c #9D9D9B9B9E9E",
"+	c #9E9E9E9E9E9E",
"    .XXXXXXXXXXXXXXXXXXXXXXXXXXXXXXXXXXXXXXX",
"    .XXXXXXXXXXXXXXXXXXXXXXXXXXXXXXXXXXXXXXX",
"    .XXXXXXXXXXXXXXXXXXXXXXXXXXXXXXXXXXXXXXX",
"    .XXXXXXXXXXXXXXXXXXXXXXXXXXXXXXXXXXXXXXX",
"    .XXXXXXXXXXXXXXXXXXXXXXXXXXXXXXXXXXXXXXX",
"    .XXXXXXXXXXXXXXXXXXXXXXXXXXXXXXXXXXXXXXX",
"    .XXXXXXXXXXXXXXXXXXXXXXXXXXXXXXXXXXXXXXX",
"   ....XXXXXXXXXXXXXXXXXXXXXXXXXXXXXXXXXXXXX",
"   .oo.XXXXXXXXXXXXXXXXXXXXXXXXXXXXXXXXXXXXX",
"   .oo.XXXXXXXXX...XXXXXXXXXXXXXXXXXXXXXXXXX",
"   .oo.XXXXXXXXX.O...XXXXXXXXXXXXXXXXXXXXXXX",
"   .oo.XX........OOO...XXXXXXXXXXXXXXXXXXXXX",
"   .oo.XX........OooOO........XXXXXXXXXXXXXX",
"   .oo.XXXXXXXXX.OOOooOOOOOOOO.XXXXXXXXXXXXX",
"   .oo.XXXXXXXXX.OOOOOooooooOO.....XXXXXXXXX",
"   .oo.XXXXXXXXX.OOOOOOOOOOOOO.++++..XXXXXXX",
"   .oo.XXXXXXXXX.OOOOOOOOOOOOO.....++..XXXXX",
"   .oo.XXXXXXXXX.OOOOOOOOOOOOO.XXXX..++.XXXX",
"   .oo.XX........OOOOO........XXXXXXX..+.XXX",
"   .oo.XX........OOO...XXXXXXXXXXXXXXXX.+.XX",
"   .oo.XXXXXXXXX.O...XXXXXXXXXXXXXXXXXX.+.XX",
"   .oo.XXXXXXXXX...XXXXXXXXXXXXXXXXXXXXX.+.X",
"   .oo.XXXXXXXXXXXXXXXXXXXXXXXXXXXXXXXXX.+.X",
"   ....XXXXXXXXXXXXXXXXXXXXXXXXXXXXXXXXX.+.X",
"    .XXXXXXXXXXXXXXXXXXXXXXXXXXXXXXXXXXX.+.X",
"    .XXXXXXXXXXXXXXXXXXXXXXXXXXXXXXXXXXX.+.X",
"    .XXXXXXXXXXXXXXXXXXXXXXXXXXXXXXXXXXX.+.X",
"    .XXXXXXXXXXXXXXXXXXXXXXXXXXXXXXXXXXX.+.X"};
