/* XPM */
static char * char_xpm[] = {
"48 48 221 2",
"  	c None",
". 	c #505050",
"+ 	c #464646",
"@ 	c #2E2E2E",
"# 	c #262626",
"$ 	c #2D2D2D",
"% 	c #010101",
"& 	c #000000",
"* 	c #363636",
"= 	c #303030",
"- 	c #141414",
"; 	c #070707",
"> 	c #060606",
", 	c #4C4C4C",
"' 	c #040404",
") 	c #252525",
"! 	c #9D9D9D",
"~ 	c #C7C7C7",
"{ 	c #D2D2D2",
"] 	c #C6C6C6",
"^ 	c #BFBFBF",
"/ 	c #A8A8A8",
"( 	c #585858",
"_ 	c #191919",
": 	c #050505",
"< 	c #353535",
"[ 	c #FCFCFC",
"} 	c #FFFFFF",
"| 	c #C4C4C4",
"1 	c #424242",
"2 	c #E9E9E9",
"3 	c #B4B4B4",
"4 	c #383838",
"5 	c #4A4A4A",
"6 	c #535353",
"7 	c #494949",
"8 	c #0F0F0F",
"9 	c #D4D4D4",
"0 	c #F1F1F1",
"a 	c #C5C5C5",
"b 	c #D3D3D3",
"c 	c #0D0D0D",
"d 	c #454545",
"e 	c #979797",
"f 	c #707070",
"g 	c #757575",
"h 	c #8D8D8D",
"i 	c #EDEDED",
"j 	c #2C2C2C",
"k 	c #606060",
"l 	c #373737",
"m 	c #3F3F3F",
"n 	c #545454",
"o 	c #808080",
"p 	c #797979",
"q 	c #515151",
"r 	c #333333",
"s 	c #A0A0A0",
"t 	c #FEFEFE",
"u 	c #F5F5F5",
"v 	c #DCDCDC",
"w 	c #ABABAB",
"x 	c #6E6E6E",
"y 	c #818181",
"z 	c #343434",
"A 	c #525252",
"B 	c #3C3C3C",
"C 	c #434343",
"D 	c #414141",
"E 	c #A7A7A7",
"F 	c #626262",
"G 	c #E6E6E6",
"H 	c #F4F4F4",
"I 	c #848484",
"J 	c #A6A6A6",
"K 	c #656565",
"L 	c #212121",
"M 	c #1C1C1C",
"N 	c #5C5C5C",
"O 	c #616161",
"P 	c #646464",
"Q 	c #747474",
"R 	c #737373",
"S 	c #6D6D6D",
"T 	c #0A0A0A",
"U 	c #AFAFAF",
"V 	c #0E0E0E",
"W 	c #E8E8E8",
"X 	c #ECECEC",
"Y 	c #B1B1B1",
"Z 	c #131313",
"` 	c #888888",
" .	c #565656",
"..	c #B5B5B5",
"+.	c #292929",
"@.	c #F0F0F0",
"#.	c #111111",
"$.	c #838383",
"%.	c #EBEBEB",
"&.	c #6C6C6C",
"*.	c #282828",
"=.	c #272727",
"-.	c #4E4E4E",
";.	c #595959",
">.	c #1B1B1B",
",.	c #B8B8B8",
"'.	c #F3F3F3",
").	c #020202",
"!.	c #4D4D4D",
"~.	c #878787",
"{.	c #090909",
"].	c #121212",
"^.	c #686868",
"/.	c #575757",
"(.	c #6F6F6F",
"_.	c #BDBDBD",
":.	c #1A1A1A",
"<.	c #6A6A6A",
"[.	c #C8C8C8",
"}.	c #323232",
"|.	c #D0D0D0",
"1.	c #030303",
"2.	c #898989",
"3.	c #DEDEDE",
"4.	c #3B3B3B",
"5.	c #636363",
"6.	c #C0C0C0",
"7.	c #BCBCBC",
"8.	c #7F7F7F",
"9.	c #2B2B2B",
"0.	c #A9A9A9",
"a.	c #CECECE",
"b.	c #7E7E7E",
"c.	c #8A8A8A",
"d.	c #858585",
"e.	c #B6B6B6",
"f.	c #3E3E3E",
"g.	c #CACACA",
"h.	c #242424",
"i.	c #313131",
"j.	c #B0B0B0",
"k.	c #A5A5A5",
"l.	c #C3C3C3",
"m.	c #A3A3A3",
"n.	c #9B9B9B",
"o.	c #161616",
"p.	c #DADADA",
"q.	c #DBDBDB",
"r.	c #5B5B5B",
"s.	c #777777",
"t.	c #5E5E5E",
"u.	c #F9F9F9",
"v.	c #484848",
"w.	c #101010",
"x.	c #7A7A7A",
"y.	c #7C7C7C",
"z.	c #828282",
"A.	c #202020",
"B.	c #080808",
"C.	c #D8D8D8",
"D.	c #C1C1C1",
"E.	c #232323",
"F.	c #696969",
"G.	c #5D5D5D",
"H.	c #969696",
"I.	c #7B7B7B",
"J.	c #959595",
"K.	c #CCCCCC",
"L.	c #E3E3E3",
"M.	c #DDDDDD",
"N.	c #D9D9D9",
"O.	c #BBBBBB",
"P.	c #2F2F2F",
"Q.	c #666666",
"R.	c #727272",
"S.	c #151515",
"T.	c #ACACAC",
"U.	c #8F8F8F",
"V.	c #1E1E1E",
"W.	c #919191",
"X.	c #EAEAEA",
"Y.	c #868686",
"Z.	c #909090",
"`.	c #D6D6D6",
" +	c #FBFBFB",
".+	c #E4E4E4",
"++	c #A4A4A4",
"@+	c #181818",
"#+	c #0B0B0B",
"$+	c #0A0A09",
"%+	c #D7D7D7",
"&+	c #8B8B8B",
"*+	c #555555",
"=+	c #434241",
"-+	c #555554",
";+	c #474746",
">+	c #5C5B5B",
",+	c #585755",
"'+	c #4F4F4F",
")+	c #6B6B6B",
"!+	c #5A5A5A",
"~+	c #989898",
"{+	c #E1E1E1",
"]+	c #A2A2A2",
"^+	c #F8F8F8",
"/+	c #171717",
"(+	c #ADADAD",
"_+	c #9F9F9F",
":+	c #404040",
"<+	c #E2E2E2",
"[+	c #B7B7B7",
"}+	c #8E8E8E",
"|+	c #9C9C9C",
"1+	c #717171",
"2+	c #AEAEAE",
"3+	c #474747",
"4+	c #393939",
"5+	c #BEBEBE",
"6+	c #1F1F1F",
"7+	c #2A2A2A",
"8+	c #E5E5E5",
"                                                                                                ",
"                                                                                                ",
"                                                                                                ",
"                                                                                                ",
"                                                                                                ",
"                                                                                                ",
"                                                                                                ",
"                                                                                                ",
"                                                                                                ",
"                                                                                                ",
"                                                    . . + @ # $ % & & &                         ",
"                  &   * = - ; > , * '           ) + ! ~ { ] ^ / ( > _ : & &                     ",
"                  & < [ } } } } } | ) &       - 1 2 } } } } } 3 4 ) 5 6 7 ' &                   ",
"                    8 9 } } 0 a } } b c       d e f g h i } 9 j k 7 l m 7 d ; &                 ",
"                    & n } } o p } } } q &   r s t u v w x y - z ( A , B C D q -                 ",
"                      ; } } d E F } } G ;   z H I J } } } K L   & M N O P Q R S T               ",
"                      & } i l } * U } [ V ( * t 7 W } } X # .     8 . A 6 N R Y Z               ",
"                      & } `  .v ..+.} @.#.+.$.%.&.} } } } _       8 D *.j =.z -.V               ",
"                      Z H + ;.d  .>.,.'.).- 3 } !.&.~.W } {.      ].^./.( (.,._.{.&             ",
"                      :.,.<.} } } [.}.|.& 1.2.} '.3.e h 3.>       :.k 4.z 5.&.6.L               ",
"                      M 7.} } } } } y 8.&   9.B 1 7.} } X 8     % ) r @ ^.0.~ a.Z               ",
"                    & M b.c.d.e.X } } f.        K @ j P g.h.    & -.].i.D !.g.j.8               ",
"                    & k.} } X l.2.m.n.&               7 -.o.    1.# f.;.f p.q.r.%               ",
"                    < } s.t.~.u.} X v.&                       w.;.d.x.y.z.{ q.A.&               ",
"                  B.C.y v.D.N n } | E.                      l F F.q 7 v.G.2.! 1.                ",
"                  4.X A.] @.H.A } < =                     E.I.J.K.L.M.N.O.e :.&                 ",
"                & { v.= ;.P.Q.q.i o.                    o.R.3.!.v N.P c.M.J.&                   ",
"              & S.T.9.0 @.P U.} y.V.                  & W.W } d i n J.N.X.V &                   ",
"              & Y.Z.F.` q @ `.} @                   &   N.} } A (.9 }  +, &                     ",
"              h..+@.3 I.++H } @.@+              ; w.#+$+  8.M.T.} } [ Q.1.                      ",
"              D %+o f c.Y v [ | Z             #+f.0.Y x.&+*+=+-+;+>+,+&                         ",
"            & '+@.K.m.b.Q 5.)+!+4.~+W.    & & r.{+.+]+~ .+^+} H p.,.:.                          ",
"              *+W } } @.W [ ^+6.h.5 * /+c ).j (+[ _+k.3 T.K.} } } h.'                           ",
"              $ [.`.4 l :+R.} X.j } H ^+<+] [+^.r 4 O (+v ^+} u.) %                             ",
"              & F.U x.H i J } ^+j }+c.x.y |+.+^+} 2 b.n 5.! %+V.%                               ",
"                % }.Z..+} } } } G.9.m.j.[.K.| C.} } } } } <.w.                                  ",
"                    %   1+2+ +} H 3+4+z.a X } } } } } X.* &                                     ",
"                            & V.$.5+6+].7+J   8+K.Z.}.).&                                       ",
"                                  & & & & & & V >.:                                             ",
"                                                                                                ",
"                                                                                                ",
"                                                                                                ",
"                                                                                                ",
"                                                                                                ",
"                                                                                                ",
"                                                                                                ",
"                                                                                                ",
"                                                                                                "};
