/* XPM */
static char * special_directory_xpm[] = {
"36 31 845 2",
"  	c None",
". 	c #465862",
"+ 	c #001021",
"@ 	c #00071C",
"# 	c #00041C",
"$ 	c #000E2B",
"% 	c #00031E",
"& 	c #4C5C73",
"* 	c #516772",
"= 	c #1C384D",
"- 	c #87A9C5",
"; 	c #8FB1D4",
"> 	c #89ABD1",
", 	c #96B7E0",
"' 	c #84A1C9",
") 	c #263E60",
"! 	c #40546C",
"~ 	c #374C5D",
"{ 	c #1F3B51",
"] 	c #85B0D2",
"^ 	c #6E9FC8",
"/ 	c #79A9D9",
"( 	c #6897CD",
"_ 	c #71A0D8",
": 	c #77A0D6",
"< 	c #7CA1CE",
"[ 	c #1F3D5F",
"} 	c #384E65",
"| 	c #334960",
"1 	c #3D5571",
"2 	c #7193B6",
"3 	c #659AC6",
"4 	c #71AEE4",
"5 	c #4987C4",
"6 	c #5994D6",
"7 	c #538CD1",
"8 	c #699FDF",
"9 	c #78A7DF",
"0 	c #7EA4D1",
"a 	c #1A3956",
"b 	c #496072",
"c 	c #535D67",
"d 	c #000313",
"e 	c #00142D",
"f 	c #193050",
"g 	c #879FC5",
"h 	c #88AEDB",
"i 	c #67A4DB",
"j 	c #529CDB",
"k 	c #5199E1",
"l 	c #5398E5",
"m 	c #61A4F2",
"n 	c #4B89D4",
"o 	c #639ADB",
"p 	c #84B3E7",
"q 	c #87ADD2",
"r 	c #1D3B53",
"s 	c #000F1D",
"t 	c #000410",
"u 	c #000413",
"v 	c #000215",
"w 	c #08142E",
"x 	c #00021C",
"y 	c #000D24",
"z 	c #000C21",
"A 	c #000C1F",
"B 	c #000D1E",
"C 	c #000B1B",
"D 	c #000713",
"E 	c #00030E",
"F 	c #4E555F",
"G 	c #4D565D",
"H 	c #273C51",
"I 	c #8BA6C3",
"J 	c #87A1C2",
"K 	c #93AFD6",
"L 	c #8AA9D7",
"M 	c #6D98CB",
"N 	c #5999D6",
"O 	c #519ADE",
"P 	c #5AA2EC",
"Q 	c #4F97E3",
"R 	c #5093E1",
"S 	c #65A5EF",
"T 	c #5C95D8",
"U 	c #699DD6",
"V 	c #75A1CE",
"W 	c #8DB3D7",
"X 	c #7D9FBA",
"Y 	c #94B2CC",
"Z 	c #95B0CD",
"` 	c #8CA7C5",
" .	c #829CC1",
"..	c #89A3C8",
"+.	c #829CBD",
"@.	c #819CBA",
"#.	c #829BBA",
"$.	c #829ABC",
"%.	c #7D9ABA",
"&.	c #7994B1",
"*.	c #758BA3",
"=.	c #718399",
"-.	c #101F34",
";.	c #435061",
">.	c #00020E",
",.	c #80AAD0",
"'.	c #74A6D7",
").	c #739CC8",
"!.	c #81A6D3",
"~.	c #7DA6DA",
"{.	c #6091CB",
"].	c #609CDA",
"^.	c #5D9DDD",
"/.	c #5E9DE0",
"(.	c #609DE0",
"_.	c #5F9CDD",
":.	c #609CDB",
"<.	c #629AD7",
"[.	c #6299D2",
"}.	c #70A3D8",
"|.	c #70A2D3",
"1.	c #70A0D0",
"2.	c #6D9DCD",
"3.	c #6B9BCC",
"4.	c #6897CB",
"5.	c #6695CB",
"6.	c #6395C8",
"7.	c #6292C0",
"8.	c #6190BC",
"9.	c #628CBE",
"0.	c #5D8AC1",
"a.	c #538BC4",
"b.	c #4C85BA",
"c.	c #4978A2",
"d.	c #476F93",
"e.	c #395980",
"f.	c #00173C",
"g.	c #051320",
"h.	c #77AAD9",
"i.	c #5997D0",
"j.	c #6492C4",
"k.	c #6791C1",
"l.	c #4D7CB2",
"m.	c #6C9FD8",
"n.	c #6598D1",
"o.	c #6699D2",
"p.	c #6798D0",
"q.	c #6998CE",
"r.	c #6998CC",
"s.	c #6997CB",
"t.	c #6997C9",
"u.	c #618FC1",
"v.	c #6090C1",
"w.	c #5E8DC1",
"x.	c #5B8DC2",
"y.	c #598AC2",
"z.	c #5689C0",
"A.	c #5588C1",
"B.	c #5388BE",
"C.	c #467EAD",
"D.	c #467CAB",
"E.	c #4775B0",
"F.	c #4376B5",
"G.	c #377BBC",
"H.	c #3579B6",
"I.	c #3872A0",
"J.	c #3B6A94",
"K.	c #315683",
"L.	c #000430",
"M.	c #03111E",
"N.	c #7BAEDD",
"O.	c #64A2DB",
"P.	c #6D9BCD",
"Q.	c #5C86B6",
"R.	c #0C3B71",
"S.	c #001549",
"T.	c #000F3E",
"U.	c #00103A",
"V.	c #001039",
"W.	c #001138",
"X.	c #001036",
"Y.	c #000E36",
"Z.	c #000E35",
"`.	c #000D36",
" +	c #000C35",
".+	c #000B36",
"++	c #001841",
"@+	c #00153F",
"#+	c #000F43",
"$+	c #000E48",
"%+	c #001551",
"&+	c #00174E",
"*+	c #00143F",
"=+	c #000F36",
"-+	c #000730",
";+	c #001941",
">+	c #001030",
",+	c #24323F",
"'+	c #000D1A",
")+	c #72A5D4",
"!+	c #63A1DA",
"~+	c #6896C8",
"{+	c #002A5A",
"]+	c #18477D",
"^+	c #79A8DE",
"/+	c #88B1DF",
"(+	c #8CB1DB",
"_+	c #8FB2DC",
":+	c #90B3DB",
"<+	c #92B3DC",
"[+	c #92B4DA",
"}+	c #93B3DA",
"|+	c #93B3D9",
"1+	c #96B6DD",
"2+	c #95B5DC",
"3+	c #94B4DB",
"4+	c #88B2DC",
"5+	c #81B2DB",
"6+	c #7EAEDC",
"7+	c #7EA7DD",
"8+	c #78A6E2",
"9+	c #6DAAE9",
"0+	c #6BACE6",
"a+	c #72A8D6",
"b+	c #78A5CF",
"c+	c #789CCC",
"d+	c #809FCD",
"e+	c #557397",
"f+	c #192B3F",
"g+	c #595A52",
"h+	c #000B18",
"i+	c #84B7E6",
"j+	c #69A7E0",
"k+	c #5886B8",
"l+	c #001D4D",
"m+	c #76A5DB",
"n+	c #6B9FD8",
"o+	c #6FA7E0",
"p+	c #6DA8E0",
"q+	c #71A9E2",
"r+	c #73ACE3",
"s+	c #75ACE4",
"t+	c #78ADE3",
"u+	c #79ACE3",
"v+	c #7AADE2",
"w+	c #78ABE2",
"x+	c #76ABE1",
"y+	c #74A9DF",
"z+	c #70A7DF",
"A+	c #6DA6DD",
"B+	c #6BA3DC",
"C+	c #67A2DA",
"D+	c #66A3DA",
"E+	c #65A4DA",
"F+	c #659CDD",
"G+	c #5F9AE0",
"H+	c #529CE5",
"I+	c #4C9BE0",
"J+	c #5196CF",
"K+	c #5592C9",
"L+	c #4F83BF",
"M+	c #5687C2",
"N+	c #4979AA",
"O+	c #446888",
"P+	c #000D11",
"Q+	c #000815",
"R+	c #71A4D3",
"S+	c #5C9AD3",
"T+	c #000737",
"U+	c #81B0E6",
"V+	c #81B7F3",
"W+	c #5999D7",
"X+	c #579BDA",
"Y+	c #599DDC",
"Z+	c #5D9FDC",
"`+	c #60A0DE",
" @	c #63A1DE",
".@	c #64A2DF",
"+@	c #64A2DD",
"@@	c #66A2DE",
"#@	c #62A0DD",
"$@	c #5D9DDB",
"%@	c #599BD8",
"&@	c #5599D8",
"*@	c #5296D5",
"=@	c #5195D4",
"-@	c #4A8FCA",
";@	c #4C8ECA",
">@	c #4F8ACE",
",@	c #4A88D1",
"'@	c #3D8BD6",
")@	c #3688D1",
"!@	c #3A84C1",
"~@	c #3E80BC",
"{@	c #518CCE",
"]@	c #3A71B2",
"^@	c #3E75AE",
"/@	c #17436A",
"(@	c #00141F",
"_@	c #89BCEB",
":@	c #67A5DE",
"<@	c #5F8DBF",
"[@	c #000838",
"}@	c #89B8EE",
"|@	c #467DB6",
"1@	c #4E8CC9",
"2@	c #4C8ECB",
"3@	c #4E90CD",
"4@	c #5292CF",
"5@	c #5694CF",
"6@	c #5996CF",
"7@	c #5A97D0",
"8@	c #5994CE",
"9@	c #5794CD",
"0@	c #5591CD",
"a@	c #518FCA",
"b@	c #4C8CC9",
"c@	c #488AC7",
"d@	c #4688C5",
"e@	c #4686C3",
"f@	c #4384BC",
"g@	c #4683BA",
"h@	c #4B7EBF",
"i@	c #467CC2",
"j@	c #387EC6",
"k@	c #327DC1",
"l@	c #357AB3",
"m@	c #3B78B1",
"n@	c #3067A8",
"o@	c #3669AA",
"p@	c #3C70A9",
"q@	c #295477",
"r@	c #000F16",
"s@	c #000310",
"t@	c #62A0D9",
"u@	c #5E8DC3",
"v@	c #4276B0",
"w@	c #3873AD",
"x@	c #3875AE",
"y@	c #3E79B1",
"z@	c #437CB3",
"A@	c #457EB5",
"B@	c #477EB4",
"C@	c #487FB5",
"D@	c #457CB4",
"E@	c #427BB2",
"F@	c #3D78B0",
"G@	c #3A77B0",
"H@	c #3874B0",
"I@	c #3774AD",
"J@	c #3574AA",
"K@	c #3671A9",
"L@	c #3A6CAB",
"M@	c #3368AC",
"N@	c #2569B0",
"O@	c #1F68AC",
"P@	c #2567A1",
"Q@	c #2A67A0",
"R@	c #2C63A6",
"S@	c #255A9C",
"T@	c #2F669F",
"U@	c #295379",
"V@	c #00050C",
"W@	c #000714",
"X@	c #5D8BBD",
"Y@	c #000D3D",
"Z@	c #86B5EB",
"`@	c #7AADE6",
" #	c #82B7ED",
".#	c #83B8EC",
"+#	c #86B9EE",
"@#	c #88BCEE",
"##	c #8BBDEE",
"$#	c #8FBFF0",
"%#	c #91BFF0",
"&#	c #8FBDEE",
"*#	c #8DBDED",
"=#	c #8BBBEC",
"-#	c #88BAEB",
";#	c #86BAEC",
">#	c #84B8EA",
",#	c #80B5E9",
"'#	c #7AB3E8",
")#	c #78B7ED",
"!#	c #76B4EF",
"~#	c #7AADEE",
"{#	c #75ABF1",
"]#	c #68AEF6",
"^#	c #63AEF2",
"/#	c #64AAE6",
"(#	c #66A6E3",
"_#	c #68A4EA",
":#	c #6AA5EB",
"<#	c #5F99D8",
"[#	c #416E98",
"}#	c #000E19",
"|#	c #5B89BB",
"1#	c #000B3B",
"2#	c #82B1E7",
"3#	c #74A8E1",
"4#	c #6FA6DE",
"5#	c #6FA8DF",
"6#	c #72A9E1",
"7#	c #75ACE2",
"8#	c #79AEE4",
"9#	c #7BAEE3",
"0#	c #7DAFE4",
"a#	c #7EB0E3",
"b#	c #7CAEE3",
"c#	c #78ABE0",
"d#	c #75AAE0",
"e#	c #72A9DF",
"f#	c #6CA5DC",
"g#	c #66A3DC",
"h#	c #5FA5E1",
"i#	c #5DA2E3",
"j#	c #619CE2",
"k#	c #5E99E5",
"l#	c #509CE8",
"m#	c #4C9CE5",
"n#	c #4E99DA",
"o#	c #4E95D7",
"p#	c #498EDB",
"q#	c #488BD9",
"r#	c #3D80C6",
"s#	c #285C8C",
"t#	c #000716",
"u#	c #619FD8",
"v#	c #5987B9",
"w#	c #000939",
"x#	c #7EADE3",
"y#	c #6BA3DE",
"z#	c #5899DB",
"A#	c #559BE0",
"B#	c #589DE2",
"C#	c #5A9FE2",
"D#	c #5DA0E4",
"E#	c #5FA3E4",
"F#	c #62A3E5",
"G#	c #62A3E3",
"H#	c #60A1E3",
"I#	c #5E9FE1",
"J#	c #5A9DE1",
"K#	c #589DE0",
"L#	c #569BE0",
"M#	c #5197DC",
"N#	c #4C97DB",
"O#	c #4395DE",
"P#	c #4392DD",
"Q#	c #488CDD",
"R#	c #4389DE",
"S#	c #388CE2",
"T#	c #338CDE",
"U#	c #3389D2",
"V#	c #3486D2",
"W#	c #3080D7",
"X#	c #2B7BD2",
"Y#	c #2370C0",
"Z#	c #16548D",
"`#	c #00091F",
" $	c #609ED7",
".$	c #66A1DD",
"+$	c #5197DD",
"@$	c #4D99E4",
"#$	c #519BE6",
"$$	c #539DE6",
"%$	c #559DE7",
"&$	c #579FE7",
"*$	c #599FE7",
"=$	c #5AA0E8",
"-$	c #5BA1E9",
";$	c #509AE5",
">$	c #4C98E3",
",$	c #4995E1",
"'$	c #4493DE",
")$	c #3E91DD",
"!$	c #3D8FDB",
"~$	c #4387D8",
"{$	c #3F85DA",
"]$	c #3488DE",
"^$	c #2F88DA",
"/$	c #3185CE",
"($	c #2F82CE",
"_$	c #2F80D9",
":$	c #2879D2",
"<$	c #216FC1",
"[$	c #185691",
"}$	c #000B20",
"|$	c #75A8D7",
"1$	c #5E9CD5",
"2$	c #80AFE5",
"3$	c #68A0DD",
"4$	c #5397DE",
"5$	c #529AE6",
"6$	c #549CE6",
"7$	c #589DE8",
"8$	c #5A9EE7",
"9$	c #5B9FE6",
"0$	c #5CA0E7",
"a$	c #5A9EE5",
"b$	c #589CE5",
"c$	c #569CE4",
"d$	c #5499E4",
"e$	c #5098E2",
"f$	c #4D95E1",
"g$	c #4993DC",
"h$	c #4592D8",
"i$	c #468FD4",
"j$	c #4C88D1",
"k$	c #4A85D1",
"l$	c #3F88D5",
"m$	c #3A88D2",
"n$	c #3A85C6",
"o$	c #3982C6",
"p$	c #367DCD",
"q$	c #3178CA",
"r$	c #2B6FB8",
"s$	c #225688",
"t$	c #000715",
"u$	c #73A6D5",
"v$	c #5A98D1",
"w$	c #5684B6",
"x$	c #000C3C",
"y$	c #69A1DE",
"z$	c #5194DB",
"A$	c #4E96E2",
"B$	c #5297E4",
"C$	c #569AE3",
"D$	c #579BE4",
"E$	c #589BE2",
"F$	c #599CE3",
"G$	c #5599E2",
"H$	c #5498E1",
"I$	c #5297E2",
"J$	c #5095E0",
"K$	c #4B93DF",
"L$	c #4892DD",
"M$	c #4491D7",
"N$	c #458ED3",
"O$	c #4B87D0",
"P$	c #4984D0",
"Q$	c #3F87D3",
"R$	c #3987CF",
"S$	c #3A84C5",
"T$	c #3881C5",
"U$	c #337ACA",
"V$	c #2F76C8",
"W$	c #245687",
"X$	c #000610",
"Y$	c #5694CD",
"Z$	c #5280B2",
"`$	c #000A3A",
" %	c #679FDC",
".%	c #4E91D8",
"+%	c #4E93E0",
"@%	c #5296DF",
"#%	c #5397E0",
"$%	c #5496E0",
"%%	c #5395DF",
"&%	c #5195DE",
"*%	c #5094DD",
"=%	c #4F94DF",
"-%	c #4D92DF",
";%	c #4990DE",
">%	c #438FDB",
",%	c #3A90DD",
"'%	c #3A8DDB",
")%	c #4286D7",
"!%	c #3F83D6",
"~%	c #3586D8",
"{%	c #2F86D5",
"]%	c #3082CB",
"^%	c #2E80CA",
"/%	c #2C7ED4",
"(%	c #2777D0",
"_%	c #226FBF",
":%	c #1D5890",
"<%	c #000A1B",
"[%	c #75A2CB",
"}%	c #5891C6",
"|%	c #4E7EAE",
"1%	c #7AAFE5",
"2%	c #619DDC",
"3%	c #4B8FD8",
"4%	c #4891DE",
"5%	c #4B92E0",
"6%	c #4C94E0",
"7%	c #4F94E1",
"8%	c #5195E0",
"9%	c #4E93DE",
"0%	c #4A91DF",
"a%	c #4790DD",
"b%	c #428FDD",
"c%	c #398EDF",
"d%	c #378CDD",
"e%	c #3D85D9",
"f%	c #3B83D8",
"g%	c #3284DA",
"h%	c #2D83D8",
"i%	c #2C81D1",
"j%	c #297ED1",
"k%	c #287FDC",
"l%	c #2176D1",
"m%	c #1D6BBE",
"n%	c #195591",
"o%	c #000923",
"p%	c #000616",
"q%	c #759AB7",
"r%	c #5787AF",
"s%	c #5489B5",
"t%	c #000C3E",
"u%	c #70AEE7",
"v%	c #5CA1E2",
"w%	c #4791DC",
"x%	c #4692E0",
"y%	c #4793E1",
"z%	c #4995E3",
"A%	c #4A96E4",
"B%	c #4B97E5",
"C%	c #4B94E3",
"D%	c #4894E2",
"E%	c #4591DF",
"F%	c #438FDD",
"G%	c #428EDC",
"H%	c #408DDD",
"I%	c #3E8CDE",
"J%	c #3C8ADC",
"K%	c #3E85D7",
"L%	c #3C83D5",
"M%	c #3882D7",
"N%	c #3481D9",
"O%	c #2F7FD8",
"P%	c #2A7DD9",
"Q%	c #247BDC",
"R%	c #2477D3",
"S%	c #1C67B8",
"T%	c #1B5594",
"U%	c #00092C",
"V%	c #000819",
"W%	c #8BAAC6",
"X%	c #5B86A9",
"Y%	c #3C709F",
"Z%	c #002258",
"`%	c #5EA2DF",
" &	c #438DD8",
".&	c #418DD9",
"+&	c #458EDD",
"@&	c #4490DC",
"#&	c #4891E0",
"$&	c #4692DE",
"%&	c #4992E1",
"&&	c #4793DF",
"*&	c #4790DF",
"=&	c #4591DD",
"-&	c #468FDE",
";&	c #448DDC",
">&	c #408CD8",
",&	c #4089D8",
"'&	c #3D89D7",
")&	c #3B8AD9",
"!&	c #3988D7",
"~&	c #3884D2",
"{&	c #3881D0",
"]&	c #377FD1",
"^&	c #327ED2",
"/&	c #2C7CD5",
"(&	c #267BD6",
"_&	c #247BD8",
":&	c #2579CF",
"<&	c #206AB5",
"[&	c #000C2E",
"}&	c #001225",
"|&	c #7897B4",
"1&	c #608AB2",
"2&	c #4B7FB1",
"3&	c #000B45",
"4&	c #68A9EB",
"5&	c #5DA1E8",
"6&	c #4589D2",
"7&	c #458BD3",
"8&	c #478BD6",
"9&	c #478DD5",
"0&	c #498DD8",
"a&	c #498FD7",
"b&	c #4A8ED9",
"c&	c #488ED6",
"d&	c #448AD2",
"e&	c #4387D2",
"f&	c #3F89D2",
"g&	c #378BD4",
"h&	c #328AD2",
"i&	c #3486CF",
"j&	c #3484CB",
"k&	c #3383CC",
"l&	c #2F81CD",
"m&	c #297ECE",
"n&	c #247DCD",
"o&	c #1F7AC9",
"p&	c #2379C2",
"q&	c #206AA7",
"r&	c #1F5A86",
"s&	c #000D23",
"t&	c #000419",
"u&	c #7B98B8",
"v&	c #557CA5",
"w&	c #336296",
"x&	c #001B59",
"y&	c #6CA9EC",
"z&	c #5595DD",
"A&	c #4387D0",
"B&	c #4389D1",
"C&	c #4489D4",
"D&	c #468BD6",
"E&	c #478CD7",
"F&	c #468CD4",
"G&	c #458AD5",
"H&	c #4287D2",
"I&	c #3C88D3",
"J&	c #338BD5",
"K&	c #2E8AD3",
"L&	c #2F85CE",
"M&	c #3084CC",
"N&	c #2D81CA",
"O&	c #287ECB",
"P&	c #257CC9",
"Q&	c #1F76C3",
"R&	c #2275B9",
"S&	c #1F689F",
"T&	c #20577E",
"U&	c #000C20",
"V&	c #04162C",
"W&	c #3F5A78",
"X&	c #456892",
"Y&	c #426B9F",
"Z&	c #000846",
"`&	c #79AEF2",
" *	c #4D8CD3",
".*	c #3E86D2",
"+*	c #3B89D4",
"@*	c #3C89D7",
"#*	c #3D8AD8",
"$*	c #3E8CD7",
"%*	c #3E8BD9",
"&*	c #3A87D5",
"**	c #3687D6",
"=*	c #2E87D9",
"-*	c #2B86D7",
";*	c #2C83D3",
">*	c #2D80D0",
",*	c #2D7ECF",
"'*	c #2C7DCE",
")*	c #287ACC",
"!*	c #2678CA",
"~*	c #2477C5",
"{*	c #2774BC",
"]*	c #2365A1",
"^*	c #225582",
"/*	c #000A24",
"(*	c #051D39",
"_*	c #2E4C70",
":*	c #406494",
"<*	c #000A40",
"[*	c #6D9BD7",
"}*	c #649BDC",
"|*	c #3E82CB",
"1*	c #3985D0",
"2*	c #3A86D1",
"3*	c #3B87D2",
"4*	c #3884CF",
"5*	c #3684CF",
"6*	c #3182D3",
"7*	c #2E80D2",
"8*	c #2F7ECD",
"9*	c #307CCA",
"0*	c #317AC9",
"a*	c #3079C8",
"b*	c #2D75C7",
"c*	c #2C75C4",
"d*	c #2B72C0",
"e*	c #2F72B8",
"f*	c #2B63A0",
"g*	c #295481",
"h*	c #000927",
"i*	c #031B37",
"j*	c #375378",
"k*	c #000F3A",
"l*	c #7397C7",
"m*	c #4E7BB2",
"n*	c #3874B2",
"o*	c #3377B8",
"p*	c #3478B9",
"q*	c #3579BA",
"r*	c #3276B7",
"s*	c #3175B6",
"t*	c #3073B7",
"u*	c #3073BA",
"v*	c #2E71B8",
"w*	c #2F6DB6",
"x*	c #306CB4",
"y*	c #306AB3",
"z*	c #2F69B2",
"A*	c #2D67B1",
"B*	c #2A66AE",
"C*	c #2964AA",
"D*	c #2F65A5",
"E*	c #2D5A91",
"F*	c #2D507A",
"G*	c #000725",
"H*	c #000F28",
"I*	c #000423",
"J*	c #617B9C",
"K*	c #33557B",
"L*	c #335E8B",
"M*	c #306090",
"N*	c #316191",
"O*	c #2F5F8F",
"P*	c #2E5E8E",
"Q*	c #2D5D8D",
"R*	c #2D5D8E",
"S*	c #2E5D91",
"T*	c #2D5B8F",
"U*	c #2D588D",
"V*	c #2C578A",
"W*	c #2A558A",
"X*	c #28538A",
"Y*	c #255289",
"Z*	c #265186",
"`*	c #2D5586",
" =	c #2E5179",
".=	c #304B69",
"+=	c #00061B",
"@=	c #152330",
"#=	c #000B1C",
"$=	c #00091D",
"%=	c #000A1F",
"&=	c #000A21",
"*=	c #000B21",
"==	c #000B22",
"-=	c #000C24",
";=	c #000B26",
">=	c #000D25",
",=	c #000A20",
"'=	c #000C1E",
")=	c #02141E",
"!=	c #000A0C",
"              . + @ # $ % &                                             ",
"            * = - ; > , ' ) !                                           ",
"          ~ { ] ^ / ( _ : < [ }                                         ",
"        | 1 2 3 4 5 6 7 8 9 0 a b                                       ",
"  c d e f g h i j k l m n o p q r s t u v w x y z z A B C D E F         ",
"G H I J K L M N O P Q R S T U V W X Y Z `  ...+.@.#.$.%.&.*.=.-.;.      ",
">.,.'.).!.~.{.].^./.(._.:.<.[.}.|.1.2.3.4.5.6.7.8.9.0.a.b.c.d.e.f.      ",
"g.h.i.j.k.l.m.n.o.p.p.q.r.s.t.u.v.w.x.y.z.A.B.C.D.E.F.G.H.I.J.K.L.      ",
"M.N.O.P.Q.R.S.T.U.V.V.W.X.X.X.X.X.Y.Z.`. +.+`.++@+#+$+%+&+*+=+-+;+>+,+  ",
"'+)+!+~+{+]+^+/+(+_+:+<+[+}+|+1+2+3+<+:+_+(+4+5+6+7+8+9+0+a+b+c+d+e+f+g+",
"h+i+j+k+l+m+n+o+p+q+r+s+t+u+v+w+x+y+z+A+B+C+D+E+!+F+G+H+I+J+K+L+M+N+O+P+",
"Q+R+S+t.T+U+V+W+X+Y+Z+`+ @.@+@@@+@#@$@%@&@*@=@-@;@>@,@'@)@!@~@{@]@^@/@(@",
"h+_@:@<@[@}@|@1@2@3@4@5@6@7@7@8@9@0@a@b@c@d@e@f@g@h@i@j@k@l@m@n@o@p@q@r@",
"s@)+t@P.T+u@v@w@x@m@y@z@A@B@C@C@B@D@E@F@G@H@I@J@K@L@M@N@O@P@Q@R@S@T@U@V@",
"W@h.O.X@Y@Z@`@ #.#+#@###$#%#%#&#*#=#-#;#>#,#'#)#!#~#{#]#^#/#(#_#:#<#[#}#",
"Q+h.!+|#1#2#3#4#5#6#7#8#9#0#a#b#v+c#d#e#z+f#g#h#i#j#k#l#m#n#o#p#q#r#s#t#",
"Q+h.u#v#w#x#y#z#A#B#C#D#E#F#G#F#H#I#J#K#L#M#N#O#P#Q#R#S#T#U#V#W#X#Y#Z#`#",
"Q+h. $v#w#x#.$+$@$#$$$%$&$*$=$-$&$%$H+;$>$,$'$)$!$~${$]$^$/$($_$:$<$[$}$",
"W@|$1$k+1#2$3$4$;$5$6$7$*$8$9$0$a$b$c$d$e$f$g$h$i$j$k$l$m$n$o$p$q$r$s$t$",
"W@u$v$w$x$U+y$z$A$B$d$C$D$E$E$F$E$G$H$I$J$K$L$M$N$O$P$Q$R$S$T$U$V$r$W$X$",
"W@R+Y$Z$`$2$ %.%K$+%J$@%#%$%$%$%%%&%*%=%-%;%>%,%'%)%!%~%{%]%^%/%(%_%:%<%",
"t#[%}%|%`$1%2%3%4%5%6%7%J$J$J$8%=%9%-%K$0%a%b%c%d%e%f%g%h%i%j%k%l%m%n%o%",
"p%q%r%s%t%u%v%w%x%y%z%A%B%B%B%C%z%D%y%E%F%G%H%I%J%K%L%M%N%O%P%Q%R%S%T%U%",
"V%W%X%Y%Z%`%A# &.&+&@&#&$&%&&&*&=&-&>%;&>&,&'&)&!&~&{&]&^&/&(&_&:&<&:%[&",
"}&|&1&2&3&4&5&6&7&8&9&0&a&b&a&b&c&0&9&8&d&e&f&g&h&i&j&k&l&m&n&o&p&q&r&s&",
"t&u&v&w&x&y&z&A&B&C&7&D&9&E&9&E&9&E&F&G&B&H&I&J&K&L&M&]%N&O&P&Q&R&S&T&U&",
"V&W&X&Y&Z&`& *.*+*@*'@#*$*%*$*%*$*%*'@@*+*&***=*-*;*>*,*'*)*!*~*{*]*^*/*",
"  (*_*:*<*[*}*|*1*2*3*3*3*3*3*3*3*3*3*2*1*4*5*6*7*8*9*0*a*b*c*d*e*f*g*h*",
"    i*j*k*l*m*n*o*p*p*q*q*q*p*p*p*p*p*o*r*s*t*u*v*w*x*y*z*A*B*C*D*E*F*G*",
"      H*I*J*K*L*M*M*N*N*N*N*N*M*M*M*M*O*P*Q*R*S*T*U*V*V*W*X*Y*Z*`* =.=+=",
"        @=d #=$=`#`#`#`#`#`#`#`#`#`#`#`#`#`#%=&=*=&=*=*===-=;=>=,='=)=!="};
