/* XPM */
static char * pipe_xpm[] = {
"47 48 483 2",
"  	c None",
". 	c #000000",
"+ 	c #586F46",
"@ 	c #4A5F3B",
"# 	c #202918",
"$ 	c #010101",
"% 	c #12150D",
"& 	c #7B9964",
"* 	c #97B482",
"= 	c #88A272",
"- 	c #455935",
"; 	c #070A06",
"> 	c #10150D",
", 	c #7A9166",
"' 	c #707C5F",
") 	c #899D76",
"! 	c #92AC7E",
"~ 	c #75945D",
"{ 	c #4D613D",
"] 	c #040503",
"^ 	c #0B0D09",
"/ 	c #97AF83",
"( 	c #9FB98A",
"_ 	c #899C75",
": 	c #666E56",
"< 	c #4C543B",
"[ 	c #6E885A",
"} 	c #687F57",
"| 	c #2F3627",
"1 	c #020201",
"2 	c #0D100B",
"3 	c #9BB389",
"4 	c #9FBA8B",
"5 	c #99B188",
"6 	c #7A9466",
"7 	c #4F5A3E",
"8 	c #424734",
"9 	c #57654A",
"0 	c #4B573F",
"a 	c #040504",
"b 	c #020302",
"c 	c #080A06",
"d 	c #94AA81",
"e 	c #96AF83",
"f 	c #779262",
"g 	c #6B8358",
"h 	c #667C56",
"i 	c #36342A",
"j 	c #454A39",
"k 	c #040403",
"l 	c #010201",
"m 	c #060705",
"n 	c #8DA37C",
"o 	c #97B082",
"p 	c #75915E",
"q 	c #6C8659",
"r 	c #677D57",
"s 	c #56634A",
"t 	c #4E5742",
"u 	c #0D0807",
"v 	c #030101",
"w 	c #0E0505",
"x 	c #1F0B0B",
"y 	c #180909",
"z 	c #030302",
"A 	c #070806",
"B 	c #869B76",
"C 	c #9BB587",
"D 	c #789463",
"E 	c #6D8759",
"F 	c #546047",
"G 	c #525C46",
"H 	c #10120D",
"I 	c #401818",
"J 	c #381515",
"K 	c #5A2121",
"L 	c #97524E",
"M 	c #AB6962",
"N 	c #B97E76",
"O 	c #A95D5D",
"P 	c #3D1416",
"Q 	c #889C76",
"R 	c #9AB486",
"S 	c #799563",
"T 	c #708B5C",
"U 	c #698158",
"V 	c #5C6B4D",
"W 	c #515B45",
"X 	c #1B2117",
"Y 	c #000100",
"Z 	c #441919",
"` 	c #5C2222",
" .	c #5D2323",
"..	c #1A0909",
"+.	c #200C0C",
"@.	c #4A1A1B",
"#.	c #552A2C",
"$.	c #B0454F",
"%.	c #1A080A",
"&.	c #010100",
"*.	c #81966F",
"=.	c #9BB686",
"-.	c #799763",
";.	c #708C5B",
">.	c #728A61",
",.	c #5E6F4F",
"'.	c #4E5642",
").	c #2D3426",
"!.	c #431919",
"~.	c #642525",
"{.	c #582121",
"].	c #351313",
"^.	c #130706",
"/.	c #1D2516",
"(.	c #343523",
"_.	c #1A0D0C",
":.	c #25271E",
"<.	c #9EB88A",
"[.	c #718D5B",
"}.	c #5D6E4E",
"|.	c #4F5742",
"1.	c #353D2D",
"2.	c #12170E",
"3.	c #532D2B",
"4.	c #481B1B",
"5.	c #1D0B0B",
"6.	c #100606",
"7.	c #373322",
"8.	c #698552",
"9.	c #6E8A56",
"0.	c #802C35",
"a.	c #423731",
"b.	c #7F946F",
"c.	c #9CB588",
"d.	c #819D6C",
"e.	c #627652",
"f.	c #505A43",
"g.	c #3F4736",
"h.	c #0F120B",
"i.	c #644741",
"j.	c #53403B",
"k.	c #0B0404",
"l.	c #020000",
"m.	c #0A0303",
"n.	c #1D040F",
"o.	c #853041",
"p.	c #5B2022",
"q.	c #2F241A",
"r.	c #738455",
"s.	c #5D5E3E",
"t.	c #1B100D",
"u.	c #AB3241",
"v.	c #341C1E",
"w.	c #5C6B50",
"x.	c #343F2B",
"y.	c #678153",
"z.	c #637753",
"A.	c #4E5741",
"B.	c #4B5540",
"C.	c #503E39",
"D.	c #372925",
"E.	c #230C0C",
"F.	c #040101",
"G.	c #A6898A",
"H.	c #946266",
"I.	c #91273A",
"J.	c #552622",
"K.	c #28281B",
"L.	c #201A12",
"M.	c #1D090B",
"N.	c #A5313E",
"O.	c #221E14",
"P.	c #63804C",
"Q.	c #405233",
"R.	c #1C2317",
"S.	c #5F714F",
"T.	c #525E45",
"U.	c #515C46",
"V.	c #030403",
"W.	c #473934",
"X.	c #2A1C1A",
"Y.	c #090C06",
"Z.	c #1A2014",
"`.	c #AD8D8E",
" +	c #9B3849",
".+	c #8E2B39",
"++	c #46231E",
"@+	c #2F3522",
"#+	c #52362B",
"$+	c #391115",
"%+	c #8B2B34",
"&+	c #2D3923",
"*+	c #6A8A52",
"=+	c #678451",
"-+	c #323E29",
";+	c #21241C",
">+	c #59674C",
",+	c #0C0F0B",
"'+	c #211715",
")+	c #53423C",
"!+	c #382321",
"~+	c #0F140C",
"{+	c #405133",
"]+	c #0C0C08",
"^+	c #3C2E2D",
"/+	c #252518",
"(+	c #5D7549",
"_+	c #698151",
":+	c #271E16",
"<+	c #8D2E35",
"[+	c #170808",
"}+	c #617E4B",
"|+	c #65824E",
"1+	c #698751",
"2+	c #73905B",
"3+	c #121610",
"4+	c #080907",
"5+	c #2A1F1D",
"6+	c #7D635B",
"7+	c #271B19",
"8+	c #141A0F",
"9+	c #536840",
"0+	c #0D0F09",
"a+	c #272E1D",
"b+	c #6D8855",
"c+	c #4B5D3A",
"d+	c #0E100A",
"e+	c #6F3831",
"f+	c #1B0A0A",
"g+	c #2C3723",
"h+	c #6A8654",
"i+	c #617D4B",
"j+	c #6D8B56",
"k+	c #688154",
"l+	c #050403",
"m+	c #68524B",
"n+	c #402E2A",
"o+	c #070705",
"p+	c #1E2818",
"q+	c #313D26",
"r+	c #0A0705",
"s+	c #455234",
"t+	c #1E2417",
"u+	c #2D2C1D",
"v+	c #7A4237",
"w+	c #271511",
"x+	c #2E3926",
"y+	c #698255",
"z+	c #64804F",
"A+	c #6C8559",
"B+	c #586A48",
"C+	c #010000",
"D+	c #0E0306",
"E+	c #2A1615",
"F+	c #8B5C56",
"G+	c #573C36",
"H+	c #0C0705",
"I+	c #0F0505",
"J+	c #2A1713",
"K+	c #674132",
"L+	c #47211D",
"M+	c #130F0A",
"N+	c #46553A",
"O+	c #5D734D",
"P+	c #6C8657",
"Q+	c #5F7A4A",
"R+	c #698356",
"S+	c #698057",
"T+	c #4E5A3F",
"U+	c #0D0A09",
"V+	c #1A0B0E",
"W+	c #2A1010",
"X+	c #4F2C2A",
"Y+	c #0E0908",
"Z+	c #A2655F",
"`+	c #8F4946",
" @	c #5E2323",
".@	c #1C0A0A",
"+@	c #31352B",
"@@	c #566B46",
"#@	c #596C49",
"$@	c #678054",
"%@	c #5C7649",
"&@	c #657F51",
"*@	c #698058",
"=@	c #647854",
"-@	c #434A36",
";@	c #130B0C",
">@	c #1C1710",
",@	c #251511",
"'@	c #282F1D",
")@	c #5E734E",
"!@	c #5C704C",
"~@	c #5C714C",
"{@	c #60764E",
"]@	c #687F55",
"^@	c #6D8857",
"/@	c #6B8459",
"(@	c #677C56",
"_@	c #4A513C",
":@	c #33372B",
"<@	c #10120E",
"[@	c #060706",
"}@	c #191E15",
"|@	c #819B6E",
"1@	c #769460",
"2@	c #627E4C",
"3@	c #65824F",
"4@	c #5C704D",
"5@	c #6A7F5A",
"6@	c #7B9467",
"7@	c #7C9866",
"8@	c #728F5B",
"9@	c #6D865A",
"0@	c #5D6E4D",
"a@	c #3E4333",
"b@	c #131611",
"c@	c #080A08",
"d@	c #181D14",
"e@	c #8BA07C",
"f@	c #9FB58F",
"g@	c #9FB98C",
"h@	c #6C8B53",
"i@	c #617A4E",
"j@	c #799463",
"k@	c #7F976E",
"l@	c #7A9167",
"m@	c #667B56",
"n@	c #576749",
"o@	c #404534",
"p@	c #191C15",
"q@	c #171C14",
"r@	c #8CA17D",
"s@	c #B5C6A9",
"t@	c #A9C096",
"u@	c #90AE78",
"v@	c #78995E",
"w@	c #658051",
"x@	c #38452E",
"y@	c #586B4A",
"z@	c #677A57",
"A@	c #617355",
"B@	c #5E6F52",
"C@	c #48503B",
"D@	c #3C3E30",
"E@	c #20261C",
"F@	c #0D0F0B",
"G@	c #1B2016",
"H@	c #899E7A",
"I@	c #B7C6AB",
"J@	c #BFD0B1",
"K@	c #9CB787",
"L@	c #7B9C61",
"M@	c #718F5B",
"N@	c #6B8258",
"O@	c #37432E",
"P@	c #1C2218",
"Q@	c #5D6E4F",
"R@	c #4E5743",
"S@	c #404334",
"T@	c #3E4433",
"U@	c #181E14",
"V@	c #849774",
"W@	c #BBCAB0",
"X@	c #C0D0B4",
"Y@	c #A0BA8C",
"Z@	c #85A56E",
"`@	c #718D5C",
" #	c #6B8559",
".#	c #687E58",
"+#	c #627550",
"@#	c #272A1F",
"##	c #151510",
"$#	c #080404",
"%#	c #0F0E0C",
"&#	c #121410",
"*#	c #1E2618",
"=#	c #798E6A",
"-#	c #B3C3A6",
";#	c #C7D5BC",
">#	c #8AA971",
",#	c #718E5C",
"'#	c #5D6F4D",
")#	c #596748",
"!#	c #373E2B",
"~#	c #030202",
"{#	c #151411",
"]#	c #232C1C",
"^#	c #6C825B",
"/#	c #A3B794",
"(#	c #CCD9C2",
"_#	c #8EAD76",
":#	c #72905C",
"<#	c #687D57",
"[#	c #627653",
"}#	c #586548",
"|#	c #404833",
"1#	c #293220",
"2#	c #4E593F",
"3#	c #8FA27F",
"4#	c #A4BD91",
"5#	c #99B584",
"6#	c #74925D",
"7#	c #617453",
"8#	c #566346",
"9#	c #404632",
"0#	c #090906",
"a#	c #0A0B09",
"b#	c #647954",
"c#	c #8B9B7C",
"d#	c #A7AC9D",
"e#	c #838B75",
"f#	c #7A9764",
"g#	c #617352",
"h#	c #515C42",
"i#	c #414633",
"j#	c #100E0B",
"k#	c #0A0C09",
"l#	c #0B0C0A",
"m#	c #4C5A42",
"n#	c #98AE88",
"o#	c #B7C7AA",
"p#	c #B1C6A0",
"q#	c #727E60",
"r#	c #545D43",
"s#	c #687F58",
"t#	c #617452",
"u#	c #535F44",
"v#	c #49513A",
"w#	c #15140F",
"x#	c #0C0D0A",
"y#	c #161815",
"z#	c #787E73",
"A#	c #A1BA8D",
"B#	c #9DB889",
"C#	c #7F9A6A",
"D#	c #5E714C",
"E#	c #3F4230",
"F#	c #5D6D4F",
"G#	c #546145",
"H#	c #485039",
"I#	c #1B1A15",
"J#	c #050504",
"K#	c #1E1D16",
"L#	c #3E3D30",
"M#	c #3E3C2F",
"N#	c #1C1B18",
"O#	c #1F211D",
"P#	c #6A8358",
"Q#	c #515D44",
"R#	c #343227",
"S#	c #4F5940",
"T#	c #1D1C17",
"U#	c #070706",
"V#	c #181713",
"W#	c #38352B",
"X#	c #3D3B2F",
"Y#	c #1A1714",
"Z#	c #1F251A",
"`#	c #566447",
" $	c #3C3E2E",
".$	c #211D18",
"+$	c #090A08",
"@$	c #1C1A16",
"#$	c #363329",
"$$	c #3C392E",
"%$	c #1F211A",
"&$	c #4D5E40",
"*$	c #5E6F4D",
"=$	c #596849",
"-$	c #2F3125",
";$	c #0A0908",
">$	c #25241D",
",$	c #1E1814",
"'$	c #3E412E",
")$	c #4B593A",
"!$	c #0D0D0A",
"~$	c #28261F",
"{$	c #24261D",
"]$	c #2A251C",
"^$	c #1E2217",
"/$	c #060604",
"($	c #020202",
"                                                                                              ",
"                                                                                              ",
"                                                                                              ",
"                                                                                              ",
"                                                                        . . .                 ",
"                                                                      . + @ # $ .             ",
"                                                                    . % & * = - ; .           ",
"                                                                  . > , ' ) ! ~ { ]           ",
"                                                                . ^ / ( _ : < [ } | 1         ",
"                                                              $ 2 3 4 4 5 6 7 8 9 0 a         ",
"                                                            b c d 4 4 e f g h i j k $         ",
"                                                          l m n 4 4 o p q r s t u $           ",
"                                          v w x y       z A B 4 4 C D E } F G H v             ",
"                                    I J K L M N O P v $ ] Q 4 4 R S T U V W X Y               ",
"                                  Z `  ...+.+.@.#.$.%.&.*.4 4 =.-.;.>.,.'.).Y >               ",
"                                !.~.{.    ].^./.(._.v :.4 4 <.& [.g }.|.1.. 2.                ",
"                              3.4.5.    . 6.7.8.9.. 0.a.b.c.d.[.g e.f.g.1 h.                  ",
"                            i.j.k.l.m.n.o.p.q.r.s.t.u.v.w.x.y.g z.A.B.b 2.                    ",
"                            C.D.E.F.. G.H.I.J.K.L.M.N.O.P.Q.R.S.T.U.k V.                      ",
"                            W.X.  Y.Z.`. +.+++@+#+$+%+&+*+=+-+;+>+,+l                         ",
"                          '+)+!+  ~+{+]+^+/+(+_+:+<+[+}+|+1+2+3+4+.                           ",
"                          5+6+7+  8+9+0+a+b+c+d+e+f+g+h+i+j+k+l+.                             ",
"                            m+n+o+p+q+r+s+t+u+v+w+x+y+i+z+A+B+C+D+                            ",
"                            E+F+G+1 H+I+J+K+L+M+N+O+P+Q+R+S+T+U+V+                            ",
"                              W+X+Y+Z+`+ @.@+@@@#@$@%@&@*@=@-@;@                              ",
"                                $ l+>@,@'@)@!@~@{@]@^@/@(@_@:@<@                              ",
"                              [@}@|@1@2@3@4@5@6@7@8@9@h 0@a@b@                                ",
"                            c@d@e@f@g@h@{ i@j@k@l@S+m@n@o@p@                                  ",
"                          [@q@r@s@t@u@v@w@x@y@z@A@B@C@D@E@                                    ",
"                        F@G@H@I@J@K@L@M@N@O@P@Q@R@S@T@X                                       ",
"                        U@V@W@X@Y@Z@`@ #.#+#@###$#%#&#                                        ",
"                      *#=#-#;#Y@>#,#/@.#'#)#!#~#{#                                            ",
"                    ]#^#/#(#4 _#:#/@<#[#}#|#]                                                 ",
"                  1#2#3#(#4#5#6#/@r 7#8#9#0#a#                                                ",
"                ]#b#c#d#e#<.f# #r g#h#i#j#k#                                                  ",
"              l#m#n#o#p#q#r#g s#t#u#v#w#4+                                                    ",
"            m x#y#z#A#B#C#D#E#F#G#H#I#J#                                                      ",
"            K#L#M#N#O#& A+P#Q#R#S#T#U#                                                        ",
"              V#W#X#Y#Z#/@z.`# $.$+$                                                          ",
"              . @$#$$$%$&$*$=$-$;$                                                            ",
"                . >$#$L#,$'$)$!$                                                              ",
"                    ~$L#{$]$^$                                                                ",
"                      /$($##                                                                  ",
"                                                                                              ",
"                                                                                              ",
"                                                                                              ",
"                                                                                              ",
"                                                                                              "};
