/* XPM */
static char * special_directory_xpm[] = {
"38 33 921 2",
"  	c None",
". 	c #465862",
"+ 	c #001021",
"@ 	c #00071C",
"# 	c #00041C",
"$ 	c #000E2B",
"% 	c #00031E",
"& 	c #4C5C73",
"* 	c #516772",
"= 	c #1C384D",
"- 	c #87A9C5",
"; 	c #8FB1D4",
"> 	c #89ABD1",
", 	c #96B7E0",
"' 	c #84A1C9",
") 	c #263E60",
"! 	c #40546C",
"~ 	c #374C5D",
"{ 	c #1F3B51",
"] 	c #85B0D2",
"^ 	c #6E9FC8",
"/ 	c #79A9D9",
"( 	c #6897CD",
"_ 	c #71A0D8",
": 	c #77A0D6",
"< 	c #7CA1CE",
"[ 	c #1F3D5F",
"} 	c #384E65",
"| 	c #334960",
"1 	c #3D5571",
"2 	c #7193B6",
"3 	c #659AC6",
"4 	c #71AEE4",
"5 	c #4987C4",
"6 	c #5994D6",
"7 	c #538CD1",
"8 	c #699FDF",
"9 	c #78A7DF",
"0 	c #7EA4D1",
"a 	c #1A3956",
"b 	c #496072",
"c 	c #535D67",
"d 	c #000313",
"e 	c #00142D",
"f 	c #193050",
"g 	c #879FC5",
"h 	c #88AEDB",
"i 	c #67A4DB",
"j 	c #529CDB",
"k 	c #5199E1",
"l 	c #5398E5",
"m 	c #61A4F2",
"n 	c #4B89D4",
"o 	c #639ADB",
"p 	c #84B3E7",
"q 	c #87ADD2",
"r 	c #1D3B53",
"s 	c #000F1D",
"t 	c #000410",
"u 	c #000413",
"v 	c #000215",
"w 	c #08142E",
"x 	c #00021C",
"y 	c #000D24",
"z 	c #000C21",
"A 	c #000C1F",
"B 	c #000D1E",
"C 	c #000B1B",
"D 	c #000713",
"E 	c #00030E",
"F 	c #4E555F",
"G 	c #4D565D",
"H 	c #273C51",
"I 	c #8BA6C3",
"J 	c #87A1C2",
"K 	c #93AFD6",
"L 	c #8AA9D7",
"M 	c #6D98CB",
"N 	c #5999D6",
"O 	c #519ADE",
"P 	c #5AA2EC",
"Q 	c #4F97E3",
"R 	c #5093E1",
"S 	c #65A5EF",
"T 	c #5C95D8",
"U 	c #699DD6",
"V 	c #75A1CE",
"W 	c #8DB3D7",
"X 	c #7D9FBA",
"Y 	c #94B2CC",
"Z 	c #95B0CD",
"` 	c #8CA7C5",
" .	c #829CC1",
"..	c #89A3C8",
"+.	c #829CBD",
"@.	c #819CBA",
"#.	c #829BBA",
"$.	c #829ABC",
"%.	c #7D9ABA",
"&.	c #7994B1",
"*.	c #758BA3",
"=.	c #718399",
"-.	c #101F34",
";.	c #435061",
">.	c #00020E",
",.	c #80AAD0",
"'.	c #74A6D7",
").	c #739CC8",
"!.	c #81A6D3",
"~.	c #7DA6DA",
"{.	c #6091CB",
"].	c #609CDA",
"^.	c #5D9DDD",
"/.	c #5E9DE0",
"(.	c #609DE0",
"_.	c #5F9CDD",
":.	c #609CDB",
"<.	c #629AD7",
"[.	c #6299D2",
"}.	c #70A3D8",
"|.	c #70A2D3",
"1.	c #70A0D0",
"2.	c #6D9DCD",
"3.	c #6B9BCC",
"4.	c #6897CB",
"5.	c #6695CB",
"6.	c #6395C8",
"7.	c #6292C0",
"8.	c #6190BC",
"9.	c #628CBE",
"0.	c #5D8AC1",
"a.	c #538BC4",
"b.	c #4C85BA",
"c.	c #4978A2",
"d.	c #476F93",
"e.	c #395980",
"f.	c #00173C",
"g.	c #051320",
"h.	c #77AAD9",
"i.	c #5997D0",
"j.	c #6492C4",
"k.	c #6791C1",
"l.	c #4D7CB2",
"m.	c #6C9FD8",
"n.	c #6598D1",
"o.	c #6699D2",
"p.	c #6798D0",
"q.	c #6998CE",
"r.	c #6998CC",
"s.	c #6997CB",
"t.	c #6997C9",
"u.	c #618FC1",
"v.	c #6090C1",
"w.	c #5E8DC1",
"x.	c #5B8DC2",
"y.	c #598AC2",
"z.	c #5689C0",
"A.	c #5588C1",
"B.	c #5388BE",
"C.	c #467EAD",
"D.	c #467CAB",
"E.	c #4775B0",
"F.	c #4376B5",
"G.	c #377BBC",
"H.	c #3579B6",
"I.	c #3872A0",
"J.	c #3B6A94",
"K.	c #315683",
"L.	c #000430",
"M.	c #829EC3",
"N.	c #03111E",
"O.	c #7BAEDD",
"P.	c #64A2DB",
"Q.	c #6D9BCD",
"R.	c #5C86B6",
"S.	c #0C3B71",
"T.	c #001549",
"U.	c #000F3E",
"V.	c #00103A",
"W.	c #001039",
"X.	c #001138",
"Y.	c #001036",
"Z.	c #000E36",
"`.	c #000E35",
" +	c #000D36",
".+	c #000C35",
"++	c #000B36",
"@+	c #001841",
"#+	c #00153F",
"$+	c #000F43",
"%+	c #000E48",
"&+	c #001551",
"*+	c #00174E",
"=+	c #00143F",
"-+	c #000F36",
";+	c #000730",
">+	c #001941",
",+	c #001030",
"'+	c #24323F",
")+	c #000D1A",
"!+	c #72A5D4",
"~+	c #63A1DA",
"{+	c #6896C8",
"]+	c #002A5A",
"^+	c #18477D",
"/+	c #79A8DE",
"(+	c #88B1DF",
"_+	c #8CB1DB",
":+	c #8FB2DC",
"<+	c #90B3DB",
"[+	c #92B3DC",
"}+	c #92B4DA",
"|+	c #93B3DA",
"1+	c #93B3D9",
"2+	c #96B6DD",
"3+	c #95B5DC",
"4+	c #94B4DB",
"5+	c #88B2DC",
"6+	c #81B2DB",
"7+	c #7EAEDC",
"8+	c #7EA7DD",
"9+	c #78A6E2",
"0+	c #6DAAE9",
"a+	c #6BACE6",
"b+	c #72A8D6",
"c+	c #78A5CF",
"d+	c #789CCC",
"e+	c #809FCD",
"f+	c #557397",
"g+	c #192B3F",
"h+	c #595A52",
"i+	c #000B18",
"j+	c #84B7E6",
"k+	c #69A7E0",
"l+	c #5886B8",
"m+	c #001D4D",
"n+	c #76A5DB",
"o+	c #6B9FD8",
"p+	c #6FA7E0",
"q+	c #6DA8E0",
"r+	c #71A9E2",
"s+	c #73ACE3",
"t+	c #75ACE4",
"u+	c #78ADE3",
"v+	c #79ACE3",
"w+	c #7AADE2",
"x+	c #78ABE2",
"y+	c #76ABE1",
"z+	c #74A9DF",
"A+	c #70A7DF",
"B+	c #6DA6DD",
"C+	c #6BA3DC",
"D+	c #67A2DA",
"E+	c #66A3DA",
"F+	c #65A4DA",
"G+	c #659CDD",
"H+	c #5F9AE0",
"I+	c #529CE5",
"J+	c #4C9BE0",
"K+	c #5196CF",
"L+	c #5592C9",
"M+	c #4F83BF",
"N+	c #5687C2",
"O+	c #4979AA",
"P+	c #446888",
"Q+	c #000D11",
"R+	c #AAB0AE",
"S+	c #000815",
"T+	c #71A4D3",
"U+	c #5C9AD3",
"V+	c #000737",
"W+	c #81B0E6",
"X+	c #81B7F3",
"Y+	c #5999D7",
"Z+	c #579BDA",
"`+	c #599DDC",
" @	c #5D9FDC",
".@	c #60A0DE",
"+@	c #63A1DE",
"@@	c #64A2DF",
"#@	c #64A2DD",
"$@	c #66A2DE",
"%@	c #62A0DD",
"&@	c #5D9DDB",
"*@	c #599BD8",
"=@	c #5599D8",
"-@	c #5296D5",
";@	c #5195D4",
">@	c #4A8FCA",
",@	c #4C8ECA",
"'@	c #4F8ACE",
")@	c #4A88D1",
"!@	c #3D8BD6",
"~@	c #3688D1",
"{@	c #3A84C1",
"]@	c #3E80BC",
"^@	c #518CCE",
"/@	c #3A71B2",
"(@	c #3E75AE",
"_@	c #17436A",
":@	c #00141F",
"<@	c #A6B2B2",
"[@	c #89BCEB",
"}@	c #67A5DE",
"|@	c #5F8DBF",
"1@	c #000838",
"2@	c #89B8EE",
"3@	c #467DB6",
"4@	c #4E8CC9",
"5@	c #4C8ECB",
"6@	c #4E90CD",
"7@	c #5292CF",
"8@	c #5694CF",
"9@	c #5996CF",
"0@	c #5A97D0",
"a@	c #5994CE",
"b@	c #5794CD",
"c@	c #5591CD",
"d@	c #518FCA",
"e@	c #4C8CC9",
"f@	c #488AC7",
"g@	c #4688C5",
"h@	c #4686C3",
"i@	c #4384BC",
"j@	c #4683BA",
"k@	c #4B7EBF",
"l@	c #467CC2",
"m@	c #387EC6",
"n@	c #327DC1",
"o@	c #357AB3",
"p@	c #3B78B1",
"q@	c #3067A8",
"r@	c #3669AA",
"s@	c #3C70A9",
"t@	c #295477",
"u@	c #000F16",
"v@	c #797F7B",
"w@	c #000310",
"x@	c #62A0D9",
"y@	c #5E8DC3",
"z@	c #4276B0",
"A@	c #3873AD",
"B@	c #3875AE",
"C@	c #3E79B1",
"D@	c #437CB3",
"E@	c #457EB5",
"F@	c #477EB4",
"G@	c #487FB5",
"H@	c #457CB4",
"I@	c #427BB2",
"J@	c #3D78B0",
"K@	c #3A77B0",
"L@	c #3874B0",
"M@	c #3774AD",
"N@	c #3574AA",
"O@	c #3671A9",
"P@	c #3A6CAB",
"Q@	c #3368AC",
"R@	c #2569B0",
"S@	c #1F68AC",
"T@	c #2567A1",
"U@	c #2A67A0",
"V@	c #2C63A6",
"W@	c #255A9C",
"X@	c #2F669F",
"Y@	c #295379",
"Z@	c #00050C",
"`@	c #7B807A",
" #	c #000714",
".#	c #5D8BBD",
"+#	c #000D3D",
"@#	c #86B5EB",
"##	c #7AADE6",
"$#	c #82B7ED",
"%#	c #83B8EC",
"&#	c #86B9EE",
"*#	c #88BCEE",
"=#	c #8BBDEE",
"-#	c #8FBFF0",
";#	c #91BFF0",
">#	c #8FBDEE",
",#	c #8DBDED",
"'#	c #8BBBEC",
")#	c #88BAEB",
"!#	c #86BAEC",
"~#	c #84B8EA",
"{#	c #80B5E9",
"]#	c #7AB3E8",
"^#	c #78B7ED",
"/#	c #76B4EF",
"(#	c #7AADEE",
"_#	c #75ABF1",
":#	c #68AEF6",
"<#	c #63AEF2",
"[#	c #64AAE6",
"}#	c #66A6E3",
"|#	c #68A4EA",
"1#	c #6AA5EB",
"2#	c #5F99D8",
"3#	c #416E98",
"4#	c #000E19",
"5#	c #7D827E",
"6#	c #5B89BB",
"7#	c #000B3B",
"8#	c #82B1E7",
"9#	c #74A8E1",
"0#	c #6FA6DE",
"a#	c #6FA8DF",
"b#	c #72A9E1",
"c#	c #75ACE2",
"d#	c #79AEE4",
"e#	c #7BAEE3",
"f#	c #7DAFE4",
"g#	c #7EB0E3",
"h#	c #7CAEE3",
"i#	c #78ABE0",
"j#	c #75AAE0",
"k#	c #72A9DF",
"l#	c #6CA5DC",
"m#	c #66A3DC",
"n#	c #5FA5E1",
"o#	c #5DA2E3",
"p#	c #619CE2",
"q#	c #5E99E5",
"r#	c #509CE8",
"s#	c #4C9CE5",
"t#	c #4E99DA",
"u#	c #4E95D7",
"v#	c #498EDB",
"w#	c #488BD9",
"x#	c #3D80C6",
"y#	c #285C8C",
"z#	c #000716",
"A#	c #778182",
"B#	c #ADB0B7",
"C#	c #619FD8",
"D#	c #5987B9",
"E#	c #000939",
"F#	c #7EADE3",
"G#	c #6BA3DE",
"H#	c #5899DB",
"I#	c #559BE0",
"J#	c #589DE2",
"K#	c #5A9FE2",
"L#	c #5DA0E4",
"M#	c #5FA3E4",
"N#	c #62A3E5",
"O#	c #62A3E3",
"P#	c #60A1E3",
"Q#	c #5E9FE1",
"R#	c #5A9DE1",
"S#	c #589DE0",
"T#	c #569BE0",
"U#	c #5197DC",
"V#	c #4C97DB",
"W#	c #4395DE",
"X#	c #4392DD",
"Y#	c #488CDD",
"Z#	c #4389DE",
"`#	c #388CE2",
" $	c #338CDE",
".$	c #3389D2",
"+$	c #3486D2",
"@$	c #3080D7",
"#$	c #2B7BD2",
"$$	c #2370C0",
"%$	c #16548D",
"&$	c #00091F",
"*$	c #75868D",
"=$	c #ABB3BE",
"-$	c #609ED7",
";$	c #66A1DD",
">$	c #5197DD",
",$	c #4D99E4",
"'$	c #519BE6",
")$	c #539DE6",
"!$	c #559DE7",
"~$	c #579FE7",
"{$	c #599FE7",
"]$	c #5AA0E8",
"^$	c #5BA1E9",
"/$	c #509AE5",
"($	c #4C98E3",
"_$	c #4995E1",
":$	c #4493DE",
"<$	c #3E91DD",
"[$	c #3D8FDB",
"}$	c #4387D8",
"|$	c #3F85DA",
"1$	c #3488DE",
"2$	c #2F88DA",
"3$	c #3185CE",
"4$	c #2F82CE",
"5$	c #2F80D9",
"6$	c #2879D2",
"7$	c #216FC1",
"8$	c #185691",
"9$	c #000B20",
"0$	c #7B888E",
"a$	c #75A8D7",
"b$	c #5E9CD5",
"c$	c #80AFE5",
"d$	c #68A0DD",
"e$	c #5397DE",
"f$	c #529AE6",
"g$	c #549CE6",
"h$	c #589DE8",
"i$	c #5A9EE7",
"j$	c #5B9FE6",
"k$	c #5CA0E7",
"l$	c #5A9EE5",
"m$	c #589CE5",
"n$	c #569CE4",
"o$	c #5499E4",
"p$	c #5098E2",
"q$	c #4D95E1",
"r$	c #4993DC",
"s$	c #4592D8",
"t$	c #468FD4",
"u$	c #4C88D1",
"v$	c #4A85D1",
"w$	c #3F88D5",
"x$	c #3A88D2",
"y$	c #3A85C6",
"z$	c #3982C6",
"A$	c #367DCD",
"B$	c #3178CA",
"C$	c #2B6FB8",
"D$	c #225688",
"E$	c #000715",
"F$	c #81807B",
"G$	c #BAACAB",
"H$	c #73A6D5",
"I$	c #5A98D1",
"J$	c #5684B6",
"K$	c #000C3C",
"L$	c #69A1DE",
"M$	c #5194DB",
"N$	c #4E96E2",
"O$	c #5297E4",
"P$	c #569AE3",
"Q$	c #579BE4",
"R$	c #589BE2",
"S$	c #599CE3",
"T$	c #5599E2",
"U$	c #5498E1",
"V$	c #5297E2",
"W$	c #5095E0",
"X$	c #4B93DF",
"Y$	c #4892DD",
"Z$	c #4491D7",
"`$	c #458ED3",
" %	c #4B87D0",
".%	c #4984D0",
"+%	c #3F87D3",
"@%	c #3987CF",
"#%	c #3A84C5",
"$%	c #3881C5",
"%%	c #337ACA",
"&%	c #2F76C8",
"*%	c #245687",
"=%	c #000610",
"-%	c #817D74",
";%	c #BDACA5",
">%	c #5694CD",
",%	c #5280B2",
"'%	c #000A3A",
")%	c #679FDC",
"!%	c #4E91D8",
"~%	c #4E93E0",
"{%	c #5296DF",
"]%	c #5397E0",
"^%	c #5496E0",
"/%	c #5395DF",
"(%	c #5195DE",
"_%	c #5094DD",
":%	c #4F94DF",
"<%	c #4D92DF",
"[%	c #4990DE",
"}%	c #438FDB",
"|%	c #3A90DD",
"1%	c #3A8DDB",
"2%	c #4286D7",
"3%	c #3F83D6",
"4%	c #3586D8",
"5%	c #2F86D5",
"6%	c #3082CB",
"7%	c #2E80CA",
"8%	c #2C7ED4",
"9%	c #2777D0",
"0%	c #226FBF",
"a%	c #1D5890",
"b%	c #000A1B",
"c%	c #7F817E",
"d%	c #BAAFAD",
"e%	c #75A2CB",
"f%	c #5891C6",
"g%	c #4E7EAE",
"h%	c #7AAFE5",
"i%	c #619DDC",
"j%	c #4B8FD8",
"k%	c #4891DE",
"l%	c #4B92E0",
"m%	c #4C94E0",
"n%	c #4F94E1",
"o%	c #5195E0",
"p%	c #4E93DE",
"q%	c #4A91DF",
"r%	c #4790DD",
"s%	c #428FDD",
"t%	c #398EDF",
"u%	c #378CDD",
"v%	c #3D85D9",
"w%	c #3B83D8",
"x%	c #3284DA",
"y%	c #2D83D8",
"z%	c #2C81D1",
"A%	c #297ED1",
"B%	c #287FDC",
"C%	c #2176D1",
"D%	c #1D6BBE",
"E%	c #195591",
"F%	c #000923",
"G%	c #7A8187",
"H%	c #B5AFAF",
"I%	c #000616",
"J%	c #759AB7",
"K%	c #5787AF",
"L%	c #5489B5",
"M%	c #000C3E",
"N%	c #70AEE7",
"O%	c #5CA1E2",
"P%	c #4791DC",
"Q%	c #4692E0",
"R%	c #4793E1",
"S%	c #4995E3",
"T%	c #4A96E4",
"U%	c #4B97E5",
"V%	c #4B94E3",
"W%	c #4894E2",
"X%	c #4591DF",
"Y%	c #438FDD",
"Z%	c #428EDC",
"`%	c #408DDD",
" &	c #3E8CDE",
".&	c #3C8ADC",
"+&	c #3E85D7",
"@&	c #3C83D5",
"#&	c #3882D7",
"$&	c #3481D9",
"%&	c #2F7FD8",
"&&	c #2A7DD9",
"*&	c #247BDC",
"=&	c #2477D3",
"-&	c #1C67B8",
";&	c #1B5594",
">&	c #00092C",
",&	c #717F8C",
"'&	c #B8B4B5",
")&	c #000819",
"!&	c #8BAAC6",
"~&	c #5B86A9",
"{&	c #3C709F",
"]&	c #002258",
"^&	c #5EA2DF",
"/&	c #438DD8",
"(&	c #418DD9",
"_&	c #458EDD",
":&	c #4490DC",
"<&	c #4891E0",
"[&	c #4692DE",
"}&	c #4992E1",
"|&	c #4793DF",
"1&	c #4790DF",
"2&	c #4591DD",
"3&	c #468FDE",
"4&	c #448DDC",
"5&	c #408CD8",
"6&	c #4089D8",
"7&	c #3D89D7",
"8&	c #3B8AD9",
"9&	c #3988D7",
"0&	c #3884D2",
"a&	c #3881D0",
"b&	c #377FD1",
"c&	c #327ED2",
"d&	c #2C7CD5",
"e&	c #267BD6",
"f&	c #247BD8",
"g&	c #2579CF",
"h&	c #206AB5",
"i&	c #000C2E",
"j&	c #6F7F8C",
"k&	c #B6B3AE",
"l&	c #001225",
"m&	c #7897B4",
"n&	c #608AB2",
"o&	c #4B7FB1",
"p&	c #000B45",
"q&	c #68A9EB",
"r&	c #5DA1E8",
"s&	c #4589D2",
"t&	c #458BD3",
"u&	c #478BD6",
"v&	c #478DD5",
"w&	c #498DD8",
"x&	c #498FD7",
"y&	c #4A8ED9",
"z&	c #488ED6",
"A&	c #448AD2",
"B&	c #4387D2",
"C&	c #3F89D2",
"D&	c #378BD4",
"E&	c #328AD2",
"F&	c #3486CF",
"G&	c #3484CB",
"H&	c #3383CC",
"I&	c #2F81CD",
"J&	c #297ECE",
"K&	c #247DCD",
"L&	c #1F7AC9",
"M&	c #2379C2",
"N&	c #206AA7",
"O&	c #1F5A86",
"P&	c #000D23",
"Q&	c #6F8183",
"R&	c #B5B3A4",
"S&	c #000419",
"T&	c #7B98B8",
"U&	c #557CA5",
"V&	c #336296",
"W&	c #001B59",
"X&	c #6CA9EC",
"Y&	c #5595DD",
"Z&	c #4387D0",
"`&	c #4389D1",
" *	c #4489D4",
".*	c #468BD6",
"+*	c #478CD7",
"@*	c #468CD4",
"#*	c #458AD5",
"$*	c #4287D2",
"%*	c #3C88D3",
"&*	c #338BD5",
"**	c #2E8AD3",
"=*	c #2F85CE",
"-*	c #3084CC",
";*	c #2D81CA",
">*	c #287ECB",
",*	c #257CC9",
"'*	c #1F76C3",
")*	c #2275B9",
"!*	c #1F689F",
"~*	c #20577E",
"{*	c #000C20",
"]*	c #728282",
"^*	c #B7B6A4",
"/*	c #04162C",
"(*	c #3F5A78",
"_*	c #456892",
":*	c #426B9F",
"<*	c #000846",
"[*	c #79AEF2",
"}*	c #4D8CD3",
"|*	c #3E86D2",
"1*	c #3B89D4",
"2*	c #3C89D7",
"3*	c #3D8AD8",
"4*	c #3E8CD7",
"5*	c #3E8BD9",
"6*	c #3A87D5",
"7*	c #3687D6",
"8*	c #2E87D9",
"9*	c #2B86D7",
"0*	c #2C83D3",
"a*	c #2D80D0",
"b*	c #2D7ECF",
"c*	c #2C7DCE",
"d*	c #287ACC",
"e*	c #2678CA",
"f*	c #2477C5",
"g*	c #2774BC",
"h*	c #2365A1",
"i*	c #225582",
"j*	c #000A24",
"k*	c #738088",
"l*	c #B9B6AF",
"m*	c #051D39",
"n*	c #2E4C70",
"o*	c #406494",
"p*	c #000A40",
"q*	c #6D9BD7",
"r*	c #649BDC",
"s*	c #3E82CB",
"t*	c #3985D0",
"u*	c #3A86D1",
"v*	c #3B87D2",
"w*	c #3884CF",
"x*	c #3684CF",
"y*	c #3182D3",
"z*	c #2E80D2",
"A*	c #2F7ECD",
"B*	c #307CCA",
"C*	c #317AC9",
"D*	c #3079C8",
"E*	c #2D75C7",
"F*	c #2C75C4",
"G*	c #2B72C0",
"H*	c #2F72B8",
"I*	c #2B63A0",
"J*	c #295481",
"K*	c #000927",
"L*	c #76808C",
"M*	c #B9B5B4",
"N*	c #ACBDD1",
"O*	c #031B37",
"P*	c #375378",
"Q*	c #000F3A",
"R*	c #7397C7",
"S*	c #4E7BB2",
"T*	c #3874B2",
"U*	c #3377B8",
"V*	c #3478B9",
"W*	c #3579BA",
"X*	c #3276B7",
"Y*	c #3175B6",
"Z*	c #3073B7",
"`*	c #3073BA",
" =	c #2E71B8",
".=	c #2F6DB6",
"+=	c #306CB4",
"@=	c #306AB3",
"#=	c #2F69B2",
"$=	c #2D67B1",
"%=	c #2A66AE",
"&=	c #2964AA",
"*=	c #2F65A5",
"==	c #2D5A91",
"-=	c #2D507A",
";=	c #000725",
">=	c #777E8E",
",=	c #B7B2B6",
"'=	c #AEBDD0",
")=	c #000F28",
"!=	c #000423",
"~=	c #617B9C",
"{=	c #33557B",
"]=	c #335E8B",
"^=	c #306090",
"/=	c #316191",
"(=	c #2F5F8F",
"_=	c #2E5E8E",
":=	c #2D5D8D",
"<=	c #2D5D8E",
"[=	c #2E5D91",
"}=	c #2D5B8F",
"|=	c #2D588D",
"1=	c #2C578A",
"2=	c #2A558A",
"3=	c #28538A",
"4=	c #255289",
"5=	c #265186",
"6=	c #2D5586",
"7=	c #2E5179",
"8=	c #304B69",
"9=	c #00061B",
"0=	c #797D88",
"a=	c #B6B2B3",
"b=	c #A2AFB8",
"c=	c #152330",
"d=	c #000B1C",
"e=	c #00091D",
"f=	c #000A1F",
"g=	c #000A21",
"h=	c #000B21",
"i=	c #000B22",
"j=	c #000C24",
"k=	c #000B26",
"l=	c #000D25",
"m=	c #000A20",
"n=	c #000C1E",
"o=	c #02141E",
"p=	c #000A0C",
"q=	c #6E736D",
"r=	c #BFBDB1",
"s=	c #878F92",
"t=	c #7C7F84",
"u=	c #7E7F83",
"v=	c #7E7F84",
"w=	c #7C8083",
"x=	c #7B8083",
"y=	c #798184",
"z=	c #788186",
"A=	c #778288",
"B=	c #75828A",
"C=	c #74838A",
"D=	c #75848B",
"E=	c #7D8C93",
"F=	c #758386",
"G=	c #6F797A",
"H=	c #777E77",
"I=	c #8F9287",
"J=	c #AEAFA1",
"K=	c #B7B8B3",
"L=	c #B8B3B0",
"M=	c #BAB2AF",
"N=	c #BAB2B0",
"O=	c #BBB2AD",
"P=	c #BAB3AD",
"Q=	c #B8B3AF",
"R=	c #B7B3B0",
"S=	c #B5B4B2",
"T=	c #B3B5B4",
"U=	c #B1B5B6",
"V=	c #AFB3B4",
"W=	c #B3B7B8",
"X=	c #B0B4B5",
"Y=	c #A6AAA9",
"Z=	c #BDBFBA",
"`=	c #AEAFA9",
" -	c #BABBB3",
"              . + @ # $ % &                                                 ",
"            * = - ; > , ' ) !                                               ",
"          ~ { ] ^ / ( _ : < [ }                                             ",
"        | 1 2 3 4 5 6 7 8 9 0 a b                                           ",
"  c d e f g h i j k l m n o p q r s t u v w x y z z A B C D E F             ",
"G H I J K L M N O P Q R S T U V W X Y Z `  ...+.@.#.$.%.&.*.=.-.;.          ",
">.,.'.).!.~.{.].^./.(._.:.<.[.}.|.1.2.3.4.5.6.7.8.9.0.a.b.c.d.e.f.          ",
"g.h.i.j.k.l.m.n.o.p.p.q.r.s.t.u.v.w.x.y.z.A.B.C.D.E.F.G.H.I.J.K.L.M.        ",
"N.O.P.Q.R.S.T.U.V.W.W.X.Y.Y.Y.Y.Y.Z.`. +.+++ +@+#+$+%+&+*+=+-+;+>+,+'+      ",
")+!+~+{+]+^+/+(+_+:+<+[+}+|+1+2+3+4+[+<+:+_+5+6+7+8+9+0+a+b+c+d+e+f+g+h+    ",
"i+j+k+l+m+n+o+p+q+r+s+t+u+v+w+x+y+z+A+B+C+D+E+F+~+G+H+I+J+K+L+M+N+O+P+Q+R+  ",
"S+T+U+t.V+W+X+Y+Z+`+ @.@+@@@#@$@#@%@&@*@=@-@;@>@,@'@)@!@~@{@]@^@/@(@_@:@<@  ",
"i+[@}@|@1@2@3@4@5@6@7@8@9@0@0@a@b@c@d@e@f@g@h@i@j@k@l@m@n@o@p@q@r@s@t@u@v@  ",
"w@!+x@Q.V+y@z@A@B@p@C@D@E@F@G@G@F@H@I@J@K@L@M@N@O@P@Q@R@S@T@U@V@W@X@Y@Z@`@  ",
" #h.P..#+#@###$#%#&#*#=#-#;#;#>#,#'#)#!#~#{#]#^#/#(#_#:#<#[#}#|#1#2#3#4#5#  ",
"S+h.~+6#7#8#9#0#a#b#c#d#e#f#g#h#w+i#j#k#A+l#m#n#o#p#q#r#s#t#u#v#w#x#y#z#A#B#",
"S+h.C#D#E#F#G#H#I#J#K#L#M#N#O#N#P#Q#R#S#T#U#V#W#X#Y#Z#`# $.$+$@$#$$$%$&$*$=$",
"S+h.-$D#E#F#;$>$,$'$)$!$~${$]$^$~$!$I+/$($_$:$<$[$}$|$1$2$3$4$5$6$7$8$9$0$  ",
" #a$b$l+7#c$d$e$/$f$g$h${$i$j$k$l$m$n$o$p$q$r$s$t$u$v$w$x$y$z$A$B$C$D$E$F$G$",
" #H$I$J$K$W+L$M$N$O$o$P$Q$R$R$S$R$T$U$V$W$X$Y$Z$`$ %.%+%@%#%$%%%&%C$*%=%-%;%",
" #T+>%,%'%c$)%!%X$~%W${%]%^%^%^%/%(%_%:%<%[%}%|%1%2%3%4%5%6%7%8%9%0%a%b%c%d%",
"z#e%f%g%'%h%i%j%k%l%m%n%W$W$W$o%:%p%<%X$q%r%s%t%u%v%w%x%y%z%A%B%C%D%E%F%G%H%",
"I%J%K%L%M%N%O%P%Q%R%S%T%U%U%U%V%S%W%R%X%Y%Z%`% &.&+&@&#&$&%&&&*&=&-&;&>&,&'&",
")&!&~&{&]&^&I#/&(&_&:&<&[&}&|&1&2&3&}%4&5&6&7&8&9&0&a&b&c&d&e&f&g&h&a%i&j&k&",
"l&m&n&o&p&q&r&s&t&u&v&w&x&y&x&y&z&w&v&u&A&B&C&D&E&F&G&H&I&J&K&L&M&N&O&P&Q&R&",
"S&T&U&V&W&X&Y&Z&`& *t&.*v&+*v&+*v&+*@*#*`&$*%*&***=*-*6%;*>*,*'*)*!*~*{*]*^*",
"/*(*_*:*<*[*}*|*1*2*!@3*4*5*4*5*4*5*!@2*1*6*7*8*9*0*a*b*c*d*e*f*g*h*i*j*k*l*",
"  m*n*o*p*q*r*s*t*u*v*v*v*v*v*v*v*v*v*u*t*w*x*y*z*A*B*C*D*E*F*G*H*I*J*K*L*M*",
"  N*O*P*Q*R*S*T*U*V*V*W*W*W*V*V*V*V*V*U*X*Y*Z*`* =.=+=@=#=$=%=&=*===-=;=>=,=",
"    '=)=!=~={=]=^=^=/=/=/=/=/=^=^=^=^=(=_=:=<=[=}=|=1=1=2=3=4=5=6=7=8=9=0=a=",
"      b=c=d d=e=&$&$&$&$&$&$&$&$&$&$&$&$&$&$f=g=h=g=h=h=i=j=k=l=m=n=o=p=q=r=",
"            s=t=u=v=u=v=u=v=u=v=u=v=u=v=u=v=u=w=x=x=y=z=A=B=C=D=E=F=G=H=I=J=",
"            K=L=M=N=M=N=M=N=M=N=M=N=M=N=M=N=M=O=O=P=Q=R=S=T=U=V=W=X=Y=Z=`= -"};
