/* XPM */
static char * block_xpm[] = {
"48 48 583 2",
"  	c None",
". 	c #3A3F39",
"+ 	c #383C37",
"@ 	c #323631",
"# 	c #2E322E",
"$ 	c #353935",
"% 	c #3A3E39",
"& 	c #3D423D",
"* 	c #404540",
"= 	c #444943",
"- 	c #424842",
"; 	c #737D72",
"> 	c #5E675E",
", 	c #4E544D",
"' 	c #797E79",
") 	c #858984",
"! 	c #9A9F9A",
"~ 	c #A9AEA8",
"{ 	c #AAB0A9",
"] 	c #B2B9B2",
"^ 	c #97A096",
"/ 	c #929C91",
"( 	c #909A8F",
"_ 	c #869086",
": 	c #889087",
"< 	c #777F76",
"[ 	c #464C46",
"} 	c #4B524B",
"| 	c #4D544D",
"1 	c #8C988B",
"2 	c #70796F",
"3 	c #545B53",
"4 	c #AEB1AE",
"5 	c #CCD0CB",
"6 	c #B4BCB3",
"7 	c #9DA79C",
"8 	c #96A195",
"9 	c #8D998C",
"0 	c #788277",
"a 	c #6D776D",
"b 	c #707A6F",
"c 	c #737D73",
"d 	c #7D887C",
"e 	c #8A9689",
"f 	c #7F8A7E",
"g 	c #616A61",
"h 	c #393E39",
"i 	c #515850",
"j 	c #697268",
"k 	c #555D55",
"l 	c #7F857F",
"m 	c #C6CBC6",
"n 	c #D4D8D3",
"o 	c #B9C0B8",
"p 	c #B2BAB2",
"q 	c #A4ADA3",
"r 	c #7C867B",
"s 	c #7A857A",
"t 	c #828D81",
"u 	c #788377",
"v 	c #848F83",
"w 	c #859185",
"x 	c #4C524B",
"y 	c #363B35",
"z 	c #505650",
"A 	c #8E938D",
"B 	c #C4CAC4",
"C 	c #B7BEB6",
"D 	c #8F9A8E",
"E 	c #97A296",
"F 	c #AEB6AD",
"G 	c #A9B2A9",
"H 	c #727C71",
"I 	c #717A70",
"J 	c #768075",
"K 	c #393D38",
"L 	c #292C28",
"M 	c #707470",
"N 	c #CFD4CF",
"O 	c #BEC5BE",
"P 	c #99A398",
"Q 	c #99A499",
"R 	c #AAB3A9",
"S 	c #A8B1A7",
"T 	c #9CA69B",
"U 	c #A1AAA0",
"V 	c #8F998E",
"W 	c #666E65",
"X 	c #7F8A7F",
"Y 	c #818C80",
"Z 	c #262A26",
"` 	c #252725",
" .	c #9A9D9A",
"..	c #D8DCD7",
"+.	c #CDD2CD",
"@.	c #CCD1CC",
"#.	c #C2C8C2",
"$.	c #A6AFA5",
"%.	c #929D91",
"&.	c #DCE0DC",
"*.	c #BAC1BA",
"=.	c #6C726C",
"-.	c #949A93",
";.	c #DADDD9",
">.	c #AEB4AD",
",.	c #70766F",
"'.	c #6F796F",
").	c #6C766B",
"!.	c #4E554D",
"~.	c #2C302C",
"{.	c #1B1C1B",
"].	c #A2A5A2",
"^.	c #D5DAD5",
"/.	c #D1D5D0",
"(.	c #D6DBD6",
"_.	c #CCD1CB",
":.	c #DDE1DD",
"<.	c #B5BDB5",
"[.	c #D2D6D1",
"}.	c #D3D6D2",
"|.	c #9BA49A",
"1.	c #AEB2AD",
"2.	c #161816",
"3.	c #4D524C",
"4.	c #979B96",
"5.	c #7A807A",
"6.	c #3E413E",
"7.	c #393D39",
"8.	c #8B978A",
"9.	c #A0AA9F",
"0.	c #9BA59A",
"a.	c #95A095",
"b.	c #9EA89D",
"c.	c #687168",
"d.	c #353934",
"e.	c #ABB0AB",
"f.	c #CDD2CC",
"g.	c #D7DBD7",
"h.	c #CED3CE",
"i.	c #D1D6D1",
"j.	c #D3D7D2",
"k.	c #DBDEDB",
"l.	c #CCCFCB",
"m.	c #5F625E",
"n.	c #656E65",
"o.	c #919C90",
"p.	c #626B62",
"q.	c #889387",
"r.	c #6E766D",
"s.	c #6D766C",
"t.	c #444A44",
"u.	c #1D1F1C",
"v.	c #AFB7AE",
"w.	c #B0B8AF",
"x.	c #ACB5AC",
"y.	c #B1B9B0",
"z.	c #B3BBB3",
"A.	c #BCC3BC",
"B.	c #BFC6BF",
"C.	c #B4BBB3",
"D.	c #5B635B",
"E.	c #2F332E",
"F.	c #636A63",
"G.	c #DBDFDB",
"H.	c #C1C8C1",
"I.	c #D0D4CF",
"J.	c #C3CAC3",
"K.	c #BDC4BC",
"L.	c #BAC1B9",
"M.	c #C2C8C1",
"N.	c #E2E4E2",
"O.	c #9B9F9B",
"P.	c #1A1A1A",
"Q.	c #494F48",
"R.	c #8F9B8E",
"S.	c #969C95",
"T.	c #1F211F",
"U.	c #4F564E",
"V.	c #515551",
"W.	c #191A18",
"X.	c #A4ADA4",
"Y.	c #D0D5D0",
"Z.	c #C7CDC7",
"`.	c #BFC6BE",
" +	c #D2D7D2",
".+	c #CCD2CC",
"++	c #B6BEB6",
"@+	c #4B504B",
"#+	c #313631",
"$+	c #575E56",
"%+	c #D8DCD8",
"&+	c #BDC4BD",
"*+	c #B8BFB7",
"=+	c #B5BCB4",
"-+	c #E6E9E6",
";+	c #D0D1D0",
">+	c #777E76",
",+	c #5E665D",
"'+	c #ACB5AB",
")+	c #636663",
"!+	c #687167",
"~+	c #888F88",
"{+	c #7B847B",
"]+	c #3F443F",
"^+	c #121412",
"/+	c #373A37",
"(+	c #CFD4CE",
"_+	c #E0E3E0",
":+	c #C4CAC3",
"<+	c #D5D9D5",
"[+	c #D2D7D1",
"}+	c #CED3CD",
"|+	c #9FA79E",
"1+	c #303530",
"2+	c #424841",
"3+	c #474D46",
"4+	c #969F96",
"5+	c #DEE1DE",
"6+	c #B2BAB1",
"7+	c #ABB4AA",
"8+	c #C8CDC8",
"9+	c #C8CAC8",
"0+	c #8A9489",
"a+	c #A7ACA7",
"b+	c #161716",
"c+	c #6E776D",
"d+	c #333733",
"e+	c #0E0F0E",
"f+	c #242724",
"g+	c #ACB3AC",
"h+	c #CBD0CB",
"i+	c #C8CEC7",
"j+	c #D3D8D3",
"k+	c #C1C7C1",
"l+	c #6E766E",
"m+	c #242723",
"n+	c #535A52",
"o+	c #313530",
"p+	c #ADB4AC",
"q+	c #B3B7B3",
"r+	c #929E91",
"s+	c #C2C4C1",
"t+	c #373B37",
"u+	c #292C29",
"v+	c #2A2D2A",
"w+	c #181A18",
"x+	c #131513",
"y+	c #313431",
"z+	c #7D857D",
"A+	c #9FA99F",
"B+	c #B6BDB5",
"C+	c #C6CCC6",
"D+	c #A1A9A0",
"E+	c #4C534C",
"F+	c #202320",
"G+	c #1C201C",
"H+	c #515451",
"I+	c #B1B7B1",
"J+	c #838F82",
"K+	c #9BA29A",
"L+	c #3F433E",
"M+	c #292D29",
"N+	c #2D302D",
"O+	c #2B2D2B",
"P+	c #414740",
"Q+	c #6F766E",
"R+	c #9AA399",
"S+	c #A2ABA1",
"T+	c #C3C9C2",
"U+	c #626A61",
"V+	c #181A17",
"W+	c #636B62",
"X+	c #333933",
"Y+	c #262E27",
"Z+	c #49574B",
"`+	c #637464",
" @	c #282928",
".@	c #A1A4A0",
"+@	c #859084",
"@@	c #7B867A",
"#@	c #778276",
"$@	c #677066",
"%@	c #60685F",
"&@	c #404640",
"*@	c #10110F",
"=@	c #343129",
"-@	c #383B37",
";@	c #7B837A",
">@	c #A3ACA2",
",@	c #9FA99E",
"'@	c #636C63",
")@	c #1C1E1B",
"!@	c #363A36",
"~@	c #727A71",
"{@	c #161A16",
"]@	c #5F7161",
"^@	c #94B198",
"/@	c #A0BEA4",
"(@	c #586559",
"_@	c #323432",
":@	c #889187",
"<@	c #849083",
"[@	c #798378",
"}@	c #798478",
"|@	c #4E534B",
"1@	c #494A41",
"2@	c #1E1D19",
"3@	c #11100C",
"4@	c #363126",
"5@	c #5C5642",
"6@	c #847B61",
"7@	c #30332E",
"8@	c #595F59",
"9@	c #798179",
"0@	c #9DA69C",
"a@	c #0D100E",
"b@	c #6C806E",
"c@	c #B4D6B8",
"d@	c #A8C7AC",
"e@	c #9EBAA1",
"f@	c #5D6D5F",
"g@	c #363936",
"h@	c #555C54",
"i@	c #464C45",
"j@	c #40453D",
"k@	c #31362F",
"l@	c #393B34",
"m@	c #4A493B",
"n@	c #686344",
"o@	c #928860",
"p@	c #B0A478",
"q@	c #C2B485",
"r@	c #B6A97C",
"s@	c #9D9168",
"t@	c #605A42",
"u@	c #404033",
"v@	c #313430",
"w@	c #9BA69A",
"x@	c #2D302C",
"y@	c #656C65",
"z@	c #ADB6AC",
"A@	c #000100",
"B@	c #505F52",
"C@	c #ADCEB1",
"D@	c #95AE97",
"E@	c #91A894",
"F@	c #7A8A7C",
"G@	c #3A3D3A",
"H@	c #4A4E46",
"I@	c #837F5F",
"J@	c #A89A6B",
"K@	c #B9AC7B",
"L@	c #B8AC7D",
"M@	c #B9AC7E",
"N@	c #BDB180",
"O@	c #B6AA79",
"P@	c #AFA170",
"Q@	c #7C704C",
"R@	c #48432F",
"S@	c #1D1D14",
"T@	c #1E201C",
"U@	c #1B1D1A",
"V@	c #6B746A",
"W@	c #899588",
"X@	c #343833",
"Y@	c #798078",
"Z@	c #020202",
"`@	c #617363",
" #	c #455247",
".#	c #49564B",
"+#	c #798E7A",
"@#	c #95B098",
"##	c #6A776C",
"$#	c #6E6F62",
"%#	c #9C9672",
"&#	c #ADA677",
"*#	c #ACA16E",
"=#	c #AC9E68",
"-#	c #8E8559",
";#	c #4B4935",
">#	c #1A1A14",
",#	c #0C0B09",
"'#	c #0A0B08",
")#	c #0D0E0D",
"!#	c #1C1E1C",
"~#	c #2D312D",
"{#	c #3A3F3A",
"]#	c #5C645B",
"^#	c #3E433D",
"/#	c #4D544C",
"(#	c #000000",
"_#	c #070907",
":#	c #2E372F",
"<#	c #516052",
"[#	c #6E8270",
"}#	c #5B6B5D",
"|#	c #3E4940",
"1#	c #262C26",
"2#	c #1B1F1C",
"3#	c #4A4B42",
"4#	c #585B55",
"5#	c #2B2E2A",
"6#	c #1B1C17",
"7#	c #0D0E0C",
"8#	c #0B0B0A",
"9#	c #151715",
"0#	c #2A2E2A",
"a#	c #5B625A",
"b#	c #5F675E",
"c#	c #586058",
"d#	c #5D655D",
"e#	c #7C877B",
"f#	c #616960",
"g#	c #343934",
"h#	c #252824",
"i#	c #656C64",
"j#	c #0B0D0B",
"k#	c #38433A",
"l#	c #161D19",
"m#	c #131C18",
"n#	c #15201C",
"o#	c #111A16",
"p#	c #141B17",
"q#	c #29312A",
"r#	c #1C201D",
"s#	c #1A1C1A",
"t#	c #080808",
"u#	c #1D1F1D",
"v#	c #252825",
"w#	c #252925",
"x#	c #272A26",
"y#	c #262926",
"z#	c #1D201D",
"A#	c #454B45",
"B#	c #757F74",
"C#	c #828C81",
"D#	c #080A08",
"E#	c #516153",
"F#	c #465B4E",
"G#	c #17211D",
"H#	c #1A2621",
"I#	c #16211D",
"J#	c #1D2B25",
"K#	c #232A24",
"L#	c #373E37",
"M#	c #131412",
"N#	c #050505",
"O#	c #4F554E",
"P#	c #495049",
"Q#	c #373B36",
"R#	c #414640",
"S#	c #859184",
"T#	c #040404",
"U#	c #384239",
"V#	c #526658",
"W#	c #375045",
"X#	c #2E493F",
"Y#	c #273C34",
"Z#	c #2D463C",
"`#	c #1B231F",
" $	c #202420",
".$	c #545A53",
"+$	c #656D64",
"@$	c #7E897D",
"#$	c #0C0E0C",
"$$	c #202621",
"%$	c #87A18A",
"&$	c #486A5B",
"*$	c #345649",
"=$	c #304C41",
"-$	c #1F322B",
";$	c #1D2823",
">$	c #1F2420",
",$	c #080908",
"'$	c #1B1E1B",
")$	c #313531",
"!$	c #2B2F2B",
"~$	c #272A27",
"{$	c #323632",
"]$	c #0C0F0D",
"^$	c #87A08A",
"/$	c #557564",
"($	c #335448",
"_$	c #284138",
":$	c #243A32",
"<$	c #24362E",
"[$	c #0F100F",
"}$	c #202120",
"|$	c #161B17",
"1$	c #738976",
"2$	c #5E7F6E",
"3$	c #335649",
"4$	c #2C473D",
"5$	c #1D2D27",
"6$	c #2A4238",
"7$	c #181D19",
"8$	c #141614",
"9$	c #020302",
"0$	c #484E47",
"a$	c #505750",
"b$	c #101310",
"c$	c #58695A",
"d$	c #769782",
"e$	c #325447",
"f$	c #2C493D",
"g$	c #20342C",
"h$	c #20352E",
"i$	c #1F2722",
"j$	c #010101",
"k$	c #0C0C0C",
"l$	c #333732",
"m$	c #212421",
"n$	c #759882",
"o$	c #365A4C",
"p$	c #314F44",
"q$	c #294138",
"r$	c #20322B",
"s$	c #090C0B",
"t$	c #0E0E0E",
"u$	c #030303",
"v$	c #1B1D1B",
"w$	c #4B514A",
"x$	c #0F120F",
"y$	c #3A453B",
"z$	c #73937D",
"A$	c #3B5E50",
"B$	c #243C32",
"C$	c #263E35",
"D$	c #223830",
"E$	c #1D312A",
"F$	c #060706",
"G$	c #060807",
"H$	c #111211",
"I$	c #060606",
"J$	c #20221F",
"K$	c #343E35",
"L$	c #729580",
"M$	c #3E5A4C",
"N$	c #2C493E",
"O$	c #274137",
"P$	c #20362E",
"Q$	c #14201C",
"R$	c #1F2F28",
"S$	c #121C17",
"T$	c #0A0B0A",
"U$	c #2B332C",
"V$	c #68816E",
"W$	c #406757",
"X$	c #365A4E",
"Y$	c #28433A",
"Z$	c #22382F",
"`$	c #1F312A",
" %	c #1F3028",
".%	c #050605",
"+%	c #1F221F",
"@%	c #464D46",
"#%	c #303430",
"$%	c #272B27",
"%%	c #2C302B",
"&%	c #768C78",
"*%	c #1C221D",
"=%	c #37483D",
"-%	c #315145",
";%	c #2C4A3F",
">%	c #223A31",
",%	c #264137",
"'%	c #2E4B3F",
")%	c #233731",
"!%	c #0F1311",
"~%	c #718774",
"{%	c #39493F",
"]%	c #3F5347",
"^%	c #324B40",
"/%	c #2B443A",
"(%	c #203129",
"_%	c #2E3F36",
":%	c #29352D",
"<%	c #191D19",
"[%	c #161A17",
"}%	c #141714",
"|%	c #0D0F0D",
"1%	c #040504",
"2%	c #2A322B",
"                                                                                                ",
"                                                                                                ",
"                                                                                                ",
"                                                                                                ",
"                                                                                                ",
"                                                                                                ",
"                                                                                                ",
"                                                                                                ",
"                                                                                                ",
"                                              . + @ # $ % & * = -                               ",
"                                    ; > , ' ) ! ~ { ] ^ / ( _ : < [ } |                         ",
"                              1 2 3 ' 4 5 6 7 8 9 1 9 9 0 a b c d e f g h i                     ",
"                            j k l m n o p q 1 1 1 1 1 r s t 2 2 u 0 v 1 w x y                   ",
"                          z A B C D E F p G 1 1 1 1 r H I 2 2 r H J 1 1 1 1 K L                 ",
"                        M N O P 1 1 Q R S p T 7 U V I W H X 2 0 0 1 1 1 1 1 Y Z                 ",
"                    `  ...+.@.#.$.%.1 E o &.*.=.-.;.>.,.'.).2 r 1 1 1 1 1 1 1 !.~.              ",
"                  {.].^./.&.(._.:.@.<.[.}.|.1.2.3.4.5.6.7.8.1 1 9.0.a.D b.P 0.c.d.              ",
"                  e..._.f.g.h.i.g.j.k.l.m.n.o.p.q.r.s.t.u.q.9.v.w.x.y.z.A.B.C.D.E.              ",
"                F.G.H.N I.+.J.K.L.M.N.O.P.Q.R.o.S.T.U.V.W.X.K.Y.w.@.Z.`. +.+++@+#+[             ",
"              $+g.%+I.h..+&+*+=+R -+;+>+,+'+)+!+~+{+]+^+/+(+_+:++.Y.<+[+}+.+|+1+2+3+            ",
"              4+5+6+7+R O $.q P 9 8+9+0+9 a+b+= c+d+e+f+g+.+K.h+i+Y.h.j+Y.k+l+m+n+o+            ",
"            n+p+q+u 1 1 1 1 1 1 1 r+s+t+u+v+w+w+x+^+y+z+7+p A+B+Z.j+(.Z.C+D+E+F+c+#+[           ",
"            G+H+I+J+1 1 1 1 1 1 1 1 9.K+L+M+N+O+P+Q+R+S+S+D A+$.'+M.T+f.y.U+V+W+X+2+3+          ",
"        Y+Z+`+ @.@1 1 1 1 1 1 +@t @@#@$@!+%@&@F+*@=@-@;@b.P 1 1 D S+>@,@'@)@!@~@m+n+o+          ",
"      {@]@^@/@(@_@:@1 1 1 1 <@J [@}@%@|@1@2@3@4@5@6@7@8@9@0.1 1 1 1 Y j L d.0@E+F+c+#+3+        ",
"      a@b@c@d@e@f@g@%@w h@i@j@k@l@m@n@o@p@q@r@s@t@u@m+v@: 7 w@1 r g x x@y@z@U+V+W+X+2+3+        ",
"      A@]@B@C@D@E@F@G@H@I@J@K@L@M@N@O@P@Q@R@S@T@U@V+f+V@D W@@@g i X@u+Y@,@'@)@!@~@m+n+o+        ",
"      Z@`@`@ #.#+#@###$#%#&#*#=#-#;#>#,#'#)#!#~#{#U+1 f a ]#^#~#d+/#t Y j L d.0@E+F+c+#+        ",
"      (#_#:#<#[#}#|#1#2#3#4#5#6#7#8#9#0#a#b#c#d#e#f#= g#h#L t+i#e r g x x@y@z@U+V+W+X+2+        ",
"      (#j#k#l#m#n#o#p#q#r#s#t#u#T.T.v#w#x#y#y#)@9#z#f+A#B#C#W@@@g i X@u+Y@,@'@)@!@~@m+n+        ",
"        D#E#F#G#H#I#J#K#L#M#N#O#E+P#Q#. #+R#2+D.S#1 1 1 f a ]#^#~#d+/#t Y j L d.0@E+F+1         ",
"        T#U#V#W#X#Y#Z#`# $j#(#.$b u !++$J 1 1 w q.@$f#= g#h#L t+i#e r g x x@y@z@U+V+b#          ",
"        #$$$%$&$*$=$-$;$>$,$(#'$)$!$f+v#Z E.)$~$)@9#z#f+A#B#C#W@@@g i X@u+Y@,@'@)@{$            ",
"        (#]$^$/$($_$:$<$[$}$(#[$O#E+P#Q#. #+R#2+D.S#1 1 1 f a ]#^#~#d+/#t Y j L @               ",
"        (#|$1$2$3$4$5$6$7$8$(#9$0$b u !++$J 1 1 w q.@$f#= g#h#L t+i#e r g x x@a$                ",
"          b$c$d$e$f$g$h$i$[$(#j$k$)$!$f+v#Z E.)$~$)@9#z#f+A#B#C#W@@@g i l$m$                    ",
"          Z@:#n$o$p$q$r$s$t$u$v$N#w$E+P#Q#. #+R#2+D.S#1 1 1 f a ]#^#0#w+                        ",
"          x$y$z$A$B$C$D$E$F$G$H$I$J$b u !++$J 1 1 w q.@$f#= g#h#J$[$                            ",
"            K$L$M$N$O$P$Q$R$S$T$,$T#)$!$f+v#Z E.)$~$)@9#z#T.m$                                  ",
"            U$V$W$X$Y$Z$`$ %.%(#u$j$+%- @%#%@ $%!$%%t.                                          ",
"          &%*%=%-%;%>%,%'%)%!%(#(#(#                                                            ",
"            ~%{%]%^%/%(%_%:%<%(#(#                                                              ",
"                  #$[%}%|%1%2%                                                                  ",
"                                                                                                ",
"                                                                                                ",
"                                                                                                ",
"                                                                                                ",
"                                                                                                "};
