/* XPM */
static char * text_plain_xpm[] = {
"30 34 153 2",
"  	c None",
". 	c #000000",
"+ 	c #050505",
"@ 	c #060606",
"# 	c #0B0B0B",
"$ 	c #040404",
"% 	c #070707",
"& 	c #F9F9F9",
"* 	c #EFEFEF",
"= 	c #FFFFFF",
"- 	c #F5F5F5",
"; 	c #F8F8F8",
"> 	c #F1F1F1",
", 	c #EEEEEE",
"' 	c #F7F7F7",
") 	c #FBFBFB",
"! 	c #FDFDFD",
"~ 	c #F6F6F6",
"{ 	c #F4F4F4",
"] 	c #D1D1D1",
"^ 	c #0D0D0D",
"/ 	c #F2F2F2",
"( 	c #F3F3F3",
"_ 	c #F0F0F0",
": 	c #E8E8E8",
"< 	c #C3C3C3",
"[ 	c #080808",
"} 	c #EAEAEA",
"| 	c #E6E6E6",
"1 	c #EDEDED",
"2 	c #FCFCFC",
"3 	c #EBEBEB",
"4 	c #DDDDDD",
"5 	c #E3E3E3",
"6 	c #D0D0D0",
"7 	c #B1B1B1",
"8 	c #0A0A0A",
"9 	c #B4B4B4",
"0 	c #BFBFBF",
"a 	c #B0B0B0",
"b 	c #CCCCCC",
"c 	c #CBCBCB",
"d 	c #E2E2E2",
"e 	c #BDBDBD",
"f 	c #C8C8C8",
"g 	c #D2D2D2",
"h 	c #E0E0E0",
"i 	c #969696",
"j 	c #BEBEBE",
"k 	c #9E9E9E",
"l 	c #C6C6C6",
"m 	c #C2C2C2",
"n 	c #C4C4C4",
"o 	c #A6A6A6",
"p 	c #FAFAFA",
"q 	c #9B9B9B",
"r 	c #AAAAAA",
"s 	c #8E8E8E",
"t 	c #919191",
"u 	c #8F8F8F",
"v 	c #ABABAB",
"w 	c #7A7A7A",
"x 	c #9F9F9F",
"y 	c #C1C1C1",
"z 	c #CECECE",
"A 	c #8D8D8D",
"B 	c #BABABA",
"C 	c #D4D4D4",
"D 	c #A9A9A9",
"E 	c #767676",
"F 	c #D5D5D5",
"G 	c #C9C9C9",
"H 	c #FEFEFE",
"I 	c #DFDFDF",
"J 	c #D9D9D9",
"K 	c #E9E9E9",
"L 	c #E1E1E1",
"M 	c #ECECEC",
"N 	c #C7C7C7",
"O 	c #AFAFAF",
"P 	c #C5C5C5",
"Q 	c #C0C0C0",
"R 	c #989898",
"S 	c #B3B3B3",
"T 	c #BBBBBB",
"U 	c #B5B5B5",
"V 	c #CFCFCF",
"W 	c #E7E7E7",
"X 	c #AEAEAE",
"Y 	c #020202",
"Z 	c #838383",
"` 	c #9C9C9C",
" .	c #D8D8D8",
"..	c #A4A4A4",
"+.	c #7C7C7C",
"@.	c #A1A1A1",
"#.	c #7F7F7F",
"$.	c #B9B9B9",
"%.	c #9A9A9A",
"&.	c #828282",
"*.	c #979797",
"=.	c #898989",
"-.	c #A8A8A8",
";.	c #909090",
">.	c #DEDEDE",
",.	c #B7B7B7",
"'.	c #DADADA",
").	c #B8B8B8",
"!.	c #DCDCDC",
"~.	c #D7D7D7",
"{.	c #BCBCBC",
"].	c #939393",
"^.	c #B6B6B6",
"/.	c #B2B2B2",
"(.	c #A0A0A0",
"_.	c #9D9D9D",
":.	c #A2A2A2",
"<.	c #D3D3D3",
"[.	c #A7A7A7",
"}.	c #949494",
"|.	c #DBDBDB",
"1.	c #D6D6D6",
"2.	c #E4E4E4",
"3.	c #CDCDCD",
"4.	c #E5E5E5",
"5.	c #757575",
"6.	c #858585",
"7.	c #959595",
"8.	c #808080",
"9.	c #737373",
"0.	c #CACACA",
"a.	c #ACACAC",
"b.	c #717171",
"c.	c #ADADAD",
"d.	c #7D7D7D",
"e.	c #A5A5A5",
"f.	c #686868",
"g.	c #8A8A8A",
"h.	c #8B8B8B",
"i.	c #7E7E7E",
"j.	c #848484",
"k.	c #878787",
"l.	c #929292",
"m.	c #030303",
"n.	c #5F5F5F",
"o.	c #818181",
"p.	c #8C8C8C",
"q.	c #999999",
"r.	c #868686",
"s.	c #5E5E5E",
"t.	c #A3A3A3",
"u.	c #010101",
"v.	c #0C0C0C",
". + + + + + + + + + + + + + + + + + + + + + + + + @ # $ +   ",
"% & * = - ; & & ; > = , = = ' ) ! & = ' ~ { > = ; ' & ] ^   ",
"% ; ) / ( = ) = { = ( ! ~ _ _ ! _ _ ~ _ ) = & / ( / : < [   ",
"% = = > } ( ~ | ' ( 1 ! / * ! _ 2 ! 3 { ( 4 | } 5 3 6 7 8   ",
"% { _ * 9 0 - a b c d e f g h i j k b l m h l i h 1 n o ^   ",
"% & p _ q r 3 s t u v w x y z s a A v o B C D E F _ G r @   ",
"% - H ~ I { = J ( * 2 ~ ' H ' 1 { ~ K > = L , } M M z a .   ",
"% & 2 > z C N O P 0 c 4 Q 6 L g G R y S T U V 0 U W b X Y   ",
"% - ! / Z `  ...+.D 7 @.#.$.~ %.&.*.x =.-.;.R o U 3 G -.[   ",
"% H / ; ~ ~ 2 ' p { H = ( p _ = ' ! >.d * > / 3 1 3 b r @   ",
"% ! 2 - h  .l ,.z '.J l 0 m ).,.!.~.{.P ].` Q >.a 3 b r @   ",
"% _ = 3 T ^./.@.9 s (.,./._.< /.:.<.[.7 A ;.9 z }.3 b r @   ",
"% ; ; ; { H ) 3 ) 2 = ) } ; = 6 K ; , 2 2 |.> / d 3 b r @   ",
"% ) ) ( n a g <./., 1.h ,.{.2. .,.Q 3.y ,.B 4.< x 3 b r @   ",
"% ; p , (.5.-.,.6.!.9 v r b x w R [.o 7.8./.] [.9.3 b r @   ",
"% = _ 2 2 _ ~ - * = * / & ) - ~ - 1 3 / } _ ' M K 3 b r @   ",
"% - 2 1 n N 2.g S T ] f 1.b l e 0.>.l 9 < a.1.3.c 3 b r @   ",
"% ' = | B t n r =.o O #._.R b.{./.X c.7 d.}.] a :.K c v %   ",
"% ; } { } > ' ( W _ 1 >.d ' p ~ ( M W { , h M , >.K c v %   ",
"% = - ; l < f  .3.$.9 3.T 5 1.f 7.) X T m r ,.{.Q : 0.r %   ",
"% - & 2.e.s 7 U k ,.f.,.S ).o +.g.>.[.#.O o h.a t : 0.r %   ",
"% = ' { K } ) > d - ~ 5 - * : M / 2 W 3 / 1 2.h } W G D @   ",
"% ) | , 3.n a ).$.T '.g ].|.c y f @.3.$.G b X m e | f D @   ",
"% H - 1 ^.t =.}.%.r D q s W i...@.j.%.O 9 {.a ].7.4.f -.+   ",
"% & { : ( !.) : M _ K 5 1 M d p I W K K 1 K 4 h : 4.N -.+   ",
"@ p ~ 5 -.N y j ,.y j e B d P l T l Q O /.S a.9 n 4.< :.+   ",
"@ = 2.- #.R X *.O k.h.7.O 4 7.d.u k.P j.%.@.*.f l.2.P o %   ",
"@ ' & | 2._ J M 3 |.L | 2.& >.| 5 h K {.1 h 2.'.L h n [.%   ",
"@ = 5 M <.i } y ..a O b j -.Q W -.6 c 1.7 X K $.y I m ..m.  ",
"@ ( ! I ;.i h n.e.7.o.k -.p.q.T r.h.3.p.D s.F R *.L n ..Y   ",
"@ ( ' g } ( C J : W h  .!.>.4 } L 2.M '.W : J 5 | '.y o +   ",
"@ W : z 0 b 0 1.b Q g N l V b f y l < b j 0.0 e m y 9 ..%   ",
"@ 4 0 D @.-.v _.o D t.@.O ..:.X e.(.7 _.-.x a.o [.o t.x @   ",
"+ [ m.$ + u.@ # % $ $ $ $ $ $ $ $ + + + + + + + + m.$ $ v.  "};
