/* XPM */
static char * text_plain_xpm[] = {
"31 36 158 2",
"  	c None",
". 	c #000000",
"+ 	c #050505",
"@ 	c #060606",
"# 	c #0B0B0B",
"$ 	c #040404",
"% 	c #070707",
"& 	c #F9F9F9",
"* 	c #EFEFEF",
"= 	c #FFFFFF",
"- 	c #F5F5F5",
"; 	c #F8F8F8",
"> 	c #F1F1F1",
", 	c #EEEEEE",
"' 	c #F7F7F7",
") 	c #FBFBFB",
"! 	c #FDFDFD",
"~ 	c #F6F6F6",
"{ 	c #F4F4F4",
"] 	c #D1D1D1",
"^ 	c #0D0D0D",
"/ 	c #F2F2F2",
"( 	c #F3F3F3",
"_ 	c #F0F0F0",
": 	c #E8E8E8",
"< 	c #C3C3C3",
"[ 	c #080808",
"} 	c #B0B0B0",
"| 	c #C4C4C4",
"1 	c #EAEAEA",
"2 	c #E6E6E6",
"3 	c #EDEDED",
"4 	c #FCFCFC",
"5 	c #EBEBEB",
"6 	c #DDDDDD",
"7 	c #E3E3E3",
"8 	c #D0D0D0",
"9 	c #B1B1B1",
"0 	c #0A0A0A",
"a 	c #757575",
"b 	c #AEAEAE",
"c 	c #B4B4B4",
"d 	c #BFBFBF",
"e 	c #CCCCCC",
"f 	c #CBCBCB",
"g 	c #E2E2E2",
"h 	c #BDBDBD",
"i 	c #C8C8C8",
"j 	c #D2D2D2",
"k 	c #E0E0E0",
"l 	c #969696",
"m 	c #BEBEBE",
"n 	c #9E9E9E",
"o 	c #C6C6C6",
"p 	c #C2C2C2",
"q 	c #A6A6A6",
"r 	c #717171",
"s 	c #B8B8B8",
"t 	c #FAFAFA",
"u 	c #9B9B9B",
"v 	c #AAAAAA",
"w 	c #8E8E8E",
"x 	c #919191",
"y 	c #8F8F8F",
"z 	c #ABABAB",
"A 	c #7A7A7A",
"B 	c #9F9F9F",
"C 	c #C1C1C1",
"D 	c #CECECE",
"E 	c #8D8D8D",
"F 	c #BABABA",
"G 	c #D4D4D4",
"H 	c #A9A9A9",
"I 	c #767676",
"J 	c #D5D5D5",
"K 	c #C9C9C9",
"L 	c #7F7F7F",
"M 	c #FEFEFE",
"N 	c #DFDFDF",
"O 	c #D9D9D9",
"P 	c #E9E9E9",
"Q 	c #E1E1E1",
"R 	c #ECECEC",
"S 	c #848484",
"T 	c #C7C7C7",
"U 	c #AFAFAF",
"V 	c #C5C5C5",
"W 	c #C0C0C0",
"X 	c #989898",
"Y 	c #B3B3B3",
"Z 	c #BBBBBB",
"` 	c #B5B5B5",
" .	c #CFCFCF",
"..	c #E7E7E7",
"+.	c #020202",
"@.	c #838383",
"#.	c #9C9C9C",
"$.	c #D8D8D8",
"%.	c #A4A4A4",
"&.	c #7C7C7C",
"*.	c #A1A1A1",
"=.	c #B9B9B9",
"-.	c #9A9A9A",
";.	c #828282",
">.	c #979797",
",.	c #898989",
"'.	c #A8A8A8",
").	c #909090",
"!.	c #787878",
"~.	c #DEDEDE",
"{.	c #7B7B7B",
"].	c #B7B7B7",
"^.	c #DADADA",
"/.	c #DCDCDC",
"(.	c #D7D7D7",
"_.	c #BCBCBC",
":.	c #939393",
"<.	c #B6B6B6",
"[.	c #B2B2B2",
"}.	c #A0A0A0",
"|.	c #9D9D9D",
"1.	c #A2A2A2",
"2.	c #D3D3D3",
"3.	c #A7A7A7",
"4.	c #949494",
"5.	c #DBDBDB",
"6.	c #D6D6D6",
"7.	c #E4E4E4",
"8.	c #CDCDCD",
"9.	c #E5E5E5",
"0.	c #858585",
"a.	c #959595",
"b.	c #808080",
"c.	c #737373",
"d.	c #CACACA",
"e.	c #ACACAC",
"f.	c #ADADAD",
"g.	c #7D7D7D",
"h.	c #A5A5A5",
"i.	c #686868",
"j.	c #8A8A8A",
"k.	c #8B8B8B",
"l.	c #7E7E7E",
"m.	c #878787",
"n.	c #929292",
"o.	c #030303",
"p.	c #5F5F5F",
"q.	c #818181",
"r.	c #8C8C8C",
"s.	c #999999",
"t.	c #868686",
"u.	c #5E5E5E",
"v.	c #A3A3A3",
"w.	c #010101",
"x.	c #0C0C0C",
"y.	c #797979",
"z.	c #777777",
"A.	c #727272",
". + + + + + + + + + + + + + + + + + + + + + + + + @ # $ +     ",
"% & * = - ; & & ; > = , = = ' ) ! & = ' ~ { > = ; ' & ] ^     ",
"% ; ) / ( = ) = { = ( ! ~ _ _ ! _ _ ~ _ ) = & / ( / : < [ } | ",
"% = = > 1 ( ~ 2 ' ( 3 ! / * ! _ 4 ! 5 { ( 6 2 1 7 5 8 9 0 a b ",
"% { _ * c d - } e f g h i j k l m n e o p k o l k 3 | q ^ r s ",
"% & t _ u v 5 w x y z A B C D w } E z q F G H I J _ K v @ L s ",
"% - M ~ N { = O ( * 4 ~ ' M ' 3 { ~ P > = Q , 1 R R D } . S 9 ",
"% & 4 > D G T U V d f 6 W 8 Q j K X C Y Z `  .d ` ..e b +.L 9 ",
"% - ! / @.#.$.%.&.H 9 *.L =.~ -.;.>.B ,.'.).X q ` 5 K '.[ !.` ",
"% M / ; ~ ~ 4 ' t { M = ( t _ = ' ! ~.g * > / 5 3 5 e v @ {.` ",
"% ! 4 - k $.o ].D ^.O o d p s ]./.(._.V :.#.W ~.} 5 e v @ {.` ",
"% _ = 5 Z <.[.*.c w }.].[.|.< [.1.2.3.9 E ).c D 4.5 e v @ {.` ",
"% ; ; ; { M ) 5 ) 4 = ) 1 ; = 8 P ; , 4 4 5.> / g 5 e v @ {.` ",
"% ) ) ( | } j 2.[., 6.k ]._.7.$.].W 8.C ].F 9.< B 5 e v @ {.` ",
"% ; t , }.a '.].0./.c z v e B A X 3.q a.b.[.] 3.c.5 e v @ {.` ",
"% = _ 4 4 _ ~ - * = * / & ) - ~ - 3 5 / 1 _ ' R P 5 e v @ {.` ",
"% - 4 3 | T 7.j Y Z ] i 6.e o h d.~.o c < e.6.8.f 5 e v @ {.` ",
"% ' = 2 F x | v ,.q U L |.X r _.[.b f.9 g.4.] } 1.P f z % g.` ",
"% ; 1 { 1 > ' ( .._ 3 ~.g ' t ~ ( R ..{ , k R , ~.P f z % g.` ",
"% = - ; o < i $.8.=.c 8.Z 7 6.i a.) b Z p v ]._.W : d.v % &.` ",
"% - & 7.h.w 9 ` n ].i.].Y s q &.j.~.3.L U q k.} x : d.v % &.` ",
"% = ' { P 1 ) > g - ~ 7 - * : R / 4 ..5 / 3 7.k 1 ..K H @ &.` ",
"% ) 2 , 8.| } s =.Z ^.j :.5.f C i *.8.=.K e b p h 2 i H @ &.` ",
"% M - 3 <.x ,.4.-.v H u w ..l.%.*.S -.U c _.} :.a.9.i '.+ {.` ",
"% & { : ( /.) : R _ P 7 3 R g t N ..P P 3 P 6 k : 9.T '.+ {.` ",
"@ t ~ 7 '.T C m ].C m h F g V o Z o W U [.Y e.c | 9.< 1.+ l.` ",
"@ = 7.- L X b >.U m.k.a.U 6 a.g.y m.V S -.*.>.i n.7.V q % g.Y ",
"@ ' & 2 7._ O R 5 5.Q 2 7.& ~.2 7 k P _.3 k 7.^.Q k | 3.% &.[.",
"@ = 7 R 2.l 1 C %.} U e m '.W ..'.8 f 6.9 b P =.C N p %.o.A c ",
"@ ( ! N ).l k p.h.a.q.n '.r.s.Z t.k.8.r.H u.J X >.Q | %.+.{.].",
"@ ( ' j 1 ( G O : ..k $./.~.6 1 Q 7.R ^...: O 7 2 ^.C q + &.s ",
"@ ..: D d e d 6.e W j T o  .e i C o < e m d.d h p C c %.% &.` ",
"@ 6 d H *.'.z |.q H v.*.U %.1.b h.}.9 |.'.B e.q 3.q v.B @ A [.",
"+ [ o.$ + w.@ # % $ $ $ $ $ $ $ $ + + + + + + + + o.$ $ x.y.c ",
"    9 ;.@.m.L !.z.b.b.b.b.b.b.b.b.l.l.l.l.l.l.l.l.q.q.S A.E e.",
"    < 1.} s } } s Y Y Y Y Y Y Y Y Y Y Y Y Y Y Y Y b H ].].9 < "};
