/* XPM */
static char * text_x_C++_xpm[] = {
"38 38 785 2",
"  	c None",
". 	c #040404",
"+ 	c #090909",
"@ 	c #0B0B0B",
"# 	c #020202",
"$ 	c #000000",
"% 	c #030303",
"& 	c #060606",
"* 	c #121212",
"= 	c #050505",
"- 	c #0C0C0C",
"; 	c #070707",
"> 	c #010101",
", 	c #080808",
"' 	c #141414",
") 	c #E1E1E1",
"! 	c #FEFEFE",
"~ 	c #FFFFFF",
"{ 	c #FBFBFB",
"] 	c #F0F0F0",
"^ 	c #F8F8F8",
"/ 	c #F3F3F3",
"( 	c #F2F2F2",
"_ 	c #F9F9F9",
": 	c #F7F7F7",
"< 	c #FAFAFA",
"[ 	c #EFEFEF",
"} 	c #F5F5F5",
"| 	c #FCFCFC",
"1 	c #EBEBEB",
"2 	c #DEDEDE",
"3 	c #0E0E0E",
"4 	c #C6C6C6",
"5 	c #B9B9B9",
"6 	c #D6D6D6",
"7 	c #ECECEC",
"8 	c #F6F6F6",
"9 	c #F4F4F4",
"0 	c #D2D2D2",
"a 	c #AAAAAA",
"b 	c #DCDCDC",
"c 	c #C4C4C4",
"d 	c #0F0F0F",
"e 	c #C5C5C5",
"f 	c #E0E0E0",
"g 	c #E8E8E8",
"h 	c #EDEDED",
"i 	c #F1F1F1",
"j 	c #FDFDFD",
"k 	c #E9E9E9",
"l 	c #E7E7E7",
"m 	c #A7A7A7",
"n 	c #E6E6E6",
"o 	c #A6A6A6",
"p 	c #7D7D7D",
"q 	c #EEEEEE",
"r 	c #E2E2E2",
"s 	c #BBBBBB",
"t 	c #DADADA",
"u 	c #CACACA",
"v 	c #B5B5B5",
"w 	c #B3B3B3",
"x 	c #DDDDDD",
"y 	c #9F9F9F",
"z 	c #AFAFAF",
"A 	c #C3C3C3",
"B 	c #CBCBCB",
"C 	c #CECECE",
"D 	c #CDCDCD",
"E 	c #EAEAEA",
"F 	c #A9A9A9",
"G 	c #878787",
"H 	c #B6B6B6",
"I 	c #DFDFDF",
"J 	c #9B9B9B",
"K 	c #A5A5A5",
"L 	c #919191",
"M 	c #A0A0A0",
"N 	c #ADADAD",
"O 	c #959595",
"P 	c #8C8C8C",
"Q 	c #A3A3A3",
"R 	c #D0D0D0",
"S 	c #C2C2C2",
"T 	c #C8C8C8",
"U 	c #C0C0C0",
"V 	c #B8B8B8",
"W 	c #6D6D6D",
"X 	c #070709",
"Y 	c #F9F9FB",
"Z 	c #BEBEC0",
"` 	c #EEEEEC",
" .	c #EDEDEB",
"..	c #EBEBE9",
"+.	c #B4B4B2",
"@.	c #E2E2E0",
"#.	c #EFEFED",
"$.	c #8A8A8A",
"%.	c #050409",
"&.	c #FFFEFF",
"*.	c #DFDEE3",
"=.	c #DDDDDF",
"-.	c #F6F6F8",
";.	c #FBFBFD",
">.	c #B3B3B1",
",.	c #F4F4F2",
"'.	c #C4C4C2",
").	c #B2B2B0",
"!.	c #D3D3D1",
"~.	c #C7C7C5",
"{.	c #BFBFBD",
"].	c #CFCFCF",
"^.	c #C1C1C1",
"/.	c #A4A4A4",
"(.	c #B9B9B7",
"_.	c #C9CAC5",
":.	c #9FA09B",
"<.	c #EEEFEA",
"[.	c #DADBD6",
"}.	c #DFE0DB",
"|.	c #E3E4DF",
"1.	c #A8A8A6",
"2.	c #000004",
"3.	c #D1D0D5",
"4.	c #BABABC",
"5.	c #DADADC",
"6.	c #F1F1F3",
"7.	c #B0B0B0",
"8.	c #979797",
"9.	c #BDBDBB",
"0.	c #8C8C8A",
"a.	c #A0A09E",
"b.	c #9A9A98",
"c.	c #949492",
"d.	c #AAAAAC",
"e.	c #A4A4A6",
"f.	c #A5A5A7",
"g.	c #9C9C9C",
"h.	c #848482",
"i.	c #AEAFAA",
"j.	c #ECEDE8",
"k.	c #EDEEE8",
"l.	c #C8C9C3",
"m.	c #BDBEB8",
"n.	c #C5C6C1",
"o.	c #A9A9A7",
"p.	c #181818",
"q.	c #868686",
"r.	c #09090B",
"s.	c #F7F7F9",
"t.	c #ADADAF",
"u.	c #ECECEE",
"v.	c #E8E8EA",
"w.	c #E3E3E5",
"x.	c #F3F3F5",
"y.	c #F1F2ED",
"z.	c #EDEEE9",
"A.	c #F6F7F2",
"B.	c #B7B8B3",
"C.	c #D9DAD5",
"D.	c #AEAEAC",
"E.	c #111111",
"F.	c #89898B",
"G.	c #E1E1E3",
"H.	c #E4E4E4",
"I.	c #D8D8D8",
"J.	c #DBDBDB",
"K.	c #B4B4B4",
"L.	c #9F9FA1",
"M.	c #EAEAEC",
"N.	c #F5F5F3",
"O.	c #EBECE7",
"P.	c #E4E5E0",
"Q.	c #DCDCDA",
"R.	c #B7B7B5",
"S.	c #343434",
"T.	c #959597",
"U.	c #FFFFFD",
"V.	c #D1D1D1",
"W.	c #E1E1DF",
"X.	c #D5D5D5",
"Y.	c #BCBCBC",
"Z.	c #E0E0DE",
"`.	c #FFFFFB",
" +	c #F5F6F0",
".+	c #BBBCB6",
"++	c #C0C1BB",
"@+	c #ACACAA",
"#+	c #3D3D3B",
"$+	c #989898",
"%+	c #0A0A08",
"&+	c #F6F6F4",
"*+	c #E8E8E6",
"=+	c #E5E5E3",
"-+	c #FDFDFB",
";+	c #BDBDBD",
">+	c #F7F8F3",
",+	c #F8F9F4",
"'+	c #B6B7B2",
")+	c #FFFFFA",
"!+	c #E8E9E3",
"~+	c #E4E5DD",
"{+	c #E2E3DB",
"]+	c #BCBDB5",
"^+	c #E3E4DC",
"/+	c #EBECE6",
"(+	c #B6B7B1",
"_+	c #3B3C37",
":+	c #969792",
"<+	c #070803",
"[+	c #E6E7E2",
"}+	c #E7E8E3",
"|+	c #F1F1EF",
"1+	c #F5F5F7",
"2+	c #C1C1C3",
"3+	c #D0D0D2",
"4+	c #999999",
"5+	c #C2C3BD",
"6+	c #B7B8B0",
"7+	c #B3B4AC",
"8+	c #ABADA2",
"9+	c #5E6055",
"0+	c #292B20",
"a+	c #1C1E13",
"b+	c #111308",
"c+	c #101207",
"d+	c #2B2D22",
"e+	c #595B50",
"f+	c #85877C",
"g+	c #55574C",
"h+	c #A7A99E",
"i+	c #060702",
"j+	c #F7F8F2",
"k+	c #FDFDFF",
"l+	c #ABABAD",
"m+	c #B2B2B4",
"n+	c #858585",
"o+	c #8E8E8E",
"p+	c #C1C2BD",
"q+	c #A9ABA0",
"r+	c #505244",
"s+	c #282A1C",
"t+	c #4B4D3F",
"u+	c #949688",
"v+	c #E2E4D6",
"w+	c #EAECDE",
"x+	c #EBEDDF",
"y+	c #D1D3C5",
"z+	c #939587",
"A+	c #545648",
"B+	c #040600",
"C+	c #787A6C",
"D+	c #0F100A",
"E+	c #F5F6EE",
"F+	c #B7B8B2",
"G+	c #FEFEFF",
"H+	c #FBFCF7",
"I+	c #ECEDE5",
"J+	c #5E6150",
"K+	c #4A4D38",
"L+	c #C4C7B2",
"M+	c #F0F3DE",
"N+	c #F7FAE5",
"O+	c #E0E3CE",
"P+	c #E4E7D2",
"Q+	c #E7EAD5",
"R+	c #E3E6D1",
"S+	c #EDF0DB",
"T+	c #E9ECD7",
"U+	c #D7DAC5",
"V+	c #B0B39E",
"W+	c #3A3D28",
"X+	c #494C37",
"Y+	c #000100",
"Z+	c #FEFFF7",
"`+	c #E6E7E1",
" @	c #FEFEFC",
".@	c #FAFAFC",
"+@	c #F0F0F2",
"@@	c #D5D5D7",
"#@	c #D1D1CF",
"$@	c #CDCDCB",
"%@	c #BFC0BB",
"&@	c #B2B3AD",
"*@	c #4A4C3F",
"=@	c #6B6E59",
"-@	c #FFFFEA",
";@	c #EAEED7",
">@	c #E4E8D1",
",@	c #D6DAC3",
"'@	c #C7CBB4",
")@	c #C2C6AF",
"!@	c #BABEA7",
"~@	c #CACEB7",
"{@	c #CFD3BC",
"]@	c #E3E7D0",
"^@	c #E2E6CF",
"/@	c #CFD3BA",
"(@	c #585C43",
"_@	c #4D503D",
":@	c #C2C3BE",
"<@	c #D5D5D3",
"[@	c #F5F4F9",
"}@	c #F4F4F6",
"|@	c #ACACAC",
"1@	c #90908E",
"2@	c #A0A19B",
"3@	c #9B9C94",
"4@	c #212318",
"5@	c #76786A",
"6@	c #F8FCE5",
"7@	c #DEE2C7",
"8@	c #D1D5BC",
"9@	c #BFC3AA",
"0@	c #838770",
"a@	c #585C45",
"b@	c #121600",
"c@	c #101400",
"d@	c #2C3019",
"e@	c #565A43",
"f@	c #9EA28B",
"g@	c #D1D5BE",
"h@	c #D9DDC4",
"i@	c #D2D6BD",
"j@	c #E4E8CF",
"k@	c #525540",
"l@	c #5E5F59",
"m@	c #BABBB6",
"n@	c #DEDEDC",
"o@	c #F1F0F5",
"p@	c #EFEEF3",
"q@	c #FDFEF9",
"r@	c #F2F3EB",
"s@	c #A5A79C",
"t@	c #46483B",
"u@	c #F4F7E6",
"v@	c #D0D4BB",
"w@	c #AAAE97",
"x@	c #3A3E27",
"y@	c #393C27",
"z@	c #9DA08B",
"A@	c #DCDFCA",
"B@	c #A0A38E",
"C@	c #A1A48F",
"D@	c #5B5E49",
"E@	c #ADB19A",
"F@	c #ADB198",
"G@	c #BABDAA",
"H@	c #292A24",
"I@	c #DADAD8",
"J@	c #FCFCFE",
"K@	c #EDECF1",
"L@	c #F3F2F7",
"M@	c #E6E5EA",
"N@	c #C4C4C6",
"O@	c #ACADA7",
"P@	c #CCCEC3",
"Q@	c #383A2C",
"R@	c #D1D4C3",
"S@	c #E2E5D2",
"T@	c #CACDB8",
"U@	c #ACAF9A",
"V@	c #2C2F1C",
"W@	c #8A8D7A",
"X@	c #E9ECDB",
"Y@	c #000300",
"Z@	c #010300",
"`@	c #0F1103",
" #	c #0C0E00",
".#	c #DCDFCE",
"+#	c #696C5B",
"@#	c #070A00",
"##	c #0A0D00",
"$#	c #0C0F00",
"%#	c #0A0B05",
"&#	c #2D2D2D",
"*#	c #070705",
"=#	c #D8D7DC",
"-#	c #EBEAEF",
";#	c #E4E3E8",
">#	c #B9B9BB",
",#	c #B1B2AD",
"'#	c #9D9E96",
")#	c #494B3E",
"!#	c #464938",
"~#	c #EFF2DF",
"{#	c #E8EBD8",
"]#	c #C2C5B2",
"^#	c #404332",
"/#	c #858779",
"(#	c #E3E5D7",
"_#	c #E5E7DA",
":#	c #FCFEF3",
"<#	c #F1F3E8",
"[#	c #C7C9BE",
"}#	c #000200",
"|#	c #E0E2D7",
"1#	c #CFD1C4",
"2#	c #030500",
"3#	c #F0F2E4",
"4#	c #E5E8D7",
"5#	c #C8CABC",
"6#	c #030400",
"7#	c #020200",
"8#	c #BEBEBE",
"9#	c #DBDBDD",
"0#	c #EFEEF4",
"a#	c #D4D4D6",
"b#	c #E4E5DF",
"c#	c #F6F8ED",
"d#	c #656759",
"e#	c #9C9F8E",
"f#	c #EFF2DD",
"g#	c #D1D4C1",
"h#	c #8A8C7E",
"i#	c #3C3E31",
"j#	c #DFE1D6",
"k#	c #F3F5EA",
"l#	c #D9DAD2",
"m#	c #151610",
"n#	c #0D0E08",
"o#	c #D3D4CE",
"p#	c #C3C4BC",
"q#	c #121409",
"r#	c #F0F2E7",
"s#	c #EDEFE2",
"t#	c #A0A297",
"u#	c #0A0B06",
"v#	c #BABABA",
"w#	c #9D9D9D",
"x#	c #E9E9EB",
"y#	c #E3E2E7",
"z#	c #ECEBF0",
"A#	c #EDEDEF",
"B#	c #C3C5BA",
"C#	c #E1E4CF",
"D#	c #BEC2AB",
"E#	c #515345",
"F#	c #67695C",
"G#	c #0B0D02",
"H#	c #040500",
"I#	c #010200",
"J#	c #0C0D07",
"K#	c #FCFDF7",
"L#	c #EAEBE5",
"M#	c #ADAEA6",
"N#	c #0D0F04",
"O#	c #090B00",
"P#	c #F9FCEB",
"Q#	c #CFD2BF",
"R#	c #A5A897",
"S#	c #0E0F09",
"T#	c #B1B1AF",
"U#	c #E9E9E7",
"V#	c #9F9F9D",
"W#	c #999A95",
"X#	c #96988D",
"Y#	c #111403",
"Z#	c #F2F6DF",
"`#	c #E9EED0",
" $	c #BBBFA4",
".$	c #2F301E",
"+$	c #97988A",
"@$	c #16160A",
"#$	c #EFEFE3",
"$$	c #FAFAEE",
"%$	c #FBFCEE",
"&$	c #F4F5E7",
"*$	c #FAFBEB",
"=$	c #D6D7C5",
"-$	c #F1F3DE",
";$	c #EFF2D7",
">$	c #F2F5D6",
",$	c #F3F7D6",
"'$	c #DADEBB",
")$	c #CBCFAE",
"!$	c #ECF0D7",
"~$	c #F4F7E4",
"{$	c #C0C3B2",
"]$	c #050700",
"^$	c #060608",
"/$	c #ECECEA",
"($	c #EBEDE2",
"_$	c #F2F6DD",
":$	c #DFE4C4",
"<$	c #BDC2A4",
"[$	c #D9DACC",
"}$	c #111204",
"|$	c #F9FAEC",
"1$	c #EEEFE1",
"2$	c #EDEEDE",
"3$	c #FDFEEE",
"4$	c #E1E2D0",
"5$	c #E6E8D2",
"6$	c #F4F6DE",
"7$	c #E0E3C6",
"8$	c #E1E5C4",
"9$	c #E7EBC6",
"0$	c #D9DEB6",
"a$	c #D1D6AD",
"b$	c #D2D7AF",
"c$	c #D1D6B8",
"d$	c #C8CCB3",
"e$	c #AAAD98",
"f$	c #090C00",
"g$	c #B1B3A6",
"h$	c #A9AAA2",
"i$	c #0E0E10",
"j$	c #E9EAE5",
"k$	c #E6E6E4",
"l$	c #C2C2C0",
"m$	c #B7B7B7",
"n$	c #989994",
"o$	c #D7D8D0",
"p$	c #1A1C0E",
"q$	c #F1F6D8",
"r$	c #BBC0A2",
"s$	c #222311",
"t$	c #C5C5B9",
"u$	c #040400",
"v$	c #CDCDC1",
"w$	c #ABAB9F",
"x$	c #B0B1A3",
"y$	c #DFE0D2",
"z$	c #B2B3A1",
"A$	c #ADAF99",
"B$	c #A5A78F",
"C$	c #AEB194",
"D$	c #A4A788",
"E$	c #D8DCB9",
"F$	c #CCD0AB",
"G$	c #A9AD8C",
"H$	c #A6AA8F",
"I$	c #969984",
"J$	c #9DA08F",
"K$	c #76786D",
"L$	c #B3B4AE",
"M$	c #C9C9C9",
"N$	c #B6B6B4",
"O$	c #D6D7D2",
"P$	c #E5E6E1",
"Q$	c #A1A1A1",
"R$	c #878785",
"S$	c #C2C3BB",
"T$	c #3B3D2F",
"U$	c #C6C9B4",
"V$	c #E6EBCD",
"W$	c #D0D4B9",
"X$	c #646555",
"Y$	c #7B7B6F",
"Z$	c #010100",
"`$	c #0F0F03",
" %	c #050500",
".%	c #F2F2E6",
"+%	c #EAEBDD",
"@%	c #A7A898",
"#%	c #050600",
"$%	c #020400",
"%%	c #0B0D00",
"&%	c #010400",
"*%	c #EDF0D3",
"=%	c #E3E6C7",
"-%	c #999C7F",
";%	c #0D1000",
">%	c #0E1002",
",%	c #757670",
"'%	c #000002",
")%	c #DDDDDB",
"!%	c #E8E9E4",
"~%	c #E3E3E1",
"{%	c #DADBD5",
"]%	c #535548",
"^%	c #DCE0C7",
"/%	c #DDE1C8",
"(%	c #939484",
"_%	c #3D3D31",
":%	c #CCCCC0",
"<%	c #E1E1D7",
"[%	c #090900",
"}%	c #F5F5E9",
"|%	c #F5F6E8",
"1%	c #BBBCAE",
"2%	c #090A00",
"3%	c #B7B9A4",
"4%	c #F2F4DC",
"5%	c #CFD1B9",
"6%	c #AAAC96",
"7%	c #888A7D",
"8%	c #696B60",
"9%	c #71726C",
"0%	c #8A8B86",
"a%	c #B2B2B2",
"b%	c #0D0D0F",
"c%	c #F5F6F1",
"d%	c #A3A3A1",
"e%	c #E7E7E9",
"f%	c #9EA093",
"g%	c #4F523F",
"h%	c #DBDFC8",
"i%	c #D4D5C5",
"j%	c #363729",
"k%	c #898A7C",
"l%	c #DEDFD1",
"m%	c #DCDCD0",
"n%	c #ADAEA0",
"o%	c #949587",
"p%	c #C5C6B6",
"q%	c #B8B9A9",
"r%	c #C6C8B3",
"s%	c #ADAF9A",
"t%	c #9A9B89",
"u%	c #83847C",
"v%	c #B0B0B2",
"w%	c #E2E2E4",
"x%	c #B3B4AF",
"y%	c #CFD0CB",
"z%	c #EAEAE8",
"A%	c #E0E0E2",
"B%	c #DFE0D8",
"C%	c #303224",
"D%	c #B8BBA8",
"E%	c #DFE2CD",
"F%	c #DBDCCA",
"G%	c #C8C9B9",
"H%	c #262717",
"I%	c #959686",
"J%	c #141507",
"K%	c #151606",
"L%	c #111202",
"M%	c #979888",
"N%	c #767767",
"O%	c #0E0F00",
"P%	c #070800",
"Q%	c #060700",
"R%	c #1F201B",
"S%	c #040308",
"T%	c #E2E3DE",
"U%	c #E9EAE4",
"V%	c #DBDBD9",
"W%	c #E5E5E7",
"X%	c #949689",
"Y%	c #454837",
"Z%	c #D4D7C4",
"`%	c #DDDFCA",
" &	c #DBDDC8",
".&	c #CDCFBA",
"+&	c #333520",
"@&	c #3A3B29",
"#&	c #949583",
"$&	c #D1D2C0",
"%&	c #CACBB9",
"&&	c #A3A492",
"*&	c #6D6E5C",
"=&	c #2E2F1D",
"-&	c #636454",
";&	c #EEEFDF",
">&	c #DDDECE",
",&	c #DADBC9",
"'&	c #B8B9AB",
")&	c #23241E",
"!&	c #616161",
"~&	c #06050A",
"{&	c #E0E1DC",
"]&	c #C0C1BC",
"^&	c #D3D3D3",
"/&	c #C2C2C4",
"(&	c #D9D9DB",
"_&	c #C7C7C7",
":&	c #DDDED9",
"<&	c #C8CABF",
"[&	c #595B4D",
"}&	c #606350",
"|&	c #DEE0CB",
"1&	c #CBCDB7",
"2&	c #DEE0CA",
"3&	c #DADCC6",
"4&	c #62644E",
"5&	c #282A15",
"6&	c #242611",
"7&	c #575944",
"8&	c #BCBEA9",
"9&	c #E7E8D6",
"0&	c #C7C8B6",
"a&	c #BCBDAB",
"b&	c #A0A191",
"c&	c #525246",
"d&	c #484944",
"e&	c #A9AAA5",
"f&	c #A7A8A3",
"g&	c #BCBDB7",
"h&	c #ABABA9",
"i&	c #CECED0",
"j&	c #B7B6BB",
"k&	c #C6C6C8",
"l&	c #BEBEBC",
"m&	c #CBCCC6",
"n&	c #383B2A",
"o&	c #60624D",
"p&	c #CACCB4",
"q&	c #D5D7BF",
"r&	c #D2D4BC",
"s&	c #DDDFC7",
"t&	c #DCDEC8",
"u&	c #EFF1DB",
"v&	c #E3E5CF",
"w&	c #E7E9D3",
"x&	c #CBCDB8",
"y&	c #C6C7B5",
"z&	c #A2A391",
"A&	c #515242",
"B&	c #202014",
"C&	c #767674",
"D&	c #8D8D8F",
"E&	c #A6A5AA",
"F&	c #151517",
"G&	c #171813",
"H&	c #20211B",
"I&	c #23241F",
"J&	c #4F4F4D",
"K&	c #454547",
"L&	c #5A595E",
"M&	c #5B5A60",
"N&	c #7F7E83",
"O&	c #7F7F7F",
"P&	c #7A7B76",
"Q&	c #A2A39B",
"R&	c #8F9184",
"S&	c #4D4E3C",
"T&	c #343620",
"U&	c #9C9E88",
"V&	c #CACCB6",
"W&	c #CDCFB9",
"X&	c #C4C6B0",
"Y&	c #BCBEA8",
"Z&	c #C6C8B2",
"`&	c #C3C5AF",
" *	c #BDBFAA",
".*	c #B3B4A2",
"+*	c #808171",
"@*	c #2F3020",
"#*	c #313224",
"$*	c #818177",
"%*	c #A0A0A2",
"&*	c #888984",
"**	c #82837D",
"=*	c #A5A6A0",
"-*	c #9D9E99",
";*	c #9B9B99",
">*	c #A1A0A6",
",*	c #ACADA8",
"'*	c #2D2E1C",
")*	c #444631",
"!*	c #81836E",
"~*	c #B1B39E",
"{*	c #B2B49F",
"]*	c #BBBDA8",
"^*	c #AAAC97",
"/*	c #6D6E5E",
"(*	c #272818",
"_*	c #232416",
":*	c #5A5B4D",
"<*	c #828276",
"[*	c #85857D",
"}*	c #868779",
"|*	c #515244",
"1*	c #2B2C1E",
"2*	c #131406",
"3*	c #252618",
"4*	c #38382C",
"5*	c #5F5F53",
"6*	c #88887E",
"7*	c #888880",
"8*	c #8D8C87",
"9*	c #B3B2AD",
"0*	c #B0B0A6",
"a*	c #A2A298",
"b*	c #99998D",
"c*	c #87877D",
"d*	c #7F7F75",
"e*	c #898981",
"f*	c #94948C",
"g*	c #94938F",
"h*	c #A5A4A0",
"i*	c #B5B4AF",
"j*	c #A9A8A3",
". + @ # $ % @ + + $ # & * + @ % . = - # ; > + & > , $ . =                   ",
"' ) ! ! ~ ~ { ] ~ ~ ~ ^ / ( _ ~ : ~ < ~ [ ~ } } ~ | 1 2 3                   ",
"$ ~ 4 5 6 ( ~ ~ 7 { ( _ : ~ { / 8 _ [ _ 9 ~ ^ 8 0 a b c #                   ",
"d : e f g / 1 h i < j ( ^ 7 [ ^ ^ k i l / b l k m g n o @ p                 ",
"% q r 1 : ~ s t u v u w x y z s A B 4 r e C D [ r x E F > G                 ",
"- ! c H I h J K F L M m ( c N O P K O C Q R S E T H U V $ W                 ",
"X Y Z r q [ | 9 q ~ { [ ^ _ [ ^ 8 9 } ( ( `  ...+.@.#.J 3 $.                ",
"%.&.*.=.-.;.N U >.,.'.).!.~.{.].^.Z /.u (._.:.<.[.}.|.1.; G                 ",
"2.&.3.4.5.6.7.8.>.` 9.0.a.b.c.v d.e.f.g.h.i.j.k.l.m.n.o.p.q.                ",
"r.s.t.u.v.~ f ~ _ | | | | < ! 9 w.x.;.] ..y.z.A.B.C...D.E.F.                ",
"= ~ G.r j } ~ H.F I.J.].D K.B b Y L.M.K.N.O.y.P.|.}.Q.R.S.T.                ",
"# U.V.9.W. .~ A Q ~ K W e Q g.X.I.Y.[ 9.Z.`.j. +.+++n.@+#+$+                ",
"%+&+D.*+=+-+| ~ ~ } { ~ E ;+: <  .>+,+'+)+!+~+{+]+^+/+(+_+:+                ",
"<+`.[+}+U.|+^ [ 1+4.2+3+x y 4+).5+6+7+8+9+0+a+b+c+d+e+f+g+h+                ",
"i+j+_.B.Z.&+~ _ k+l+m+n+o+O a.p+q+r+s+t+u+v+v+w+x+y+z+A+B+C+                ",
"D+E+F+|.` ,.] G+-.;.9 } < ..H+I+J+K+L+M+N+O+P+Q+R+S+T+U+V+W+X+              ",
"Y+Z+`+[+ @h .@6.+@@@N #@$@%@&@*@=@-@;@>@,@'@)@!@)@~@{@]@^@/@(@_@            ",
"i+)+:@_.<@h s.[@}@L.|@1@2@3@4@5@6@7@8@9@0@a@b@c@d@e@f@g@h@i@j@k@l@          ",
"<+H+m@n@n k+o@p@1+< @.q@r@s@t@u@;@v@w@x@y@z@U+A@B@C@W+D@~@E@F@G@H@J         ",
"i+H+I@) J@K@L@M@N@u n.O@P@Q@R@S@T@U@V@W@X@Y@Z@`@`@ #.#+#@###@#$#%#&#        ",
"*#U.4 N@=#-#L@;#>#w ,#'#)#!#~#{#]#^#/#(#_#B+:#<#[#}#|#1#2#3#4#5#6#M         ",
"7#U.8#9#*.&.0#;#a#k b#c#d#e#f#g#h#i#j#k#l#m#[+q@,#n#o#p#q#r#s#t#u#v#w#      ",
"+ j J.x#-.y#z#o@A#D O@B#s+C#;@D#E#F#G#H#I#J#K#L#M#Y+N#O#}#P#Q#R#2#H#S#<+    ",
", _ B T#W.U#/ k E V#W#X#Y#Z#`# $.$+$@$#$$$%$&$*$=$-$-@;$>$,$'$)$!$~${$]$    ",
"^$: 5 /$j.[+|+` 9 =+j.($Y@_$:$<$O#[$}$|$1$2$3$4$5$6$7$8$9$0$a$b$c$d$e$f$g$h$",
"i$_ ) ..<.j$k$l$m$(.n$o$p$;@q$r$s$t$u$v$w$x$y$*$z$A$B$C$D$E$F$G$H$I$J$`@K$L$",
"^$: M$N$O$P$,.$@Q$H R$S$T$U$V$W$X$Y$Z$`$ % %.%+%@%#%$%%%&%*%=%-%Y@;%>%B+,%  ",
"'%~ N )%O.!%)%U#x i ~%{%]%z@^%/%(%_%:%:%<%[%}%|%1%2%z$3%%%4%5%6%f$7%8%9%0%a%",
"b%Y 2 !%c%/+d%=+6.e%] }.f%g%Z#h%i%j%k%l%m%7#:%n%o%I#p%q%6#r%s%t%}#u%    m v%",
"b%w%J.x%y%b#).z%A%9#n }+B%C%D%E%F%G%H%I%l%#%J%I#K%L%M%N%I#O%P%2%Q%R%d%      ",
"S%~ N T%T%U%!%V%r W%G.~%`+X%Y%Z%`% &.&+&@&#&$&%&&&*&=&-&;&>&,&'&)&!&K.      ",
"~&+@R {&!%F+]&<@^&/&(&_&:&<&[&}&|&1&2&3&6%4&5&$%6&7&8&9&0&a&b&c&d&  m+      ",
"%.3+_&e&f&g&]&h&5 i&j&k&l&m&P@n&o&p&q&r&q&s&t&u&v&w&x&8&y&z&A&B&C&D&E&      ",
"%.F&$ G&R%H&I&J&K&L&M&N&O&P&Q&R&S&T&U&V&W&X&W&Y&Z&`& *.*+*@*#*$*R$%*        ",
"    w &***=*-*;*d.    >*    ,*    &&'*)*!*~*{*]*^*&&/*(*_*:*<*[*;*          ",
"                                      }*|*1*K%I#2*3*4*5*6*7*8*9*            ",
"                                          0*a*b*c*d*e*f*g*h*                ",
"                                                i*j*                        "};
