/* XPM */
static char * text_x_java_xpm[] = {
"39 39 772 2",
"  	c None",
". 	c #050505",
"+ 	c #080808",
"@ 	c #121212",
"# 	c #000000",
"$ 	c #171717",
"% 	c #020202",
"& 	c #FFFFFF",
"* 	c #F2F2F2",
"= 	c #F5F5F5",
"- 	c #F6F6F6",
"; 	c #F9F9F9",
"> 	c #FBFBFB",
", 	c #FCFCFC",
"' 	c #FDFDFD",
") 	c #F3F3F3",
"! 	c #FEFEFE",
"~ 	c #EDEDED",
"{ 	c #D9D9D9",
"] 	c #0B0B0B",
"^ 	c #0A0A0A",
"/ 	c #F1F1F1",
"( 	c #D4D4D4",
"_ 	c #AFAFAF",
": 	c #E7E7E7",
"< 	c #F8F8F8",
"[ 	c #F4F4F4",
"} 	c #EBEBEB",
"| 	c #C8C8C8",
"1 	c #BBBBBB",
"2 	c #CDCDCD",
"3 	c #D0D0D0",
"4 	c #070707",
"5 	c #A6A6A6",
"6 	c #BCBCBC",
"7 	c #010101",
"8 	c #B0B0B0",
"9 	c #E6E6E6",
"0 	c #E8E8E8",
"a 	c #E9E9E9",
"b 	c #E2E2E2",
"c 	c #EEEEEE",
"d 	c #EFEFEF",
"e 	c #F0F0F0",
"f 	c #BFBFBF",
"g 	c #D5D5D5",
"h 	c #ECECEC",
"i 	c #ACACAC",
"j 	c #898989",
"k 	c #B8B8B8",
"l 	c #0E0E0E",
"m 	c #E0E0E0",
"n 	c #CBCBCB",
"o 	c #BDBDBD",
"p 	c #DCDCDC",
"q 	c #9D9D9D",
"r 	c #BABABA",
"s 	c #B3B3B3",
"t 	c #CCCCCC",
"u 	c #C6C6C6",
"v 	c #C2C2C2",
"w 	c #D1D1D1",
"x 	c #BEBEBE",
"y 	c #DEDEDE",
"z 	c #E3E3E3",
"A 	c #A9A9A9",
"B 	c #868686",
"C 	c #B4B4B4",
"D 	c #161616",
"E 	c #CFCFCF",
"F 	c #A3A3A3",
"G 	c #ADADAD",
"H 	c #999999",
"I 	c #8B8B8B",
"J 	c #A4A4A4",
"K 	c #A7A7A7",
"L 	c #B1B1B1",
"M 	c #8D8D8D",
"N 	c #939393",
"O 	c #DBDBDB",
"P 	c #9C9C9C",
"Q 	c #D7D7D7",
"R 	c #C1C1C1",
"S 	c #C5C5C5",
"T 	c #101010",
"U 	c #838383",
"V 	c #E5E5E5",
"W 	c #FAFAFA",
"X 	c #B6B6B6",
"Y 	c #AAAAAA",
"Z 	c #848484",
"` 	c #0D0D0D",
" .	c #D6D6D6",
"..	c #C7C7C7",
"+.	c #C3C3C3",
"@.	c #B2B2B2",
"#.	c #C4C4C4",
"$.	c #090909",
"%.	c #7B7B7B",
"&.	c #B9B9B9",
"*.	c #A1A1A1",
"=.	c #9A9A9A",
"-.	c #B5B5B5",
";.	c #8C8C8C",
">.	c #979797",
",.	c #959595",
"'.	c #A8AAA7",
").	c #A7A7A5",
"!.	c #B4B0AF",
"~.	c #94908F",
"{.	c #939290",
"].	c #ADAEA9",
"^.	c #E6E6E4",
"/.	c #EDEFEA",
"(.	c #BEC3BF",
"_.	c #B7B7B5",
":.	c #C8BEBF",
"<.	c #ADA1A3",
"[.	c #221618",
"}.	c #908687",
"|.	c #C7C1C1",
"1.	c #DFDFDF",
"2.	c #F7F7F7",
"3.	c #F8FAF7",
"4.	c #E2E7E0",
"5.	c #ECEDE5",
"6.	c #F9EEEA",
"7.	c #FFF5F1",
"8.	c #F3EEE8",
"9.	c #EEF0E5",
"0.	c #F1F4EB",
"a.	c #E4ECDF",
"b.	c #AEBAAE",
"c.	c #EFEFE7",
"d.	c #FFE3E5",
"e.	c #FFE0E5",
"f.	c #FFE4EB",
"g.	c #F6D9DD",
"h.	c #CDBABC",
"i.	c #D3D3D3",
"j.	c #DADADA",
"k.	c #9E9E9E",
"l.	c #CECECE",
"m.	c #DEE0DD",
"n.	c #E8EFE7",
"o.	c #A3A59A",
"p.	c #FFFAF6",
"q.	c #B29A98",
"r.	c #FDE8E5",
"s.	c #FFF5ED",
"t.	c #FCFAEE",
"u.	c #FEFFF3",
"v.	c #F9F7EB",
"w.	c #E0D3CB",
"x.	c #BC9A9B",
"y.	c #CA9DA2",
"z.	c #B48990",
"A.	c #C09CA0",
"B.	c #A8A8A8",
"C.	c #C6CBC7",
"D.	c #D7E4DA",
"E.	c #C1C4BB",
"F.	c #EAD5D4",
"G.	c #E9C0C4",
"H.	c #FFEFF6",
"I.	c #E9BCC1",
"J.	c #BBA6A3",
"K.	c #FFEEEA",
"L.	c #DFBBBD",
"M.	c #C89FA3",
"N.	c #FCDEE0",
"O.	c #FAE0E1",
"P.	c #C2A5A9",
"Q.	c #F3D4D9",
"R.	c #AD9095",
"S.	c #F7FCF8",
"T.	c #E2EDE5",
"U.	c #FFFFFA",
"V.	c #FFF5F7",
"W.	c #F8C5CE",
"X.	c #B67782",
"Y.	c #AC737C",
"Z.	c #FBD9DA",
"`.	c #FFE3E2",
" +	c #C88C96",
".+	c #FAC1CA",
"++	c #FFE6E7",
"@+	c #C5B3B1",
"#+	c #4A3C3B",
"$+	c #C5B1B2",
"%+	c #FCDBE2",
"&+	c #B5989D",
"*+	c #060606",
"=+	c #DDDDDD",
"-+	c #BFC1BE",
";+	c #C2C7C1",
">+	c #DDD3D1",
",+	c #FFD7DE",
"'+	c #C28894",
")+	c #B27A83",
"!+	c #FFD8DE",
"~+	c #FFDBDD",
"{+	c #C39295",
"]+	c #FFE5EF",
"^+	c #BF8089",
"/+	c #FFE5E8",
"(+	c #BBACA7",
"_+	c #56574F",
":+	c #A49F99",
"<+	c #FBD8DE",
"[+	c #BF9AA1",
"}+	c #C9C9C9",
"|+	c #989898",
"1+	c #B4AAA9",
"2+	c #FCE2E5",
"3+	c #B3818A",
"4+	c #BB868E",
"5+	c #FEDADA",
"6+	c #E1C2BF",
"7+	c #FFDDDD",
"8+	c #CC989A",
"9+	c #FFC8CF",
"0+	c #E6A5AB",
"a+	c #FFE3E4",
"b+	c #CAB5B0",
"c+	c #545A4E",
"d+	c #AAAAA0",
"e+	c #FFDCE1",
"f+	c #BB9097",
"g+	c #FFF7F8",
"h+	c #FFF1F6",
"i+	c #CA9BA1",
"j+	c #F3C0C5",
"k+	c #C19B9A",
"l+	c #FFFAEC",
"m+	c #F5F2E1",
"n+	c #F1D6CD",
"o+	c #D9A9A5",
"p+	c #D39695",
"q+	c #FFD3D4",
"r+	c #F5C2C1",
"s+	c #FFEAE5",
"t+	c #6B6C5E",
"u+	c #D0CCC0",
"v+	c #FFDCDF",
"w+	c #D6A5AB",
"x+	c #D9C9CC",
"y+	c #FFE6EF",
"z+	c #C88C94",
"A+	c #E2B6B7",
"B+	c #E4CEC3",
"C+	c #C7CAB5",
"D+	c #F4F6E0",
"E+	c #B99F90",
"F+	c #FFDCD3",
"G+	c #CE8785",
"H+	c #FFD7D7",
"I+	c #A46965",
"J+	c #FBD3CB",
"K+	c #EBDBCC",
"L+	c #F4E0D5",
"M+	c #B88184",
"N+	c #FFDDE1",
"O+	c #CACACA",
"P+	c #9F9F9F",
"Q+	c #A2A2A2",
"R+	c #929292",
"S+	c #858585",
"T+	c #E9D5D7",
"U+	c #FFE2EC",
"V+	c #CD8F94",
"W+	c #DABCB4",
"X+	c #D9CEBC",
"Y+	c #BFB9A3",
"Z+	c #D8C9B4",
"`+	c #B89381",
" @	c #FFC3B9",
".@	c #E38384",
"+@	c #CB696A",
"@@	c #C8837C",
"#@	c #C9978C",
"$@	c #F8CDC4",
"%@	c #AA7974",
"&@	c #FFDEE0",
"*@	c #C68E91",
"=@	c #CAB6B5",
"-@	c #040404",
";@	c #E4E4E4",
">@	c #FFECEE",
",@	c #FFDCE2",
"'@	c #D29A9B",
")@	c #F3DDD0",
"!@	c #B1A692",
"~@	c #FFEEDB",
"{@	c #FFEAD9",
"]@	c #CB887F",
"^@	c #D47772",
"/@	c #F37A7F",
"(@	c #BC484B",
"_@	c #EA9A93",
":@	c #E4A69B",
"<@	c #C98D85",
"[@	c #FFCBC7",
"}@	c #CF8586",
"|@	c #9B5F61",
"1@	c #B7B7B7",
"2@	c #FFF4F4",
"3@	c #FFE4E7",
"4@	c #BA918F",
"5@	c #FFFAEF",
"6@	c #BCA698",
"7@	c #F8CCC1",
"8@	c #FFD5D0",
"9@	c #FE9093",
"0@	c #C63E48",
"a@	c #E95563",
"b@	c #E15963",
"c@	c #E37F7F",
"d@	c #E79A94",
"e@	c #E49F9A",
"f@	c #D7918F",
"g@	c #F9AAAD",
"h@	c #F4B6B9",
"i@	c #FBE1E4",
"j@	c #D2D2D2",
"k@	c #8F8F8F",
"l@	c #8A8A8A",
"m@	c #E6DDDE",
"n@	c #FFF9F8",
"o@	c #B69A97",
"p@	c #FFECE3",
"q@	c #FFE7DC",
"r@	c #E6B1AB",
"s@	c #D98082",
"t@	c #C5414E",
"u@	c #CA2D40",
"v@	c #D73A4B",
"w@	c #FF8F9B",
"x@	c #FF9298",
"y@	c #C6706F",
"z@	c #E7A6A0",
"A@	c #FFE4E1",
"B@	c #F5B1B2",
"C@	c #F4BCBF",
"D@	c #FDE4EA",
"E@	c #EAEAEA",
"F@	c #F8F7F5",
"G@	c #F6EEEC",
"H@	c #D8CAC9",
"I@	c #D3BBB9",
"J@	c #FFE6E4",
"K@	c #FFD9DC",
"L@	c #E66373",
"M@	c #D4384E",
"N@	c #CC3548",
"O@	c #FFADBC",
"P@	c #F6808C",
"Q@	c #CF797C",
"R@	c #FFE7E0",
"S@	c #F0CBC3",
"T@	c #FFD4D2",
"U@	c #C0969A",
"V@	c #F8E3EA",
"W@	c #D0C9D1",
"X@	c #030303",
"Y@	c #AEAEAE",
"Z@	c #D8D6D7",
"`@	c #FFFCFD",
" #	c #C6B0B2",
".#	c #BF9FA0",
"+#	c #FFDCDA",
"@#	c #FFD8D8",
"##	c #D8707B",
"$#	c #BF3C4E",
"%#	c #C2344A",
"&#	c #FF8EA2",
"*#	c #FFA6B4",
"=#	c #E39499",
"-#	c #EAC9C2",
";#	c #E8DACF",
">#	c #FFF1ED",
",#	c #DBC2C5",
"'#	c #BAAAB4",
")#	c #FEF2FE",
"!#	c #9B9B9B",
"~#	c #8E8E8E",
"{#	c #D8D6D9",
"]#	c #F0EBF1",
"^#	c #B8AEB6",
"/#	c #F2E1E7",
"(#	c #B4A29E",
"_#	c #BB9E9A",
":#	c #FFD0CF",
"<#	c #E08E94",
"[#	c #EF7085",
"}#	c #C13D54",
"|#	c #FFA5B2",
"1#	c #CE9395",
"2#	c #FBEDE4",
"3#	c #D4DACC",
"4#	c #E3E4DC",
"5#	c #EEEDEB",
"6#	c #BEB4BD",
"7#	c #EEE2F0",
"8#	c #F9EEFC",
"9#	c #EAEAEC",
"0#	c #E3E0E9",
"a#	c #EEE8F6",
"b#	c #F6EDFF",
"c#	c #E7DDF6",
"d#	c #FCF3FF",
"e#	c #F7E9FF",
"f#	c #D4BBD1",
"g#	c #C791A9",
"h#	c #C35E7C",
"i#	c #C35570",
"j#	c #BF6D7B",
"k#	c #A27174",
"l#	c #B5A6A3",
"m#	c #F0F4F3",
"n#	c #DADFE5",
"o#	c #F6F8FF",
"p#	c #EEE8FF",
"q#	c #948BA8",
"r#	c #9289A4",
"s#	c #B8B3CA",
"t#	c #EFECFF",
"u#	c #EDECFA",
"v#	c #949494",
"w#	c #BBBCC0",
"x#	c #CDD0D9",
"y#	c #F7F9FF",
"z#	c #9C9DCB",
"A#	c #5E5B9E",
"B#	c #504AA0",
"C#	c #6D5EB9",
"D#	c #775EB1",
"E#	c #8B60A5",
"F#	c #884578",
"G#	c #9C5371",
"H#	c #EFAFBD",
"I#	c #B8878D",
"J#	c #FFDFEA",
"K#	c #9C869B",
"L#	c #FFF0FF",
"M#	c #C4BAEE",
"N#	c #3B336F",
"O#	c #413D7A",
"P#	c #353269",
"Q#	c #494778",
"R#	c #5F5E86",
"S#	c #D5D6F4",
"T#	c #EBEDFF",
"U#	c #0C0C0C",
"V#	c #A8A9AB",
"W#	c #E5EAF0",
"X#	c #959BB1",
"Y#	c #40467A",
"Z#	c #5657A9",
"`#	c #4643AE",
" $	c #4238AB",
".$	c #7C65D1",
"+$	c #8261BA",
"@$	c #CA9ED9",
"#$	c #C593B6",
"$$	c #DEABBA",
"%$	c #885963",
"&$	c #A0798E",
"*$	c #7A5B7D",
"=$	c #8B74AA",
"-$	c #46377A",
";$	c #A59FE9",
">$	c #EFEDFF",
",$	c #B5B4F6",
"'$	c #B0B1EA",
")$	c #8485B3",
"!$	c #74779A",
"~$	c #F9FBFF",
"{$	c #E9EBEA",
"]$	c #E8ECED",
"^$	c #F4FAFF",
"/$	c #DCE1FF",
"($	c #2F3275",
"_$	c #7A79D6",
":$	c #9D96FD",
"<$	c #7F6FD1",
"[$	c #8E75C8",
"}$	c #CFACE6",
"|$	c #C298BE",
"1$	c #9D7087",
"2$	c #EFC4D7",
"3$	c #B997B0",
"4$	c #CEB2D8",
"5$	c #C5B3E7",
"6$	c #8276B4",
"7$	c #BFBAFC",
"8$	c #E2E2FF",
"9$	c #7A79B3",
"0$	c #BCBCEE",
"a$	c #BDBFE6",
"b$	c #7B7F9C",
"c$	c #EFF2FF",
"d$	c #E1E1E1",
"e$	c #D5D7D4",
"f$	c #DCDFE6",
"g$	c #F5FAFF",
"h$	c #E4E9FF",
"i$	c #6366B3",
"j$	c #27277D",
"k$	c #40388E",
"l$	c #7868B3",
"m$	c #9074AF",
"n$	c #9877A2",
"o$	c #845F80",
"p$	c #C09EB9",
"q$	c #C0A2C4",
"r$	c #907AA1",
"s$	c #B4A6D9",
"t$	c #E0D7FF",
"u$	c #F9F5FF",
"v$	c #7879B1",
"w$	c #D9D9FF",
"x$	c #6F719A",
"y$	c #E0E3FF",
"z$	c #84869D",
"A$	c #FCFEFF",
"B$	c #DDDDDB",
"C$	c #E9E8E4",
"D$	c #F0F1F5",
"E$	c #D8DDF3",
"F$	c #8E95BF",
"G$	c #6D73AF",
"H$	c #AEB2FB",
"I$	c #DEDDFF",
"J$	c #EEE6FF",
"K$	c #F8E8FF",
"L$	c #C4ADE3",
"M$	c #DDC2ED",
"N$	c #B49AC1",
"O$	c #9C87B0",
"P$	c #9788B3",
"Q$	c #BAB0E2",
"R$	c #FCF8FF",
"S$	c #8886B8",
"T$	c #CDCEFC",
"U$	c #8B8DB6",
"V$	c #C8CBEC",
"W$	c #808299",
"X$	c #DADDEC",
"Y$	c #D7DAE1",
"Z$	c #E5E3E4",
"`$	c #DFDBDA",
" %	c #DBD8DF",
".%	c #F1F3FF",
"+%	c #EDF3FF",
"@%	c #182255",
"#%	c #454F8C",
"$%	c #565AA1",
"%%	c #58589E",
"&%	c #4F458A",
"*%	c #7062A0",
"=%	c #7B6AA1",
"-%	c #8877AB",
";%	c #8D7FB0",
">%	c #9188B7",
",%	c #807DAC",
"'%	c #C1BFEE",
")%	c #E1E3FF",
"!%	c #8A8CB2",
"~%	c #8083A4",
"{%	c #72738F",
"]%	c #E4E7F8",
"^%	c #EEF2FB",
"/%	c #E0E4E7",
"(%	c #C0C0C0",
"_%	c #D8D8D8",
":%	c #D3D1D4",
"<%	c #E0D8E3",
"[%	c #DDD6E8",
"}%	c #ECECFF",
"|%	c #9296BB",
"1%	c #717BAC",
"2%	c #A5B1EB",
"3%	c #6B76B8",
"4%	c #A8AFF7",
"5%	c #B3B3FD",
"6%	c #B8B2FA",
"7%	c #BAB0F5",
"8%	c #BBB2F1",
"9%	c #A39BD4",
"0%	c #7470A2",
"a%	c #E6E7FF",
"b%	c #F0F3FF",
"c%	c #A9ABD1",
"d%	c #6A6B8A",
"e%	c #A5A6C2",
"f%	c #FCFDFF",
"g%	c #E2E4F3",
"h%	c #CED1D8",
"i%	c #E6E7E9",
"j%	c #ABABAB",
"k%	c #CFCCD3",
"l%	c #D1C8DD",
"m%	c #DBD2F1",
"n%	c #E8E4FF",
"o%	c #F6F9FF",
"p%	c #818BBC",
"q%	c #19255F",
"r%	c #475596",
"s%	c #7680C8",
"t%	c #8288D6",
"u%	c #797ACA",
"v%	c #7C79C6",
"w%	c #9794D9",
"x%	c #8B8AC6",
"y%	c #8688BB",
"z%	c #CBCEF9",
"A%	c #ACB0D5",
"B%	c #BDBDDF",
"C%	c #EEEEFF",
"D%	c #E4E4FE",
"E%	c #DEDFF3",
"F%	c #DEE0ED",
"G%	c #DADDE4",
"H%	c #EAEBED",
"I%	c #191919",
"J%	c #1D1D1D",
"K%	c #292929",
"L%	c #343434",
"M%	c #3F3F3F",
"N%	c #515151",
"O%	c #505050",
"P%	c #626262",
"Q%	c #828282",
"R%	c #7E7E7E",
"S%	c #878787",
"T%	c #CFCCD7",
"U%	c #F6EAFF",
"V%	c #D1C5F3",
"W%	c #A8A2D2",
"X%	c #9999CB",
"Y%	c #F1F8FF",
"Z%	c #37417E",
"`%	c #3C468B",
" &	c #6F7BC7",
".&	c #737ACB",
"+&	c #888DE1",
"@&	c #6A6DBE",
"#&	c #363882",
"$&	c #5A5C99",
"%&	c #C4C7FA",
"&&	c #F7FCFF",
"*&	c #E3E8FF",
"=&	c #E7E8FF",
"-&	c #E3E0FB",
";&	c #F5F3FF",
">&	c #F1F0FF",
",&	c #EBEBF7",
"'&	c #E7E7EF",
")&	c #DADBDF",
"!&	c #969696",
"~&	c #C7C3D2",
"{&	c #8A7FAA",
"]&	c #453870",
"^&	c #CCC3FA",
"/&	c #F3F0FF",
"(&	c #EFF1FF",
"_&	c #ECF4FF",
":&	c #BCC5FF",
"<&	c #8A93DE",
"[&	c #828BDA",
"}&	c #747BCC",
"|&	c #8A90DE",
"1&	c #C7CBFF",
"2&	c #F1F6FF",
"3&	c #F1F5FF",
"4&	c #E6ECFF",
"5&	c #E9ECFF",
"6&	c #F5F5FF",
"7&	c #F0EDFF",
"8&	c #A6A4BA",
"9&	c #B5B4C6",
"0&	c #EDEDF9",
"a&	c #F8F8FF",
"b&	c #DCDDE1",
"c&	c #6C6A78",
"d&	c #857CAB",
"e&	c #867BB7",
"f&	c #7C72AE",
"g&	c #928DC7",
"h&	c #8180B9",
"i&	c #7E80BB",
"j&	c #8C91D1",
"k&	c #8188CC",
"l&	c #8087CF",
"m&	c #8990D8",
"n&	c #8F94D8",
"o&	c #888ECC",
"p&	c #8086B8",
"q&	c #8287AF",
"r&	c #868BAB",
"s&	c #8A8BA7",
"t&	c #8885A0",
"u&	c #928EA7",
"v&	c #D2CFE4",
"w&	c #FFFCFF",
"x&	c #AEACB9",
"y&	c #D0CFD7",
"z&	c #F3F2F8",
"A&	c #9F9DAB",
"B&	c #7E77A1",
"C&	c #60578E",
"D&	c #645D91",
"E&	c #686497",
"F&	c #8480B3",
"G&	c #8282B4",
"H&	c #7778AE",
"I&	c #7D82B9",
"J&	c #8388C0",
"K&	c #6C71A9",
"L&	c #7277AE",
"M&	c #888EBE",
"N&	c #7B80A8",
"O&	c #63678A",
"P&	c #8F93B0",
"Q&	c #DDDDF5",
"R&	c #F8F6FF",
"S&	c #D4D1E6",
"T&	c #9491A4",
"U&	c #898795",
"V&	c #BAB8C3",
"W&	c #FFFEFF",
"X&	c #DFDEE3",
"Y&	c #C9C7EE",
"Z&	c #F8F3FF",
"`&	c #A8A3CB",
" *	c #8480A5",
".*	c #918DB2",
"+*	c #75739A",
"@*	c #8787AD",
"#*	c #797BA1",
"$*	c #878BB0",
"%*	c #8C90B3",
"&*	c #8489A9",
"**	c #8286A3",
"=*	c #8E90A9",
"-*	c #9898B0",
";*	c #9C9AAF",
">*	c #878499",
",*	c #BBB7C8",
"'*	c #DFDBEA",
")*	c #F1EDFB",
"!*	c #F8F7FF",
"~*	c #E2E1E7",
"{*	c #CECED0",
"]*	c #F0F2FF",
"^*	c #DFDFF7",
"/*	c #E0DEF6",
"(*	c #F0EAFF",
"_*	c #FEF8FF",
":*	c #F6F2FF",
"<*	c #F9F7FF",
"[*	c #F0F1FF",
"}*	c #ECEFFF",
"|*	c #F5F6FF",
"1*	c #F2F3FF",
"2*	c #EFEEFF",
"3*	c #E7E3F4",
"4*	c #EAE6F4",
"5*	c #E4E1EA",
"6*	c #DBDAE0",
"7*	c #D9D9DB",
". . . . . . . . . . . . . . . . . . . . . . . . + @ # # $                     ",
"% & * = & - ; > * , * - ' ' ' = ) ! & = & = = & ; & ~ { ]                     ",
"^ / ( _ : / & < > & , & ) / [ ' & } = & ) [ , ~ | 1 2 3 4 5 6                 ",
"7 & 8 9 } 0 [ 0 - a b c ' d = e ) [ [ 9 * ~ c a f g h i # j k                 ",
"l ~ m } , ; f { n 6 g o p q r s t u v w p 6 x ~ y y z A 4 B C                 ",
"D ) t r E a F G H I J K * r L I M q N O P Q 2 a R R S i T U i                 ",
"# & G 9 * & c c > & ) V & e e & [ W & / h c * 9 X y b Y # Z k                 ",
"` = V O & ~ C S X : v 6  .Q k ..f +.N 2 @.#.A * { b z X $.%.&.                ",
"4 ' t R y [ *.=.-.* v ;.P >.,.x '.).!.~.{.].^./.(._.:.<.[.}.|.                ",
"7 W v 1.0 > - 2.[ & ) & ' ; e 3.4.5.6.7.8.9.0.a.b.c.d.e.f.g.h.                ",
"` - i.m & - * j.k.: 2 S l.&.R m.n.o.p.q.r.s.t.u.v.w.x.y.z.A.                  ",
"7 & u o 3 > > j.5 ' G U r F B.C.D.E.F.G.H.I.J.K.L.M.N.O.P.Q.R.                ",
"7 , +.: : ; ) > & ' - ; : S ) S.T.U.V.W.X.Y.Z.`. +.+++@+#+$+%+&+              ",
"*+< j.9 & * ! W ~ 6 S y =+q >.-+;+>+,+'+)+!+~+{+]+^+/+(+_+:+<+[+              ",
"# & }+6 ( < & ~ & 8 H j B |+5 !.1+2+3+4+5+6+7+8+9+0+a+b+c+d+e+f+              ",
". 2.&.V : < c ; d ! ; * > & c g+h+i+j+k+l+m+n+o+p+q+r+s+t+u+v+w+              ",
"+ ' =+h ' ~ - < W S G j...-.f x+y+z+A+B+C+D+E+F+G+H+I+J+K+L+M+N+              ",
"^ = O+r j.- W / e G P+k.Q+R+S+T+U+V+W+X+Y+Z+`+ @.@+@@@#@$@%@&@*@=@            ",
"-@& X 0 b 9 = ) - ;@2./ > : [ >@,@'@)@!@~@{@]@^@/@(@_@:@<@[@}@|@              ",
"# & =+;@) < ) 9 S  .O+5 2 1@2.2@3@4@5@6@7@8@9@0@a@b@c@d@e@f@g@h@i@            ",
"] * j@r =+[ / V s Y 8 k@l@k@2.m@n@o@p@q@r@s@t@u@v@w@x@y@z@A@B@C@D@            ",
"4 & 8 ;@0 } d 9 O e = 9 * E@- F@G@H@I@J@K.K@L@M@N@O@P@Q@R@S@T@U@V@  W@        ",
"X@& j@~ [ * d a [ Y@_ 3 x -.s }+Z@`@ #.#+#@###$#%#&#*#=#-#;#>#,#'#)#          ",
"l [ O &. .E@d * d 8 B !#5 N ~#{#]#^#/#V.(#_#:#<#[#}#|#1#2#3#4#5#6#7#8#        ",
"-@W s 1.E@~ e E@9 c E@E@E@9 b 9#0#a#b#c#d#e#f#g#h#i#j#k#l#m#n#o#p#q#r#s#t#u#  ",
"4 / : 9 h / : l.1 R v#t e L G w#x#y#z#A#B#C#D#E#F#G#H#I#J#K#L#M#N#O#P#Q#R#S#T#",
"U#& 6 6 g 0 E@R =.Y@P u 1.s B.V#W#X#Y#Z#`# $.$+$@$#$$$%$&$*$=$-$;$>$,$'$)$!$~$",
"X@, S O * e p } V h { Q y p 9 {$]$^$/$($_$:$<$[$}$|$1$2$3$4$5$6$7$8$9$0$a$b$c$",
"+ ) y V h ;@F ~ E@E@E@p Q z V d$e$f$g$h$i$j$k$l$m$n$o$p$q$r$s$t$u$v$w$x$y$z$A$",
"T = }+o w a G ;@z y c } 9 c V B$C$D$E$F$G$H$I$J$K$L$M$N$O$P$Q$R$S$T$U$V$W$X$Y$",
"4 < o g ~ } { ~ E@=+1.y p b b Z$`$ %.%+%@%#%$%%%&%*%=%-%;%>%,%'%)%!%~%{%]%^%/%",
"X@* }+V z (%S n 3 w w  ._%i.i.:%<%[%}%|%1%2%3%4%5%6%7%8%9%0%a%b%c%d%e%f%g%h%i%",
"# d$.._ J j%X s @.f k x #.v t k%l%m%n%o%p%q%r%s%t%u%v%w%x%y%z%A%B%C%D%E%F%G%H%",
". I%*+X@J%K%L%M%N%O%P%Q%R%S%,.T%U%V%W%X%Y%Z%`% &.&+&@&#&$&%&&&*&=&-&;&>&,&'&)&",
"    L k@,.!&H k.B.Y@Y@s G (%  ~&{&]&^&/&(&_&:&<&[&}&|&1&2&3&4&5&6&7&8&9&0&a&b&",
"      X o x +.S #.            c&d&e&f&g&h&i&j&k&l&m&n&o&p&q&r&s&t&u&v&w&x&y&z&",
"                              A&B&C&D&E&F&G&H&I&J&K&L&M&N&O&P&Q&R&S&T&U&V&W&X&",
"                                  Y&Z&`& *.*+*@*#*$*%*&***=*-*;*>*,*'*)*!*~*{*",
"                                  ]*^*/*(*_*:*:*<*[*}*b%|*1*2*t#3*u$4*5*6*7*; "};
