/* XPM */
static char * text_x_c_xpm[] = {
"38 39 658 2",
"  	c None",
". 	c #0F0F0F",
"+ 	c #010101",
"@ 	c #0A0A0A",
"# 	c #0E0E0E",
"$ 	c #000000",
"% 	c #050505",
"& 	c #080808",
"* 	c #090909",
"= 	c #0B0B0B",
"- 	c #0C0C0C",
"; 	c #101010",
"> 	c #020202",
", 	c #070707",
"' 	c #111111",
") 	c #060606",
"! 	c #181818",
"~ 	c #FDFDFD",
"{ 	c #F5F5F5",
"] 	c #EAEAEA",
"^ 	c #FFFFFF",
"/ 	c #FAFAFA",
"( 	c #F6F6F6",
"_ 	c #F1F1F1",
": 	c #E0E0E0",
"< 	c #F8F8F8",
"[ 	c #F9F9F9",
"} 	c #EDEDED",
"| 	c #FCFCFC",
"1 	c #F3F3F3",
"2 	c #FEFEFE",
"3 	c #FBFBFB",
"4 	c #F0F0F0",
"5 	c #DEDEDE",
"6 	c #D4D4D4",
"7 	c #B2B2B2",
"8 	c #EFEFEF",
"9 	c #F2F2F2",
"0 	c #E6E6E6",
"a 	c #C9C9C9",
"b 	c #BEBEBE",
"c 	c #C8C8C8",
"d 	c #CBCBCB",
"e 	c #B0B0B0",
"f 	c #EBEBEB",
"g 	c #BABABA",
"h 	c #ECECEC",
"i 	c #EEEEEE",
"j 	c #E9E9E9",
"k 	c #F7F7F7",
"l 	c #B7B7B7",
"m 	c #DFDFDF",
"n 	c #A4A4A4",
"o 	c #7C7C7C",
"p 	c #0D0D0D",
"q 	c #CACACA",
"r 	c #D5D5D5",
"s 	c #BCBCBC",
"t 	c #B9B9B9",
"u 	c #A7A7A7",
"v 	c #A5A5A5",
"w 	c #AEAEAE",
"x 	c #D0D0D0",
"y 	c #BFBFBF",
"z 	c #C4C4C4",
"A 	c #E2E2E2",
"B 	c #C3C3C3",
"C 	c #CECECE",
"D 	c #E8E8E8",
"E 	c #D1D1D1",
"F 	c #E3E3E3",
"G 	c #040404",
"H 	c #858585",
"I 	c #B4B4B4",
"J 	c #C2C2C2",
"K 	c #D3D3D3",
"L 	c #9E9E9E",
"M 	c #ACACAC",
"N 	c #A2A2A2",
"O 	c #A6A6A6",
"P 	c #B3B3B3",
"Q 	c #ABABAB",
"R 	c #999999",
"S 	c #8A8A8A",
"T 	c #969696",
"U 	c #CFCFCF",
"V 	c #C5C5C5",
"W 	c #AAAAAA",
"X 	c #7F7F7F",
"Y 	c #AFAFAF",
"Z 	c #030303",
"` 	c #C0C0C0",
" .	c #E4E4E4",
"..	c #E7E7E7",
"+.	c #F4F4F4",
"@.	c #A8A8A8",
"#.	c #D8D8D8",
"$.	c #B8B8B6",
"%.	c #CDCDCD",
"&.	c #B8B8B8",
"*.	c #C1C1C3",
"=.	c #C4C4C6",
"-.	c #B6B6B6",
";.	c #A1A1A1",
">.	c #B5B5B5",
",.	c #E5E5E5",
"'.	c #DCDCDC",
").	c #D9D9D9",
"!.	c #828282",
"~.	c #BFBFC1",
"{.	c #101012",
"].	c #E9E9EB",
"^.	c #D1D1D3",
"/.	c #B1B1B1",
"(.	c #FDFDFB",
"_.	c #959593",
":.	c #A1A29D",
"<.	c #E8E8E6",
"[.	c #949494",
"}.	c #9C9C9E",
"|.	c #9C9BA0",
"1.	c #9D9CA1",
"2.	c #BBBBBD",
"3.	c #A9A9A7",
"4.	c #ABABA9",
"5.	c #8C8C8A",
"6.	c #8A8A88",
"7.	c #AEAEAC",
"8.	c #F1F1EF",
"9.	c #EBEBE9",
"0.	c #CCCCCC",
"a.	c #D4D4D6",
"b.	c #A0A0A2",
"c.	c #8A8A8C",
"d.	c #C3C2C7",
"e.	c #050409",
"f.	c #FFFEFF",
"g.	c #BDBDBF",
"h.	c #FBFBF9",
"i.	c #F0F1EC",
"j.	c #FBFCF7",
"k.	c #ECEDE8",
"l.	c #FFFFFB",
"m.	c #FBFBFD",
"n.	c #FEFDFF",
"o.	c #F4F3F9",
"p.	c #EFEEF3",
"q.	c #F9F9F7",
"r.	c #EFEFED",
"s.	c #E2E2E0",
"t.	c #E4E4E2",
"u.	c #F4F4F2",
"v.	c #DDDDDF",
"w.	c #B6B6B8",
"x.	c #1C1B20",
"y.	c #8F8E93",
"z.	c #B7B6BB",
"A.	c #0A090E",
"B.	c #F8F7FC",
"C.	c #DADADC",
"D.	c #D7D8D3",
"E.	c #A2A39E",
"F.	c #E3E4DF",
"G.	c #D7D7D7",
"H.	c #CDCDCF",
"I.	c #B9B8BD",
"J.	c #CDCCD2",
"K.	c #D6D5DA",
"L.	c #E7E7E9",
"M.	c #ADADAD",
"N.	c #B4B4B6",
"O.	c #343436",
"P.	c #8C8C8E",
"Q.	c #111113",
"R.	c #ECECEE",
"S.	c #D2D2D4",
"T.	c #F3F3F1",
"U.	c #CCCDC8",
"V.	c #9C9D98",
"W.	c #FFFFFD",
"X.	c #9A9A98",
"Y.	c #797979",
"Z.	c #C5C5C7",
"`.	c #979799",
" +	c #A6A5AA",
".+	c #D9D8DD",
"++	c #3B3B3B",
"@+	c #9B9B9B",
"#+	c #C1C1C1",
"$+	c #030305",
"%+	c #BEBEC0",
"&+	c #EDEDEB",
"*+	c #EEEEEC",
"=+	c #F8F8F6",
"-+	c #F2F2F4",
";+	c #FAFAFC",
">+	c #F6F6F4",
",+	c #F7F7F5",
"'+	c #C5C5C3",
")+	c #E6E6E4",
"!+	c #D9D9D7",
"~+	c #D8D8D6",
"{+	c #E1E1DF",
"]+	c #BABAB8",
"^+	c #41423D",
"/+	c #AFB0AB",
"(+	c #B4B5B0",
"_+	c #000002",
":+	c #DADADA",
"<+	c #ACACAA",
"[+	c #C1C1BF",
"}+	c #C4C4C2",
"|+	c #B9BAB5",
"1+	c #C1C2BD",
"2+	c #CACBC6",
"3+	c #9B9C97",
"4+	c #666762",
"5+	c #31322D",
"6+	c #191A15",
"7+	c #070802",
"8+	c #22231D",
"9+	c #2E2F29",
"0+	c #4F5048",
"a+	c #36372F",
"b+	c #94968B",
"c+	c #CFD1C6",
"d+	c #09090B",
"e+	c #EFEFF1",
"f+	c #B4B4B2",
"g+	c #979795",
"h+	c #8F8F8D",
"i+	c #A0A09E",
"j+	c #C5C6C1",
"k+	c #A4A59D",
"l+	c #7D7F74",
"m+	c #7F8176",
"n+	c #2E3025",
"o+	c #4E5045",
"p+	c #93958A",
"q+	c #DCDDD5",
"r+	c #F0F1E9",
"s+	c #EEF0E5",
"t+	c #DFE1D6",
"u+	c #D4D6C9",
"v+	c #989A8D",
"w+	c #404234",
"x+	c #262918",
"y+	c #8D907F",
"z+	c #08080A",
"A+	c #F5F5F3",
"B+	c #FAFAF8",
"C+	c #EEEFEA",
"D+	c #F2F3ED",
"E+	c #EBEDDF",
"F+	c #6A6D5C",
"G+	c #3C3F2E",
"H+	c #C2C4B6",
"I+	c #F8FAEC",
"J+	c #F5F7E9",
"K+	c #DEE0D3",
"L+	c #EBEDE0",
"M+	c #E4E6D8",
"N+	c #EEF0E2",
"O+	c #E2E5D4",
"P+	c #DFE2CF",
"Q+	c #E6E9D6",
"R+	c #B0B39E",
"S+	c #3A3E27",
"T+	c #5C5F4E",
"U+	c #CBCBC9",
"V+	c #B6B7B2",
"W+	c #CBCCC7",
"X+	c #BBBCB6",
"Y+	c #B1B2AD",
"Z+	c #D1D3C8",
"`+	c #484B38",
" @	c #636750",
".@	c #F8FCE5",
"+@	c #E9ECD7",
"@@	c #E9ECD9",
"#@	c #CFD2BF",
"$@	c #C4C7B6",
"%@	c #BCBFAE",
"&@	c #C0C3B0",
"*@	c #AFB29F",
"=@	c #D9DCC7",
"-@	c #DCE0C9",
";@	c #DADEC7",
">@	c #E3E7CE",
",@	c #D1D5BA",
"'@	c #666954",
")@	c #474842",
"!@	c #DDDDDD",
"~@	c #A2A2A0",
"{@	c #90918C",
"]@	c #A5A6A1",
"^@	c #A4A59F",
"/@	c #93948E",
"(@	c #90918B",
"_@	c #525447",
":@	c #6B6F58",
"<@	c #FAFEE3",
"[@	c #EBEFD4",
"}@	c #CCD0B7",
"|@	c #C3C7B0",
"1@	c #8A8D78",
"2@	c #4D503D",
"3@	c #2D301D",
"4@	c #0C0F00",
"5@	c #2D301B",
"6@	c #5B5E49",
"7@	c #8B8F78",
"8@	c #C9CDB4",
"9@	c #DEE2C7",
"0@	c #D7DBC0",
"a@	c #C8CBB6",
"b@	c #60615B",
"c@	c #595959",
"d@	c #050503",
"e@	c #FEFEFC",
"f@	c #F0F1EB",
"g@	c #F1F2EA",
"h@	c #9B9C94",
"i@	c #3C3E30",
"j@	c #FBFFE6",
"k@	c #E3E8CA",
"l@	c #D4D8BD",
"m@	c #A4A88F",
"n@	c #333720",
"o@	c #3C3F2A",
"p@	c #9C9F8C",
"q@	c #CFD2C1",
"r@	c #B7BAA9",
"s@	c #D1D4C1",
"t@	c #8A8D7A",
"u@	c #3F422D",
"v@	c #5E624B",
"w@	c #B6BAA1",
"x@	c #C2C6AB",
"y@	c #ADB09B",
"z@	c #B2B3AD",
"A@	c #373737",
"B@	c #0D0D0B",
"C@	c #C0C0BE",
"D@	c #C7C8C3",
"E@	c #9E9F99",
"F@	c #CBCCC4",
"G@	c #BABCB1",
"H@	c #393B30",
"I@	c #CCCFBE",
"J@	c #EAEED5",
"K@	c #D4D9BB",
"L@	c #9FA388",
"M@	c #3A3E25",
"N@	c #8C8F7A",
"O@	c #CACDBC",
"P@	c #515443",
"Q@	c #141702",
"R@	c #000300",
"S@	c #161711",
"T@	c #272727",
"U@	c #E5E5E7",
"V@	c #EBEBED",
"W@	c #F8F8FA",
"X@	c #B6B6B4",
"Y@	c #ADAEA9",
"Z@	c #9FA09A",
"`@	c #8A8B83",
" #	c #5C5E53",
".#	c #494B3E",
"+#	c #F8FBEA",
"@#	c #EAEED7",
"##	c #B5B9A0",
"$#	c #4E523B",
"%#	c #81846F",
"&#	c #CCCDC7",
"*#	c #CACBC5",
"=#	c #999A92",
"-#	c #C6C8BB",
";#	c #D3D5C8",
">#	c #B5B7AC",
",#	c #9F9F9F",
"'#	c #939393",
")#	c #D9D9DB",
"!#	c #FCFCFE",
"~#	c #DBDBDB",
"{#	c #F4F5F0",
"]#	c #E8E9E1",
"^#	c #F1F3E8",
"/#	c #686A5D",
"(#	c #9EA092",
"_#	c #EFF2E1",
":#	c #D3D6C1",
"<#	c #949782",
"[#	c #3D402D",
"}#	c #D4D7C6",
"|#	c #B1B1AF",
"1#	c #CDCEC9",
"2#	c #080806",
"3#	c #E1E1E1",
"4#	c #EAEAEC",
"5#	c #B9B9B7",
"6#	c #C8C9C1",
"7#	c #C7C9BE",
"8#	c #27291C",
"9#	c #D3D5C7",
"0#	c #BFC2B1",
"a#	c #4E5140",
"b#	c #888A7C",
"c#	c #C9C9C7",
"d#	c #BABABC",
"e#	c #B7B6BC",
"f#	c #CACAC8",
"g#	c #BDBDBD",
"h#	c #F3F3F5",
"i#	c #9C9C9A",
"j#	c #979893",
"k#	c #A7A8A0",
"l#	c #888A7F",
"m#	c #1C1E11",
"n#	c #E9EBDD",
"o#	c #BDC0AF",
"p#	c #2B2E1D",
"q#	c #CACCBF",
"r#	c #C2C3BE",
"s#	c #C6C5CB",
"t#	c #C6C5CD",
"u#	c #010200",
"v#	c #EEEEF0",
"w#	c #EAE9EE",
"x#	c #F1F1F3",
"y#	c #E8E8EA",
"z#	c #EAEAE8",
"A#	c #EDEEE8",
"B#	c #E4E6DB",
"C#	c #080A00",
"D#	c #EBEEDB",
"E#	c #B7BAA7",
"F#	c #090C00",
"G#	c #E7E9DC",
"H#	c #CACCC1",
"I#	c #0A0B06",
"J#	c #FFFFFA",
"K#	c #E5E5E3",
"L#	c #F7F7F9",
"M#	c #E1E0E5",
"N#	c #CECDD2",
"O#	c #9F9F9D",
"P#	c #C9CAC4",
"Q#	c #111305",
"R#	c #DADDCC",
"S#	c #E7EAD7",
"T#	c #252815",
"U#	c #A1A395",
"V#	c #F5F5F7",
"W#	c #060702",
"X#	c #FAFBF5",
"Y#	c #BCBCBA",
"Z#	c #DFDFE1",
"`#	c #F6F5FA",
" $	c #CAC9CE",
".$	c #A8A8AA",
"+$	c #CFD0CA",
"@$	c #DCDED3",
"#$	c #202214",
"$$	c #ECEFDE",
"%$	c #DBDECB",
"&$	c #595C49",
"*$	c #848678",
"=$	c #C0C2B5",
"-$	c #020300",
";$	c #F9FAF5",
">$	c #BFBFBD",
",$	c #D7D7D5",
"'$	c #E4E4E6",
")$	c #E9E8ED",
"!$	c #E2E1E6",
"~$	c #E0E0DE",
"{$	c #DDDED8",
"]$	c #5D5F52",
"^$	c #96988A",
"/$	c #EAEDDC",
"($	c #DFE2CD",
"_$	c #A9AC97",
":$	c #212413",
"<$	c #0B0C07",
"[$	c #F5F6F1",
"}$	c #A4A3A8",
"|$	c #ECEBF0",
"1$	c #DFE0DA",
"2$	c #95978A",
"3$	c #47493B",
"4$	c #F2F5E4",
"5$	c #EBEED9",
"6$	c #C1C4AF",
"7$	c #393C29",
"8$	c #8C8F7E",
"9$	c #0C0C0A",
"0$	c #C7C7C5",
"a$	c #BEBEBC",
"b$	c #ADACB1",
"c$	c #EBEAEF",
"d$	c #E6E6E8",
"e$	c #F0F0EE",
"f$	c #D5D6D1",
"g$	c #EEEFE7",
"h$	c #ECEEE3",
"i$	c #36382B",
"j$	c #ADB09F",
"k$	c #E3E6D1",
"l$	c #D8DCC5",
"m$	c #C2C5B0",
"n$	c #222512",
"o$	c #8D8F81",
"p$	c #161908",
"q$	c #010400",
"r$	c #030500",
"s$	c #090A05",
"t$	c #2B2B2B",
"u$	c #060604",
"v$	c #E7E8E3",
"w$	c #D7D8D2",
"x$	c #E1E2DA",
"y$	c #929489",
"z$	c #434537",
"A$	c #DADDC8",
"B$	c #D7DBC4",
"C$	c #CCCFBC",
"D$	c #494C3B",
"E$	c #8F9183",
"F$	c #CBCDC0",
"G$	c #9C9E90",
"H$	c #505342",
"I$	c #6F725F",
"J$	c #D7DAC5",
"K$	c #E9EDD6",
"L$	c #E1E4D3",
"M$	c #C0C1BB",
"N$	c #2F2F2F",
"O$	c #D6D6D4",
"P$	c #CFCFD1",
"Q$	c #CACACC",
"R$	c #C7C7C9",
"S$	c #DFDFDD",
"T$	c #D2D3CD",
"U$	c #D8D9D1",
"V$	c #5C5F4C",
"W$	c #DCDFCA",
"X$	c #DBDEC9",
"Y$	c #C7CAB7",
"Z$	c #DEE1D0",
"`$	c #A2A594",
" %	c #595B4D",
".%	c #2C2E20",
"+%	c #040600",
"@%	c #2A2D1C",
"#%	c #636653",
"$%	c #B4B7A2",
"%%	c #DEE2CB",
"&%	c #D0D4BD",
"*%	c #BBBFA6",
"=%	c #A0A390",
"-%	c #44453F",
";%	c #4C4C4C",
">%	c #D5D5D3",
",%	c #C7C7C7",
"'%	c #A7A7A9",
")%	c #B8B8BA",
"!%	c #BFC0BB",
"~%	c #C4C5BF",
"{%	c #C8CABF",
"]%	c #333625",
"^%	c #727562",
"/%	c #C5C8B5",
"(%	c #C9CCBB",
"_%	c #CED1C0",
":%	c #DCDFCE",
"<%	c #DDE0CF",
"[%	c #E1E4D1",
"}%	c #C6C9B4",
"|%	c #C4C8B1",
"1%	c #C5C9B2",
"2%	c #94987F",
"3%	c #505340",
"4%	c #33342E",
"5%	c #6F6F6F",
"6%	c #898989",
"7%	c #030301",
"8%	c #0F0F0D",
"9%	c #151515",
"0%	c #323232",
"a%	c #3A3A3C",
"b%	c #404042",
"c%	c #4E4E4E",
"d%	c #575757",
"e%	c #656563",
"f%	c #737371",
"g%	c #81817F",
"h%	c #8F908B",
"i%	c #9D9E99",
"j%	c #A6A79F",
"k%	c #AEB0A2",
"l%	c #474A39",
"m%	c #393C2B",
"n%	c #999C8B",
"o%	c #D7DAC9",
"p%	c #D3D6C5",
"q%	c #CBCDBF",
"r%	c #D2D4C6",
"s%	c #C0C3B2",
"t%	c #BBBEAB",
"u%	c #AAAD98",
"v%	c #737661",
"w%	c #41452E",
"x%	c #2C2F1E",
"y%	c #72736D",
"z%	c #8C8C8C",
"A%	c #919191",
"B%	c #909090",
"C%	c #9D9D9D",
"D%	c #BBBBB9",
"E%	c #97998B",
"F%	c #3F4133",
"G%	c #292B1D",
"H%	c #77796B",
"I%	c #B2B4A7",
"J%	c #A6A89A",
"K%	c #A7A99C",
"L%	c #9B9D8F",
"M%	c #747766",
"N%	c #3A3D2C",
"O%	c #202312",
"P%	c #494C39",
"Q%	c #858779",
"R%	c #8A8B86",
"S%	c #9C9E93",
"T%	c #525449",
"U%	c #23251A",
"V%	c #0E1005",
"W%	c #0C0E03",
"X%	c #15170C",
"Y%	c #212316",
"Z%	c #5A5C4F",
"`%	c #808275",
" &	c #8E9083",
".&	c #898B80",
"+&	c #AFB0A8",
"@&	c #9A9B93",
"#&	c #86877F",
"$&	c #7F8078",
"%&	c #7C7D77",
"&&	c #82837D",
"*&	c #8B8C86",
"=&	c #999A94",
"-&	c #AEAFA9",
";&	c #C2C3BD",
">&	c #B8B9B4",
",&	c #B7B7B5",
". + @ # $ % & * = $ - ; > , , > = ' $ - ) = $ ; , @ ) $ !                   ",
"$ ~ { ] ^ / ( _ ~ ^ ~ : ^ < [ ^ [ } | 1 ^ 1 ~ 2 3 3 4 5 &                   ",
"* | 6 7 5 ^ 8 ^ 8 1 { 2 | [ 9 9 { | [ 3 } / 9 0 a b c d $ e d               ",
"% f g h i j _ h ^ { 1 ^ _ j 9 k 4 j ( 8 f ] / 9 l m i n = o n [             ",
"p ^ 6 8 4 i q r s t s u } v w t x y z A q B C D E F F e G H I               ",
"% } q J K | L M N n O w i P Q R S N T U N E V 0 c s t W & X Y               ",
"Z 3 `  ...3 k _ 1 2 A [ < 2 ^ } _ | / 9 f ] f +.7 m } @.% o s               ",
"& ^ #.f 4 k b $.I 9 %.&.a *.=.a a -.;.d z >.w ,.'.: ).-.$ !.~.k             ",
"{.].^./.5 (._.:.$.<.y [.}.|.1.2.O 3.4.5.6.7.8.9.0.n a.b.{.c.d.              ",
"e.f.g.i j h.i.j.k.l.^ ( m.n.o.p.0 q.r.(.s.t.(.u./.i v.w.x.y.z.              ",
"A.B.C.j _ q.l.D.E.F.G.d H.I.J.K.L.M.9 Y ^ j 4 m #.,.a.N.O.P.g.              ",
"Q.R.S.b s.T.l.U.V.W.X.Y.Z.`. +.+] w i t / < j ^ %.P x Q ++@+#+              ",
"$+^ %+F &+*+W.q.=+W.W.W.8 *.-+;+4 >+,+'+r.)+W.!+7.~+{+]+^+/+(+              ",
"_+^ :+F =+q.&+=+W.<+[+}+0.M.R Y |+1+|+2+3+4+5+6+7+8+9+0+a+b+c+              ",
"d+e+6 t A 2 T.(.W.3.f+g+_.h+i+j+k+l+m+n+o+p+q+r+s+t+u+v+w+x+y+              ",
"z+^ e } ..} A+=+>+B+,+)+W.C+W.D+E+F+G+H+I+J+K+L+M+N+O+P+Q+R+S+T+            ",
"- ~ A ../ _ +.k =+U+V+U.W+X+Y+Z+`+ @.@+@@@#@$@%@&@*@=@-@;@>@,@'@)@          ",
"& { c -.!@+.^ 9 8.~@{@]@^@/@(@_@:@<@[@}@|@1@2@3@4@5@6@7@8@9@0@a@b@c@        ",
"d@e@V  .m ^ } k B+8.l.C+f@g@h@i@j@k@l@m@n@o@p@q@r@s@t@u@v@w@x@y@z@A@;.      ",
"B@u.A 5 ^ ..4 f C@s.D@E@F@G@H@I@J@K@L@M@N@            O@P@Q@R@4@S@$ T@      ",
"B@T.C P U@V@W@5 X@~@Y@Z@`@ #.#+#@###$#%#        &#*#    =#-#;#>#:.,#'#M     ",
"d@W.J !@)#!#L.].~#r.{#]#^#/#(#_#:#<#[#}#                |#    1#'+B &.Q     ",
"2#>+3#..!#L.4#e+k 5#/+6#7#8#9#_#0#a#b#  X+c#d#          e#                  ",
"2#>+f#g#)#].h#V@V@i#j#k#l#m#n#O+o#p#q#  r#e s#          t#                  ",
"u#l.f+: v#U@w#x#y#8 z#A#B#C#_#D#E#F#G#H#                                    ",
"I#J#K#)+e+L#M#N#w.l O#P#s+Q#R#S##@T#U#H#  U+V#                              ",
"W#X#]+Y#)#Z#`# $.$t 6.+$@$#$$$%$E#&$*$=$                                    ",
"-$;$>$,$V#'$)$!$'$5 ~${$7#]$^$/$($_$:$  Z+                                  ",
"<$[$z#{+y#].}$|$'$2 {+1$r+2$3$4$5$6$7$8$                                    ",
"9$[$0$a$H.'$b$c$d$).e$f$g$h$i$j$k$l$m$n$*$              o$p$q$r$s$$ t$      ",
"u$j.]+~+R.].U@Z#].D t.v$w$x$y$z$A$B$=@C$D$i@E$;#  F$G$H$I$J$K$L$M$N$`       ",
"2#v$O$0 '.Z.P$Q$R$6 '+S$f$T$U$_@V$W$X$Y$Z$`$ %.%+%@%#%$%%%&%*%=%-%;%P W a   ",
"2#>%,%N l M '%)%&.s C@C@!%M$~%{%]%^%/%P+(%_%O+:%<%$$[%}%|%1%2%3%4%5%6%M.3#..",
"7%8%G - 9%0%a%b%c%d%e%f%g%h%i%j%k%l%m%n%o%p%q%q@r%s%t%&@u%v%w%x%y%z%@.).    ",
"    e A%B%C%A%@+@.M /.>.&.D%        E%F%G%H%I%J%K%J%L%M%N%O%P%Q%R%;.d       ",
"      M.b g s                           S%T%U%V%W%X%Y%i$Z%`% &.&Y@x         ",
"                                            +&@&#&$&%&&&*&=&-&;&t.          ",
"                                                !%>&,&Y#[+U+~$              ",
"                                                                            "};
