/* XPM */
static char * text_x_lyx_xpm[] = {
"34 34 359 2",
"  	c None",
". 	c #000000",
"+ 	c #AC9177",
"@ 	c #B59C84",
"# 	c #CBB9A8",
"$ 	c #D9CCC0",
"% 	c #FFFFFF",
"& 	c #917458",
"* 	c #A08061",
"= 	c #C5B2A0",
"- 	c #C7B4A2",
"; 	c #BBBBBB",
"> 	c #A78A6E",
", 	c #997A5C",
"' 	c #AC9075",
") 	c #777777",
"! 	c #DDDDDD",
"~ 	c #B0B0AF",
"{ 	c #B1A79E",
"] 	c #B29A83",
"^ 	c #B1977E",
"/ 	c #C2AE9B",
"( 	c #A18264",
"_ 	c #7A6149",
": 	c #907357",
"< 	c #A28971",
"[ 	c #999999",
"} 	c #B2B2B2",
"| 	c #B0AEAB",
"1 	c #B0A293",
"2 	c #B3A08D",
"3 	c #B6A18D",
"4 	c #CCBBAB",
"5 	c #AB9076",
"6 	c #96775A",
"7 	c #8A6E53",
"8 	c #967759",
"9 	c #B4B4B4",
"0 	c #B1AEAC",
"a 	c #A6907C",
"b 	c #A8927C",
"c 	c #BAA795",
"d 	c #CEBEAF",
"e 	c #A58C72",
"f 	c #A1866C",
"g 	c #A2866C",
"h 	c #9F8266",
"i 	c #8C755F",
"j 	c #D0D0D0",
"k 	c #B5B5B4",
"l 	c #B0A89F",
"m 	c #A58E76",
"n 	c #A58D75",
"o 	c #B5A08C",
"p 	c #C2AE9C",
"q 	c #A48C76",
"r 	c #9A8168",
"s 	c #9E8670",
"t 	c #A38C77",
"u 	c #A6907B",
"v 	c #B5AEA8",
"w 	c #AE9A87",
"x 	c #A68E77",
"y 	c #B19B86",
"z 	c #A98D73",
"A 	c #9E856B",
"B 	c #9E8770",
"C 	c #9D8875",
"D 	c #9B8775",
"E 	c #A19081",
"F 	c #6A6056",
"G 	c #B2B2B1",
"H 	c #B3B3B2",
"I 	c #B8B0A8",
"J 	c #BBAB9C",
"K 	c #B3A191",
"L 	c #BEAB99",
"M 	c #A38569",
"N 	c #927961",
"O 	c #9B8269",
"P 	c #9E8873",
"Q 	c #A08E7D",
"R 	c #978879",
"S 	c #95897D",
"T 	c #0C0B0A",
"U 	c #ACACAC",
"V 	c #AFAFAF",
"W 	c #B6AAA0",
"X 	c #BAAB9D",
"Y 	c #BCAD9F",
"Z 	c #C7B8AA",
"` 	c #B9A28C",
" .	c #977D64",
"..	c #9F8B78",
"+.	c #9D8D7D",
"@.	c #978A7D",
"#.	c #46403B",
"$.	c #9D9D9C",
"%.	c #A6A6A5",
"&.	c #A9998A",
"*.	c #AC9784",
"=.	c #B19F8D",
"-.	c #C8BAAC",
";.	c #C9B7A6",
">.	c #A68C72",
",.	c #A8917A",
"'.	c #A58E77",
").	c #A28E79",
"!.	c #9F8D7A",
"~.	c #9A8878",
"{.	c #8D8176",
"].	c #040404",
"^.	c #C2C2C2",
"/.	c #989898",
"(.	c #938272",
"_.	c #8B7661",
":.	c #947D67",
"<.	c #B39E8A",
"[.	c #CBBAAA",
"}.	c #A1856A",
"|.	c #AB957F",
"1.	c #AB9581",
"2.	c #AA9682",
"3.	c #A49280",
"4.	c #9D8A78",
"5.	c #958472",
"6.	c #484541",
"7.	c #8F8F8F",
"8.	c #8C7C6C",
"9.	c #7E6B59",
"0.	c #7A6755",
"a.	c #957B61",
"b.	c #9D7F62",
"c.	c #A0866D",
"d.	c #A68F78",
"e.	c #AB9784",
"f.	c #AB9989",
"g.	c #A49281",
"h.	c #998776",
"i.	c #7F7266",
"j.	c #1F1F1F",
"k.	c #8B8B8B",
"l.	c #968C81",
"m.	c #8A7460",
"n.	c #84715D",
"o.	c #8E765F",
"p.	c #B69E87",
"q.	c #9D7E5F",
"r.	c #89745F",
"s.	c #987F67",
"t.	c #A28A72",
"u.	c #A7937F",
"v.	c #9D8C7B",
"w.	c #978777",
"x.	c #292828",
"y.	c #909090",
"z.	c #9B938B",
"A.	c #9A836C",
"B.	c #9E856D",
"C.	c #BEA994",
"D.	c #907458",
"E.	c #74614F",
"F.	c #8D7761",
"G.	c #9B826A",
"H.	c #9F8871",
"I.	c #9D8873",
"J.	c #9A8673",
"K.	c #968472",
"L.	c #5C564F",
"M.	c #20201F",
"N.	c #B1B1B1",
"O.	c #A3A29F",
"P.	c #AD9B89",
"Q.	c #AD9A88",
"R.	c #AA9581",
"S.	c #D1C3B5",
"T.	c #B2987F",
"U.	c #735F4C",
"V.	c #8C7660",
"W.	c #A58F79",
"X.	c #A28D79",
"Y.	c #9B8671",
"Z.	c #94806D",
"`.	c #827465",
" +	c #232323",
".+	c #B1AFAD",
"++	c #AF9D8C",
"@+	c #B19E8B",
"#+	c #B4A190",
"$+	c #CCBEB0",
"%+	c #C0AB97",
"&+	c #836B54",
"*+	c #9D846D",
"=+	c #A1876F",
"-+	c #A8937E",
";+	c #A89583",
">+	c #A39180",
",+	c #9C8B79",
"'+	c #988674",
")+	c #413E3B",
"!+	c #A9A9A9",
"~+	c #BFBFBE",
"{+	c #AD9C8B",
"]+	c #AA937D",
"^+	c #C0AF9F",
"/+	c #836951",
"(+	c #AB937C",
"_+	c #AA927A",
":+	c #AA9480",
"<+	c #AA9683",
"[+	c #A99988",
"}+	c #A39385",
"|+	c #9E9082",
"1+	c #615B56",
"2+	c #575757",
"3+	c #CDCDCD",
"4+	c #BFB6AE",
"5+	c #A38C75",
"6+	c #9C8670",
"7+	c #A58A70",
"8+	c #96785B",
"9+	c #9B8169",
"0+	c #AB947D",
"a+	c #AE9884",
"b+	c #AC9885",
"c+	c #A79483",
"d+	c #A49384",
"e+	c #A19284",
"f+	c #8D8379",
"g+	c #262626",
"h+	c #D4D2D0",
"i+	c #B7A391",
"j+	c #AF9882",
"k+	c #A38A72",
"l+	c #B0977F",
"m+	c #937558",
"n+	c #6B5845",
"o+	c #977F69",
"p+	c #A68D76",
"q+	c #A99684",
"r+	c #A39281",
"s+	c #9E8D7D",
"t+	c #94877C",
"u+	c #353433",
"v+	c #CDC3B9",
"w+	c #BDAA97",
"x+	c #B7A390",
"y+	c #BDA894",
"z+	c #A08163",
"A+	c #614F3D",
"B+	c #907A65",
"C+	c #9B836C",
"D+	c #A08770",
"E+	c #9F8B77",
"F+	c #9C8A79",
"G+	c #423F3D",
"H+	c #C4B4A4",
"I+	c #C5B4A4",
"J+	c #C8B7A7",
"K+	c #C3AF9C",
"L+	c #886D54",
"M+	c #8D7863",
"N+	c #97806B",
"O+	c #967F69",
"P+	c #917B66",
"Q+	c #8F7A64",
"R+	c #937D68",
"S+	c #95816D",
"T+	c #665F58",
"U+	c #2C2C2C",
"V+	c #857566",
"W+	c #C9B8A8",
"X+	c #CEBDAD",
"Y+	c #A28365",
"Z+	c #977E66",
"`+	c #B29E8A",
" @	c #AC9883",
".@	c #A18A73",
"+@	c #937D67",
"@@	c #897561",
"#@	c #85725F",
"$@	c #7B6C5E",
"%@	c #2A2A2A",
"&@	c #AA947F",
"*@	c #C4B19F",
"=@	c #AB8F74",
"-@	c #806952",
";@	c #B6A492",
">@	c #B7A697",
",@	c #B09F90",
"'@	c #A69381",
")@	c #9C8671",
"!@	c #8F7964",
"~@	c #786A5C",
"{@	c #636363",
"]@	c #886C52",
"^@	c #A88E75",
"/@	c #B0967D",
"(@	c #81674F",
"_@	c #AC957F",
":@	c #B5A696",
"<@	c #B3A496",
"[@	c #B0A193",
"}@	c #AA9B8C",
"|@	c #A29180",
"1@	c #817568",
"2@	c #282828",
"3@	c #383838",
"4@	c #866B50",
"5@	c #AA8E73",
"6@	c #84694F",
"7@	c #88725D",
"8@	c #AE9C8B",
"9@	c #AEA194",
"0@	c #AC9F91",
"a@	c #A89B8F",
"b@	c #867E76",
"c@	c #2E2E2E",
"d@	c #A08366",
"e@	c #8C7055",
"f@	c #685440",
"g@	c #A69483",
"h@	c #A99A8C",
"i@	c #A99C90",
"j@	c #AC9F93",
"k@	c #867E78",
"l@	c #272727",
"m@	c #80674D",
"n@	c #947659",
"o@	c #66513D",
"p@	c #725D4A",
"q@	c #9B8774",
"r@	c #A29181",
"s@	c #A59687",
"t@	c #9E9288",
"u@	c #575451",
"v@	c #2B2B2B",
"w@	c #866B51",
"x@	c #725B45",
"y@	c #31261C",
"z@	c #3A3129",
"A@	c #897F76",
"B@	c #898178",
"C@	c #706A65",
"D@	c #303030",
"E@	c #ADADAD",
"F@	c #6B5641",
"G@	c #6E5843",
"H@	c #493A2B",
"I@	c #656565",
"J@	c #5C4937",
"K@	c #4D3D2E",
"L@	c #433528",
"M@	c #493A2C",
"N@	c #31271D",
"O@	c #362B21",
"P@	c #362B20",
"Q@	c #1B1510",
"R@	c #261E17",
". . . . . . . . . . . . . . . . . . . . . . . . . . . . + @ # $ . . ",
". % % % % % % % % % % % % % % % % % % % % % % % % % % & * = - % ; . ",
". % % % % % % % % % % % % % % % % % % % % % % % % > , ' ' , @ ; ) . ",
". % % ; ! ; ! ; ! ; ! ; ! ; ! ; ! ; ! ; ! ; ~ { ] ^ / ( _ : < ) [ . ",
". % % ! ; ! ; ! ; ! ; ! ; ! ; ! ; ! ; ! } | 1 2 3 4 5 6 7 8 ; [ ) . ",
". % % ; ! ; ! ; ! ; ! ; ! ; ! ; ! ; ! 9 0 a b c d e f g h i ! ) [ . ",
". % % ! ; ! ; ! ; ! ; ! ; ! ; ! ; j k l m n o p q r s t u ! ; [ ) . ",
". % % ; ! ; ! ; ! ; ! ; ! ; ! ; 9 9 v w x y z A B C D E F ; ! ) [ . ",
". % % ! ; ! ; ! ; ! ; ! ; ! ; G H I J K L M N O P Q R S T ! ; [ ) . ",
". % % ; ! ; ! ; ! ; ! ; ! ; U V W X Y Z `  .r s ..+.@.#.! ; ! ) [ . ",
". % % ! ; ! ; ! ; ! ; ! ; $.%.&.*.=.-.;.>.,.'.).!.~.{.].; ! ; [ ) . ",
". % % ; ! ; ! ; ! ; ! ; ^./.(._.:.<.[.}.|.1.2.3.4.5.6.; ! ; ! ) [ . ",
". % % ! ; ! ; ! ; ! ; ! 7.8.9.0.a.- b.c.d.e.f.g.h.i.j.! ; ! ; [ ) . ",
". % % ; ! ; ! ; ! ; ! k.l.m.n.o.p.q.r.s.t.u.3.v.w.x.! ; ! ; ! ) [ . ",
". % % ! ; ! ; ! ; ! y.z.B A.B.C.D.E.F.G.H.I.J.K.L.M.; ! ; ! ; [ ) . ",
". % % ; ! ; ! ; ! N.O.P.Q.R.S.T.U.V.B.W.X.Y.Z.`. +; ! ; ! ; ! ) [ . ",
". % % ! ; ! ; ! ; .+++@+#+$+%+&+*+=+-+;+>+,+'+)+!+! ; ! ; ! ; [ ) . ",
". % % ; ! ; ! ; ~+{+n ]+^+[./+(+_+:+<+[+}+|+1+2+! ; ! ; ! ; ! ) [ . ",
". % % ! ; ! ; 3+4+5+6+7+- 8+9+0+a+b+c+d+e+f+g+! ; ! ; ! ; ! ; [ ) . ",
". % % ; ! ; ! h+i+j+k+l+m+n+o+p+R.q+r+s+t+u+! ; ! ; ! ; ! ; ! ) [ . ",
". % % ! ; ! ; v+w+x+y+z+A+9.B+C+D+E+v.F+G+! ; ! ; ! ; ! ; ! ; [ ) . ",
". % % ; ! ; ! H+I+J+K+L+M+N+O+P+Q+R+S+T+U+; ! ; ! ; ! ; ! ; ! ) [ . ",
". % % ! ; ! V+^+W+X+Y+Z+`+ @.@+@@@#@$@%@; ! ; ! ; ! ; ! ; ! ; [ ) . ",
". % % ; ! ; :.&@*@=@-@;@>@,@'@)@!@~@%@{@! ; ! ; ! ; ! ; ! ; ! ) [ . ",
". % % ! ; ! ]@^@/@(@_@:@<@[@}@|@1@2@3@! ; ! ; ! ; ! ; ! ; ! ; [ ) . ",
". % % ; ! ; 4@5@6@7@8@[@9@0@a@b@2@c@! ; ! ; ! ; ! ; ! ; ! ; ! ) [ . ",
". % % ! ; ! d@e@f@Y.g@h@i@j@k@l@c@! ; ! ; ! ; ! ; ! ; ! ; ! ; [ ) . ",
". % % ; ! m@n@o@p@q@r@s@t@u@v@3@! ; ! ; ! ; ! ; ! ; ! ; ! ; ! ) [ . ",
". % % ! ; w@x@y@z@A@B@C@c@D@E@! ; ! ; ! ; ! ; ! ; ! ; ! ; ! ; [ ) . ",
". % % ; F@G@H@. . I@! ; ! ; ! ; ! ; ! ; ! ; ! ; ! ; ! ; ! ; ! ) [ . ",
". % % ! J@K@; ! ; ! ; ! ; ! ; ! ; ! ; ! ; ! ; ! ; ! ; ! ; ! ; [ ) . ",
". % ; L@M@N@[ ) [ ) [ ) [ ) [ ) [ ) [ ) [ ) [ ) [ ) [ ) [ ) [ ) [ . ",
". ; ) O@P@[ ) [ ) [ ) [ ) [ ) [ ) [ ) [ ) [ ) [ ) [ ) [ ) [ ) [ ) . ",
". . Q@R@. . . . . . . . . . . . . . . . . . . . . . . . . . . . . . "};
