/* XPM */
static char * text_xpm[] = {
"31 36 96 2",
"  	c None",
". 	c #121212",
"+ 	c #000000",
"@ 	c #050505",
"# 	c #151515",
"$ 	c #030303",
"% 	c #FCFCFC",
"& 	c #F9F9F9",
"* 	c #F8F8F8",
"= 	c #FAFAFA",
"- 	c #FBFBFB",
"; 	c #F7F7F7",
"> 	c #FEFEFE",
", 	c #F4F4F4",
"' 	c #D5D5D5",
") 	c #0B0B0B",
"! 	c #060606",
"~ 	c #F5F5F5",
"{ 	c #F6F6F6",
"] 	c #F0F0F0",
"^ 	c #F3F3F3",
"/ 	c #E5E5E5",
"( 	c #C6C6C6",
"_ 	c #B0B0B0",
": 	c #C2C2C2",
"< 	c #F2F2F2",
"[ 	c #F1F1F1",
"} 	c #EBEBEB",
"| 	c #EEEEEE",
"1 	c #EDEDED",
"2 	c #E7E7E7",
"3 	c #D3D3D3",
"4 	c #B4B4B4",
"5 	c #818181",
"6 	c #ACACAC",
"7 	c #070707",
"8 	c #EFEFEF",
"9 	c #EAEAEA",
"0 	c #ECECEC",
"a 	c #E6E6E6",
"b 	c #CACACA",
"c 	c #ABABAB",
"d 	c #010101",
"e 	c #7F7F7F",
"f 	c #E9E9E9",
"g 	c #C8C8C8",
"h 	c #A9A9A9",
"i 	c #7E7E7E",
"j 	c #090909",
"k 	c #7C7C7C",
"l 	c #B2B2B2",
"m 	c #CDCDCD",
"n 	c #080808",
"o 	c #D0D0D0",
"p 	c #FDFDFD",
"q 	c #FFFFFF",
"r 	c #CECECE",
"s 	c #AAAAAA",
"t 	c #040404",
"u 	c #E8E8E8",
"v 	c #CCCCCC",
"w 	c #CBCBCB",
"x 	c #E4E4E4",
"y 	c #A8A8A8",
"z 	c #E2E2E2",
"A 	c #C7C7C7",
"B 	c #A6A6A6",
"C 	c #E1E1E1",
"D 	c #E3E3E3",
"E 	c #C5C5C5",
"F 	c #A4A4A4",
"G 	c #0C0C0C",
"H 	c #A5A5A5",
"I 	c #020202",
"J 	c #E0E0E0",
"K 	c #DFDFDF",
"L 	c #C4C4C4",
"M 	c #DDDDDD",
"N 	c #D9D9D9",
"O 	c #DADADA",
"P 	c #A7A7A7",
"Q 	c #C9C9C9",
"R 	c #C0C0C0",
"S 	c #B7B7B7",
"T 	c #DBDBDB",
"U 	c #A1A1A1",
"V 	c #A2A2A2",
"W 	c #A3A3A3",
"X 	c #A0A0A0",
"Y 	c #9D9D9D",
"Z 	c #BFBFBF",
"` 	c #8B8B8B",
" .	c #838383",
"..	c #808080",
"+.	c #B5B5B5",
"@.	c #B3B3B3",
". + @ # $ @ @ @ @ @ @ @ @ @ @ @ @ @ @ @ @ @ @ @ @ @ @ @ @     ",
"@ % & * = & & = = = & & * - - - - = = = = & ; > = & , ' )     ",
"! % * ~ { ; ; * * * ; ; { * ; ; ; { { { ~ ~ ] ~ ^ ] / ( $ _ : ",
"! - { < < , ~ ~ { { ~ ~ , , ^ ^ < < [ [ [ [ } | 1 2 3 4 + 5 6 ",
"7 - { [ [ ^ , ~ ~ ~ ~ ~ , ^ ^ < [ [ ] ] 8 [ 9 } 0 a b c d e 4 ",
"! % ; ^ ^ , ~ { ; ; ; ; { ~ ~ , , ^ < [ [ [ 0 0 1 f g h 7 i 4 ",
"! % * ~ ~ { ; ; * & & & & * * ; { ~ , ^ ^ 8 | 0 0 } b h j k l ",
"! % * { ; ; ; * & = = = = & & * ; ~ , ^ ^ | < 1 9 1 m h n e 4 ",
"! - * { ; ; ; * & = - - = & * ; { ~ ^ ^ < 8 ~ 8 9 8 o h ! i l ",
"@ % & { ; * & = % p > > q & & * { ~ , ^ < ] [ 8 0 0 r 6 ! e l ",
"@ % & { ; * & - % p > > q = & * ; ~ , ^ ^ ] [ 8 0 0 r 6 ! e l ",
"! % * { { & = - % p > > > = = & ; { ~ , ^ ] [ 8 0 0 r c ! e l ",
"! % * ~ { & & - % p p p p = = & * { ~ , ^ 8 [ | } } r c ! e l ",
"! % * ~ ~ * & = - % % % % = = & ; { ~ , ^ 8 ] | } } m c @ e l ",
"! % * , ~ ; * & = = = = = & & * { ~ , ^ < 8 ] | } } m s @ e l ",
"! % ; , ~ { { ; * * * * * * * ; ~ , ^ < [ | ] 1 9 9 m s @ e l ",
"! % ; , , ~ { { ; ; ; ; ; ; ; { ~ ^ < [ ] | ] 1 9 9 m s @ e l ",
"t = { ^ ^ , ~ ~ { { { { { { ~ , ^ < [ ] 8 1 | } u f v s @ e l ",
"@ = { < ^ , , ~ ~ { { ~ ~ ~ ~ , ^ [ ] 8 8 1 | } u u w s @ e l ",
"@ = ~ [ [ < ^ , , ~ , , , , ^ ^ < ] 8 8 | 0 1 9 2 u w h @ e l ",
"@ = ~ ] ] [ [ < ^ ^ ^ < < < < [ ] 8 | | 1 } 0 f 2 2 w h @ e l ",
"! = , 8 | 8 ] ] [ [ [ [ ] ] ] 8 8 | 1 1 0 f } u a 2 b h t e l ",
"! = ^ 1 0 1 | 8 8 ] 8 8 8 | | | 1 1 0 0 0 u 9 u / a b h t e l ",
"! = ^ 0 } 0 1 1 | | | | | 1 1 1 0 0 } } } u f 2 / a b h t e l ",
"! = ^ 0 9 0 0 1 1 | | 1 1 0 0 0 0 } } } } 2 f 2 x a b y t e l ",
"n ~ ; } } 0 0 0 0 0 1 1 1 9 9 9 f f u u u u / z x a A B t e l ",
"n { ; 9 f f f f f 9 9 9 9 f f u u 2 2 a a u / C C D E F $ e l ",
"G * ; u 2 2 2 2 u u u u u u u u 2 2 a a / a / z C z E H t e l ",
"G { , x D a a a a 2 2 2 2 2 2 a a / / x x z D z C C E H I e l ",
"j ^ < x / a a a 2 2 2 2 u a a a / / x x x J x D J K L F + e l ",
") , [ z D z z z z D D D D z z C C J J K K M C K N O : P @ e l ",
"j } J w A g g g g g Q Q Q Q Q g g A A ( ( L g E R E S H j e l ",
"d T A h U B B B B B P P P y y P P B B H H V B W X c B Y ! e l ",
"# $ j + n t t t t t t t t t t t t t t t t @ @ @ @ @ @ @ @ i Z ",
"    W `  .................................i i i i i i i i k s ",
"    4 +.y @.@.@.@.@.@.@.@.@.@.@.@.@.@.@.@.@.@.@.@.@.@.@.@._ S "};
