/* XPM */
static char * text_x_c_xpm[] = {
"35 36 578 2",
"  	c None",
". 	c #0F0F0F",
"+ 	c #010101",
"@ 	c #0A0A0A",
"# 	c #0E0E0E",
"$ 	c #000000",
"% 	c #050505",
"& 	c #080808",
"* 	c #090909",
"= 	c #0B0B0B",
"- 	c #0C0C0C",
"; 	c #101010",
"> 	c #020202",
", 	c #070707",
"' 	c #111111",
") 	c #060606",
"! 	c #181818",
"~ 	c #FDFDFD",
"{ 	c #F5F5F5",
"] 	c #EAEAEA",
"^ 	c #FFFFFF",
"/ 	c #FAFAFA",
"( 	c #F6F6F6",
"_ 	c #F1F1F1",
": 	c #E0E0E0",
"< 	c #F8F8F8",
"[ 	c #F9F9F9",
"} 	c #EDEDED",
"| 	c #FCFCFC",
"1 	c #F3F3F3",
"2 	c #FEFEFE",
"3 	c #FBFBFB",
"4 	c #F0F0F0",
"5 	c #DEDEDE",
"6 	c #D4D4D4",
"7 	c #B2B2B2",
"8 	c #EFEFEF",
"9 	c #F2F2F2",
"0 	c #E6E6E6",
"a 	c #C9C9C9",
"b 	c #BEBEBE",
"c 	c #C8C8C8",
"d 	c #CBCBCB",
"e 	c #EBEBEB",
"f 	c #BABABA",
"g 	c #ECECEC",
"h 	c #EEEEEE",
"i 	c #E9E9E9",
"j 	c #F7F7F7",
"k 	c #B7B7B7",
"l 	c #DFDFDF",
"m 	c #A4A4A4",
"n 	c #0D0D0D",
"o 	c #CACACA",
"p 	c #D5D5D5",
"q 	c #BCBCBC",
"r 	c #B9B9B9",
"s 	c #A7A7A7",
"t 	c #A5A5A5",
"u 	c #AEAEAE",
"v 	c #D0D0D0",
"w 	c #BFBFBF",
"x 	c #C4C4C4",
"y 	c #E2E2E2",
"z 	c #C3C3C3",
"A 	c #CECECE",
"B 	c #E8E8E8",
"C 	c #D1D1D1",
"D 	c #E3E3E3",
"E 	c #B0B0B0",
"F 	c #040404",
"G 	c #C2C2C2",
"H 	c #D3D3D3",
"I 	c #9E9E9E",
"J 	c #ACACAC",
"K 	c #A2A2A2",
"L 	c #A6A6A6",
"M 	c #B3B3B3",
"N 	c #ABABAB",
"O 	c #999999",
"P 	c #8A8A8A",
"Q 	c #969696",
"R 	c #CFCFCF",
"S 	c #C5C5C5",
"T 	c #AAAAAA",
"U 	c #030303",
"V 	c #C0C0C0",
"W 	c #E4E4E4",
"X 	c #E7E7E7",
"Y 	c #F4F4F4",
"Z 	c #A8A8A8",
"` 	c #D8D8D8",
" .	c #B8B8B6",
"..	c #B4B4B4",
"+.	c #CDCDCD",
"@.	c #B8B8B8",
"#.	c #C1C1C3",
"$.	c #C4C4C6",
"%.	c #B6B6B6",
"&.	c #A1A1A1",
"*.	c #B5B5B5",
"=.	c #E5E5E5",
"-.	c #DCDCDC",
";.	c #D9D9D9",
">.	c #101012",
",.	c #E9E9EB",
"'.	c #D1D1D3",
").	c #B1B1B1",
"!.	c #FDFDFB",
"~.	c #959593",
"{.	c #A1A29D",
"].	c #E8E8E6",
"^.	c #949494",
"/.	c #9C9C9E",
"(.	c #9C9BA0",
"_.	c #9D9CA1",
":.	c #BBBBBD",
"<.	c #A9A9A7",
"[.	c #ABABA9",
"}.	c #8C8C8A",
"|.	c #8A8A88",
"1.	c #AEAEAC",
"2.	c #F1F1EF",
"3.	c #EBEBE9",
"4.	c #CCCCCC",
"5.	c #D4D4D6",
"6.	c #A0A0A2",
"7.	c #050409",
"8.	c #FFFEFF",
"9.	c #BDBDBF",
"0.	c #FBFBF9",
"a.	c #F0F1EC",
"b.	c #FBFCF7",
"c.	c #ECEDE8",
"d.	c #FFFFFB",
"e.	c #FBFBFD",
"f.	c #FEFDFF",
"g.	c #F4F3F9",
"h.	c #EFEEF3",
"i.	c #F9F9F7",
"j.	c #EFEFED",
"k.	c #E2E2E0",
"l.	c #E4E4E2",
"m.	c #F4F4F2",
"n.	c #DDDDDF",
"o.	c #B6B6B8",
"p.	c #1C1B20",
"q.	c #0A090E",
"r.	c #F8F7FC",
"s.	c #DADADC",
"t.	c #D7D8D3",
"u.	c #A2A39E",
"v.	c #E3E4DF",
"w.	c #D7D7D7",
"x.	c #CDCDCF",
"y.	c #B9B8BD",
"z.	c #CDCCD2",
"A.	c #D6D5DA",
"B.	c #E7E7E9",
"C.	c #ADADAD",
"D.	c #AFAFAF",
"E.	c #B4B4B6",
"F.	c #343436",
"G.	c #111113",
"H.	c #ECECEE",
"I.	c #D2D2D4",
"J.	c #F3F3F1",
"K.	c #CCCDC8",
"L.	c #9C9D98",
"M.	c #FFFFFD",
"N.	c #9A9A98",
"O.	c #797979",
"P.	c #C5C5C7",
"Q.	c #979799",
"R.	c #A6A5AA",
"S.	c #D9D8DD",
"T.	c #3B3B3B",
"U.	c #030305",
"V.	c #BEBEC0",
"W.	c #EDEDEB",
"X.	c #EEEEEC",
"Y.	c #F8F8F6",
"Z.	c #F2F2F4",
"`.	c #FAFAFC",
" +	c #F6F6F4",
".+	c #F7F7F5",
"++	c #C5C5C3",
"@+	c #E6E6E4",
"#+	c #D9D9D7",
"$+	c #D8D8D6",
"%+	c #E1E1DF",
"&+	c #BABAB8",
"*+	c #41423D",
"=+	c #000002",
"-+	c #DADADA",
";+	c #ACACAA",
">+	c #C1C1BF",
",+	c #C4C4C2",
"'+	c #B9BAB5",
")+	c #C1C2BD",
"!+	c #CACBC6",
"~+	c #9B9C97",
"{+	c #666762",
"]+	c #31322D",
"^+	c #191A15",
"/+	c #070802",
"(+	c #22231D",
"_+	c #2E2F29",
":+	c #4F5048",
"<+	c #36372F",
"[+	c #09090B",
"}+	c #EFEFF1",
"|+	c #B4B4B2",
"1+	c #979795",
"2+	c #8F8F8D",
"3+	c #A0A09E",
"4+	c #C5C6C1",
"5+	c #A4A59D",
"6+	c #7D7F74",
"7+	c #7F8176",
"8+	c #2E3025",
"9+	c #4E5045",
"0+	c #93958A",
"a+	c #DCDDD5",
"b+	c #F0F1E9",
"c+	c #EEF0E5",
"d+	c #DFE1D6",
"e+	c #D4D6C9",
"f+	c #989A8D",
"g+	c #404234",
"h+	c #262918",
"i+	c #08080A",
"j+	c #F5F5F3",
"k+	c #FAFAF8",
"l+	c #EEEFEA",
"m+	c #F2F3ED",
"n+	c #EBEDDF",
"o+	c #6A6D5C",
"p+	c #3C3F2E",
"q+	c #C2C4B6",
"r+	c #F8FAEC",
"s+	c #F5F7E9",
"t+	c #DEE0D3",
"u+	c #EBEDE0",
"v+	c #E4E6D8",
"w+	c #EEF0E2",
"x+	c #E2E5D4",
"y+	c #DFE2CF",
"z+	c #E6E9D6",
"A+	c #B0B39E",
"B+	c #3A3E27",
"C+	c #5C5F4E",
"D+	c #CBCBC9",
"E+	c #B6B7B2",
"F+	c #CBCCC7",
"G+	c #BBBCB6",
"H+	c #B1B2AD",
"I+	c #D1D3C8",
"J+	c #484B38",
"K+	c #636750",
"L+	c #F8FCE5",
"M+	c #E9ECD7",
"N+	c #E9ECD9",
"O+	c #CFD2BF",
"P+	c #C4C7B6",
"Q+	c #BCBFAE",
"R+	c #C0C3B0",
"S+	c #AFB29F",
"T+	c #D9DCC7",
"U+	c #DCE0C9",
"V+	c #DADEC7",
"W+	c #E3E7CE",
"X+	c #D1D5BA",
"Y+	c #666954",
"Z+	c #474842",
"`+	c #DDDDDD",
" @	c #A2A2A0",
".@	c #90918C",
"+@	c #A5A6A1",
"@@	c #A4A59F",
"#@	c #93948E",
"$@	c #90918B",
"%@	c #525447",
"&@	c #6B6F58",
"*@	c #FAFEE3",
"=@	c #EBEFD4",
"-@	c #CCD0B7",
";@	c #C3C7B0",
">@	c #8A8D78",
",@	c #4D503D",
"'@	c #2D301D",
")@	c #0C0F00",
"!@	c #2D301B",
"~@	c #5B5E49",
"{@	c #8B8F78",
"]@	c #C9CDB4",
"^@	c #DEE2C7",
"/@	c #D7DBC0",
"(@	c #C8CBB6",
"_@	c #60615B",
":@	c #050503",
"<@	c #FEFEFC",
"[@	c #F0F1EB",
"}@	c #F1F2EA",
"|@	c #9B9C94",
"1@	c #3C3E30",
"2@	c #FBFFE6",
"3@	c #E3E8CA",
"4@	c #D4D8BD",
"5@	c #A4A88F",
"6@	c #333720",
"7@	c #3C3F2A",
"8@	c #3F422D",
"9@	c #5E624B",
"0@	c #B6BAA1",
"a@	c #C2C6AB",
"b@	c #ADB09B",
"c@	c #B2B3AD",
"d@	c #373737",
"e@	c #0D0D0B",
"f@	c #C0C0BE",
"g@	c #C7C8C3",
"h@	c #9E9F99",
"i@	c #CBCCC4",
"j@	c #BABCB1",
"k@	c #393B30",
"l@	c #CCCFBE",
"m@	c #EAEED5",
"n@	c #D4D9BB",
"o@	c #9FA388",
"p@	c #3A3E25",
"q@	c #515443",
"r@	c #141702",
"s@	c #000300",
"t@	c #161711",
"u@	c #272727",
"v@	c #E5E5E7",
"w@	c #EBEBED",
"x@	c #F8F8FA",
"y@	c #B6B6B4",
"z@	c #ADAEA9",
"A@	c #9FA09A",
"B@	c #8A8B83",
"C@	c #5C5E53",
"D@	c #494B3E",
"E@	c #F8FBEA",
"F@	c #EAEED7",
"G@	c #B5B9A0",
"H@	c #4E523B",
"I@	c #D9D9DB",
"J@	c #FCFCFE",
"K@	c #DBDBDB",
"L@	c #F4F5F0",
"M@	c #E8E9E1",
"N@	c #F1F3E8",
"O@	c #686A5D",
"P@	c #9EA092",
"Q@	c #EFF2E1",
"R@	c #D3D6C1",
"S@	c #949782",
"T@	c #3D402D",
"U@	c #080806",
"V@	c #E1E1E1",
"W@	c #EAEAEC",
"X@	c #B9B9B7",
"Y@	c #AFB0AB",
"Z@	c #C8C9C1",
"`@	c #C7C9BE",
" #	c #27291C",
".#	c #D3D5C7",
"+#	c #BFC2B1",
"@#	c #4E5140",
"##	c #CACAC8",
"$#	c #BDBDBD",
"%#	c #F3F3F5",
"&#	c #9C9C9A",
"*#	c #979893",
"=#	c #A7A8A0",
"-#	c #888A7F",
";#	c #1C1E11",
">#	c #E9EBDD",
",#	c #BDC0AF",
"'#	c #2B2E1D",
")#	c #010200",
"!#	c #EEEEF0",
"~#	c #EAE9EE",
"{#	c #F1F1F3",
"]#	c #E8E8EA",
"^#	c #EAEAE8",
"/#	c #EDEEE8",
"(#	c #E4E6DB",
"_#	c #080A00",
":#	c #EBEEDB",
"<#	c #B7BAA7",
"[#	c #090C00",
"}#	c #0A0B06",
"|#	c #FFFFFA",
"1#	c #E5E5E3",
"2#	c #F7F7F9",
"3#	c #E1E0E5",
"4#	c #CECDD2",
"5#	c #9F9F9D",
"6#	c #C9CAC4",
"7#	c #111305",
"8#	c #DADDCC",
"9#	c #E7EAD7",
"0#	c #252815",
"a#	c #060702",
"b#	c #FAFBF5",
"c#	c #BCBCBA",
"d#	c #DFDFE1",
"e#	c #F6F5FA",
"f#	c #CAC9CE",
"g#	c #A8A8AA",
"h#	c #CFD0CA",
"i#	c #DCDED3",
"j#	c #202214",
"k#	c #ECEFDE",
"l#	c #DBDECB",
"m#	c #595C49",
"n#	c #020300",
"o#	c #F9FAF5",
"p#	c #BFBFBD",
"q#	c #D7D7D5",
"r#	c #F5F5F7",
"s#	c #E4E4E6",
"t#	c #E9E8ED",
"u#	c #E2E1E6",
"v#	c #E0E0DE",
"w#	c #DDDED8",
"x#	c #5D5F52",
"y#	c #96988A",
"z#	c #EAEDDC",
"A#	c #DFE2CD",
"B#	c #A9AC97",
"C#	c #212413",
"D#	c #0B0C07",
"E#	c #F5F6F1",
"F#	c #A4A3A8",
"G#	c #ECEBF0",
"H#	c #DFE0DA",
"I#	c #95978A",
"J#	c #47493B",
"K#	c #F2F5E4",
"L#	c #EBEED9",
"M#	c #C1C4AF",
"N#	c #393C29",
"O#	c #0C0C0A",
"P#	c #C7C7C5",
"Q#	c #BEBEBC",
"R#	c #ADACB1",
"S#	c #EBEAEF",
"T#	c #E6E6E8",
"U#	c #F0F0EE",
"V#	c #D5D6D1",
"W#	c #EEEFE7",
"X#	c #ECEEE3",
"Y#	c #36382B",
"Z#	c #ADB09F",
"`#	c #E3E6D1",
" $	c #D8DCC5",
".$	c #C2C5B0",
"+$	c #222512",
"@$	c #161908",
"#$	c #010400",
"$$	c #030500",
"%$	c #090A05",
"&$	c #2B2B2B",
"*$	c #060604",
"=$	c #E7E8E3",
"-$	c #D7D8D2",
";$	c #E1E2DA",
">$	c #929489",
",$	c #434537",
"'$	c #DADDC8",
")$	c #D7DBC4",
"!$	c #CCCFBC",
"~$	c #494C3B",
"{$	c #505342",
"]$	c #6F725F",
"^$	c #D7DAC5",
"/$	c #E9EDD6",
"($	c #E1E4D3",
"_$	c #C0C1BB",
":$	c #2F2F2F",
"<$	c #D6D6D4",
"[$	c #CFCFD1",
"}$	c #CACACC",
"|$	c #C7C7C9",
"1$	c #DFDFDD",
"2$	c #D2D3CD",
"3$	c #D8D9D1",
"4$	c #5C5F4C",
"5$	c #DCDFCA",
"6$	c #DBDEC9",
"7$	c #C7CAB7",
"8$	c #DEE1D0",
"9$	c #A2A594",
"0$	c #595B4D",
"a$	c #2C2E20",
"b$	c #040600",
"c$	c #2A2D1C",
"d$	c #636653",
"e$	c #B4B7A2",
"f$	c #DEE2CB",
"g$	c #D0D4BD",
"h$	c #BBBFA6",
"i$	c #A0A390",
"j$	c #44453F",
"k$	c #4C4C4C",
"l$	c #D5D5D3",
"m$	c #C7C7C7",
"n$	c #A7A7A9",
"o$	c #B8B8BA",
"p$	c #BFC0BB",
"q$	c #C4C5BF",
"r$	c #C8CABF",
"s$	c #333625",
"t$	c #727562",
"u$	c #C5C8B5",
"v$	c #C9CCBB",
"w$	c #CED1C0",
"x$	c #DCDFCE",
"y$	c #DDE0CF",
"z$	c #E1E4D1",
"A$	c #C6C9B4",
"B$	c #C4C8B1",
"C$	c #C5C9B2",
"D$	c #94987F",
"E$	c #505340",
"F$	c #33342E",
"G$	c #030301",
"H$	c #0F0F0D",
"I$	c #151515",
"J$	c #323232",
"K$	c #3A3A3C",
"L$	c #404042",
"M$	c #4E4E4E",
"N$	c #575757",
"O$	c #656563",
"P$	c #737371",
"Q$	c #81817F",
"R$	c #8F908B",
"S$	c #9D9E99",
"T$	c #A6A79F",
"U$	c #AEB0A2",
"V$	c #474A39",
"W$	c #393C2B",
"X$	c #999C8B",
"Y$	c #D7DAC9",
"Z$	c #D3D6C5",
"`$	c #CBCDBF",
" %	c #CFD2C1",
".%	c #D2D4C6",
"+%	c #C0C3B2",
"@%	c #BBBEAB",
"#%	c #AAAD98",
"$%	c #737661",
"%%	c #41452E",
"&%	c #2C2F1E",
"*%	c #3F4133",
"=%	c #292B1D",
"-%	c #77796B",
";%	c #B2B4A7",
">%	c #A6A89A",
",%	c #A7A99C",
"'%	c #9B9D8F",
")%	c #747766",
"!%	c #3A3D2C",
"~%	c #202312",
"{%	c #494C39",
"]%	c #525449",
"^%	c #23251A",
"/%	c #0E1005",
"(%	c #0C0E03",
"_%	c #15170C",
":%	c #212316",
"<%	c #5A5C4F",
". + @ # $ % & * = $ - ; > , , > = ' $ - ) = $ ; , @ ) $ !             ",
"$ ~ { ] ^ / ( _ ~ ^ ~ : ^ < [ ^ [ } | 1 ^ 1 ~ 2 3 3 4 5 &             ",
"* | 6 7 5 ^ 8 ^ 8 1 { 2 | [ 9 9 { | [ 3 } / 9 0 a b c d $             ",
"% e f g h i _ g ^ { 1 ^ _ i 9 j 4 i ( 8 e ] / 9 k l h m =             ",
"n ^ 6 8 4 h o p q r q s } t u r v w x y o z A B C D D E F             ",
"% } o G H | I J K m L u h M N O P K Q R K C S 0 c q r T &             ",
"U 3 V W X 3 j _ 1 2 y [ < 2 ^ } _ | / 9 e ] e Y 7 l } Z %             ",
"& ^ ` e 4 j b  ...9 +.@.a #.$.a a %.&.d x *.u =.-.: ;.%.$             ",
">.,.'.).5 !.~.{. .].w ^./.(._.:.L <.[.}.|.1.2.3.4.m 5.6.>.            ",
"7.8.9.h i 0.a.b.c.d.^ ( e.f.g.h.0 i.j.!.k.l.!.m.).h n.o.p.            ",
"q.r.s.i _ i.d.t.u.v.w.d x.y.z.A.B.C.9 D.^ i 4 l ` =.5.E.F.            ",
"G.H.I.b k.J.d.K.L.M.N.O.P.Q.R.S.] u h r / < i ^ +.M v N T.            ",
"U.^ V.D W.X.M.i.Y.M.M.M.8 #.Z.`.4  +.+++j.@+M.#+1.$+%+&+*+            ",
"=+^ -+D Y.i.W.Y.M.;+>+,+4.C.O D.'+)+'+!+~+{+]+^+/+(+_+:+<+            ",
"[+}+6 r y 2 J.!.M.<.|+1+~.2+3+4+5+6+7+8+9+0+a+b+c+d+e+f+g+h+          ",
"i+^ E } X } j+Y. +k+.+@+M.l+M.m+n+o+p+q+r+s+t+u+v+w+x+y+z+A+B+C+      ",
"- ~ y X / _ Y j Y.D+E+K.F+G+H+I+J+K+L+M+N+O+P+Q+R+S+T+U+V+W+X+Y+Z+    ",
"& { c %.`+Y ^ 9 2. @.@+@@@#@$@%@&@*@=@-@;@>@,@'@)@!@~@{@]@^@/@(@_@    ",
":@<@S W l ^ } j k+2.d.l+[@}@|@1@2@3@4@5@6@7@          8@9@0@a@b@c@d@  ",
"e@m.y 5 ^ X 4 e f@k.g@h@i@j@k@l@m@n@o@p@                q@r@s@)@t@$ u@",
"e@J.A M v@w@x@5 y@ @z@A@B@C@D@E@F@G@H@                                ",
":@M.G `+I@J@B.,.K@j.L@M@N@O@P@Q@R@S@T@                                ",
"U@ +V@X J@B.W@}+j X@Y@Z@`@ #.#Q@+#@#                                  ",
"U@ +##$#I@,.%#w@w@&#*#=#-#;#>#x+,#'#                                  ",
")#d.|+: !#v@~#{#]#8 ^#/#(#_#Q@:#<#[#                                  ",
"}#|#1#@+}+2#3#4#o.k 5#6#c+7#8#9#O+0#                                  ",
"a#b#&+c#I@d#e#f#g#r |.h#i#j#k#l#<#m#                                  ",
"n#o#p#q#r#s#t#u#s#5 v#w#`@x#y#z#A#B#C#                                ",
"D#E#^#%+]#,.F#G#s#2 %+H#b+I#J#K#L#M#N#                                ",
"O#E#P#Q#x.s#R#S#T#;.U#V#W#X#Y#Z#`# $.$+$                  @$#$$$%$$ &$",
"*$b.&+$+H.,.v@d#,.B l.=$-$;$>$,$'$)$T+!$~$1@          {$]$^$/$($_$:$  ",
"U@=$<$0 -.P.[$}$|$6 ++1$V#2$3$%@4$5$6$7$8$9$0$a$b$c$d$e$f$g$h$i$j$k$  ",
"U@l$m$K k J n$o$@.q f@f@p$_$q$r$s$t$u$y+v$w$x+x$y$k#z$A$B$C$D$E$F$    ",
"G$H$F - I$J$K$L$M$N$O$P$Q$R$S$T$U$V$W$X$Y$Z$`$ %.%+%@%R+#%$%%%&%      ",
"                                      *%=%-%;%>%,%>%'%)%!%~%{%        ",
"                                          ]%^%/%(%_%:%Y#<%            "};
