/* XPM */
static char * text_html_xpm[] = {
"34 34 9 1",
" 	c None",
".	c #000000",
"+	c #FFFFFF",
"@	c #BBBBBB",
"#	c #777777",
"$	c #DDDDDD",
"%	c #999999",
"&	c #FF0000",
"*	c #1DAF00",
"..................................",
".+++++++++++++++++++++++++++++++@.",
".++++++++++++++++++++++++++++++@#.",
".++@$@$@$@$@$@$@$@$@$@$@$@$@$@$#%.",
".++$@$@$@$@$..@$...$@$@$@$@$@$@%#.",
".++@$@$@$@$@........$@$@$@$@$@$#%.",
".++$@$....@$........@.......@$@%#.",
".++@$@$@$@$@$@$@$@$@$@$@$@$@$@$#%.",
".++$@$@$@$@$@$@$@$@$@$@$@$@$@$@%#.",
".++@$@.......@$........@$...$@$#%.",
".++$@$@$@$@$@$@$@$@$@$@$@$@$@$@%#.",
".++@$@$@$@$@$@$@$@$@$@$@$@$@$@$#%.",
".++$@$.....$@.......@$......@$@%#.",
".++@$@$@$@$@$@$@$@$@$@$@$@$@$@$#%.",
".++$@$@$@$@$@$@$@$@$@$@$@$@$@$@%#.",
".++@$@.......@$.............$@$#%.",
".++$@$@$@$@$@$@.+++++++++++.@$@%#.",
".++@$@$@$@$@$@$.+++&&++*&++.$@$#%.",
".++$@$..@$......++&+&+*&*++.@$@%#.",
".++@$@$@$@$@$@$.+&&+&++*+++.$@$#%.",
".++$@$@$@$@$@$@.+&+*&&*&*++.@$@%#.",
".++@$@.....@$...+++***&*&++.$@$#%.",
".++$@$@$@$@$@$@.+++&+++++++.@$@%#.",
".++@$@$@$@$@$@$.+++++++++++.$@$#%.",
".++$@$........@.............@$@%#.",
".++@$@$@$@$@$@$@$@$@$@$@$@$@$@$#%.",
".++$@$@$@$@$@$@$@$@$@$@$@$@$@$@%#.",
".++@$@....$@....$@.....@$...$@$#%.",
".++$@$@$@$@$@$@$@$@$@$@$@$@$@$@%#.",
".++@$@$@$@$@$@$@$@$@$@$@$@$@$@$#%.",
".++$@$@$@$@$@$@$@$@$@$@$@$@$@$@%#.",
".+@#%#%#%#%#%#%#%#%#%#%#%#%#%#%#%.",
".@#%#%#%#%#%#%#%#%#%#%#%#%#%#%#%#.",
".................................."};
