/* XPM */
static char *file_ae7[] = {
/* columns rows colours chars-per-pixel */
"34 34 16 1"/* palette data */
,
"A c #ffffff",
"B c #dddddd",
"C c #bbbbbb",
"D c #999999",
"E c #777777",
"F c #555555",
"G c #333333",
"H c #000000",
"I c #004499",
"J c #eeee00",
"K c #00cc00",
"L c #dd0000",
"M c #eeeebb",
"N c #558800",
"O c #ffbb00",
"P c #00bbff"
/* pixel data */,
"HHHHHHHHHHHHHHHHHHHHHHHHHHHHHHHHHH",
"HAAAAAAAAAAAAAAAAAAAAAAAAAAAAAAACH",
"HAAAAAAAAAAAAAAAAAAAAAAAAAAAAAACEH",
"HAACBCBCBCBCBCBCBCBCBCBCBCBCBCBEDH",
"HAABCBCBCBCBCBCBCBCBCBCBCBCBCBCDEH",
"HAACBOPPPHPPPPPHCACHBCBCBCBCBCBEDH",
"HAABCPPPHPPPPPPPHCHCHBCBCBCBCBCDEH",
"HAACBKPHPPLLLPPPPHCACHBCBCBCBCBEDH",
"HAABCKHPPPOLLLPPPPHCHCHBCBCBCBCDEH",
"HAACBHKKPOOOLLLPPPPHCACHBCBCBCBEDH",
"HAABCKKKOOOOOLLLPPPPHCHCHBCBCBCDEH",
"HAACBKKOONOOOOLLLPPPPHCACHBCBCBEDH",
"HAABCKKKNNNOOOOLLPPPHPHCHCHBCBCDEH",
"HAACBKKKKNOOPIOOLPPHPPPHCACHBCBEDH",
"HAABCKKKKKOOOOOPPPHPPPPPHCHCHBCDEH",
"HAACBHKKKKKOOOPPPHPPPPPPPHCACCBEDH",
"HAABCCHKKKKKOKKPHPPLLLPPPPHCHBCDEH",
"HAACBACHKKKKKKKHPPPOLLLPPPPHCCBEDH",
"HAABCCHCHKKKKKHKKPOOOLLLPPPPHBCDEH",
"HAACBHCACHKKKHKKKOOOOOLLLPPPPCBEDH",
"HAABCBHCHCHKHKKKOONOOOOLLLPPPBCDEH",
"HAACBCBHCACHKKKKKNNNOOOOLLPPPCBEDH",
"HAABCBCBHCHCHKKKKKNOOPIOOLPPHBCDEH",
"HAACBCBCBHCACHKKKKKOOOOOPPPHPCBEDH",
"HAABCBCBCBHCHCHKKKKKOOOPPPHPPBCDEH",
"HAACBCBCBCBHCACHKKKKKOKKPHPPLCBEDH",
"HAABCBCBCBCBHCHCHKKKKKKKHPPPOBCDEH",
"HAACBCBCBCBCBHCACHKKKKKHKKPOOCBEDH",
"HAABCBCBCBCBCBHCHCHKKKHKKKOONBCDEH",
"HAACBCBCBCBCBCBCBCBCBCBCBCBCBCBEDH",
"HAABCBCBCBCBCBCBCBCBCBCBCBCBCBCDEH",
"HACEDEDEDEDEDEDEDEDEDEDEDEDEDEDEDH",
"HCEDEDEDEDEDEDEDEDEDEDEDEDEDEDEDEH",
"HHHHHHHHHHHHHHHHHHHHHHHHHHHHHHHHHH"
};
