/* XPM */
static char * AppIcon_xpm[] = {
"42 34 63 1",
" 	c None",
".	c #000000",
"+	c #730000",
"@	c #510000",
"#	c #2B0000",
"$	c #D90000",
"%	c #FF0000",
"&	c #910000",
"*	c #C40000",
"=	c #E7E7E7",
"-	c #00AFE7",
";	c #5C5C5C",
">	c #00465C",
",	c #AC0000",
"'	c #ED0000",
")	c #1C0000",
"!	c #AFAFAF",
"~	c #923D3D",
"{	c #E20000",
"]	c #CBCBCB",
"^	c #712633",
"/	c #AA0000",
"(	c #550000",
"_	c #464646",
":	c #383647",
"<	c #EC0A0A",
"[	c #E2070A",
"}	c #7F4747",
"|	c #8D1F29",
"1	c #1C3E51",
"2	c #773F3F",
"3	c #552E3D",
"4	c #6D5151",
"5	c #832E2E",
"6	c #5A3E3E",
"7	c #747474",
"8	c #380000",
"9	c #C60000",
"0	c #C60F14",
"a	c #A43333",
"b	c #DA1414",
"c	c #C81E1E",
"d	c #AA171E",
"e	c #B62929",
"f	c #2E2E2E",
"g	c #D00A0A",
"h	c #B90F0F",
"i	c #8A1919",
"j	c #E70505",
"k	c #5B2323",
"l	c #731E1E",
"m	c #1C1833",
"n	c #001C3A",
"o	c #AA0913",
"p	c #710F20",
"q	c #8D0C19",
"r	c #004792",
"s	c #C11717",
"t	c #6E3636",
"u	c #E90707",
"v	c #972626",
"w	c #AC1F1F",
"x	c #442828",
"                                          ",
"                  ...  ...                ",
"                 .++...@++#               ",
"                .#$%@..&%$@               ",
"                ..*%$...%@.               ",
"       ...........*&%@.#%..               ",
"      .=-=-=-=-;>.%+,$.+'..               ",
"      .-=-=-=-=>;)%.#%@&*..               ",
"     .-=-!-!-!-;>~{..,$*,.                ",
" .....=-]-!-!-!>;^/..)%{(.............    ",
".=-=-=-=-!-!-!-_:<[}>;|%1;-=-=-=-=-=-!.   ",
".-=-=-=-!-!-!-!>23~1;>43;>=-;>;>;>;>!-.   ",
".=-_>_>_>_>_>_>_>_>_-!>_>!-_>5353536>7.   ",
".-;>(().8((8.)((.............9%///%...... ",
".=>8<04>a%<:;^%|;-=-=-=-=-=>;3b>;>c>;-=-!.",
".-;.3c>;3%d;>}0;>=-=-=-=-=-;>ed;>;>;-=-!-.",
".=>.~df>g|h>f0i>f-7-7-7-7-7>fdjdk>f-7-7-7.",
".-=.3h>k0f%f:j>f-7-7-7-7-7-f>%|l1f-7-7-7-.",
".=-.m%nopn%nqpnrrrrrrrrrrrnnn%mnnnnrrrrrr.",
".-=.;%4[;>%1%1;-=-=-=-=-=-;>~%;>;d;-=-=-!.",
".=-.>%|a>;[c|;>=-=>;>;>=-=>}0%dcd<>=-=-!-.",
".-=.;0%1_>s%6>!-!>_>_>_>_-_153535:_-!-!-7.",
".=-.>}:_>_:5>_-!-_>635:t>_-_>_>_>_-!-!-7-.",
".-=.=>_>!>_>_-!-_>5[s0u^_>!-!-!-!-!-!-!-7.",
".=-.-=-!-!-!-!-!>_0_>_^t>_-!-!-!-!-!-!-7-.",
".-=.=-!-!-!-!-!-_>u1_>_>_-!-!-!-!-!-!-!-7.",
".=-.-=-!-!-!-!-!-_3%0v>_-!-!-!-!-!-!-!-7-.",
".-=.=-!-!-!-!-!-!>_>5[v>_-!-!-!-!-!-!-!-7.",
".=-.-=-!-!-!-!-!>_>_>vd_>!-!-!-!-!-!-!-7-.",
".-7.=-!-!-!-!-!>_0_>_^w>_-!-!-!-!-!-!-!-7.",
"....-=-!-!-!-!-_3u[s0u1_>!-!-!-!-!-!-!-7-.",
" .-.=-7-7-7-7-7>x:x3l>f>7-7-7-7-7-7-7-7-7.",
"  ..-7-7-7-7-7-7>f>f>f>7-7-7-7-7-7-7-7-7-.",
"   ......................................."};
