/* XPM */
static char * AppIcon_xpm[] = {
"36 31 828 2",
"  	c None",
". 	c #465862",
"+ 	c #001021",
"@ 	c #00071C",
"# 	c #00041C",
"$ 	c #000E2B",
"% 	c #00031E",
"& 	c #4C5C73",
"* 	c #516772",
"= 	c #1C384D",
"- 	c #87A9C5",
"; 	c #8FB1D4",
"> 	c #89ABD1",
", 	c #96B7E0",
"' 	c #84A1C9",
") 	c #263E60",
"! 	c #40546C",
"~ 	c #374C5D",
"{ 	c #1F3B51",
"] 	c #85B0D2",
"^ 	c #6E9FC8",
"/ 	c #79A9D9",
"( 	c #6897CD",
"_ 	c #71A0D8",
": 	c #77A0D6",
"< 	c #7CA1CE",
"[ 	c #1F3D5F",
"} 	c #384E65",
"| 	c #334960",
"1 	c #3D5571",
"2 	c #7193B6",
"3 	c #659AC6",
"4 	c #71AEE4",
"5 	c #4987C4",
"6 	c #5994D6",
"7 	c #538CD1",
"8 	c #699FDF",
"9 	c #78A7DF",
"0 	c #7EA4D1",
"a 	c #1A3956",
"b 	c #496072",
"c 	c #535D67",
"d 	c #000313",
"e 	c #00142D",
"f 	c #193050",
"g 	c #879FC5",
"h 	c #88AEDB",
"i 	c #67A4DB",
"j 	c #529CDB",
"k 	c #5199E1",
"l 	c #5398E5",
"m 	c #61A4F2",
"n 	c #4B89D4",
"o 	c #639ADB",
"p 	c #84B3E7",
"q 	c #87ADD2",
"r 	c #1D3B53",
"s 	c #000F1D",
"t 	c #000410",
"u 	c #000413",
"v 	c #000215",
"w 	c #08142E",
"x 	c #00021C",
"y 	c #000D24",
"z 	c #000C21",
"A 	c #000C1F",
"B 	c #000D1E",
"C 	c #000B1B",
"D 	c #000713",
"E 	c #00030E",
"F 	c #4E555F",
"G 	c #4D565D",
"H 	c #273C51",
"I 	c #8BA6C3",
"J 	c #87A1C2",
"K 	c #93AFD6",
"L 	c #8AA9D7",
"M 	c #6D98CB",
"N 	c #5999D6",
"O 	c #519ADE",
"P 	c #5AA2EC",
"Q 	c #4F97E3",
"R 	c #5093E1",
"S 	c #65A5EF",
"T 	c #5C95D8",
"U 	c #699DD6",
"V 	c #75A1CE",
"W 	c #8DB3D7",
"X 	c #7D9FBA",
"Y 	c #94B2CC",
"Z 	c #95B0CD",
"` 	c #8CA7C5",
" .	c #829CC1",
"..	c #89A3C8",
"+.	c #829CBD",
"@.	c #819CBA",
"#.	c #829BBA",
"$.	c #829ABC",
"%.	c #7D9ABA",
"&.	c #7994B1",
"*.	c #758BA3",
"=.	c #718399",
"-.	c #101F34",
";.	c #435061",
">.	c #00020E",
",.	c #80AAD0",
"'.	c #74A6D7",
").	c #739CC8",
"!.	c #81A6D3",
"~.	c #7DA6DA",
"{.	c #6091CB",
"].	c #609CDA",
"^.	c #5D9DDD",
"/.	c #5E9DE0",
"(.	c #609DE0",
"_.	c #5F9CDD",
":.	c #609CDB",
"<.	c #629AD7",
"[.	c #6299D2",
"}.	c #71A4D8",
"|.	c #72A4D4",
"1.	c #73A3D2",
"2.	c #70A0CF",
"3.	c #6E9ECE",
"4.	c #6B9ACD",
"5.	c #6998CD",
"6.	c #6597C9",
"7.	c #6393C1",
"8.	c #6190BC",
"9.	c #628CBE",
"0.	c #5D8AC1",
"a.	c #538BC4",
"b.	c #4C85BA",
"c.	c #4978A2",
"d.	c #476F93",
"e.	c #395980",
"f.	c #00173C",
"g.	c #051320",
"h.	c #77AAD9",
"i.	c #5997D0",
"j.	c #6492C4",
"k.	c #6791C1",
"l.	c #4D7CB2",
"m.	c #6C9FD8",
"n.	c #6598D1",
"o.	c #6699D2",
"p.	c #6798D0",
"q.	c #6998CE",
"r.	c #6998CC",
"s.	c #6B99CC",
"t.	c #6D9BCC",
"u.	c #6694C5",
"v.	c #6696C6",
"w.	c #6594C6",
"x.	c #6295C7",
"y.	c #6092C7",
"z.	c #5D91C6",
"A.	c #5B8FC6",
"B.	c #598EC3",
"C.	c #4A83B2",
"D.	c #4980AE",
"E.	c #4977B2",
"F.	c #4376B5",
"G.	c #377BBC",
"H.	c #3579B6",
"I.	c #3872A0",
"J.	c #3B6A94",
"K.	c #315683",
"L.	c #000430",
"M.	c #829EC3",
"N.	c #03111E",
"O.	c #7BAEDD",
"P.	c #64A2DB",
"Q.	c #6D9BCD",
"R.	c #5C86B6",
"S.	c #0C3B71",
"T.	c #001549",
"U.	c #000F3E",
"V.	c #00103A",
"W.	c #001039",
"X.	c #001139",
"Y.	c #00113A",
"Z.	c #00113B",
"`.	c #00123C",
" +	c #00123D",
".+	c #00103E",
"++	c #00103D",
"@+	c #000E3D",
"#+	c #000D3E",
"$+	c #000F3D",
"%+	c #001B48",
"&+	c #001745",
"*+	c #001047",
"=+	c #000E4B",
"-+	c #001552",
";+	c #00174E",
">+	c #00143F",
",+	c #000F36",
"'+	c #000730",
")+	c #001941",
"!+	c #001030",
"~+	c #24323F",
"{+	c #000D1A",
"]+	c #72A5D4",
"^+	c #63A1DA",
"/+	c #6896C8",
"(+	c #002A5A",
"_+	c #18477D",
":+	c #658DBB",
"<+	c #7296BB",
"[+	c #8EB3DD",
"}+	c #7998BB",
"|+	c #7E9CBD",
"1+	c #819DBF",
"2+	c #85A2C1",
"3+	c #88A3C3",
"4+	c #8AA6C4",
"5+	c #8DA8C5",
"6+	c #758DA7",
"7+	c #768EA8",
"8+	c #768CA9",
"9+	c #5C7187",
"0+	c #5B7087",
"a+	c #596F86",
"b+	c #556F86",
"c+	c #3A4F61",
"d+	c #384C5F",
"e+	c #36475E",
"f+	c #31455C",
"g+	c #182736",
"h+	c #284257",
"i+	c #1B2833",
"j+	c #1D2833",
"k+	c #324155",
"l+	c #202833",
"m+	c #1C2733",
"n+	c #192B3F",
"o+	c #595A52",
"p+	c #000B18",
"q+	c #84B7E6",
"r+	c #69A7E0",
"s+	c #5886B8",
"t+	c #001D4D",
"u+	c #76A5DB",
"v+	c #6EA4DD",
"w+	c #6EA7DD",
"x+	c #5B8DBB",
"y+	c #71AADE",
"z+	c #76ADDF",
"A+	c #6898C2",
"B+	c #6E9BC4",
"C+	c #709BC5",
"D+	c #6084A8",
"E+	c #6085A9",
"F+	c #6088AB",
"G+	c #4C6D8B",
"H+	c #4B6D8B",
"I+	c #496C8C",
"J+	c #486C8B",
"K+	c #324D67",
"L+	c #304E66",
"M+	c #304D64",
"N+	c #2E4A63",
"O+	c #2D4661",
"P+	c #18283A",
"Q+	c #21405D",
"R+	c #122637",
"S+	c #132635",
"T+	c #233E55",
"U+	c #152333",
"V+	c #253C55",
"W+	c #243D55",
"X+	c #446888",
"Y+	c #000D11",
"Z+	c #000815",
"`+	c #71A4D3",
" @	c #5C9AD3",
".@	c #6997C9",
"+@	c #000737",
"@@	c #81B0E6",
"#@	c #638EBB",
"$@	c #4D86BB",
"%@	c #4C8ABD",
"&@	c #518EC0",
"*@	c #5792C2",
"=@	c #5B94C4",
"-@	c #4F7FA7",
";@	c #5181A9",
">@	c #43688A",
",@	c #456B8C",
"'@	c #466C8E",
")@	c #476E91",
"!@	c #436F92",
"~@	c #30526D",
"{@	c #2C506C",
"]@	c #2A4E6A",
"^@	c #2A4C69",
"/@	c #172E40",
"(@	c #274A66",
"_@	c #182A3E",
":@	c #16273C",
"<@	c #10263B",
"[@	c #173E5D",
"}@	c #102637",
"|@	c #102435",
"1@	c #142333",
"2@	c #102033",
"3@	c #122233",
"4@	c #17436A",
"5@	c #00141F",
"6@	c #89BCEB",
"7@	c #67A5DE",
"8@	c #5F8DBF",
"9@	c #000838",
"0@	c #89B8EE",
"a@	c #4881BB",
"b@	c #4985BC",
"c@	c #4A8ABF",
"d@	c #4E8FC2",
"e@	c #4678A4",
"f@	c #4A7CA7",
"g@	c #3E6689",
"h@	c #40698C",
"i@	c #304F6C",
"j@	c #335471",
"k@	c #365775",
"l@	c #21374D",
"m@	c #355A79",
"n@	c #1E374E",
"o@	c #1C374C",
"p@	c #1B334A",
"q@	c #1A3046",
"r@	c #182F43",
"s@	c #192F42",
"t@	c #1A2A40",
"u@	c #16293E",
"v@	c #11263C",
"w@	c #0F263B",
"x@	c #112738",
"y@	c #112436",
"z@	c #183557",
"A@	c #101F33",
"B@	c #1E3955",
"C@	c #295477",
"D@	c #000F16",
"E@	c #000310",
"F@	c #62A0D9",
"G@	c #5E8DC3",
"H@	c #4680BB",
"I@	c #3F82BE",
"J@	c #366EA0",
"K@	c #3A72A4",
"L@	c #315E86",
"M@	c #264865",
"N@	c #294A68",
"O@	c #1B3145",
"P@	c #325776",
"Q@	c #213A4F",
"R@	c #38607F",
"S@	c #4D80A8",
"T@	c #376284",
"U@	c #336084",
"V@	c #1C3B55",
"W@	c #1B3852",
"X@	c #1A354E",
"Y@	c #000000",
"Z@	c #132840",
"`@	c #0B253C",
" #	c #0D263A",
".#	c #0E2338",
"+#	c #0D2035",
"@#	c #0C1D33",
"##	c #0F2033",
"$#	c #1A3755",
"%#	c #00050C",
"&#	c #000714",
"*#	c #5D8BBD",
"=#	c #000D3D",
"-#	c #3C7EBB",
";#	c #6590BD",
">#	c #597D9F",
",#	c #496681",
"'#	c #384C61",
")#	c #3A5064",
"!#	c #3E5368",
"~#	c #7597B4",
"{#	c #96B8D6",
"]#	c #9EBFDA",
"^#	c #7391AA",
"/#	c #59748A",
"(#	c #5D778D",
"_#	c #7A9AB4",
":#	c #5B778E",
"<#	c #59758C",
"[#	c #34485A",
"}#	c #304355",
"|#	c #2A3F50",
"1#	c #233244",
"2#	c #192D3E",
"3#	c #192A39",
"4#	c #182737",
"5#	c #172534",
"6#	c #162433",
"7#	c #0B1E33",
"8#	c #000E19",
"9#	c #5B89BB",
"0#	c #000B3B",
"a#	c #82B1E7",
"b#	c #52779D",
"c#	c #40617F",
"d#	c #30495F",
"e#	c #344C63",
"f#	c #7CA9CE",
"g#	c #7398BA",
"h#	c #7DA3C2",
"i#	c #6E91AC",
"j#	c #56748E",
"k#	c #40586E",
"l#	c #426075",
"m#	c #203A4F",
"n#	c #15293A",
"o#	c #112438",
"p#	c #112135",
"q#	c #000716",
"r#	c #619FD8",
"s#	c #5987B9",
"t#	c #000939",
"u#	c #3D7FBC",
"v#	c #3C5C7C",
"w#	c #162839",
"x#	c #264461",
"y#	c #386388",
"z#	c #4C81AD",
"A#	c #437196",
"B#	c #385D7C",
"C#	c #264258",
"D#	c #152C45",
"E#	c #0E2A40",
"F#	c #0E273C",
"G#	c #0A2036",
"H#	c #091D34",
"I#	c #00091F",
"J#	c #609ED7",
"K#	c #51759B",
"L#	c #2A435B",
"M#	c #23425E",
"N#	c #3D76A7",
"O#	c #244766",
"P#	c #182E42",
"Q#	c #1C334B",
"R#	c #294863",
"S#	c #3B6586",
"T#	c #68A1C7",
"U#	c #497CA0",
"V#	c #467EA2",
"W#	c #42749A",
"X#	c #183450",
"Y#	c #0F293F",
"Z#	c #0C223A",
"`#	c #092037",
" $	c #081E34",
".$	c #000B20",
"+$	c #75A8D7",
"@$	c #5E9CD5",
"#$	c #52769C",
"$$	c #2B435B",
"%$	c #4173A4",
"&$	c #172B40",
"*$	c #192E44",
"=$	c #386083",
"-$	c #40698D",
";$	c #487499",
">$	c #375B7C",
",$	c #69A0C4",
"'$	c #99D1EB",
")$	c #A8DDF2",
"!$	c #5990B8",
"~$	c #1B2F4A",
"{$	c #11293D",
"]$	c #0D2137",
"^$	c #0B2035",
"/$	c #000715",
"($	c #73A6D5",
"_$	c #5A98D1",
":$	c #5684B6",
"<$	c #000C3C",
"[$	c #3E82BE",
"}$	c #3D5E7F",
"|$	c #335B83",
"1$	c #234463",
"2$	c #192F45",
"3$	c #44749D",
"4$	c #72B2DF",
"5$	c #6EA6D0",
"6$	c #2B4C6A",
"7$	c #5A8CB2",
"8$	c #6FA3C8",
"9$	c #9FD7F0",
"0$	c #B5EAFA",
"a$	c #285371",
"b$	c #1A304A",
"c$	c #132D43",
"d$	c #0E233B",
"e$	c #0C2138",
"f$	c #000610",
"g$	c #5694CD",
"h$	c #5280B2",
"i$	c #000A3A",
"j$	c #2B445C",
"k$	c #15273B",
"l$	c #15283D",
"m$	c #162B40",
"n$	c #4A82B3",
"o$	c #74BAED",
"p$	c #80C4F1",
"q$	c #69A4D0",
"r$	c #2C4A69",
"s$	c #538BB0",
"t$	c #84C1E0",
"u$	c #99D3ED",
"v$	c #5990BA",
"w$	c #1A3653",
"x$	c #162F4A",
"y$	c #1C4A6F",
"z$	c #18476B",
"A$	c #0D283D",
"B$	c #0A2138",
"C$	c #091E35",
"D$	c #000A1B",
"E$	c #75A2CB",
"F$	c #5891C6",
"G$	c #4E7EAE",
"H$	c #395C7F",
"I$	c #224160",
"J$	c #488BC8",
"K$	c #4079AD",
"L$	c #60ACE8",
"M$	c #6DB7EC",
"N$	c #7AC2F0",
"O$	c #75B8E4",
"P$	c #294867",
"Q$	c #305375",
"R$	c #3B6589",
"S$	c #41749A",
"T$	c #42789F",
"U$	c #1D4869",
"V$	c #173C5B",
"W$	c #224A73",
"X$	c #265F93",
"Y$	c #225D8F",
"Z$	c #164167",
"`$	c #0A223B",
" %	c #092038",
".%	c #071E35",
"+%	c #000923",
"@%	c #000616",
"#%	c #759AB7",
"$%	c #5787AF",
"%%	c #5489B5",
"&%	c #000C3E",
"*%	c #4374A0",
"=%	c #3872A4",
"-%	c #3972A8",
";%	c #3C77AC",
">%	c #5AA9E8",
",%	c #63B2EB",
"'%	c #7CCEFF",
")%	c #77C5F2",
"!%	c #386A93",
"~%	c #2C567B",
"{%	c #346389",
"]%	c #2D5881",
"^%	c #234D71",
"/%	c #1D3F60",
"(%	c #16314F",
"_%	c #2F6397",
":%	c #2B5F93",
"<%	c #255A8F",
"[%	c #174067",
"}%	c #0B243D",
"|%	c #082037",
"1%	c #00092C",
"2%	c #000819",
"3%	c #8BAAC6",
"4%	c #5B86A9",
"5%	c #3C709F",
"6%	c #002258",
"7%	c #3D80BD",
"8%	c #5AA0E0",
"9%	c #4D9DE2",
"0%	c #3773A7",
"a%	c #3B75AB",
"b%	c #4993CD",
"c%	c #5EADE9",
"d%	c #67BAED",
"e%	c #71BFF0",
"f%	c #5A9FCD",
"g%	c #234464",
"h%	c #2A5174",
"i%	c #2B587B",
"j%	c #1D4062",
"k%	c #193D5B",
"l%	c #163652",
"m%	c #13304B",
"n%	c #2D6495",
"o%	c #2A5E91",
"p%	c #255B8D",
"q%	c #153E66",
"r%	c #0B233C",
"s%	c #091F37",
"t%	c #0F3457",
"u%	c #000C2E",
"v%	c #001225",
"w%	c #7897B4",
"x%	c #608AB2",
"y%	c #4B7FB1",
"z%	c #000B45",
"A%	c #6BB6FF",
"B%	c #4484C2",
"C%	c #4789C5",
"D%	c #4B8CC8",
"E%	c #5195CF",
"F%	c #67B3EB",
"G%	c #70BBEE",
"H%	c #78C2F1",
"I%	c #4B84B0",
"J%	c #234261",
"K%	c #234666",
"L%	c #224464",
"M%	c #214260",
"N%	c #1D3D5B",
"O%	c #13354E",
"P%	c #2B6997",
"Q%	c #296693",
"R%	c #276390",
"S%	c #235F8C",
"T%	c #0C263E",
"U%	c #09243C",
"V%	c #082339",
"W%	c #092136",
"X%	c #174367",
"Y%	c #000D23",
"Z%	c #000419",
"`%	c #7B98B8",
" &	c #557CA5",
".&	c #336296",
"+&	c #001B59",
"@&	c #5999DF",
"#&	c #4D99E0",
"$&	c #4486C4",
"%&	c #3B73A8",
"&&	c #3E77AB",
"*&	c #407BAF",
"=&	c #5196D0",
"-&	c #65B3EB",
";&	c #6DBAEE",
">&	c #64ABDE",
",&	c #467DAC",
"'&	c #1F3E5C",
")&	c #1F3F5D",
"!&	c #203F5D",
"~&	c #1D3B58",
"{&	c #205579",
"]&	c #266A98",
"^&	c #3180B6",
"/&	c #256391",
"(&	c #25608E",
"_&	c #0E283F",
":&	c #0C273D",
"<&	c #092238",
"[&	c #164F7B",
"}&	c #184366",
"|&	c #000C20",
"1&	c #04162C",
"2&	c #3F5A78",
"3&	c #456892",
"4&	c #426B9F",
"5&	c #000846",
"6&	c #79AEF2",
"7&	c #5395DE",
"8&	c #4594DF",
"9&	c #449AE1",
"0&	c #3271A6",
"a&	c #3574A9",
"b&	c #3778AD",
"c&	c #397BB0",
"d&	c #4795D0",
"e&	c #4C9AD3",
"f&	c #4FA1D7",
"g&	c #54A5DA",
"h&	c #4691C4",
"i&	c #2A5980",
"j&	c #275980",
"k&	c #27577E",
"l&	c #26547B",
"m&	c #2D6B9B",
"n&	c #246797",
"o&	c #216495",
"p&	c #17486D",
"q&	c #18456A",
"r&	c #0E2840",
"s&	c #163F64",
"t&	c #133D61",
"u&	c #11395E",
"v&	c #164D7D",
"w&	c #184B79",
"x&	c #216299",
"y&	c #154877",
"z&	c #000A24",
"A&	c #051D39",
"B&	c #2E4C70",
"C&	c #406494",
"D&	c #000A40",
"E&	c #6D9BD7",
"F&	c #649DDD",
"G&	c #4693DF",
"H&	c #4197E0",
"I&	c #3B84C4",
"J&	c #3D89C6",
"K&	c #3575AA",
"L&	c #1F476A",
"M&	c #3A7DB2",
"N&	c #3B7FB4",
"O&	c #499AD3",
"P&	c #4B9CD5",
"Q&	c #3F87BB",
"R&	c #3E86BB",
"S&	c #2F6A99",
"T&	c #2E6897",
"U&	c #1F4B70",
"V&	c #266393",
"W&	c #19466D",
"X&	c #19456A",
"Y&	c #1A4168",
"Z&	c #193F65",
"`&	c #183D62",
" *	c #1F4F82",
".*	c #15385C",
"+*	c #1C4B7B",
"@*	c #153555",
"#*	c #204B77",
"$*	c #000927",
"%*	c #ACBDD1",
"&*	c #031B37",
"**	c #375378",
"=*	c #000F3A",
"-*	c #7397C7",
";*	c #6FB3FF",
">*	c #4792DE",
",*	c #377EBF",
"'*	c #3983C2",
")*	c #326FA4",
"!*	c #3372A7",
"~*	c #2B608E",
"{*	c #1F486B",
"]*	c #2D6491",
"^*	c #2D6593",
"/*	c #204A6F",
"(*	c #2E6694",
"_*	c #2C6593",
":*	c #2A6291",
"<*	c #1C456B",
"[*	c #1C436A",
"}*	c #1B4068",
"|*	c #1B3F65",
"1*	c #1A3B62",
"2*	c #193960",
"3*	c #17365D",
"4*	c #0C2036",
"5*	c #0C1E34",
"6*	c #224A77",
"7*	c #306199",
"8*	c #000725",
"9*	c #AEBDD0",
"0*	c #000F28",
"a*	c #000423",
"b*	c #617B9C",
"c*	c #5B9BDD",
"d*	c #5196DD",
"e*	c #4B98DE",
"f*	c #4E9BDF",
"g*	c #4688C2",
"h*	c #3C74A4",
"i*	c #305E86",
"j*	c #316088",
"k*	c #32628A",
"l*	c #32628C",
"m*	c #254969",
"n*	c #25496A",
"o*	c #254A6B",
"p*	c #244A6B",
"q*	c #24496A",
"r*	c #224969",
"s*	c #152A40",
"t*	c #214366",
"u*	c #14273E",
"v*	c #13263C",
"w*	c #1F3E60",
"x*	c #112439",
"y*	c #0F2037",
"z*	c #183455",
"A*	c #284D77",
"B*	c #477DBB",
"C*	c #00061B",
"D*	c #A2AFB8",
"E*	c #152330",
"F*	c #000B1C",
"G*	c #00091D",
"H*	c #000920",
"I*	c #000921",
"J*	c #000A22",
"K*	c #000A23",
"L*	c #000B25",
"M*	c #000B26",
"N*	c #000B27",
"O*	c #000C28",
"P*	c #000D27",
"Q*	c #000C29",
"R*	c #000D28",
"S*	c #000C27",
"T*	c #000D26",
"U*	c #000C25",
"V*	c #000C24",
"W*	c #000D25",
"X*	c #000A20",
"Y*	c #000C1E",
"Z*	c #02141E",
"`*	c #000A0C",
"              . + @ # $ % &                                             ",
"            * = - ; > , ' ) !                                           ",
"          ~ { ] ^ / ( _ : < [ }                                         ",
"        | 1 2 3 4 5 6 7 8 9 0 a b                                       ",
"  c d e f g h i j k l m n o p q r s t u v w x y z z A B C D E F         ",
"G H I J K L M N O P Q R S T U V W X Y Z `  ...+.@.#.$.%.&.*.=.-.;.      ",
">.,.'.).!.~.{.].^./.(._.:.<.[.}.|.1.2.3.4.5.6.7.8.9.0.a.b.c.d.e.f.      ",
"g.h.i.j.k.l.m.n.o.p.p.q.r.s.t.u.v.w.x.y.z.A.B.C.D.E.F.G.H.I.J.K.L.M.    ",
"N.O.P.Q.R.S.T.U.V.W.W.X.X.Y.Z.`. +.+++U.@+#+$+%+&+*+=+-+;+>+,+'+)+!+~+  ",
"{+]+^+/+(+_+:+<+[+}+|+1+2+3+4+5+6+7+8+9+0+a+b+c+d+e+f+g+h+i+j+k+l+m+n+o+",
"p+q+r+s+t+u+v+w+x+y+z+A+B+C+D+E+F+G+H+I+J+K+L+M+N+O+P+Q+R+S+T+U+V+W+X+Y+",
"Z+`+ @.@+@@@#@$@%@&@*@=@-@;@>@,@'@)@!@~@{@]@^@/@(@_@:@<@[@}@|@1@2@3@4@5@",
"p+6@7@8@9@0@a@b@c@d@e@f@g@h@i@j@k@l@m@n@o@p@q@r@s@t@u@v@w@x@y@z@A@B@C@D@",
"E@]+F@Q.+@G@H@I@J@K@L@M@N@O@P@Q@R@S@T@U@V@W@X@Y@Y@Y@Z@Y@`@ #.#+#@###$#%#",
"&#h.P.*#=#-#;#>#,#'#)#!#~#{#]#^#/#(#_#:#<#[#}#|#Y@1#Y@Y@2#Y@3#4#5#6#7#8#",
"Z+h.^+9#0#a#b#c#d#e#F+f#g#h#i#j#Y@k#Y@l#Y@Y@Y@Y@m#Y@Y@Y@Y@Y@n#o#p#$#7#q#",
"Z+h.r#s#t#u#v#w#x#y#z#A#B#C#Y@Y@Y@Y@Y@Y@Y@Y@Y@Y@Y@Y@D#Y@E#Y@F#Y@G#H#7#I#",
"Z+h.J#s#t#K#L#M#N#O#P#Q#Y@Y@R#Y@S#T#U#V#W#Y@Y@Y@Y@X#Y@Y@Y@Y#Y@Z#`# $$#.$",
"&#+$@$s+0##$$$%$L@&$*$Y@=$-$;$>$,$'$)$!$Y@Y@Y@Y@Y@Y@~$D#Y@Y@{$Y@]$^$$#/$",
"&#($_$:$<$[$}$|$1$&$2$3$4$5$6$7$8$9$0$Y@Y@Y@Y@a$Y@Y@b$D#c$Y@Y@d$e$^$$#f$",
"&#`+g$h$i$#$j$k$l$m$n$o$p$q$r$s$t$u$v$Y@Y@Y@Y@Y@Y@w$x$y$z$Y@A$Y@B$C$7#D$",
"q#E$F$G$i$[$H$I$J$K$L$M$N$O$P$Q$R$S$Y@Y@T$Y@Y@U$V$Y@W$X$Y$Z$Y@`$ %.%7#+%",
"@%#%$%%%&%#$*%=%-%;%>%,%'%)%!%Y@~%{%Y@Y@Y@]%^%/%Y@(%_%:%<%[%}%Y@|%.%$#1%",
"2%3%4%5%6%7%8%9%0%a%b%c%d%e%f%g%Y@h%Y@i%C@Y@j%k%l%m%n%o%p%q%r%Y@s%t%7#u%",
"v%w%x%y%z%u#A%B%C%D%K$E%F%G%H%I%J%Y@K%Y@L%M%N%Y@O%P%Q%R%S%T%U%V%W%X%$#Y%",
"Z%`% &.&+&-#@&#&$&%&&&*&=&-&;&>&,&'&)&!&Y@~&Y@{&]&^&/&(&_&:&Y@<&[&}&$#|&",
"1&2&3&4&5&6&7&8&9&0&a&b&c&d&e&f&g&h&i&j&k&l&m&n&o&p&q&r&s&t&u&v&w&x&y&z&",
"  A&B&C&D&E&F&G&H&I&J&K&b&L&M&N&O&P&Q&R&S&T&U&V&W&X&Y&Z&`& *.*+*@*#*y&$*",
"  %*&***=*-*;*>*,*'*)*!*K&b&~*{*]*^*/*(*_*_*:*<*[*}*|*1*2*3*4*5*6*7*y&8*",
"    9*0*a*b*c*d*e*f*g*h*i*j*k*l*m*n*o*p*p*q*r*s*t*u*v*w*x*y*+#z*A*B*y&C*",
"      D*E*d F*G*I#H*I*J*K*z&L*M*N*N*N*O*N*N*P*Q*R*S*T*U*V*U*M*W*X*Y*Z*`*"};
