/* XPM */
static char * filer_xpm[] = {
"44 28 133 2",
"  	c None",
". 	c #000000",
"+ 	c #538EED",
"@ 	c #528DEC",
"# 	c #518CEB",
"$ 	c #518AEB",
"% 	c #5089EA",
"& 	c #4F88E9",
"* 	c #4F87E9",
"= 	c #4E85E8",
"- 	c #4D84E7",
"; 	c #4C83E7",
"> 	c #4C82E6",
", 	c #4B80E5",
"' 	c #4A7FE5",
") 	c #528CEC",
"! 	c #518BEB",
"~ 	c #4F88EA",
"{ 	c #4E86E8",
"] 	c #4D84E8",
"^ 	c #4D83E7",
"/ 	c #4B81E6",
"( 	c #4A7EE4",
"_ 	c #497DE4",
": 	c #508AEA",
"< 	c #4A7FE4",
"[ 	c #497CE3",
"} 	c #487BE2",
"| 	c #4E86E9",
"1 	c #4C81E6",
"2 	c #497EE4",
"3 	c #487BE3",
"4 	c #477AE2",
"5 	c #4779E1",
"6 	c #487CE3",
"7 	c #4779E2",
"8 	c #4576E0",
"9 	c #4474DF",
"0 	c #4373DE",
"a 	c #4372DE",
"b 	c #4271DD",
"c 	c #416FDC",
"d 	c #416EDC",
"e 	c #406DDB",
"f 	c #3F6CDA",
"g 	c #3E6ADA",
"h 	c #3E69D9",
"i 	c #3D68D8",
"j 	c #3C67D8",
"k 	c #3C66D7",
"l 	c #3B64D6",
"m 	c #3A63D6",
"n 	c #3962D5",
"o 	c #3961D4",
"p 	c #385FD4",
"q 	c #508AEB",
"r 	c #4679E1",
"s 	c #4677E1",
"t 	c #4475DF",
"u 	c #4170DD",
"v 	c #3F6CDB",
"w 	c #3F6BDA",
"x 	c #3E6AD9",
"y 	c #3D68D9",
"z 	c #3D67D8",
"A 	c #3B65D7",
"B 	c #3A62D5",
"C 	c #3961D5",
"D 	c #3860D4",
"E 	c #385ED3",
"F 	c #375DD3",
"G 	c #497DE3",
"H 	c #4678E1",
"I 	c #4575DF",
"J 	c #4270DD",
"K 	c #406EDB",
"L 	c #406CDB",
"M 	c #3D69D9",
"N 	c #3A63D5",
"O 	c #385FD3",
"P 	c #375ED3",
"Q 	c #365CD2",
"R 	c #365BD1",
"S 	c #2D4BC9",
"T 	c #4473DF",
"U 	c #375DD2",
"V 	c #355BD1",
"W 	c #3559D0",
"X 	c #3A64D6",
"Y 	c #355AD1",
"Z 	c #3458D0",
"` 	c #487AE2",
" .	c #406EDC",
"..	c #3C66D8",
"+.	c #3960D4",
"@.	c #365DD2",
"#.	c #365BD2",
"$.	c #3459D0",
"%.	c #5088EA",
"&.	c #4D85E8",
"*.	c #4677E0",
"=.	c #4170DC",
"-.	c #3E6BDA",
";.	c #3357CF",
">.	c #3356CF",
",.	c #4B80E6",
"'.	c #4577E0",
").	c #4272DD",
"!.	c #3255CE",
"~.	c #3C65D7",
"{.	c #3254CE",
"].	c #4C82E7",
"^.	c #3559D1",
"/.	c #3256CF",
"(.	c #3153CD",
"_.	c #3154CD",
":.	c #3152CD",
"<.	c #4575E0",
"[.	c #3154CE",
"}.	c #3051CC",
"|.	c #4473DE",
"1.	c #3052CC",
"2.	c #3052CD",
"3.	c #2F50CB",
"4.	c #3457D0",
"5.	c #2F4FCB",
"6.	c #2F50CC",
"7.	c #2E4ECA",
"8.	c #2E4ECB",
"9.	c #2E4DCA",
"0.	c #2E4FCB",
"a.	c #2D4CC9",
"b.	c #2D4CCA",
"          . . . . . . . . . . . . . .                                                   ",
"        . + + @ # $ % & * = - ; > , ' .                                                 ",
"      . + + @ ) ! % ~ * { ] ^ > / ' ( _ .                                               ",
"    . + + + ) ! : % * . . - > / , < _ [ } .                                             ",
"  . + + + @ ! $ . . | . . ; 1 , ' 2 [ 3 4 5 .                                           ",
". . @ @ @ @ . . . . ; . . ; ; ; ; ; 4 4 4 4 . . . . . . . . . . . . . . . . . . . .     ",
". + + @ ) ! . . ; ; ; ^ > / , ( _ 6 } 7 4 4 8 9 0 a b c d e f g h i j k l m n o p . .   ",
". + + ) ! q % * | . . . / , ' 2 [ 3 4 r s 8 t 9 a b u c e v w x y z k A m B C D E F . . ",
". + @ # $ . . * . . . . . ' ( G 3 4 5 H 8 I 9 0 b J c K L w x M z k A l N C D O P Q R . ",
". S S S S . . S . . . . . S S S S S S S S S S S S S S S S S S S S S S S S S S S S S S . ",
". ) ! q % * | = . . . . . _ [ 3 4 H s 8 t T a b u d e v w h i j k l m B o D P U Q V W . ",
". ! $ % & | = - ; . . . 2 G 3 4 5 H 8 t 9 0 b J c K v w x M z k A X B C D O F Q V Y Z . ",
". ! % ~ * { ] ^ . . . . . 6 ` 7 H . . 9 0 a J c  .e w g h i ..A l m C +.p P @.#.Y $.Z . ",
". : %.* { &.^ > . . . . . } 4 H *.. . 0 . . =.d e f -.h i j k l m n o p P U Q Y $.Z ;.. ",
". % & | = - ; 1 . . . . . 4 5 s 8 . . a . . . . v w x y z k A m B C D E F Q V Y Z ;.>.. ",
". ~ * = ] ; > ,.' . . . 4 7 H '.I 9 0 ).J c . . w x M i k A l N C D O P Q R Y $.;.>.!.. ",
". * { &.^ > / , ( _ 6 } 7 H *.8 9 0 . . . d e f g h i j ~.l m n +.p P U #.Y $.Z ;.!.{.. ",
". | = - ]./ , ' _ [ 3 4 H s 8 t 9 . . . . . v . . y j k A m B C D P F Q V ^.Z ;./.{.(.. ",
". = - ; > , ' ( G 3 4 5 H 8 I 9 0 . . . . . w . . z k A l B C D O F Q R Y Z ;.>.!._.:.. ",
". ] ^ > / ' ( _ 6 ` 7 H '.<.9 0 a . . . . . g h i j A l m n +.p P @.#.Y $.Z >.!.[.(.}.. ",
". - ]./ , < _ [ } 4 H *.8 t |.a b =.. . . w h i j k l m B o p P U Q Y W Z ;.!.{.(.1.}.. ",
". ; 1 , ' 2 [ 3 4 5 s 8 t 9 a b J . . . . . M z k A X B C D O F Q V Y Z ;.>.!.(.2.}.3.. ",
". > / ' ( _ 6 ` 7 H '.<.9 0 a J c . . . . . i ..A l m C +.p P Q #.Y $.4.>.!.[.:.}.3.5.. ",
". / , ( _ 6 } 7 H *.8 9 0 a b c d . . . . . j k l m n o p P U Q Y $.Z ;.!.{.(.1.6.5.7.. ",
". , ' 2 [ 3 4 5 s 8 t 9 a b J c e v . . . z k A m B C D E F Q V ^.Z ;.>.{.(.2.}.5.8.9.. ",
". ' ( G 3 4 5 H 8 I 9 0 b J c K L w x M i k A l N C D O P Q R Y $.;.>.!._.:.}.3.0.9.a.. ",
". ( _ 6 } 7 H *.8 9 0 a b c d e f g h i j ~.l m n +.p P U #.Y $.Z >.!.{.(.}.6.5.7.b.S . ",
". . . . . . . . . . . . . . . . . . . . . . . . . . . . . . . . . . . . . . . . . . . . "};
