/* XPM */
static char * AppIcon_xpm[] = {
"38 33 655 2",
"  	c None",
". 	c #465862",
"+ 	c #001021",
"@ 	c #00071C",
"# 	c #00041C",
"$ 	c #000E2B",
"% 	c #00031E",
"& 	c #4C5C73",
"* 	c #516772",
"= 	c #1C384D",
"- 	c #87A9C5",
"; 	c #8FB1D4",
"> 	c #89ABD1",
", 	c #96B7E0",
"' 	c #84A1C9",
") 	c #263E60",
"! 	c #40546C",
"~ 	c #374C5D",
"{ 	c #1F3B51",
"] 	c #85B0D2",
"^ 	c #6E9FC8",
"/ 	c #79A9D9",
"( 	c #6897CD",
"_ 	c #71A0D8",
": 	c #77A0D6",
"< 	c #7CA1CE",
"[ 	c #1F3D5F",
"} 	c #384E65",
"| 	c #334960",
"1 	c #3D5571",
"2 	c #7193B6",
"3 	c #659AC6",
"4 	c #71AEE4",
"5 	c #4987C4",
"6 	c #5994D6",
"7 	c #538CD1",
"8 	c #699FDF",
"9 	c #78A7DF",
"0 	c #7EA4D1",
"a 	c #1A3956",
"b 	c #496072",
"c 	c #535D67",
"d 	c #000313",
"e 	c #00142D",
"f 	c #193050",
"g 	c #879FC5",
"h 	c #88AEDB",
"i 	c #67A4DB",
"j 	c #529CDB",
"k 	c #5199E1",
"l 	c #5398E5",
"m 	c #61A4F2",
"n 	c #4B89D4",
"o 	c #639ADB",
"p 	c #84B3E7",
"q 	c #87ADD2",
"r 	c #1D3B53",
"s 	c #000F1D",
"t 	c #000410",
"u 	c #000413",
"v 	c #000215",
"w 	c #08142E",
"x 	c #00021C",
"y 	c #000D24",
"z 	c #000C21",
"A 	c #000C1F",
"B 	c #000D1E",
"C 	c #000B1B",
"D 	c #000713",
"E 	c #00030E",
"F 	c #4E555F",
"G 	c #4D565D",
"H 	c #273C51",
"I 	c #8BA6C3",
"J 	c #87A1C2",
"K 	c #93AFD6",
"L 	c #8AA9D7",
"M 	c #6D98CB",
"N 	c #5999D6",
"O 	c #519ADE",
"P 	c #5AA2EC",
"Q 	c #4F97E3",
"R 	c #5093E1",
"S 	c #65A5EF",
"T 	c #5C95D8",
"U 	c #699DD6",
"V 	c #75A1CE",
"W 	c #8DB3D7",
"X 	c #7D9FBA",
"Y 	c #94B2CC",
"Z 	c #95B0CD",
"` 	c #8CA7C5",
" .	c #829CC1",
"..	c #89A3C8",
"+.	c #829CBD",
"@.	c #819CBA",
"#.	c #829BBA",
"$.	c #829ABC",
"%.	c #7D9ABA",
"&.	c #7994B1",
"*.	c #758BA3",
"=.	c #718399",
"-.	c #101F34",
";.	c #435061",
">.	c #00020E",
",.	c #80AAD0",
"'.	c #74A6D7",
").	c #739CC8",
"!.	c #81A6D3",
"~.	c #7DA6DA",
"{.	c #6091CB",
"].	c #609CDA",
"^.	c #5D9DDD",
"/.	c #5E9DE0",
"(.	c #609DE0",
"_.	c #5F9CDD",
":.	c #609CDB",
"<.	c #629AD7",
"[.	c #6299D2",
"}.	c #70A3D8",
"|.	c #70A2D3",
"1.	c #70A0D0",
"2.	c #6D9DCD",
"3.	c #6B9BCC",
"4.	c #6897CB",
"5.	c #6695CB",
"6.	c #6395C8",
"7.	c #6292C0",
"8.	c #6190BC",
"9.	c #628CBE",
"0.	c #5D8AC1",
"a.	c #538BC4",
"b.	c #4C85BA",
"c.	c #4978A2",
"d.	c #476F93",
"e.	c #395980",
"f.	c #00173C",
"g.	c #051320",
"h.	c #77AAD9",
"i.	c #5997D0",
"j.	c #6492C4",
"k.	c #6791C1",
"l.	c #4D7CB2",
"m.	c #6C9FD8",
"n.	c #6598D1",
"o.	c #6699D2",
"p.	c #6798D0",
"q.	c #6998CE",
"r.	c #6998CC",
"s.	c #6997CB",
"t.	c #6997C9",
"u.	c #618FC1",
"v.	c #6090C1",
"w.	c #5E8DC1",
"x.	c #5B8DC2",
"y.	c #598AC2",
"z.	c #5689C0",
"A.	c #5588C1",
"B.	c #5388BE",
"C.	c #467EAD",
"D.	c #467CAB",
"E.	c #4775B0",
"F.	c #4376B5",
"G.	c #377BBC",
"H.	c #3579B6",
"I.	c #3872A0",
"J.	c #3B6A94",
"K.	c #315683",
"L.	c #000430",
"M.	c #829EC3",
"N.	c #03111E",
"O.	c #7BAEDD",
"P.	c #64A2DB",
"Q.	c #6D9BCD",
"R.	c #5C86B6",
"S.	c #0C3B71",
"T.	c #001549",
"U.	c #000F3E",
"V.	c #00103A",
"W.	c #001039",
"X.	c #001138",
"Y.	c #001036",
"Z.	c #000E36",
"`.	c #000E35",
" +	c #000D36",
".+	c #000C35",
"++	c #000B36",
"@+	c #001841",
"#+	c #00153F",
"$+	c #000F43",
"%+	c #000E48",
"&+	c #001551",
"*+	c #00174E",
"=+	c #00143F",
"-+	c #000F36",
";+	c #000730",
">+	c #001941",
",+	c #001030",
"'+	c #24323F",
")+	c #000D1A",
"!+	c #72A5D4",
"~+	c #63A1DA",
"{+	c #6896C8",
"]+	c #002A5A",
"^+	c #18477D",
"/+	c #658DBB",
"(+	c #7296BB",
"_+	c #8EB3DD",
":+	c #7998BB",
"<+	c #7B99BB",
"[+	c #7C98BB",
"}+	c #7D9BBB",
"|+	c #7E9ABB",
"1+	c #7E9BBB",
"2+	c #7F9BBB",
"3+	c #677E99",
"4+	c #667C99",
"5+	c #4E6177",
"6+	c #4D6177",
"7+	c #4C6077",
"8+	c #496177",
"9+	c #324555",
"0+	c #314355",
"a+	c #304055",
"b+	c #2D3F55",
"c+	c #172533",
"d+	c #274055",
"e+	c #1B2833",
"f+	c #1D2833",
"g+	c #324155",
"h+	c #202833",
"i+	c #1C2733",
"j+	c #192B3F",
"k+	c #595A52",
"l+	c #000B18",
"m+	c #84B7E6",
"n+	c #69A7E0",
"o+	c #5886B8",
"p+	c #001D4D",
"q+	c #76A5DB",
"r+	c #6EA4DD",
"s+	c #6EA7DD",
"t+	c #5B8DBB",
"u+	c #70A8DD",
"v+	c #608FBB",
"w+	c #6390BB",
"x+	c #638EBB",
"y+	c #527599",
"z+	c #517499",
"A+	c #507599",
"B+	c #3E5B77",
"C+	c #3C5A77",
"D+	c #3A5977",
"E+	c #283F55",
"F+	c #263F55",
"G+	c #263C55",
"H+	c #152333",
"I+	c #1E3A55",
"J+	c #112333",
"K+	c #132533",
"L+	c #233E55",
"M+	c #253C55",
"N+	c #243D55",
"O+	c #446888",
"P+	c #000D11",
"Q+	c #000815",
"R+	c #71A4D3",
"S+	c #5C9AD3",
"T+	c #000737",
"U+	c #81B0E6",
"V+	c #4D86BB",
"W+	c #4A87BB",
"X+	c #4C88BB",
"Y+	c #4F89BB",
"Z+	c #5188BB",
"`+	c #447099",
" @	c #365777",
".@	c #375877",
"+@	c #355777",
"@@	c #325677",
"#@	c #213D55",
"$@	c #203D55",
"%@	c #203C55",
"&@	c #122433",
"*@	c #1F3C55",
"=@	c #132233",
"-@	c #122133",
";@	c #0E2133",
">@	c #153855",
",@	c #0F2333",
"'@	c #102333",
")@	c #142333",
"!@	c #102033",
"~@	c #122233",
"{@	c #17436A",
"]@	c #00141F",
"^@	c #89BCEB",
"/@	c #67A5DE",
"(@	c #5F8DBF",
"_@	c #000838",
":@	c #89B8EE",
"<@	c #4881BB",
"[@	c #4883BB",
"}@	c #4685BB",
"|@	c #4786BB",
"1@	c #3D6C99",
"2@	c #3F6D99",
"3@	c #335677",
"4@	c #152433",
"5@	c #223C55",
"6@	c #132333",
"7@	c #122333",
"8@	c #132433",
"9@	c #142133",
"0@	c #0E2033",
"a@	c #0D2133",
"b@	c #102233",
"c@	c #183455",
"d@	c #101F33",
"e@	c #1E3955",
"f@	c #295477",
"g@	c #000F16",
"h@	c #797F7B",
"i@	c #000310",
"j@	c #62A0D9",
"k@	c #5E8DC3",
"l@	c #4680BB",
"m@	c #3C7EBB",
"n@	c #316799",
"o@	c #336799",
"p@	c #295177",
"q@	c #1F3B55",
"r@	c #203B55",
"s@	c #142433",
"t@	c #213C55",
"u@	c #2D5377",
"v@	c #1D3A55",
"w@	c #000000",
"x@	c #0F1F33",
"y@	c #091F33",
"z@	c #0B2133",
"A@	c #0D2033",
"B@	c #0D1F33",
"C@	c #0C1D33",
"D@	c #0F2033",
"E@	c #1A3755",
"F@	c #00050C",
"G@	c #7B807A",
"H@	c #000714",
"I@	c #5D8BBD",
"J@	c #000D3D",
"K@	c #547799",
"L@	c #425D77",
"M@	c #304255",
"N@	c #304355",
"O@	c #5B7B99",
"P@	c #7195BB",
"Q@	c #475F77",
"R@	c #324455",
"S@	c #455E77",
"T@	c #1C2833",
"U@	c #1B2733",
"V@	c #1A2733",
"W@	c #1A2533",
"X@	c #142533",
"Y@	c #162533",
"Z@	c #162433",
"`@	c #172433",
" #	c #0B1E33",
".#	c #000E19",
"+#	c #7D827E",
"@#	c #5B89BB",
"##	c #000B3B",
"$#	c #82B1E7",
"%#	c #4F7399",
"&#	c #3B5A77",
"*#	c #2A4055",
"=#	c #2B4055",
"-#	c #4F7599",
";#	c #537599",
">#	c #547699",
",#	c #2E4155",
"'#	c #102133",
")#	c #000716",
"!#	c #778182",
"~#	c #619FD8",
"{#	c #5987B9",
"]#	c #000939",
"^#	c #395777",
"/#	c #2E5477",
"(#	c #305577",
"_#	c #233D55",
":#	c #152533",
"<#	c #0C2133",
"[#	c #0A1E33",
"}#	c #091D33",
"|#	c #00091F",
"1#	c #609ED7",
"2#	c #273E55",
"3#	c #346899",
"4#	c #1F3955",
"5#	c #112233",
"6#	c #091E33",
"7#	c #081D33",
"8#	c #000B20",
"9#	c #75A8D7",
"0#	c #5E9CD5",
"a#	c #396899",
"b#	c #203A55",
"c#	c #213A55",
"d#	c #213B55",
"e#	c #2D5177",
"f#	c #122033",
"g#	c #0E2233",
"h#	c #0C1E33",
"i#	c #0B1F33",
"j#	c #000715",
"k#	c #81807B",
"l#	c #73A6D5",
"m#	c #5A98D1",
"n#	c #5684B6",
"o#	c #000C3C",
"p#	c #385777",
"q#	c #2C5177",
"r#	c #1D3955",
"s#	c #4780BB",
"t#	c #3C6999",
"u#	c #112033",
"v#	c #000610",
"w#	c #817D74",
"x#	c #5694CD",
"y#	c #5280B2",
"z#	c #000A3A",
"A#	c #112133",
"B#	c #376799",
"C#	c #5196DD",
"D#	c #5296DD",
"E#	c #1F3A55",
"F#	c #2B5077",
"G#	c #143655",
"H#	c #123655",
"I#	c #000A1B",
"J#	c #7F817E",
"K#	c #75A2CB",
"L#	c #5891C6",
"M#	c #4E7EAE",
"N#	c #345577",
"O#	c #3C7BBB",
"P#	c #336599",
"Q#	c #4B93DD",
"R#	c #4D94DD",
"S#	c #4F95DD",
"T#	c #437EBB",
"U#	c #0C2033",
"V#	c #173455",
"W#	c #1B4877",
"X#	c #194977",
"Y#	c #113455",
"Z#	c #071D33",
"`#	c #000923",
" $	c #7A8187",
".$	c #000616",
"+$	c #759AB7",
"@$	c #5787AF",
"#$	c #5489B5",
"$$	c #000C3E",
"%$	c #3E6D99",
"&$	c #306399",
"*$	c #306499",
"=$	c #4791DD",
"-$	c #53A8FF",
";$	c #4892DD",
">$	c #1B3855",
",$	c #0E1F33",
"'$	c #214977",
")$	c #1F4877",
"!$	c #1C4777",
"~$	c #123355",
"{$	c #00092C",
"]$	c #717F8C",
"^$	c #000819",
"/$	c #8BAAC6",
"($	c #5B86A9",
"_$	c #3C709F",
":$	c #002258",
"<$	c #549ADD",
"[$	c #4593DD",
"}$	c #2E6599",
"|$	c #397CBB",
"1$	c #4694DD",
"2$	c #316699",
"3$	c #0F2133",
"4$	c #204B77",
"5$	c #1C4977",
"6$	c #113255",
"7$	c #0F3355",
"8$	c #000C2E",
"9$	c #6F7F8C",
"0$	c #001225",
"a$	c #7897B4",
"b$	c #608AB2",
"c$	c #4B7FB1",
"d$	c #000B45",
"e$	c #66B2FF",
"f$	c #3D7BBB",
"g$	c #3E7BBB",
"h$	c #3F7CBB",
"i$	c #284F77",
"j$	c #0C2233",
"k$	c #1E4E77",
"l$	c #1D4E77",
"m$	c #1B4D77",
"n$	c #0A1F33",
"o$	c #081F33",
"p$	c #071F33",
"q$	c #174266",
"r$	c #000D23",
"s$	c #6F8183",
"t$	c #000419",
"u$	c #7B98B8",
"v$	c #557CA5",
"w$	c #336296",
"x$	c #001B59",
"y$	c #5595DD",
"z$	c #3C7ABB",
"A$	c #316499",
"B$	c #326599",
"C$	c #4992DD",
"D$	c #274E77",
"E$	c #143855",
"F$	c #1A4E77",
"G$	c #236399",
"H$	c #1C4D77",
"I$	c #0B2033",
"J$	c #0A2033",
"K$	c #154C77",
"L$	c #184366",
"M$	c #000C20",
"N$	c #728282",
"O$	c #04162C",
"P$	c #3F5A78",
"Q$	c #456892",
"R$	c #426B9F",
"S$	c #000846",
"T$	c #79AEF2",
"U$	c #5193DD",
"V$	c #418EDD",
"W$	c #3D90DD",
"X$	c #2B6499",
"Y$	c #2C6499",
"Z$	c #357ABB",
"`$	c #367ABB",
" %	c #183755",
".%	c #173755",
"+%	c #1E4C77",
"@%	c #194C77",
"#%	c #174B77",
"$%	c #113655",
"%%	c #123555",
"&%	c #123455",
"*%	c #103455",
"=%	c #154877",
"-%	c #184977",
";%	c #216299",
">%	c #000A24",
",%	c #738088",
"'%	c #051D39",
")%	c #2E4C70",
"!%	c #406494",
"~%	c #000A40",
"{%	c #6D9BD7",
"]%	c #649DDD",
"^%	c #438FDD",
"/%	c #3C8FDD",
"(%	c #3479BB",
"_%	c #347ABB",
":%	c #2A6399",
"<%	c #204D77",
"[%	c #163655",
"}%	c #1B4B77",
"|%	c #133555",
"1%	c #143455",
"2%	c #1B4677",
"3%	c #133355",
"4%	c #153555",
"5%	c #000927",
"6%	c #76808C",
"7%	c #ACBDD1",
"8%	c #031B37",
"9%	c #375378",
"0%	c #000F3A",
"a%	c #7397C7",
"b%	c #6FB3FF",
"c%	c #4690DD",
"d%	c #214D77",
"e%	c #1F4C77",
"f%	c #153455",
"g%	c #153355",
"h%	c #163455",
"i%	c #163255",
"j%	c #153155",
"k%	c #224A77",
"l%	c #306199",
"m%	c #000725",
"n%	c #777E8E",
"o%	c #AEBDD0",
"p%	c #000F28",
"q%	c #000423",
"r%	c #617B9C",
"s%	c #5B9BDD",
"t%	c #4995DD",
"u%	c #3F7FBB",
"v%	c #285177",
"w%	c #275077",
"x%	c #1C3955",
"y%	c #1B3955",
"z%	c #1A3955",
"A%	c #1A3655",
"B%	c #1B3655",
"C%	c #0E1E33",
"D%	c #284D77",
"E%	c #477DBB",
"F%	c #00061B",
"G%	c #797D88",
"H%	c #A2AFB8",
"I%	c #152330",
"J%	c #000B1C",
"K%	c #00091D",
"L%	c #000A1F",
"M%	c #000A21",
"N%	c #000B21",
"O%	c #000B22",
"P%	c #000C24",
"Q%	c #000B26",
"R%	c #000D25",
"S%	c #000A20",
"T%	c #000C1E",
"U%	c #02141E",
"V%	c #000A0C",
"W%	c #6E736D",
"X%	c #7C7F84",
"Y%	c #7E7F83",
"Z%	c #7E7F84",
"`%	c #7C8083",
" &	c #7B8083",
".&	c #798184",
"+&	c #788186",
"@&	c #778288",
"#&	c #75828A",
"$&	c #74838A",
"%&	c #75848B",
"&&	c #7D8C93",
"*&	c #758386",
"=&	c #6F797A",
"-&	c #777E77",
"              . + @ # $ % &                                                 ",
"            * = - ; > , ' ) !                                               ",
"          ~ { ] ^ / ( _ : < [ }                                             ",
"        | 1 2 3 4 5 6 7 8 9 0 a b                                           ",
"  c d e f g h i j k l m n o p q r s t u v w x y z z A B C D E F             ",
"G H I J K L M N O P Q R S T U V W X Y Z `  ...+.@.#.$.%.&.*.=.-.;.          ",
">.,.'.).!.~.{.].^./.(._.:.<.[.}.|.1.2.3.4.5.6.7.8.9.0.a.b.c.d.e.f.          ",
"g.h.i.j.k.l.m.n.o.p.p.q.r.s.t.u.v.w.x.y.z.A.B.C.D.E.F.G.H.I.J.K.L.M.        ",
"N.O.P.Q.R.S.T.U.V.W.W.X.Y.Y.Y.Y.Y.Z.`. +.+++ +@+#+$+%+&+*+=+-+;+>+,+'+      ",
")+!+~+{+]+^+/+(+_+:+<+[+}+|+1+2+3+3+4+5+6+7+8+9+0+a+b+c+d+e+f+g+h+i+j+k+    ",
"l+m+n+o+p+q+r+s+t+s+u+v+w+x+y+z+A+B+C+D+D+E+d+d+F+G+H+I+J+K+L+H+M+N+O+P+    ",
"Q+R+S+t.T+U+x+V+W+X+Y+Z+`+`+ @.@ @+@@@L+#@$@%@&@*@=@-@;@>@,@'@)@!@~@{@]@    ",
"l+^@/@(@_@:@<@[@}@|@1@2@3@3@N+N+N+4@5@6@&@7@7@7@8@9@-@0@a@,@b@c@d@e@f@g@h@  ",
"i@!+j@Q.T+k@l@m@n@o@p@q@r@s@t@s@t@u@q@v@b@b@b@w@w@w@x@w@y@z@A@B@C@D@E@F@G@  ",
"H@h.P.I@J@m@x+K@L@M@N@0+O@P@P@Q@R@R@S@N@N@T@U@V@w@W@w@w@X@w@Y@Z@`@Z@ #.#+#  ",
"Q+h.~+@###$#%#&#*#=#-#w+;#>#L@,#w@U@w@V@w@w@w@w@s@w@w@w@w@w@&@'#!@E@ #)#!#  ",
"Q+h.~#{#]#m@^#s@r@/#1@(#_#:#w@w@w@w@w@w@w@w@w@w@w@w@D@w@z@w@<#w@[#}# #|#    ",
"Q+h.1#{#]#%#2#q@3#v@7@~@w@w@6@w@6@4#7@J+5#w@w@w@w@D@w@w@w@<#w@ #6#7#E@8#    ",
"H@9#0#o+##%#2#a#p@~@~@w@b#c#d#)@d#e#e#~@w@w@w@w@w@w@f#D@w@w@g#w@h#i#E@j#k#  ",
"H@l#m#n#o#m@p#q#r#~@~@e#s#t#6@c#c#q#q#w@w@w@w@'@w@w@u#D@g#w@w@h# #i#E@v#w#  ",
"H@R+x#y#z#%#2#~@A#5#B#C#D#a#=@E#q#F#~@w@w@w@w@w@w@D@D@G#H#w@z@w@6#}# #I#J#  ",
")#K#L#M#z#m@N#r#O#P#Q#R#S#T#~@~@~@5#w@w@'#w@w@A@U#w@V#W#X#Y#w@}#7#Z# #`# $  ",
".$+$@$#$$$%#%$n@&$*$=$=$-$;$>$w@'#'#w@w@w@D@0@0@w@,$'$)$!$~$6#w@7#Z#E@{$]$  ",
"^$/$($_$:$m@<$[$}$&$|$=$1$=$2$'#w@'#w@3$3$w@0@a@A@A@4$)$5$6$}#w@}#7$ #8$9$  ",
"0$a$b$c$d$m@e$f$f$g$P#h$Q#Q#Q#i$A#w@'#w@'#'#3$w@j$k$k$l$m$n$o$p$y@q$E@r$s$  ",
"t$u$v$w$x$m@y$=$z$A$B$B$g$C$C$g$D$'#'#'#w@'#w@E$F$G$m$H$I$J$w@o$K$L$E@M$N$  ",
"O$P$Q$R$S$T$U$V$W$X$X$X$Y$Z$`$Z$`$X$ %.%.%.%+%@%#%$%%%i#&%*%7$=%-%;%=%>%,%  ",
"  '%)%!%~%{%]%^%/%(%_%X$X$.%X$X$_%_%X$:%<%<%[%}%%%|%1%1%1%2%3%W#4%4$=%5%6%  ",
"  7%8%9%0%a%b%c%(%_%X$X$X$X$d%.%d%d%.%d%<%<%e%4%f%g%h%i%i%j%h#h#k%l%=%m%n%  ",
"    o%p%q%r%s%C#t%t%u%3#v%v%v%w%x%x%x%y%y%y%z%'#A%!@!@B%D@C%B@c@D%E%=%F%G%  ",
"      H%I%d J%K%|#|#|#|#|#|#|#|#|#|#|#|#|#|#L%M%N%M%N%N%O%P%Q%R%S%T%U%V%W%  ",
"              X%Y%Z%Y%Z%Y%Z%Y%Z%Y%Z%Y%Z%Y%Z%Y%`% & &.&+&@&#&$&%&&&*&=&-&    ",
"                                                                            "};
