/* XPM */
static char * application_xpm[] = {
"31 28 11 1",
" 	c None",
".	c #000000",
"+	c #BCBCBC",
"@	c #7D7D7D",
"#	c #2A2A2A",
"$	c #151515",
"%	c #3E3E3E",
"&	c #929292",
"*	c #A7A7A7",
"=	c #686868",
"-	c #545454",
"...............................",
".+++++++++++++++++++++++++++++.",
".+++++++++++++++++++++++++++++.",
".++@..@+++@#.$@++++..%++++@..@.",
".+++@.+++&$&+@.*++++.@+++++@.+.",
".+++@.+++#=+++%=++++.@+++++@.+.",
".+++%%++*.++++@%+++@.++++++%%+.",
".+++%-++@%++++@%+++@$++++++%-+.",
".+++.@++@%++++=-+++%%++++++.@+.",
".+++.&++&$++++#@+++%-++++++.&+.",
".++@.++++$@++=$++++.@+++++@.++.",
".+=#.%+++@.##$*++&%.#&+++=#.%+.",
".+&@@@++++*@@++++*@@@*+++&@@@+.",
".+++++++++++++++++++++++++++++.",
".+++++++++++++++++++++++++++++.",
".++*%..-++++%..++++-$.#*+++@...",
".++$=+*$=++++%%+++-%*+%#++++@..",
".+=#+++@#++++%%++*.*+++.*+++@..",
".+#@++++.++++.@++=%++++%@+++%%.",
".+.+++++.++++.&++%@++++%@+++%-.",
".+.++++*$+++@.+++%@++++#&+++.@.",
".+$&+++=%+++@$+++--+++*.++++.&.",
".+-%++*.&+++%%+++&$*++#-+++@.+.",
".+*$$%.@+++%$$=+++%.%$%+++=#.%.",
".+++@@*++++@@@&++++&@&++++&@@@.",
".+++++++++++++++++++++++++++++.",
".+++++++++++++++++++++++++++++.",
"..............................."};
