/* XPM */
static char * audio_xpm[] = {
"31 28 143 2",
"  	c None",
". 	c #020000",
"+ 	c #010000",
"@ 	c #000000",
"# 	c #FFFEFE",
"$ 	c #FFFFFF",
"% 	c #FFFCFC",
"& 	c #FFE3E3",
"* 	c #C0C0C0",
"= 	c #919191",
"- 	c #FFFAFA",
"; 	c #FFBABA",
"> 	c #FF7777",
", 	c #FFC0C0",
"' 	c #535300",
") 	c #FFC2C2",
"! 	c #FF6E6E",
"~ 	c #FF9191",
"{ 	c #6E6E6E",
"] 	c #FFD3D3",
"^ 	c #FF9696",
"/ 	c #6E6E00",
"( 	c #6D6C00",
"_ 	c #919090",
": 	c #6B6B00",
"< 	c #B7B700",
"[ 	c #888700",
"} 	c #FFECEC",
"| 	c #676700",
"1 	c #B1B100",
"2 	c #E7E700",
"3 	c #808000",
"4 	c #FFE9E9",
"5 	c #FF7373",
"6 	c #646400",
"7 	c #AAAA00",
"8 	c #DEDE00",
"9 	c #DADA00",
"0 	c #797900",
"a 	c #FFF6F6",
"b 	c #606000",
"c 	c #A4A400",
"d 	c #D6D600",
"e 	c #D1D100",
"f 	c #CCCC00",
"g 	c #717100",
"h 	c #626200",
"i 	c #7F7F00",
"j 	c #7C7C00",
"k 	c #9E9E00",
"l 	c #CDCD00",
"m 	c #C8C800",
"n 	c #C4C400",
"o 	c #BFBF00",
"p 	c #696900",
"q 	c #7A7A00",
"r 	c #D3D300",
"s 	c #CECE00",
"t 	c #C9C900",
"u 	c #C0C000",
"v 	c #BBBB00",
"w 	c #B6B600",
"x 	c #B2B200",
"y 	c #727200",
"z 	c #C5C500",
"A 	c #C1C100",
"B 	c #BCBC00",
"C 	c #AEAE00",
"D 	c #A9A900",
"E 	c #5A5A00",
"F 	c #B8B800",
"G 	c #B3B300",
"H 	c #A5A500",
"I 	c #A0A000",
"J 	c #9C9C00",
"K 	c #979700",
"L 	c #636300",
"M 	c #ABAB00",
"N 	c #A6A600",
"O 	c #A1A100",
"P 	c #989800",
"Q 	c #939300",
"R 	c #8E8E00",
"S 	c #8A8A00",
"T 	c #4B4B00",
"U 	c #5C5C00",
"V 	c #9D9D00",
"W 	c #949400",
"X 	c #8F8F00",
"Y 	c #868600",
"Z 	c #818100",
"` 	c #444400",
" .	c #545400",
"..	c #909000",
"+.	c #8B8B00",
"@.	c #828200",
"#.	c #7D7D00",
"$.	c #787800",
"%.	c #747400",
"&.	c #6F6F00",
"*.	c #3C3C00",
"=.	c #4C4C00",
"-.	c #838300",
";.	c #7E7E00",
">.	c #707000",
",.	c #666600",
"'.	c #343400",
").	c #424200",
"!.	c #3F3F00",
"~.	c #3D3D00",
"{.	c #4D4D00",
"].	c #5E5E00",
"^.	c #595900",
"/.	c #2D2D00",
"(.	c #262600",
"_.	c #404000",
":.	c #505000",
"<.	c #474700",
"[.	c #252500",
"}.	c #1F1F00",
"|.	c #323200",
"1.	c #3E3E00",
"2.	c #3A3A00",
"3.	c #1E1E00",
"4.	c #FF7070",
"5.	c #171700",
"6.	c #242400",
"7.	c #2C2C00",
"8.	c #161600",
"9.	c #FFA4A4",
"0.	c #FFC1C1",
"a.	c #0F0F00",
"b.	c #171600",
"c.	c #0E0E00",
"d.	c #FFFDFD",
"e.	c #070700",
"f.	c #050500",
"g.	c #FFA2A2",
"h.	c #FF7272",
"i.	c #FFF9F9",
"j.	c #FFD7D7",
"k.	c #220000",
"l.	c #370000",
". + + + + + + + + + @ @ @ @ @ @ @ + + + + + + + + @ @ @ @ @ @ ",
"+ # # $ $ $ $ $ $ $ $ $ $ $ $ $ # # # $ $ $ # # % & $ $ $ $ @ ",
"+ $ $ $ $ $ $ $ $ $ $ * = * $ $ # # # # $ $ $ - ; > , $ $ $ @ ",
"+ $ $ $ $ $ $ $ $ $ $ = ' = $ $ $ # # # # $ $ $ ) ! ~ $ $ $ @ ",
"+ $ $ $ # # $ $ $ $ * { ' = $ $ $ $ % ] ^ ) $ $ $ ~ ! , $ $ @ ",
"@ $ $ $ $ $ $ $ $ * { / ( _ # $ $ $ $ , ! ! , $ $ , ! ~ $ $ @ ",
"@ $ $ $ $ # $ $ * { : < [ _ # } $ $ $ $ , ! ~ $ $ $ ~ ! , $ @ ",
"@ $ $ $ $ $ $ * { | 1 2 3 _ 4 5 , $ $ $ $ ~ ! , $ $ , ! ~ $ @ ",
"@ $ $ $ $ $ * { 6 7 8 9 0 = a ! ! , $ $ $ , ! ~ $ $ $ ~ ~ $ @ ",
"@ $ * = = = { b c d e f g = $ , ! ~ $ $ $ $ ~ ~ $ $ $ ~ ! , @ ",
"+ $ = h i j 0 k l m n o p = $ $ ~ ! , $ $ $ ~ ! , $ $ , ! ~ @ ",
"+ $ = q r s t n u v w x h = $ $ , ! ~ $ $ $ , ! ~ $ $ $ ~ ~ @ ",
"+ $ = y z A B < x C D c E = $ $ $ ~ ~ $ $ $ $ ~ ~ $ $ $ ~ ~ @ ",
"+ $ = : F G C 7 H I J K ' = $ $ $ ~ ~ $ $ $ $ ~ ~ $ $ $ ~ ~ @ ",
"+ $ = L M N O J P Q R S T = $ $ $ ~ ~ $ $ $ $ ~ ~ $ $ $ ~ ~ @ ",
"+ $ = U V P W X S Y Z j ` = $ $ $ ~ ~ $ $ $ $ ~ ~ $ $ $ ~ ~ @ ",
"@ $ =  ...+.Y @.#.$.%.&.*.= $ $ $ ~ ~ $ $ $ $ ~ ~ $ $ $ ~ ~ @ ",
"@ $ = =.-.;.0 %.>.: ,.h '.= $ $ , ! ~ $ $ $ , ! ~ $ $ $ ~ ~ @ ",
"@ $ = '.).!.~.{.h ].^. ./.= $ $ ~ ! , $ $ $ ~ ! , $ $ , ! ~ @ ",
"@ $ * = = = { (._.:.=.<.[.= $ , ! ~ $ $ $ $ ~ ~ $ $ $ ~ ! , @ ",
"@ $ $ $ $ $ * { }.|.1.2.3.= % 4.! , $ $ $ , ! ~ $ $ $ ~ ~ $ @ ",
"+ $ # # $ $ $ * { 5.6.7.8.= - 9.0.$ $ $ $ ~ ! , $ $ , ! ~ $ @ ",
"+ # # # $ $ $ $ * { a.b.c.= $ d.$ $ $ $ , ! ~ $ $ $ ~ ! , $ @ ",
"+ $ # $ $ $ $ $ $ * { e.f.= $ $ $ $ $ , ! ! , $ $ , ! ~ $ $ @ ",
"+ $ $ $ $ $ $ $ $ $ * { @ = $ $ $ $ d.g.h., $ $ $ ~ ! , $ $ @ ",
"+ $ $ $ $ $ $ $ $ $ $ = @ = $ $ $ # # # i.$ $ $ , ! ~ $ $ $ @ ",
"+ $ $ $ $ $ $ $ $ $ $ * = * $ $ # # # # $ $ $ j.h.! , $ $ $ @ ",
"+ + + + + + @ @ @ @ @ + @ @ + + + + + + + @ + + k.l.@ @ @ @ @ "};
