/* XPM */
static char * MIME_image_xpm[] = {
"31 28 24 1",
" 	c None",
".	c #000000",
"+	c #04D4EF",
"@	c #FFFF79",
"#	c #FFFF20",
"$	c #FFFF00",
"%	c #32DBF1",
"&	c #BBF3FA",
"*	c #F9FDFE",
"=	c #96EDF8",
"-	c #FFFFFF",
";	c #FFFF3E",
">	c #E0F9FD",
",	c #CAF6FB",
"'	c #2EDBF1",
")	c #C2F4FB",
"!	c #EAFBFD",
"~	c #FF0000",
"{	c #62E4F5",
"]	c #8CEBF7",
"^	c #EA9B09",
"/	c #039AA5",
"(	c #32B532",
"_	c #B73737",
"...............................",
".++++++++++++++++++++++@#$#@++.",
".+%&**&%+++++++++=-=++;$$$$$;+.",
".+>---->,,+')-)'+---+@$$$$$$$@.",
".+>---->--!----)+=-=+#$$$$$$$#.",
".+%&**&%!-------+++++$$$$$$$$$.",
".+++++~~!------)+++++#$$$$$$$#.",
".+++++~~{!!])-)'+++++@$$$$$$$@.",
".++++^~~^^^^^^^^^^^^^^;$$$$$;+.",
".++++^~~^^^^^^^^^^^^^^+@#$#@++.",
".+++^^^^^^^^^^^^^^^^^^^+++++++.",
".+++^^^^^^^^^^^^^^^^^^^++{!!{+.",
".++^^^^^^^^^^^^^^^^^^^^^+!--!+.",
".++^^^^^^^^^^^^^^^^^^^^^+!---+.",
".++++~~~~~~~~~~~~~~~~~+++{!--+.",
".++++~~////~///~////~~++++++++.",
".++++~~////~///~////~~++++++++.",
".++++~~////~///~////~~++++++++.",
".((((~~~~~~~~~~~~~~~~~((((((((.",
".((((~~////~___~////~~((((((((.",
".((((~~////~___~////~~((((((((.",
".((((~~////~___~////~~((((((((.",
".((((~~~~~~~___~~~~~~~((((((((.",
".((((~~~~~~~___~~~~~~~((((((((.",
".(((((((((((((((((((((((((((((.",
".(((((((((((((((((((((((((((((.",
".(((((((((((((((((((((((((((((.",
"..............................."};
