/* XPM */
static char * MIME_text_xpm[] = {
"31 28 11 1",
" 	c None",
".	c #000000",
"+	c #FFFFFF",
"@	c #8E8E8E",
"#	c #555555",
"$	c #C7C7C7",
"%	c #727272",
"&	c #1D1D1D",
"*	c #AAAAAA",
"=	c #E3E3E3",
"-	c #393939",
"...............................",
".+++++++++++++++++++++++++++++.",
".+++++++++++++++++++++++++++++.",
".+++++++++++++++++++++++++++++.",
".+++++++++++++++++++++++++++++.",
".+++++++++++++++++++++++++++++.",
".+++++++++++++++++++++++++++++.",
".+++++++++++++++++++++++++++++.",
".+++++++++++++++++++++++++++++.",
".+@######+++++++++++++++++++$+.",
".+#%@.%%&++++++++++++++++++#@+.",
".+%$*.+$@++++++++++++++++++.*+.",
".+++@.++++=%..&*++-.&+%..$...#.",
".+++##++++&#=+@.*++&%+*&=+*.++.",
".+++-#+++@&++++%-++$.@&=++@#++.",
".+++.*+++#&####-.+++-.=+++##++.",
".++$.*+++#-******++*&.$+++-*++.",
".++*.++++*.$++=$++*&=@&+++.*++.",
".+$-.%++++%.##.@+%.#+@.-++&-%+.",
".+$**$+++++=**=++**$+$**++=*=+.",
".+++++++++++++++++++++++++++++.",
".+++++++++++++++++++++++++++++.",
".+++++++++++++++++++++++++++++.",
".+++++++++++++++++++++++++++++.",
".+++++++++++++++++++++++++++++.",
".+++++++++++++++++++++++++++++.",
".+++++++++++++++++++++++++++++.",
"..............................."};
