/* XPM */
static char * video_xpm[] = {
"27 28 12 1",
" 	c None",
".	c #999999",
"+	c #C4C4C4",
"@	c #888888",
"#	c #666666",
"$	c #444444",
"%	c #111111",
"&	c #333333",
"*	c #222222",
"=	c #000000",
"-	c #555555",
";	c #777777",
".  .+.................+.  .",
"....+.................+....",
".  .+.................+.  .",
".  .+.................+.  .",
"....+........@#.......+....",
".  .+.$%&*#&#@=.......+.  .",
".  .+.#-.;@#..&.#;#@#@+.  .",
"....+.$*-.@=.;$.*-$&#&+....",
".  .+.&....&.##.%.-#.&+.  .",
".  .+.%...#-.&;.&.&@##+.  .",
"....+-&;..$&@&--&;&;$$+....",
".  .+.................+.  .",
".  .+.................+.  .",
"....+.................+....",
".  .+.................+.  .",
".  .+++++++++++++++++++.  .",
"...........................",
".  .+++++++++++++++++++.  .",
".  .+.................+.  .",
"....+.................+....",
".  .+.................+.  .",
".  .+.................+.  .",
"....+........@#.......+....",
".  .+.$%&*#&#@=.......+.  .",
".  .+.#-.;@#..&.#;#@#@+.  .",
"....+.$*-.@=.;$.*-$&#&+....",
".  .+.&....&.##.%.-#.&+.  .",
".  .+.%...#-.&;.&.&@##+.  ."};
